G04 #@! TF.FileFunction,Legend,Bot*
%FSLAX46Y46*%
G04 Gerber Fmt 4.6, Leading zero omitted, Abs format (unit mm)*
G04 Created by KiCad (PCBNEW 4.0.6) date 10/14/17 15:28:18*
%MOMM*%
%LPD*%
G01*
G04 APERTURE LIST*
%ADD10C,0.100000*%
%ADD11C,1.400000*%
%ADD12R,1.400000X1.400000*%
%ADD13C,2.000000*%
%ADD14O,3.410000X1.910000*%
%ADD15O,2.000000X2.000000*%
%ADD16C,3.600000*%
G04 APERTURE END LIST*
D10*
%LPC*%
D11*
X185438080Y-116346260D03*
X184168080Y-115076260D03*
D12*
X186708080Y-115076260D03*
D13*
X171744940Y-99932780D03*
X169244940Y-99932780D03*
X187348160Y-95421740D03*
X189848160Y-95421740D03*
X191135300Y-120735380D03*
X191135300Y-123235380D03*
X167531080Y-74616600D03*
X167531080Y-72116600D03*
X178633420Y-127220000D03*
X181133420Y-127220000D03*
X178113990Y-68288190D03*
X180613990Y-68288190D03*
X186504880Y-136076980D03*
X186504880Y-133576980D03*
X173020020Y-59460420D03*
X173020020Y-61960420D03*
D14*
X160619740Y-95706220D03*
X160619740Y-98246220D03*
X160619740Y-100786220D03*
X160619740Y-104535260D03*
X160619740Y-107075260D03*
X160619740Y-109615260D03*
X197939960Y-96879700D03*
X197939960Y-94339700D03*
X197939960Y-91799700D03*
D11*
X169331940Y-121253540D03*
X168061940Y-122523540D03*
D12*
X168061940Y-119983540D03*
D11*
X189601140Y-74045100D03*
X190871140Y-72775100D03*
D12*
X190871140Y-75315100D03*
D11*
X185471100Y-109652360D03*
X186741100Y-110922360D03*
D12*
X184201100Y-110922360D03*
D11*
X173416260Y-85426840D03*
X172146260Y-84156840D03*
D12*
X174686260Y-84156840D03*
D11*
X191105600Y-109652360D03*
X192375600Y-110922360D03*
D12*
X189835600Y-110922360D03*
D11*
X167292320Y-85431920D03*
X166022320Y-84161920D03*
D12*
X168562320Y-84161920D03*
D11*
X180840680Y-113280480D03*
X179570680Y-114550480D03*
D12*
X179570680Y-112010480D03*
D11*
X177848560Y-82025780D03*
X179118560Y-80755780D03*
D12*
X179118560Y-83295780D03*
D11*
X191107360Y-116342360D03*
X189837360Y-115072360D03*
D12*
X192377360Y-115072360D03*
D11*
X167294860Y-78718700D03*
X168564860Y-79988700D03*
D12*
X166024860Y-79988700D03*
D11*
X173403560Y-78733940D03*
X174673560Y-80003940D03*
D12*
X172133560Y-80003940D03*
D11*
X196619160Y-121172260D03*
X197889160Y-122442260D03*
D12*
X195349160Y-122442260D03*
D11*
X185448240Y-121162100D03*
X186718240Y-122432100D03*
D12*
X184178240Y-122432100D03*
D11*
X179839920Y-121172260D03*
X181109920Y-122442260D03*
D12*
X178569920Y-122442260D03*
D11*
X174226520Y-121195120D03*
X175496520Y-122465120D03*
D12*
X172956520Y-122465120D03*
D11*
X161150600Y-74255920D03*
X159880600Y-72985920D03*
D12*
X162420600Y-72985920D03*
D11*
X173401020Y-74207660D03*
X172131020Y-72937660D03*
D12*
X174671020Y-72937660D03*
D11*
X179220160Y-74227980D03*
X177950160Y-72957980D03*
D12*
X180490160Y-72957980D03*
D11*
X185003740Y-74255920D03*
X183733740Y-72985920D03*
D12*
X186273740Y-72985920D03*
D11*
X185445600Y-127562360D03*
X186715600Y-128832360D03*
D12*
X184175600Y-128832360D03*
D11*
X174239220Y-127547660D03*
X175509220Y-128817660D03*
D12*
X172969220Y-128817660D03*
D11*
X173432770Y-68054510D03*
X172162770Y-66784510D03*
D12*
X174702770Y-66784510D03*
D11*
X184954210Y-67998630D03*
X183684210Y-66728630D03*
D12*
X186224210Y-66728630D03*
D11*
X191075600Y-127562360D03*
X192345600Y-128832360D03*
D12*
X189805600Y-128832360D03*
D11*
X168557240Y-127537500D03*
X169827240Y-128807500D03*
D12*
X167287240Y-128807500D03*
D11*
X167349470Y-68110390D03*
X166079470Y-66840390D03*
D12*
X168619470Y-66840390D03*
D11*
X190587930Y-68008790D03*
X189317930Y-66738790D03*
D12*
X191857930Y-66738790D03*
D11*
X191105600Y-134292360D03*
X189835600Y-133022360D03*
D12*
X192375600Y-133022360D03*
D11*
X168557240Y-134380260D03*
X167287240Y-133110260D03*
D12*
X169827240Y-133110260D03*
D11*
X167357090Y-61226990D03*
X168627090Y-62496990D03*
D12*
X166087090Y-62496990D03*
D11*
X190587930Y-61293030D03*
X191857930Y-62563030D03*
D12*
X189317930Y-62563030D03*
D13*
X169278600Y-104535260D03*
D15*
X179438600Y-104535260D03*
D13*
X189674800Y-99785460D03*
D15*
X179514800Y-99785460D03*
D13*
X189801800Y-90997060D03*
D15*
X179641800Y-90997060D03*
D13*
X169354800Y-95264260D03*
D15*
X179514800Y-95264260D03*
D13*
X175897840Y-115363280D03*
D15*
X165737840Y-115363280D03*
D13*
X162834620Y-123392220D03*
D15*
X162834620Y-113232220D03*
D13*
X182471360Y-79998860D03*
D15*
X192631360Y-79998860D03*
D13*
X196027340Y-73760620D03*
D15*
X196027340Y-83920620D03*
D13*
X179380180Y-108025220D03*
D15*
X169220180Y-108025220D03*
D13*
X179542740Y-87522340D03*
D15*
X189702740Y-87522340D03*
D13*
X199875440Y-103476080D03*
D15*
X189715440Y-103476080D03*
D13*
X158549640Y-91436480D03*
D15*
X168709640Y-91436480D03*
D13*
X175849580Y-111741240D03*
D15*
X165689580Y-111741240D03*
D13*
X182471360Y-83854580D03*
D15*
X192631360Y-83854580D03*
D13*
X199428400Y-116742500D03*
D15*
X199428400Y-106582500D03*
D13*
X159095740Y-78266580D03*
D15*
X159095740Y-88426580D03*
D13*
X199801780Y-127181900D03*
D15*
X199801780Y-137341900D03*
D13*
X159080500Y-68589180D03*
D15*
X159080500Y-58429180D03*
D13*
X195963840Y-116742500D03*
D15*
X195963840Y-106582500D03*
D13*
X159400540Y-123338880D03*
D15*
X159400540Y-113178880D03*
D13*
X162644120Y-88492620D03*
D15*
X162644120Y-78332620D03*
D13*
X199603660Y-73760620D03*
D15*
X199603660Y-83920620D03*
D13*
X195849540Y-137306340D03*
D15*
X195849540Y-127146340D03*
D13*
X162763500Y-127220000D03*
D15*
X162763500Y-137380000D03*
D13*
X162611100Y-58335200D03*
D15*
X162611100Y-68495200D03*
D13*
X196071790Y-71031390D03*
D15*
X196071790Y-60871390D03*
D13*
X173373080Y-133394740D03*
D15*
X183533080Y-133394740D03*
D13*
X185872420Y-62477940D03*
D15*
X175712420Y-62477940D03*
D13*
X173345140Y-136887240D03*
D15*
X183505140Y-136887240D03*
D13*
X185872420Y-58901620D03*
D15*
X175712420Y-58901620D03*
D16*
X205000000Y-140000000D03*
X155000000Y-140000000D03*
X155000000Y-55000000D03*
X205000000Y-55000000D03*
M02*
