%FSLAX45Y45*%
G04 Gerber Fmt 4.5, Leading zero omitted, Abs format (unit mm)*
G04 Created by KiCad (PCBNEW 4.0.6) date 10/14/17 15:25:13*
%MOMM*%
%LPD*%
G01*
G04 APERTURE LIST*
%ADD10C,0.127000*%
%ADD11C,0.150000*%
%ADD12C,0.200000*%
%ADD13C,0.300000*%
G04 APERTURE END LIST*
D10*
D11*
X15500000Y-5000000D02*
G75*
G03X15000000Y-5500000I0J-500000D01*
G01*
X21000000Y-5500000D02*
G75*
G03X20500000Y-5000000I-500000J0D01*
G01*
X15500000Y-5000000D02*
X20500000Y-5000000D01*
X15500000Y-14500000D02*
X20500000Y-14500000D01*
X15000000Y-14000000D02*
G75*
G03X15500000Y-14500000I500000J0D01*
G01*
X20500000Y-14500000D02*
G75*
G03X21000000Y-14000000I0J500000D01*
G01*
X21000000Y-5500000D02*
X21000000Y-14000000D01*
X15000000Y-14000000D02*
X15000000Y-5500000D01*
D12*
X16064580Y-8118570D02*
X16104580Y-8158570D01*
X16104580Y-8118570D02*
X16064580Y-8158570D01*
X16683070Y-10172160D02*
X16723070Y-10212160D01*
X16723070Y-10172160D02*
X16683070Y-10212160D01*
X16862140Y-7004780D02*
X16902140Y-7044780D01*
X16902140Y-7004780D02*
X16862140Y-7044780D01*
X17455230Y-10812240D02*
X17495230Y-10852240D01*
X17495230Y-10812240D02*
X17455230Y-10852240D01*
X17593660Y-8823420D02*
X17633660Y-8863420D01*
X17633660Y-8823420D02*
X17593660Y-8863420D01*
X17733360Y-10181050D02*
X17773360Y-10221050D01*
X17773360Y-10181050D02*
X17733360Y-10221050D01*
X18165160Y-11117040D02*
X18205160Y-11157040D01*
X18205160Y-11117040D02*
X18165160Y-11157040D01*
X18353374Y-7278592D02*
X18393374Y-7318592D01*
X18393374Y-7278592D02*
X18353374Y-7318592D01*
X18536000Y-9400000D02*
X18576000Y-9440000D01*
X18576000Y-9400000D02*
X18536000Y-9440000D01*
X18536000Y-10289000D02*
X18576000Y-10329000D01*
X18576000Y-10289000D02*
X18536000Y-10329000D01*
X19243390Y-12545790D02*
X19283390Y-12585790D01*
X19283390Y-12545790D02*
X19243390Y-12585790D01*
X19524060Y-6800310D02*
X19564060Y-6840310D01*
X19564060Y-6800310D02*
X19524060Y-6840310D01*
X19789490Y-13429710D02*
X19829490Y-13469710D01*
X19829490Y-13429710D02*
X19789490Y-13469710D01*
X16018060Y-7298592D02*
G75*
G03X16018060Y-7298592I-30000J0D01*
G01*
X16145060Y-7425592D02*
G75*
G03X16145060Y-7425592I-30000J0D01*
G01*
X16272060Y-7298592D02*
G75*
G03X16272060Y-7298592I-30000J0D01*
G01*
X16632232Y-8416192D02*
G75*
G03X16632232Y-8416192I-30000J0D01*
G01*
X16632486Y-7998870D02*
G75*
G03X16632486Y-7998870I-30000J0D01*
G01*
X16637947Y-6684039D02*
G75*
G03X16637947Y-6684039I-30000J0D01*
G01*
X16638709Y-6249699D02*
G75*
G03X16638709Y-6249699I-30000J0D01*
G01*
X16758724Y-12880750D02*
G75*
G03X16758724Y-12880750I-30000J0D01*
G01*
X16758724Y-13311026D02*
G75*
G03X16758724Y-13311026I-30000J0D01*
G01*
X16759232Y-8543192D02*
G75*
G03X16759232Y-8543192I-30000J0D01*
G01*
X16759486Y-7871870D02*
G75*
G03X16759486Y-7871870I-30000J0D01*
G01*
X16764947Y-6811039D02*
G75*
G03X16764947Y-6811039I-30000J0D01*
G01*
X16765709Y-6122699D02*
G75*
G03X16765709Y-6122699I-30000J0D01*
G01*
X16836194Y-11998354D02*
G75*
G03X16836194Y-11998354I-30000J0D01*
G01*
X16836194Y-12252354D02*
G75*
G03X16836194Y-12252354I-30000J0D01*
G01*
X16885724Y-12753750D02*
G75*
G03X16885724Y-12753750I-30000J0D01*
G01*
X16885724Y-13438026D02*
G75*
G03X16885724Y-13438026I-30000J0D01*
G01*
X16886232Y-8416192D02*
G75*
G03X16886232Y-8416192I-30000J0D01*
G01*
X16886486Y-7998870D02*
G75*
G03X16886486Y-7998870I-30000J0D01*
G01*
X16891947Y-6684039D02*
G75*
G03X16891947Y-6684039I-30000J0D01*
G01*
X16892709Y-6249699D02*
G75*
G03X16892709Y-6249699I-30000J0D01*
G01*
X16963194Y-12125354D02*
G75*
G03X16963194Y-12125354I-30000J0D01*
G01*
X17012724Y-12880750D02*
G75*
G03X17012724Y-12880750I-30000J0D01*
G01*
X17012724Y-13311026D02*
G75*
G03X17012724Y-13311026I-30000J0D01*
G01*
X17243102Y-7293766D02*
G75*
G03X17243102Y-7293766I-30000J0D01*
G01*
X17243356Y-8000394D02*
G75*
G03X17243356Y-8000394I-30000J0D01*
G01*
X17244626Y-8415684D02*
G75*
G03X17244626Y-8415684I-30000J0D01*
G01*
X17246277Y-6678451D02*
G75*
G03X17246277Y-6678451I-30000J0D01*
G01*
X17325652Y-12246512D02*
G75*
G03X17325652Y-12246512I-30000J0D01*
G01*
X17326922Y-12881766D02*
G75*
G03X17326922Y-12881766I-30000J0D01*
G01*
X17370102Y-7420766D02*
G75*
G03X17370102Y-7420766I-30000J0D01*
G01*
X17370356Y-7873394D02*
G75*
G03X17370356Y-7873394I-30000J0D01*
G01*
X17371626Y-8542684D02*
G75*
G03X17371626Y-8542684I-30000J0D01*
G01*
X17373277Y-6805451D02*
G75*
G03X17373277Y-6805451I-30000J0D01*
G01*
X17452652Y-12119512D02*
G75*
G03X17452652Y-12119512I-30000J0D01*
G01*
X17453922Y-12754766D02*
G75*
G03X17453922Y-12754766I-30000J0D01*
G01*
X17497102Y-7293766D02*
G75*
G03X17497102Y-7293766I-30000J0D01*
G01*
X17497356Y-8000394D02*
G75*
G03X17497356Y-8000394I-30000J0D01*
G01*
X17498626Y-8415684D02*
G75*
G03X17498626Y-8415684I-30000J0D01*
G01*
X17500277Y-6678451D02*
G75*
G03X17500277Y-6678451I-30000J0D01*
G01*
X17579652Y-12246512D02*
G75*
G03X17579652Y-12246512I-30000J0D01*
G01*
X17580922Y-12881766D02*
G75*
G03X17580922Y-12881766I-30000J0D01*
G01*
X17814856Y-8202578D02*
G75*
G03X17814856Y-8202578I-30000J0D01*
G01*
X17825016Y-7295798D02*
G75*
G03X17825016Y-7295798I-30000J0D01*
G01*
X17886992Y-12244226D02*
G75*
G03X17886992Y-12244226I-30000J0D01*
G01*
X17941856Y-8075578D02*
G75*
G03X17941856Y-8075578I-30000J0D01*
G01*
X17941856Y-8329578D02*
G75*
G03X17941856Y-8329578I-30000J0D01*
G01*
X17952016Y-7422798D02*
G75*
G03X17952016Y-7422798I-30000J0D01*
G01*
X17987068Y-11201048D02*
G75*
G03X17987068Y-11201048I-30000J0D01*
G01*
X17987068Y-11455048D02*
G75*
G03X17987068Y-11455048I-30000J0D01*
G01*
X18013992Y-12117226D02*
G75*
G03X18013992Y-12117226I-30000J0D01*
G01*
X18079016Y-7295798D02*
G75*
G03X18079016Y-7295798I-30000J0D01*
G01*
X18114068Y-11328048D02*
G75*
G03X18114068Y-11328048I-30000J0D01*
G01*
X18140992Y-12244226D02*
G75*
G03X18140992Y-12244226I-30000J0D01*
G01*
X18398421Y-6672863D02*
G75*
G03X18398421Y-6672863I-30000J0D01*
G01*
X18403374Y-7298592D02*
G75*
G03X18403374Y-7298592I-30000J0D01*
G01*
X18446808Y-11507626D02*
G75*
G03X18446808Y-11507626I-30000J0D01*
G01*
X18447560Y-12883236D02*
G75*
G03X18447560Y-12883236I-30000J0D01*
G01*
X18447824Y-12243210D02*
G75*
G03X18447824Y-12243210I-30000J0D01*
G01*
X18450110Y-11092236D02*
G75*
G03X18450110Y-11092236I-30000J0D01*
G01*
X18525421Y-6799863D02*
G75*
G03X18525421Y-6799863I-30000J0D01*
G01*
X18530374Y-7425592D02*
G75*
G03X18530374Y-7425592I-30000J0D01*
G01*
X18573808Y-11634626D02*
G75*
G03X18573808Y-11634626I-30000J0D01*
G01*
X18574560Y-12756236D02*
G75*
G03X18574560Y-12756236I-30000J0D01*
G01*
X18574824Y-12116210D02*
G75*
G03X18574824Y-12116210I-30000J0D01*
G01*
X18577110Y-10965236D02*
G75*
G03X18577110Y-10965236I-30000J0D01*
G01*
X18652421Y-6672863D02*
G75*
G03X18652421Y-6672863I-30000J0D01*
G01*
X18657374Y-7298592D02*
G75*
G03X18657374Y-7298592I-30000J0D01*
G01*
X18700808Y-11507626D02*
G75*
G03X18700808Y-11507626I-30000J0D01*
G01*
X18701560Y-12883236D02*
G75*
G03X18701560Y-12883236I-30000J0D01*
G01*
X18701824Y-12243210D02*
G75*
G03X18701824Y-12243210I-30000J0D01*
G01*
X18704110Y-11092236D02*
G75*
G03X18704110Y-11092236I-30000J0D01*
G01*
X18961793Y-6256303D02*
G75*
G03X18961793Y-6256303I-30000J0D01*
G01*
X18961793Y-6673879D02*
G75*
G03X18961793Y-6673879I-30000J0D01*
G01*
X18990114Y-7404510D02*
G75*
G03X18990114Y-7404510I-30000J0D01*
G01*
X19010560Y-12883236D02*
G75*
G03X19010560Y-12883236I-30000J0D01*
G01*
X19013560Y-11092236D02*
G75*
G03X19013560Y-11092236I-30000J0D01*
G01*
X19013560Y-13302236D02*
G75*
G03X19013560Y-13302236I-30000J0D01*
G01*
X19013736Y-11507236D02*
G75*
G03X19013736Y-11507236I-30000J0D01*
G01*
X19088793Y-6129303D02*
G75*
G03X19088793Y-6129303I-30000J0D01*
G01*
X19088793Y-6800879D02*
G75*
G03X19088793Y-6800879I-30000J0D01*
G01*
X19117114Y-7277510D02*
G75*
G03X19117114Y-7277510I-30000J0D01*
G01*
X19117114Y-7531510D02*
G75*
G03X19117114Y-7531510I-30000J0D01*
G01*
X19137560Y-12756236D02*
G75*
G03X19137560Y-12756236I-30000J0D01*
G01*
X19140560Y-10965236D02*
G75*
G03X19140560Y-10965236I-30000J0D01*
G01*
X19140560Y-13429236D02*
G75*
G03X19140560Y-13429236I-30000J0D01*
G01*
X19140736Y-11634236D02*
G75*
G03X19140736Y-11634236I-30000J0D01*
G01*
X19215793Y-6256303D02*
G75*
G03X19215793Y-6256303I-30000J0D01*
G01*
X19215793Y-6673879D02*
G75*
G03X19215793Y-6673879I-30000J0D01*
G01*
X19264560Y-12883236D02*
G75*
G03X19264560Y-12883236I-30000J0D01*
G01*
X19267560Y-11092236D02*
G75*
G03X19267560Y-11092236I-30000J0D01*
G01*
X19267560Y-13302236D02*
G75*
G03X19267560Y-13302236I-30000J0D01*
G01*
X19267736Y-11507236D02*
G75*
G03X19267736Y-11507236I-30000J0D01*
G01*
X19564916Y-12244226D02*
G75*
G03X19564916Y-12244226I-30000J0D01*
G01*
X19691916Y-12117226D02*
G75*
G03X19691916Y-12117226I-30000J0D01*
G01*
X19818916Y-12244226D02*
G75*
G03X19818916Y-12244226I-30000J0D01*
G01*
X15854964Y-9103648D02*
X15854964Y-9183648D01*
X15814964Y-9143648D02*
X15894964Y-9143648D01*
X15908050Y-5802918D02*
X15908050Y-5882918D01*
X15868050Y-5842918D02*
X15948050Y-5842918D01*
X15908050Y-6818918D02*
X15908050Y-6898918D01*
X15868050Y-6858918D02*
X15948050Y-6858918D01*
X15909574Y-7786658D02*
X15909574Y-7866658D01*
X15869574Y-7826658D02*
X15949574Y-7826658D01*
X15909574Y-8802658D02*
X15909574Y-8882658D01*
X15869574Y-8842658D02*
X15949574Y-8842658D01*
X15940054Y-11277888D02*
X15940054Y-11357888D01*
X15900054Y-11317888D02*
X15980054Y-11317888D01*
X15940054Y-12293888D02*
X15940054Y-12373888D01*
X15900054Y-12333888D02*
X15980054Y-12333888D01*
X16261110Y-5793520D02*
X16261110Y-5873520D01*
X16221110Y-5833520D02*
X16301110Y-5833520D01*
X16261110Y-6809520D02*
X16261110Y-6889520D01*
X16221110Y-6849520D02*
X16301110Y-6849520D01*
X16264412Y-7793262D02*
X16264412Y-7873262D01*
X16224412Y-7833262D02*
X16304412Y-7833262D01*
X16264412Y-8809262D02*
X16264412Y-8889262D01*
X16224412Y-8849262D02*
X16304412Y-8849262D01*
X16276350Y-12682000D02*
X16276350Y-12762000D01*
X16236350Y-12722000D02*
X16316350Y-12722000D01*
X16276350Y-13698000D02*
X16276350Y-13778000D01*
X16236350Y-13738000D02*
X16316350Y-13738000D01*
X16283462Y-11283222D02*
X16283462Y-11363222D01*
X16243462Y-11323222D02*
X16323462Y-11323222D01*
X16283462Y-12299222D02*
X16283462Y-12379222D01*
X16243462Y-12339222D02*
X16323462Y-12339222D01*
X16568958Y-11134124D02*
X16568958Y-11214124D01*
X16528958Y-11174124D02*
X16608958Y-11174124D01*
X16573784Y-11496328D02*
X16573784Y-11576328D01*
X16533784Y-11536328D02*
X16613784Y-11536328D01*
X16753108Y-7171660D02*
X16753108Y-7251660D01*
X16713108Y-7211660D02*
X16793108Y-7211660D01*
X16753108Y-7421660D02*
X16753108Y-7501660D01*
X16713108Y-7461660D02*
X16793108Y-7461660D01*
X16870964Y-9103648D02*
X16870964Y-9183648D01*
X16830964Y-9143648D02*
X16910964Y-9143648D01*
X16922018Y-10762522D02*
X16922018Y-10842522D01*
X16882018Y-10802522D02*
X16962018Y-10802522D01*
X16924494Y-9953278D02*
X16924494Y-10033278D01*
X16884494Y-9993278D02*
X16964494Y-9993278D01*
X16927860Y-10413526D02*
X16927860Y-10493526D01*
X16887860Y-10453526D02*
X16967860Y-10453526D01*
X16935480Y-9486426D02*
X16935480Y-9566426D01*
X16895480Y-9526426D02*
X16975480Y-9526426D01*
X17174494Y-9953278D02*
X17174494Y-10033278D01*
X17134494Y-9993278D02*
X17214494Y-9993278D01*
X17302002Y-5906042D02*
X17302002Y-5986042D01*
X17262002Y-5946042D02*
X17342002Y-5946042D01*
X17302002Y-6156042D02*
X17302002Y-6236042D01*
X17262002Y-6196042D02*
X17342002Y-6196042D01*
X17334514Y-13648724D02*
X17334514Y-13728724D01*
X17294514Y-13688724D02*
X17374514Y-13688724D01*
X17337308Y-13299474D02*
X17337308Y-13379474D01*
X17297308Y-13339474D02*
X17377308Y-13339474D01*
X17571242Y-5850162D02*
X17571242Y-5930162D01*
X17531242Y-5890162D02*
X17611242Y-5890162D01*
X17571242Y-6207794D02*
X17571242Y-6287794D01*
X17531242Y-6247794D02*
X17611242Y-6247794D01*
X17584958Y-11134124D02*
X17584958Y-11214124D01*
X17544958Y-11174124D02*
X17624958Y-11174124D01*
X17589784Y-11496328D02*
X17589784Y-11576328D01*
X17549784Y-11536328D02*
X17629784Y-11536328D01*
X17811399Y-6788819D02*
X17811399Y-6868819D01*
X17771399Y-6828819D02*
X17851399Y-6828819D01*
X17863342Y-12682000D02*
X17863342Y-12762000D01*
X17823342Y-12722000D02*
X17903342Y-12722000D01*
X17938018Y-10762522D02*
X17938018Y-10842522D01*
X17898018Y-10802522D02*
X17978018Y-10802522D01*
X17943860Y-10413526D02*
X17943860Y-10493526D01*
X17903860Y-10453526D02*
X17983860Y-10453526D01*
X17951480Y-9486426D02*
X17951480Y-9566426D01*
X17911480Y-9526426D02*
X17991480Y-9526426D01*
X17951480Y-9938546D02*
X17951480Y-10018546D01*
X17911480Y-9978546D02*
X17991480Y-9978546D01*
X17954274Y-8712234D02*
X17954274Y-8792234D01*
X17914274Y-8752234D02*
X17994274Y-8752234D01*
X17964180Y-9059706D02*
X17964180Y-9139706D01*
X17924180Y-9099706D02*
X18004180Y-9099706D01*
X18061399Y-6788819D02*
X18061399Y-6868819D01*
X18021399Y-6828819D02*
X18101399Y-6828819D01*
X18113342Y-12682000D02*
X18113342Y-12762000D01*
X18073342Y-12722000D02*
X18153342Y-12722000D01*
X18247136Y-7959886D02*
X18247136Y-8039886D01*
X18207136Y-7999886D02*
X18287136Y-7999886D01*
X18247136Y-8345458D02*
X18247136Y-8425458D01*
X18207136Y-8385458D02*
X18287136Y-8385458D01*
X18350514Y-13648724D02*
X18350514Y-13728724D01*
X18310514Y-13688724D02*
X18390514Y-13688724D01*
X18353308Y-13299474D02*
X18353308Y-13379474D01*
X18313308Y-13339474D02*
X18393308Y-13339474D01*
X18587242Y-5850162D02*
X18587242Y-5930162D01*
X18547242Y-5890162D02*
X18627242Y-5890162D01*
X18587242Y-6207794D02*
X18587242Y-6287794D01*
X18547242Y-6247794D02*
X18627242Y-6247794D01*
X18650488Y-13317698D02*
X18650488Y-13397698D01*
X18610488Y-13357698D02*
X18690488Y-13357698D01*
X18650488Y-13567698D02*
X18650488Y-13647698D01*
X18610488Y-13607698D02*
X18690488Y-13607698D01*
X18734816Y-9502174D02*
X18734816Y-9582174D01*
X18694816Y-9542174D02*
X18774816Y-9542174D01*
X18967480Y-9938546D02*
X18967480Y-10018546D01*
X18927480Y-9978546D02*
X19007480Y-9978546D01*
X18970274Y-8712234D02*
X18970274Y-8792234D01*
X18930274Y-8752234D02*
X19010274Y-8752234D01*
X18971544Y-10307608D02*
X18971544Y-10387608D01*
X18931544Y-10347608D02*
X19011544Y-10347608D01*
X18980180Y-9059706D02*
X18980180Y-9139706D01*
X18940180Y-9099706D02*
X19020180Y-9099706D01*
X18984816Y-9502174D02*
X18984816Y-9582174D01*
X18944816Y-9542174D02*
X19024816Y-9542174D01*
X19113530Y-12033538D02*
X19113530Y-12113538D01*
X19073530Y-12073538D02*
X19153530Y-12073538D01*
X19113530Y-12283538D02*
X19113530Y-12363538D01*
X19073530Y-12323538D02*
X19153530Y-12323538D01*
X19263136Y-7959886D02*
X19263136Y-8039886D01*
X19223136Y-7999886D02*
X19303136Y-7999886D01*
X19263136Y-8345458D02*
X19263136Y-8425458D01*
X19223136Y-8385458D02*
X19303136Y-8385458D01*
X19584954Y-12674634D02*
X19584954Y-12754634D01*
X19544954Y-12714634D02*
X19624954Y-12714634D01*
X19584954Y-13690634D02*
X19584954Y-13770634D01*
X19544954Y-13730634D02*
X19624954Y-13730634D01*
X19596384Y-10618250D02*
X19596384Y-10698250D01*
X19556384Y-10658250D02*
X19636384Y-10658250D01*
X19596384Y-11634250D02*
X19596384Y-11714250D01*
X19556384Y-11674250D02*
X19636384Y-11674250D01*
X19602734Y-7336062D02*
X19602734Y-7416062D01*
X19562734Y-7376062D02*
X19642734Y-7376062D01*
X19602734Y-8352062D02*
X19602734Y-8432062D01*
X19562734Y-8392062D02*
X19642734Y-8392062D01*
X19607179Y-6047139D02*
X19607179Y-6127139D01*
X19567179Y-6087139D02*
X19647179Y-6087139D01*
X19607179Y-7063139D02*
X19607179Y-7143139D01*
X19567179Y-7103139D02*
X19647179Y-7103139D01*
X19942840Y-10618250D02*
X19942840Y-10698250D01*
X19902840Y-10658250D02*
X19982840Y-10658250D01*
X19942840Y-11634250D02*
X19942840Y-11714250D01*
X19902840Y-11674250D02*
X19982840Y-11674250D01*
X19960366Y-7336062D02*
X19960366Y-7416062D01*
X19920366Y-7376062D02*
X20000366Y-7376062D01*
X19960366Y-8352062D02*
X19960366Y-8432062D01*
X19920366Y-8392062D02*
X20000366Y-8392062D01*
X19980178Y-12678190D02*
X19980178Y-12758190D01*
X19940178Y-12718190D02*
X20020178Y-12718190D01*
X19980178Y-13694190D02*
X19980178Y-13774190D01*
X19940178Y-13734190D02*
X20020178Y-13734190D01*
X19987544Y-10307608D02*
X19987544Y-10387608D01*
X19947544Y-10347608D02*
X20027544Y-10347608D01*
X16097330Y-9605978D02*
X16097330Y-9535266D01*
X16026618Y-9535266D01*
X16026618Y-9605978D01*
X16097330Y-9605978D01*
X16097330Y-9859978D02*
X16097330Y-9789266D01*
X16026618Y-9789266D01*
X16026618Y-9859978D01*
X16097330Y-9859978D01*
X16097330Y-10113978D02*
X16097330Y-10043266D01*
X16026618Y-10043266D01*
X16026618Y-10113978D01*
X16097330Y-10113978D01*
X16097330Y-10488882D02*
X16097330Y-10418170D01*
X16026618Y-10418170D01*
X16026618Y-10488882D01*
X16097330Y-10488882D01*
X16097330Y-10742882D02*
X16097330Y-10672170D01*
X16026618Y-10672170D01*
X16026618Y-10742882D01*
X16097330Y-10742882D01*
X16097330Y-10996882D02*
X16097330Y-10926170D01*
X16026618Y-10926170D01*
X16026618Y-10996882D01*
X16097330Y-10996882D01*
X19829352Y-9215326D02*
X19829352Y-9144614D01*
X19758640Y-9144614D01*
X19758640Y-9215326D01*
X19829352Y-9215326D01*
X19829352Y-9469326D02*
X19829352Y-9398614D01*
X19758640Y-9398614D01*
X19758640Y-9469326D01*
X19829352Y-9469326D01*
X19829352Y-9723326D02*
X19829352Y-9652614D01*
X19758640Y-9652614D01*
X19758640Y-9723326D01*
X19829352Y-9723326D01*
D13*
X15263928Y-14973214D02*
X15263928Y-14673214D01*
X15335357Y-14673214D01*
X15378214Y-14687500D01*
X15406786Y-14716071D01*
X15421071Y-14744643D01*
X15435357Y-14801786D01*
X15435357Y-14844643D01*
X15421071Y-14901786D01*
X15406786Y-14930357D01*
X15378214Y-14958929D01*
X15335357Y-14973214D01*
X15263928Y-14973214D01*
X15563928Y-14973214D02*
X15563928Y-14773214D01*
X15563928Y-14830357D02*
X15578214Y-14801786D01*
X15592500Y-14787500D01*
X15621071Y-14773214D01*
X15649643Y-14773214D01*
X15749643Y-14973214D02*
X15749643Y-14773214D01*
X15749643Y-14673214D02*
X15735357Y-14687500D01*
X15749643Y-14701786D01*
X15763928Y-14687500D01*
X15749643Y-14673214D01*
X15749643Y-14701786D01*
X15935357Y-14973214D02*
X15906786Y-14958929D01*
X15892500Y-14930357D01*
X15892500Y-14673214D01*
X16092500Y-14973214D02*
X16063928Y-14958929D01*
X16049643Y-14930357D01*
X16049643Y-14673214D01*
X16435357Y-14973214D02*
X16435357Y-14673214D01*
X16535357Y-14887500D01*
X16635357Y-14673214D01*
X16635357Y-14973214D01*
X16906786Y-14973214D02*
X16906786Y-14816071D01*
X16892500Y-14787500D01*
X16863929Y-14773214D01*
X16806786Y-14773214D01*
X16778214Y-14787500D01*
X16906786Y-14958929D02*
X16878214Y-14973214D01*
X16806786Y-14973214D01*
X16778214Y-14958929D01*
X16763928Y-14930357D01*
X16763928Y-14901786D01*
X16778214Y-14873214D01*
X16806786Y-14858929D01*
X16878214Y-14858929D01*
X16906786Y-14844643D01*
X17049643Y-14773214D02*
X17049643Y-15073214D01*
X17049643Y-14787500D02*
X17078214Y-14773214D01*
X17135357Y-14773214D01*
X17163929Y-14787500D01*
X17178214Y-14801786D01*
X17192500Y-14830357D01*
X17192500Y-14916071D01*
X17178214Y-14944643D01*
X17163929Y-14958929D01*
X17135357Y-14973214D01*
X17078214Y-14973214D01*
X17049643Y-14958929D01*
X17321071Y-14944643D02*
X17335357Y-14958929D01*
X17321071Y-14973214D01*
X17306786Y-14958929D01*
X17321071Y-14944643D01*
X17321071Y-14973214D01*
X17321071Y-14787500D02*
X17335357Y-14801786D01*
X17321071Y-14816071D01*
X17306786Y-14801786D01*
X17321071Y-14787500D01*
X17321071Y-14816071D01*
X14952500Y-15447500D02*
X14992500Y-15487500D01*
X14992500Y-15447500D02*
X14952500Y-15487500D01*
X15321071Y-15303214D02*
X15349643Y-15303214D01*
X15378214Y-15317500D01*
X15392500Y-15331786D01*
X15406786Y-15360357D01*
X15421071Y-15417500D01*
X15421071Y-15488929D01*
X15406786Y-15546071D01*
X15392500Y-15574643D01*
X15378214Y-15588929D01*
X15349643Y-15603214D01*
X15321071Y-15603214D01*
X15292500Y-15588929D01*
X15278214Y-15574643D01*
X15263928Y-15546071D01*
X15249643Y-15488929D01*
X15249643Y-15417500D01*
X15263928Y-15360357D01*
X15278214Y-15331786D01*
X15292500Y-15317500D01*
X15321071Y-15303214D01*
X15549643Y-15574643D02*
X15563928Y-15588929D01*
X15549643Y-15603214D01*
X15535357Y-15588929D01*
X15549643Y-15574643D01*
X15549643Y-15603214D01*
X15821071Y-15403214D02*
X15821071Y-15603214D01*
X15749643Y-15288929D02*
X15678214Y-15503214D01*
X15863928Y-15503214D01*
X16035357Y-15303214D02*
X16063928Y-15303214D01*
X16092500Y-15317500D01*
X16106786Y-15331786D01*
X16121071Y-15360357D01*
X16135357Y-15417500D01*
X16135357Y-15488929D01*
X16121071Y-15546071D01*
X16106786Y-15574643D01*
X16092500Y-15588929D01*
X16063928Y-15603214D01*
X16035357Y-15603214D01*
X16006786Y-15588929D01*
X15992500Y-15574643D01*
X15978214Y-15546071D01*
X15963928Y-15488929D01*
X15963928Y-15417500D01*
X15978214Y-15360357D01*
X15992500Y-15331786D01*
X16006786Y-15317500D01*
X16035357Y-15303214D01*
X16263928Y-15603214D02*
X16263928Y-15403214D01*
X16263928Y-15431786D02*
X16278214Y-15417500D01*
X16306786Y-15403214D01*
X16349643Y-15403214D01*
X16378214Y-15417500D01*
X16392500Y-15446071D01*
X16392500Y-15603214D01*
X16392500Y-15446071D02*
X16406786Y-15417500D01*
X16435357Y-15403214D01*
X16478214Y-15403214D01*
X16506786Y-15417500D01*
X16521071Y-15446071D01*
X16521071Y-15603214D01*
X16663928Y-15603214D02*
X16663928Y-15403214D01*
X16663928Y-15431786D02*
X16678214Y-15417500D01*
X16706786Y-15403214D01*
X16749643Y-15403214D01*
X16778214Y-15417500D01*
X16792500Y-15446071D01*
X16792500Y-15603214D01*
X16792500Y-15446071D02*
X16806786Y-15417500D01*
X16835357Y-15403214D01*
X16878214Y-15403214D01*
X16906786Y-15417500D01*
X16921071Y-15446071D01*
X16921071Y-15603214D01*
X17506786Y-15288929D02*
X17249643Y-15674643D01*
X17892500Y-15303214D02*
X17921071Y-15303214D01*
X17949643Y-15317500D01*
X17963928Y-15331786D01*
X17978214Y-15360357D01*
X17992500Y-15417500D01*
X17992500Y-15488929D01*
X17978214Y-15546071D01*
X17963928Y-15574643D01*
X17949643Y-15588929D01*
X17921071Y-15603214D01*
X17892500Y-15603214D01*
X17863928Y-15588929D01*
X17849643Y-15574643D01*
X17835357Y-15546071D01*
X17821071Y-15488929D01*
X17821071Y-15417500D01*
X17835357Y-15360357D01*
X17849643Y-15331786D01*
X17863928Y-15317500D01*
X17892500Y-15303214D01*
X18121071Y-15574643D02*
X18135357Y-15588929D01*
X18121071Y-15603214D01*
X18106786Y-15588929D01*
X18121071Y-15574643D01*
X18121071Y-15603214D01*
X18321071Y-15303214D02*
X18349643Y-15303214D01*
X18378214Y-15317500D01*
X18392500Y-15331786D01*
X18406786Y-15360357D01*
X18421071Y-15417500D01*
X18421071Y-15488929D01*
X18406786Y-15546071D01*
X18392500Y-15574643D01*
X18378214Y-15588929D01*
X18349643Y-15603214D01*
X18321071Y-15603214D01*
X18292500Y-15588929D01*
X18278214Y-15574643D01*
X18263928Y-15546071D01*
X18249643Y-15488929D01*
X18249643Y-15417500D01*
X18263928Y-15360357D01*
X18278214Y-15331786D01*
X18292500Y-15317500D01*
X18321071Y-15303214D01*
X18706786Y-15603214D02*
X18535357Y-15603214D01*
X18621071Y-15603214D02*
X18621071Y-15303214D01*
X18592500Y-15346071D01*
X18563928Y-15374643D01*
X18535357Y-15388929D01*
X18963928Y-15303214D02*
X18906786Y-15303214D01*
X18878214Y-15317500D01*
X18863928Y-15331786D01*
X18835357Y-15374643D01*
X18821071Y-15431786D01*
X18821071Y-15546071D01*
X18835357Y-15574643D01*
X18849643Y-15588929D01*
X18878214Y-15603214D01*
X18935357Y-15603214D01*
X18963928Y-15588929D01*
X18978214Y-15574643D01*
X18992500Y-15546071D01*
X18992500Y-15474643D01*
X18978214Y-15446071D01*
X18963928Y-15431786D01*
X18935357Y-15417500D01*
X18878214Y-15417500D01*
X18849643Y-15431786D01*
X18835357Y-15446071D01*
X18821071Y-15474643D01*
X19106786Y-15303214D02*
X19106786Y-15360357D01*
X19221071Y-15303214D02*
X19221071Y-15360357D01*
X19663928Y-15717500D02*
X19649643Y-15703214D01*
X19621071Y-15660357D01*
X19606786Y-15631786D01*
X19592500Y-15588929D01*
X19578214Y-15517500D01*
X19578214Y-15460357D01*
X19592500Y-15388929D01*
X19606786Y-15346071D01*
X19621071Y-15317500D01*
X19649643Y-15274643D01*
X19663928Y-15260357D01*
X19935357Y-15603214D02*
X19763928Y-15603214D01*
X19849643Y-15603214D02*
X19849643Y-15303214D01*
X19821071Y-15346071D01*
X19792500Y-15374643D01*
X19763928Y-15388929D01*
X20035357Y-15303214D02*
X20221071Y-15303214D01*
X20121071Y-15417500D01*
X20163928Y-15417500D01*
X20192500Y-15431786D01*
X20206786Y-15446071D01*
X20221071Y-15474643D01*
X20221071Y-15546071D01*
X20206786Y-15574643D01*
X20192500Y-15588929D01*
X20163928Y-15603214D01*
X20078214Y-15603214D01*
X20049643Y-15588929D01*
X20035357Y-15574643D01*
X20578214Y-15603214D02*
X20578214Y-15303214D01*
X20706786Y-15603214D02*
X20706786Y-15446071D01*
X20692500Y-15417500D01*
X20663928Y-15403214D01*
X20621071Y-15403214D01*
X20592500Y-15417500D01*
X20578214Y-15431786D01*
X20892500Y-15603214D02*
X20863928Y-15588929D01*
X20849643Y-15574643D01*
X20835357Y-15546071D01*
X20835357Y-15460357D01*
X20849643Y-15431786D01*
X20863928Y-15417500D01*
X20892500Y-15403214D01*
X20935357Y-15403214D01*
X20963928Y-15417500D01*
X20978214Y-15431786D01*
X20992500Y-15460357D01*
X20992500Y-15546071D01*
X20978214Y-15574643D01*
X20963928Y-15588929D01*
X20935357Y-15603214D01*
X20892500Y-15603214D01*
X21163928Y-15603214D02*
X21135357Y-15588929D01*
X21121071Y-15560357D01*
X21121071Y-15303214D01*
X21392500Y-15588929D02*
X21363929Y-15603214D01*
X21306786Y-15603214D01*
X21278214Y-15588929D01*
X21263929Y-15560357D01*
X21263929Y-15446071D01*
X21278214Y-15417500D01*
X21306786Y-15403214D01*
X21363929Y-15403214D01*
X21392500Y-15417500D01*
X21406786Y-15446071D01*
X21406786Y-15474643D01*
X21263929Y-15503214D01*
X21521071Y-15588929D02*
X21549643Y-15603214D01*
X21606786Y-15603214D01*
X21635357Y-15588929D01*
X21649643Y-15560357D01*
X21649643Y-15546071D01*
X21635357Y-15517500D01*
X21606786Y-15503214D01*
X21563929Y-15503214D01*
X21535357Y-15488929D01*
X21521071Y-15460357D01*
X21521071Y-15446071D01*
X21535357Y-15417500D01*
X21563929Y-15403214D01*
X21606786Y-15403214D01*
X21635357Y-15417500D01*
X21749643Y-15717500D02*
X21763929Y-15703214D01*
X21792500Y-15660357D01*
X21806786Y-15631786D01*
X21821071Y-15588929D01*
X21835357Y-15517500D01*
X21835357Y-15460357D01*
X21821071Y-15388929D01*
X21806786Y-15346071D01*
X21792500Y-15317500D01*
X21763929Y-15274643D01*
X21749643Y-15260357D01*
X14992500Y-15863500D02*
G75*
G03X14992500Y-15863500I-30000J0D01*
G01*
X15321071Y-15699214D02*
X15349643Y-15699214D01*
X15378214Y-15713500D01*
X15392500Y-15727786D01*
X15406786Y-15756357D01*
X15421071Y-15813500D01*
X15421071Y-15884929D01*
X15406786Y-15942071D01*
X15392500Y-15970643D01*
X15378214Y-15984929D01*
X15349643Y-15999214D01*
X15321071Y-15999214D01*
X15292500Y-15984929D01*
X15278214Y-15970643D01*
X15263928Y-15942071D01*
X15249643Y-15884929D01*
X15249643Y-15813500D01*
X15263928Y-15756357D01*
X15278214Y-15727786D01*
X15292500Y-15713500D01*
X15321071Y-15699214D01*
X15549643Y-15970643D02*
X15563928Y-15984929D01*
X15549643Y-15999214D01*
X15535357Y-15984929D01*
X15549643Y-15970643D01*
X15549643Y-15999214D01*
X15821071Y-15699214D02*
X15763928Y-15699214D01*
X15735357Y-15713500D01*
X15721071Y-15727786D01*
X15692500Y-15770643D01*
X15678214Y-15827786D01*
X15678214Y-15942071D01*
X15692500Y-15970643D01*
X15706786Y-15984929D01*
X15735357Y-15999214D01*
X15792500Y-15999214D01*
X15821071Y-15984929D01*
X15835357Y-15970643D01*
X15849643Y-15942071D01*
X15849643Y-15870643D01*
X15835357Y-15842071D01*
X15821071Y-15827786D01*
X15792500Y-15813500D01*
X15735357Y-15813500D01*
X15706786Y-15827786D01*
X15692500Y-15842071D01*
X15678214Y-15870643D01*
X16035357Y-15699214D02*
X16063928Y-15699214D01*
X16092500Y-15713500D01*
X16106786Y-15727786D01*
X16121071Y-15756357D01*
X16135357Y-15813500D01*
X16135357Y-15884929D01*
X16121071Y-15942071D01*
X16106786Y-15970643D01*
X16092500Y-15984929D01*
X16063928Y-15999214D01*
X16035357Y-15999214D01*
X16006786Y-15984929D01*
X15992500Y-15970643D01*
X15978214Y-15942071D01*
X15963928Y-15884929D01*
X15963928Y-15813500D01*
X15978214Y-15756357D01*
X15992500Y-15727786D01*
X16006786Y-15713500D01*
X16035357Y-15699214D01*
X16263928Y-15999214D02*
X16263928Y-15799214D01*
X16263928Y-15827786D02*
X16278214Y-15813500D01*
X16306786Y-15799214D01*
X16349643Y-15799214D01*
X16378214Y-15813500D01*
X16392500Y-15842071D01*
X16392500Y-15999214D01*
X16392500Y-15842071D02*
X16406786Y-15813500D01*
X16435357Y-15799214D01*
X16478214Y-15799214D01*
X16506786Y-15813500D01*
X16521071Y-15842071D01*
X16521071Y-15999214D01*
X16663928Y-15999214D02*
X16663928Y-15799214D01*
X16663928Y-15827786D02*
X16678214Y-15813500D01*
X16706786Y-15799214D01*
X16749643Y-15799214D01*
X16778214Y-15813500D01*
X16792500Y-15842071D01*
X16792500Y-15999214D01*
X16792500Y-15842071D02*
X16806786Y-15813500D01*
X16835357Y-15799214D01*
X16878214Y-15799214D01*
X16906786Y-15813500D01*
X16921071Y-15842071D01*
X16921071Y-15999214D01*
X17506786Y-15684929D02*
X17249643Y-16070643D01*
X17892500Y-15699214D02*
X17921071Y-15699214D01*
X17949643Y-15713500D01*
X17963928Y-15727786D01*
X17978214Y-15756357D01*
X17992500Y-15813500D01*
X17992500Y-15884929D01*
X17978214Y-15942071D01*
X17963928Y-15970643D01*
X17949643Y-15984929D01*
X17921071Y-15999214D01*
X17892500Y-15999214D01*
X17863928Y-15984929D01*
X17849643Y-15970643D01*
X17835357Y-15942071D01*
X17821071Y-15884929D01*
X17821071Y-15813500D01*
X17835357Y-15756357D01*
X17849643Y-15727786D01*
X17863928Y-15713500D01*
X17892500Y-15699214D01*
X18121071Y-15970643D02*
X18135357Y-15984929D01*
X18121071Y-15999214D01*
X18106786Y-15984929D01*
X18121071Y-15970643D01*
X18121071Y-15999214D01*
X18321071Y-15699214D02*
X18349643Y-15699214D01*
X18378214Y-15713500D01*
X18392500Y-15727786D01*
X18406786Y-15756357D01*
X18421071Y-15813500D01*
X18421071Y-15884929D01*
X18406786Y-15942071D01*
X18392500Y-15970643D01*
X18378214Y-15984929D01*
X18349643Y-15999214D01*
X18321071Y-15999214D01*
X18292500Y-15984929D01*
X18278214Y-15970643D01*
X18263928Y-15942071D01*
X18249643Y-15884929D01*
X18249643Y-15813500D01*
X18263928Y-15756357D01*
X18278214Y-15727786D01*
X18292500Y-15713500D01*
X18321071Y-15699214D01*
X18535357Y-15727786D02*
X18549643Y-15713500D01*
X18578214Y-15699214D01*
X18649643Y-15699214D01*
X18678214Y-15713500D01*
X18692500Y-15727786D01*
X18706786Y-15756357D01*
X18706786Y-15784929D01*
X18692500Y-15827786D01*
X18521071Y-15999214D01*
X18706786Y-15999214D01*
X18963928Y-15799214D02*
X18963928Y-15999214D01*
X18892500Y-15684929D02*
X18821071Y-15899214D01*
X19006786Y-15899214D01*
X19106786Y-15699214D02*
X19106786Y-15756357D01*
X19221071Y-15699214D02*
X19221071Y-15756357D01*
X19663928Y-16113500D02*
X19649643Y-16099214D01*
X19621071Y-16056357D01*
X19606786Y-16027786D01*
X19592500Y-15984929D01*
X19578214Y-15913500D01*
X19578214Y-15856357D01*
X19592500Y-15784929D01*
X19606786Y-15742071D01*
X19621071Y-15713500D01*
X19649643Y-15670643D01*
X19663928Y-15656357D01*
X19792500Y-15999214D02*
X19849643Y-15999214D01*
X19878214Y-15984929D01*
X19892500Y-15970643D01*
X19921071Y-15927786D01*
X19935357Y-15870643D01*
X19935357Y-15756357D01*
X19921071Y-15727786D01*
X19906786Y-15713500D01*
X19878214Y-15699214D01*
X19821071Y-15699214D01*
X19792500Y-15713500D01*
X19778214Y-15727786D01*
X19763928Y-15756357D01*
X19763928Y-15827786D01*
X19778214Y-15856357D01*
X19792500Y-15870643D01*
X19821071Y-15884929D01*
X19878214Y-15884929D01*
X19906786Y-15870643D01*
X19921071Y-15856357D01*
X19935357Y-15827786D01*
X20192500Y-15699214D02*
X20135357Y-15699214D01*
X20106786Y-15713500D01*
X20092500Y-15727786D01*
X20063928Y-15770643D01*
X20049643Y-15827786D01*
X20049643Y-15942071D01*
X20063928Y-15970643D01*
X20078214Y-15984929D01*
X20106786Y-15999214D01*
X20163928Y-15999214D01*
X20192500Y-15984929D01*
X20206786Y-15970643D01*
X20221071Y-15942071D01*
X20221071Y-15870643D01*
X20206786Y-15842071D01*
X20192500Y-15827786D01*
X20163928Y-15813500D01*
X20106786Y-15813500D01*
X20078214Y-15827786D01*
X20063928Y-15842071D01*
X20049643Y-15870643D01*
X20578214Y-15999214D02*
X20578214Y-15699214D01*
X20706786Y-15999214D02*
X20706786Y-15842071D01*
X20692500Y-15813500D01*
X20663928Y-15799214D01*
X20621071Y-15799214D01*
X20592500Y-15813500D01*
X20578214Y-15827786D01*
X20892500Y-15999214D02*
X20863928Y-15984929D01*
X20849643Y-15970643D01*
X20835357Y-15942071D01*
X20835357Y-15856357D01*
X20849643Y-15827786D01*
X20863928Y-15813500D01*
X20892500Y-15799214D01*
X20935357Y-15799214D01*
X20963928Y-15813500D01*
X20978214Y-15827786D01*
X20992500Y-15856357D01*
X20992500Y-15942071D01*
X20978214Y-15970643D01*
X20963928Y-15984929D01*
X20935357Y-15999214D01*
X20892500Y-15999214D01*
X21163928Y-15999214D02*
X21135357Y-15984929D01*
X21121071Y-15956357D01*
X21121071Y-15699214D01*
X21392500Y-15984929D02*
X21363929Y-15999214D01*
X21306786Y-15999214D01*
X21278214Y-15984929D01*
X21263929Y-15956357D01*
X21263929Y-15842071D01*
X21278214Y-15813500D01*
X21306786Y-15799214D01*
X21363929Y-15799214D01*
X21392500Y-15813500D01*
X21406786Y-15842071D01*
X21406786Y-15870643D01*
X21263929Y-15899214D01*
X21521071Y-15984929D02*
X21549643Y-15999214D01*
X21606786Y-15999214D01*
X21635357Y-15984929D01*
X21649643Y-15956357D01*
X21649643Y-15942071D01*
X21635357Y-15913500D01*
X21606786Y-15899214D01*
X21563929Y-15899214D01*
X21535357Y-15884929D01*
X21521071Y-15856357D01*
X21521071Y-15842071D01*
X21535357Y-15813500D01*
X21563929Y-15799214D01*
X21606786Y-15799214D01*
X21635357Y-15813500D01*
X21749643Y-16113500D02*
X21763929Y-16099214D01*
X21792500Y-16056357D01*
X21806786Y-16027786D01*
X21821071Y-15984929D01*
X21835357Y-15913500D01*
X21835357Y-15856357D01*
X21821071Y-15784929D01*
X21806786Y-15742071D01*
X21792500Y-15713500D01*
X21763929Y-15670643D01*
X21749643Y-15656357D01*
X14952500Y-16219500D02*
X14952500Y-16299500D01*
X14912500Y-16259500D02*
X14992500Y-16259500D01*
X15321071Y-16095214D02*
X15349643Y-16095214D01*
X15378214Y-16109500D01*
X15392500Y-16123786D01*
X15406786Y-16152357D01*
X15421071Y-16209500D01*
X15421071Y-16280929D01*
X15406786Y-16338071D01*
X15392500Y-16366643D01*
X15378214Y-16380929D01*
X15349643Y-16395214D01*
X15321071Y-16395214D01*
X15292500Y-16380929D01*
X15278214Y-16366643D01*
X15263928Y-16338071D01*
X15249643Y-16280929D01*
X15249643Y-16209500D01*
X15263928Y-16152357D01*
X15278214Y-16123786D01*
X15292500Y-16109500D01*
X15321071Y-16095214D01*
X15549643Y-16366643D02*
X15563928Y-16380929D01*
X15549643Y-16395214D01*
X15535357Y-16380929D01*
X15549643Y-16366643D01*
X15549643Y-16395214D01*
X15735357Y-16223786D02*
X15706786Y-16209500D01*
X15692500Y-16195214D01*
X15678214Y-16166643D01*
X15678214Y-16152357D01*
X15692500Y-16123786D01*
X15706786Y-16109500D01*
X15735357Y-16095214D01*
X15792500Y-16095214D01*
X15821071Y-16109500D01*
X15835357Y-16123786D01*
X15849643Y-16152357D01*
X15849643Y-16166643D01*
X15835357Y-16195214D01*
X15821071Y-16209500D01*
X15792500Y-16223786D01*
X15735357Y-16223786D01*
X15706786Y-16238071D01*
X15692500Y-16252357D01*
X15678214Y-16280929D01*
X15678214Y-16338071D01*
X15692500Y-16366643D01*
X15706786Y-16380929D01*
X15735357Y-16395214D01*
X15792500Y-16395214D01*
X15821071Y-16380929D01*
X15835357Y-16366643D01*
X15849643Y-16338071D01*
X15849643Y-16280929D01*
X15835357Y-16252357D01*
X15821071Y-16238071D01*
X15792500Y-16223786D01*
X16035357Y-16095214D02*
X16063928Y-16095214D01*
X16092500Y-16109500D01*
X16106786Y-16123786D01*
X16121071Y-16152357D01*
X16135357Y-16209500D01*
X16135357Y-16280929D01*
X16121071Y-16338071D01*
X16106786Y-16366643D01*
X16092500Y-16380929D01*
X16063928Y-16395214D01*
X16035357Y-16395214D01*
X16006786Y-16380929D01*
X15992500Y-16366643D01*
X15978214Y-16338071D01*
X15963928Y-16280929D01*
X15963928Y-16209500D01*
X15978214Y-16152357D01*
X15992500Y-16123786D01*
X16006786Y-16109500D01*
X16035357Y-16095214D01*
X16263928Y-16395214D02*
X16263928Y-16195214D01*
X16263928Y-16223786D02*
X16278214Y-16209500D01*
X16306786Y-16195214D01*
X16349643Y-16195214D01*
X16378214Y-16209500D01*
X16392500Y-16238071D01*
X16392500Y-16395214D01*
X16392500Y-16238071D02*
X16406786Y-16209500D01*
X16435357Y-16195214D01*
X16478214Y-16195214D01*
X16506786Y-16209500D01*
X16521071Y-16238071D01*
X16521071Y-16395214D01*
X16663928Y-16395214D02*
X16663928Y-16195214D01*
X16663928Y-16223786D02*
X16678214Y-16209500D01*
X16706786Y-16195214D01*
X16749643Y-16195214D01*
X16778214Y-16209500D01*
X16792500Y-16238071D01*
X16792500Y-16395214D01*
X16792500Y-16238071D02*
X16806786Y-16209500D01*
X16835357Y-16195214D01*
X16878214Y-16195214D01*
X16906786Y-16209500D01*
X16921071Y-16238071D01*
X16921071Y-16395214D01*
X17506786Y-16080929D02*
X17249643Y-16466643D01*
X17892500Y-16095214D02*
X17921071Y-16095214D01*
X17949643Y-16109500D01*
X17963928Y-16123786D01*
X17978214Y-16152357D01*
X17992500Y-16209500D01*
X17992500Y-16280929D01*
X17978214Y-16338071D01*
X17963928Y-16366643D01*
X17949643Y-16380929D01*
X17921071Y-16395214D01*
X17892500Y-16395214D01*
X17863928Y-16380929D01*
X17849643Y-16366643D01*
X17835357Y-16338071D01*
X17821071Y-16280929D01*
X17821071Y-16209500D01*
X17835357Y-16152357D01*
X17849643Y-16123786D01*
X17863928Y-16109500D01*
X17892500Y-16095214D01*
X18121071Y-16366643D02*
X18135357Y-16380929D01*
X18121071Y-16395214D01*
X18106786Y-16380929D01*
X18121071Y-16366643D01*
X18121071Y-16395214D01*
X18321071Y-16095214D02*
X18349643Y-16095214D01*
X18378214Y-16109500D01*
X18392500Y-16123786D01*
X18406786Y-16152357D01*
X18421071Y-16209500D01*
X18421071Y-16280929D01*
X18406786Y-16338071D01*
X18392500Y-16366643D01*
X18378214Y-16380929D01*
X18349643Y-16395214D01*
X18321071Y-16395214D01*
X18292500Y-16380929D01*
X18278214Y-16366643D01*
X18263928Y-16338071D01*
X18249643Y-16280929D01*
X18249643Y-16209500D01*
X18263928Y-16152357D01*
X18278214Y-16123786D01*
X18292500Y-16109500D01*
X18321071Y-16095214D01*
X18521071Y-16095214D02*
X18706786Y-16095214D01*
X18606786Y-16209500D01*
X18649643Y-16209500D01*
X18678214Y-16223786D01*
X18692500Y-16238071D01*
X18706786Y-16266643D01*
X18706786Y-16338071D01*
X18692500Y-16366643D01*
X18678214Y-16380929D01*
X18649643Y-16395214D01*
X18563928Y-16395214D01*
X18535357Y-16380929D01*
X18521071Y-16366643D01*
X18992500Y-16395214D02*
X18821071Y-16395214D01*
X18906786Y-16395214D02*
X18906786Y-16095214D01*
X18878214Y-16138071D01*
X18849643Y-16166643D01*
X18821071Y-16180929D01*
X19106786Y-16095214D02*
X19106786Y-16152357D01*
X19221071Y-16095214D02*
X19221071Y-16152357D01*
X19663928Y-16509500D02*
X19649643Y-16495214D01*
X19621071Y-16452357D01*
X19606786Y-16423786D01*
X19592500Y-16380929D01*
X19578214Y-16309500D01*
X19578214Y-16252357D01*
X19592500Y-16180929D01*
X19606786Y-16138071D01*
X19621071Y-16109500D01*
X19649643Y-16066643D01*
X19663928Y-16052357D01*
X19749643Y-16095214D02*
X19949643Y-16095214D01*
X19821071Y-16395214D01*
X20192500Y-16095214D02*
X20135357Y-16095214D01*
X20106786Y-16109500D01*
X20092500Y-16123786D01*
X20063928Y-16166643D01*
X20049643Y-16223786D01*
X20049643Y-16338071D01*
X20063928Y-16366643D01*
X20078214Y-16380929D01*
X20106786Y-16395214D01*
X20163928Y-16395214D01*
X20192500Y-16380929D01*
X20206786Y-16366643D01*
X20221071Y-16338071D01*
X20221071Y-16266643D01*
X20206786Y-16238071D01*
X20192500Y-16223786D01*
X20163928Y-16209500D01*
X20106786Y-16209500D01*
X20078214Y-16223786D01*
X20063928Y-16238071D01*
X20049643Y-16266643D01*
X20578214Y-16395214D02*
X20578214Y-16095214D01*
X20706786Y-16395214D02*
X20706786Y-16238071D01*
X20692500Y-16209500D01*
X20663928Y-16195214D01*
X20621071Y-16195214D01*
X20592500Y-16209500D01*
X20578214Y-16223786D01*
X20892500Y-16395214D02*
X20863928Y-16380929D01*
X20849643Y-16366643D01*
X20835357Y-16338071D01*
X20835357Y-16252357D01*
X20849643Y-16223786D01*
X20863928Y-16209500D01*
X20892500Y-16195214D01*
X20935357Y-16195214D01*
X20963928Y-16209500D01*
X20978214Y-16223786D01*
X20992500Y-16252357D01*
X20992500Y-16338071D01*
X20978214Y-16366643D01*
X20963928Y-16380929D01*
X20935357Y-16395214D01*
X20892500Y-16395214D01*
X21163928Y-16395214D02*
X21135357Y-16380929D01*
X21121071Y-16352357D01*
X21121071Y-16095214D01*
X21392500Y-16380929D02*
X21363929Y-16395214D01*
X21306786Y-16395214D01*
X21278214Y-16380929D01*
X21263929Y-16352357D01*
X21263929Y-16238071D01*
X21278214Y-16209500D01*
X21306786Y-16195214D01*
X21363929Y-16195214D01*
X21392500Y-16209500D01*
X21406786Y-16238071D01*
X21406786Y-16266643D01*
X21263929Y-16295214D01*
X21521071Y-16380929D02*
X21549643Y-16395214D01*
X21606786Y-16395214D01*
X21635357Y-16380929D01*
X21649643Y-16352357D01*
X21649643Y-16338071D01*
X21635357Y-16309500D01*
X21606786Y-16295214D01*
X21563929Y-16295214D01*
X21535357Y-16280929D01*
X21521071Y-16252357D01*
X21521071Y-16238071D01*
X21535357Y-16209500D01*
X21563929Y-16195214D01*
X21606786Y-16195214D01*
X21635357Y-16209500D01*
X21749643Y-16509500D02*
X21763929Y-16495214D01*
X21792500Y-16452357D01*
X21806786Y-16423786D01*
X21821071Y-16380929D01*
X21835357Y-16309500D01*
X21835357Y-16252357D01*
X21821071Y-16180929D01*
X21806786Y-16138071D01*
X21792500Y-16109500D01*
X21763929Y-16066643D01*
X21749643Y-16052357D01*
X14977856Y-16690856D02*
X14977856Y-16620144D01*
X14907144Y-16620144D01*
X14907144Y-16690856D01*
X14977856Y-16690856D01*
X15421071Y-16791214D02*
X15249643Y-16791214D01*
X15335357Y-16791214D02*
X15335357Y-16491214D01*
X15306786Y-16534071D01*
X15278214Y-16562643D01*
X15249643Y-16576929D01*
X15549643Y-16762643D02*
X15563928Y-16776929D01*
X15549643Y-16791214D01*
X15535357Y-16776929D01*
X15549643Y-16762643D01*
X15549643Y-16791214D01*
X15749643Y-16491214D02*
X15778214Y-16491214D01*
X15806786Y-16505500D01*
X15821071Y-16519786D01*
X15835357Y-16548357D01*
X15849643Y-16605500D01*
X15849643Y-16676929D01*
X15835357Y-16734071D01*
X15821071Y-16762643D01*
X15806786Y-16776929D01*
X15778214Y-16791214D01*
X15749643Y-16791214D01*
X15721071Y-16776929D01*
X15706786Y-16762643D01*
X15692500Y-16734071D01*
X15678214Y-16676929D01*
X15678214Y-16605500D01*
X15692500Y-16548357D01*
X15706786Y-16519786D01*
X15721071Y-16505500D01*
X15749643Y-16491214D01*
X16035357Y-16491214D02*
X16063928Y-16491214D01*
X16092500Y-16505500D01*
X16106786Y-16519786D01*
X16121071Y-16548357D01*
X16135357Y-16605500D01*
X16135357Y-16676929D01*
X16121071Y-16734071D01*
X16106786Y-16762643D01*
X16092500Y-16776929D01*
X16063928Y-16791214D01*
X16035357Y-16791214D01*
X16006786Y-16776929D01*
X15992500Y-16762643D01*
X15978214Y-16734071D01*
X15963928Y-16676929D01*
X15963928Y-16605500D01*
X15978214Y-16548357D01*
X15992500Y-16519786D01*
X16006786Y-16505500D01*
X16035357Y-16491214D01*
X16263928Y-16791214D02*
X16263928Y-16591214D01*
X16263928Y-16619786D02*
X16278214Y-16605500D01*
X16306786Y-16591214D01*
X16349643Y-16591214D01*
X16378214Y-16605500D01*
X16392500Y-16634071D01*
X16392500Y-16791214D01*
X16392500Y-16634071D02*
X16406786Y-16605500D01*
X16435357Y-16591214D01*
X16478214Y-16591214D01*
X16506786Y-16605500D01*
X16521071Y-16634071D01*
X16521071Y-16791214D01*
X16663928Y-16791214D02*
X16663928Y-16591214D01*
X16663928Y-16619786D02*
X16678214Y-16605500D01*
X16706786Y-16591214D01*
X16749643Y-16591214D01*
X16778214Y-16605500D01*
X16792500Y-16634071D01*
X16792500Y-16791214D01*
X16792500Y-16634071D02*
X16806786Y-16605500D01*
X16835357Y-16591214D01*
X16878214Y-16591214D01*
X16906786Y-16605500D01*
X16921071Y-16634071D01*
X16921071Y-16791214D01*
X17506786Y-16476929D02*
X17249643Y-16862643D01*
X17892500Y-16491214D02*
X17921071Y-16491214D01*
X17949643Y-16505500D01*
X17963928Y-16519786D01*
X17978214Y-16548357D01*
X17992500Y-16605500D01*
X17992500Y-16676929D01*
X17978214Y-16734071D01*
X17963928Y-16762643D01*
X17949643Y-16776929D01*
X17921071Y-16791214D01*
X17892500Y-16791214D01*
X17863928Y-16776929D01*
X17849643Y-16762643D01*
X17835357Y-16734071D01*
X17821071Y-16676929D01*
X17821071Y-16605500D01*
X17835357Y-16548357D01*
X17849643Y-16519786D01*
X17863928Y-16505500D01*
X17892500Y-16491214D01*
X18121071Y-16762643D02*
X18135357Y-16776929D01*
X18121071Y-16791214D01*
X18106786Y-16776929D01*
X18121071Y-16762643D01*
X18121071Y-16791214D01*
X18321071Y-16491214D02*
X18349643Y-16491214D01*
X18378214Y-16505500D01*
X18392500Y-16519786D01*
X18406786Y-16548357D01*
X18421071Y-16605500D01*
X18421071Y-16676929D01*
X18406786Y-16734071D01*
X18392500Y-16762643D01*
X18378214Y-16776929D01*
X18349643Y-16791214D01*
X18321071Y-16791214D01*
X18292500Y-16776929D01*
X18278214Y-16762643D01*
X18263928Y-16734071D01*
X18249643Y-16676929D01*
X18249643Y-16605500D01*
X18263928Y-16548357D01*
X18278214Y-16519786D01*
X18292500Y-16505500D01*
X18321071Y-16491214D01*
X18521071Y-16491214D02*
X18706786Y-16491214D01*
X18606786Y-16605500D01*
X18649643Y-16605500D01*
X18678214Y-16619786D01*
X18692500Y-16634071D01*
X18706786Y-16662643D01*
X18706786Y-16734071D01*
X18692500Y-16762643D01*
X18678214Y-16776929D01*
X18649643Y-16791214D01*
X18563928Y-16791214D01*
X18535357Y-16776929D01*
X18521071Y-16762643D01*
X18849643Y-16791214D02*
X18906786Y-16791214D01*
X18935357Y-16776929D01*
X18949643Y-16762643D01*
X18978214Y-16719786D01*
X18992500Y-16662643D01*
X18992500Y-16548357D01*
X18978214Y-16519786D01*
X18963928Y-16505500D01*
X18935357Y-16491214D01*
X18878214Y-16491214D01*
X18849643Y-16505500D01*
X18835357Y-16519786D01*
X18821071Y-16548357D01*
X18821071Y-16619786D01*
X18835357Y-16648357D01*
X18849643Y-16662643D01*
X18878214Y-16676929D01*
X18935357Y-16676929D01*
X18963928Y-16662643D01*
X18978214Y-16648357D01*
X18992500Y-16619786D01*
X19106786Y-16491214D02*
X19106786Y-16548357D01*
X19221071Y-16491214D02*
X19221071Y-16548357D01*
X19663928Y-16905500D02*
X19649643Y-16891214D01*
X19621071Y-16848357D01*
X19606786Y-16819786D01*
X19592500Y-16776929D01*
X19578214Y-16705500D01*
X19578214Y-16648357D01*
X19592500Y-16576929D01*
X19606786Y-16534071D01*
X19621071Y-16505500D01*
X19649643Y-16462643D01*
X19663928Y-16448357D01*
X19792500Y-16791214D02*
X19849643Y-16791214D01*
X19878214Y-16776929D01*
X19892500Y-16762643D01*
X19921071Y-16719786D01*
X19935357Y-16662643D01*
X19935357Y-16548357D01*
X19921071Y-16519786D01*
X19906786Y-16505500D01*
X19878214Y-16491214D01*
X19821071Y-16491214D01*
X19792500Y-16505500D01*
X19778214Y-16519786D01*
X19763928Y-16548357D01*
X19763928Y-16619786D01*
X19778214Y-16648357D01*
X19792500Y-16662643D01*
X19821071Y-16676929D01*
X19878214Y-16676929D01*
X19906786Y-16662643D01*
X19921071Y-16648357D01*
X19935357Y-16619786D01*
X20292500Y-16791214D02*
X20292500Y-16491214D01*
X20421071Y-16791214D02*
X20421071Y-16634071D01*
X20406786Y-16605500D01*
X20378214Y-16591214D01*
X20335357Y-16591214D01*
X20306786Y-16605500D01*
X20292500Y-16619786D01*
X20606786Y-16791214D02*
X20578214Y-16776929D01*
X20563928Y-16762643D01*
X20549643Y-16734071D01*
X20549643Y-16648357D01*
X20563928Y-16619786D01*
X20578214Y-16605500D01*
X20606786Y-16591214D01*
X20649643Y-16591214D01*
X20678214Y-16605500D01*
X20692500Y-16619786D01*
X20706786Y-16648357D01*
X20706786Y-16734071D01*
X20692500Y-16762643D01*
X20678214Y-16776929D01*
X20649643Y-16791214D01*
X20606786Y-16791214D01*
X20878214Y-16791214D02*
X20849643Y-16776929D01*
X20835357Y-16748357D01*
X20835357Y-16491214D01*
X21106786Y-16776929D02*
X21078214Y-16791214D01*
X21021071Y-16791214D01*
X20992500Y-16776929D01*
X20978214Y-16748357D01*
X20978214Y-16634071D01*
X20992500Y-16605500D01*
X21021071Y-16591214D01*
X21078214Y-16591214D01*
X21106786Y-16605500D01*
X21121071Y-16634071D01*
X21121071Y-16662643D01*
X20978214Y-16691214D01*
X21235357Y-16776929D02*
X21263929Y-16791214D01*
X21321071Y-16791214D01*
X21349643Y-16776929D01*
X21363929Y-16748357D01*
X21363929Y-16734071D01*
X21349643Y-16705500D01*
X21321071Y-16691214D01*
X21278214Y-16691214D01*
X21249643Y-16676929D01*
X21235357Y-16648357D01*
X21235357Y-16634071D01*
X21249643Y-16605500D01*
X21278214Y-16591214D01*
X21321071Y-16591214D01*
X21349643Y-16605500D01*
X21463928Y-16905500D02*
X21478214Y-16891214D01*
X21506786Y-16848357D01*
X21521071Y-16819786D01*
X21535357Y-16776929D01*
X21549643Y-16705500D01*
X21549643Y-16648357D01*
X21535357Y-16576929D01*
X21521071Y-16534071D01*
X21506786Y-16505500D01*
X21478214Y-16462643D01*
X21463928Y-16448357D01*
M02*
