G04 #@! TF.FileFunction,Copper,L2,Bot,Signal*
%FSLAX46Y46*%
G04 Gerber Fmt 4.6, Leading zero omitted, Abs format (unit mm)*
G04 Created by KiCad (PCBNEW 4.0.6) date 10/14/17 15:28:18*
%MOMM*%
%LPD*%
G01*
G04 APERTURE LIST*
%ADD10C,0.100000*%
%ADD11C,1.000000*%
%ADD12R,1.000000X1.000000*%
%ADD13C,1.600000*%
%ADD14O,3.010000X1.510000*%
%ADD15O,1.600000X1.600000*%
%ADD16C,0.800000*%
%ADD17C,1.000000*%
%ADD18C,0.254000*%
G04 APERTURE END LIST*
D10*
D11*
X185438080Y-116346260D03*
X184168080Y-115076260D03*
D12*
X186708080Y-115076260D03*
D13*
X171744940Y-99932780D03*
X169244940Y-99932780D03*
X187348160Y-95421740D03*
X189848160Y-95421740D03*
X191135300Y-120735380D03*
X191135300Y-123235380D03*
X167531080Y-74616600D03*
X167531080Y-72116600D03*
X178633420Y-127220000D03*
X181133420Y-127220000D03*
X178113990Y-68288190D03*
X180613990Y-68288190D03*
X186504880Y-136076980D03*
X186504880Y-133576980D03*
X173020020Y-59460420D03*
X173020020Y-61960420D03*
D14*
X160619740Y-95706220D03*
X160619740Y-98246220D03*
X160619740Y-100786220D03*
X160619740Y-104535260D03*
X160619740Y-107075260D03*
X160619740Y-109615260D03*
X197939960Y-96879700D03*
X197939960Y-94339700D03*
X197939960Y-91799700D03*
D11*
X169331940Y-121253540D03*
X168061940Y-122523540D03*
D12*
X168061940Y-119983540D03*
D11*
X189601140Y-74045100D03*
X190871140Y-72775100D03*
D12*
X190871140Y-75315100D03*
D11*
X185471100Y-109652360D03*
X186741100Y-110922360D03*
D12*
X184201100Y-110922360D03*
D11*
X173416260Y-85426840D03*
X172146260Y-84156840D03*
D12*
X174686260Y-84156840D03*
D11*
X191105600Y-109652360D03*
X192375600Y-110922360D03*
D12*
X189835600Y-110922360D03*
D11*
X167292320Y-85431920D03*
X166022320Y-84161920D03*
D12*
X168562320Y-84161920D03*
D11*
X180840680Y-113280480D03*
X179570680Y-114550480D03*
D12*
X179570680Y-112010480D03*
D11*
X177848560Y-82025780D03*
X179118560Y-80755780D03*
D12*
X179118560Y-83295780D03*
D11*
X191107360Y-116342360D03*
X189837360Y-115072360D03*
D12*
X192377360Y-115072360D03*
D11*
X167294860Y-78718700D03*
X168564860Y-79988700D03*
D12*
X166024860Y-79988700D03*
D11*
X173403560Y-78733940D03*
X174673560Y-80003940D03*
D12*
X172133560Y-80003940D03*
D11*
X196619160Y-121172260D03*
X197889160Y-122442260D03*
D12*
X195349160Y-122442260D03*
D11*
X185448240Y-121162100D03*
X186718240Y-122432100D03*
D12*
X184178240Y-122432100D03*
D11*
X179839920Y-121172260D03*
X181109920Y-122442260D03*
D12*
X178569920Y-122442260D03*
D11*
X174226520Y-121195120D03*
X175496520Y-122465120D03*
D12*
X172956520Y-122465120D03*
D11*
X161150600Y-74255920D03*
X159880600Y-72985920D03*
D12*
X162420600Y-72985920D03*
D11*
X173401020Y-74207660D03*
X172131020Y-72937660D03*
D12*
X174671020Y-72937660D03*
D11*
X179220160Y-74227980D03*
X177950160Y-72957980D03*
D12*
X180490160Y-72957980D03*
D11*
X185003740Y-74255920D03*
X183733740Y-72985920D03*
D12*
X186273740Y-72985920D03*
D11*
X185445600Y-127562360D03*
X186715600Y-128832360D03*
D12*
X184175600Y-128832360D03*
D11*
X174239220Y-127547660D03*
X175509220Y-128817660D03*
D12*
X172969220Y-128817660D03*
D11*
X173432770Y-68054510D03*
X172162770Y-66784510D03*
D12*
X174702770Y-66784510D03*
D11*
X184954210Y-67998630D03*
X183684210Y-66728630D03*
D12*
X186224210Y-66728630D03*
D11*
X191075600Y-127562360D03*
X192345600Y-128832360D03*
D12*
X189805600Y-128832360D03*
D11*
X168557240Y-127537500D03*
X169827240Y-128807500D03*
D12*
X167287240Y-128807500D03*
D11*
X167349470Y-68110390D03*
X166079470Y-66840390D03*
D12*
X168619470Y-66840390D03*
D11*
X190587930Y-68008790D03*
X189317930Y-66738790D03*
D12*
X191857930Y-66738790D03*
D11*
X191105600Y-134292360D03*
X189835600Y-133022360D03*
D12*
X192375600Y-133022360D03*
D11*
X168557240Y-134380260D03*
X167287240Y-133110260D03*
D12*
X169827240Y-133110260D03*
D11*
X167357090Y-61226990D03*
X168627090Y-62496990D03*
D12*
X166087090Y-62496990D03*
D11*
X190587930Y-61293030D03*
X191857930Y-62563030D03*
D12*
X189317930Y-62563030D03*
D13*
X169278600Y-104535260D03*
D15*
X179438600Y-104535260D03*
D13*
X189674800Y-99785460D03*
D15*
X179514800Y-99785460D03*
D13*
X189801800Y-90997060D03*
D15*
X179641800Y-90997060D03*
D13*
X169354800Y-95264260D03*
D15*
X179514800Y-95264260D03*
D13*
X175897840Y-115363280D03*
D15*
X165737840Y-115363280D03*
D13*
X162834620Y-123392220D03*
D15*
X162834620Y-113232220D03*
D13*
X182471360Y-79998860D03*
D15*
X192631360Y-79998860D03*
D13*
X196027340Y-73760620D03*
D15*
X196027340Y-83920620D03*
D13*
X179380180Y-108025220D03*
D15*
X169220180Y-108025220D03*
D13*
X179542740Y-87522340D03*
D15*
X189702740Y-87522340D03*
D13*
X199875440Y-103476080D03*
D15*
X189715440Y-103476080D03*
D13*
X158549640Y-91436480D03*
D15*
X168709640Y-91436480D03*
D13*
X175849580Y-111741240D03*
D15*
X165689580Y-111741240D03*
D13*
X182471360Y-83854580D03*
D15*
X192631360Y-83854580D03*
D13*
X199428400Y-116742500D03*
D15*
X199428400Y-106582500D03*
D13*
X159095740Y-78266580D03*
D15*
X159095740Y-88426580D03*
D13*
X199801780Y-127181900D03*
D15*
X199801780Y-137341900D03*
D13*
X159080500Y-68589180D03*
D15*
X159080500Y-58429180D03*
D13*
X195963840Y-116742500D03*
D15*
X195963840Y-106582500D03*
D13*
X159400540Y-123338880D03*
D15*
X159400540Y-113178880D03*
D13*
X162644120Y-88492620D03*
D15*
X162644120Y-78332620D03*
D13*
X199603660Y-73760620D03*
D15*
X199603660Y-83920620D03*
D13*
X195849540Y-137306340D03*
D15*
X195849540Y-127146340D03*
D13*
X162763500Y-127220000D03*
D15*
X162763500Y-137380000D03*
D13*
X162611100Y-58335200D03*
D15*
X162611100Y-68495200D03*
D13*
X196071790Y-71031390D03*
D15*
X196071790Y-60871390D03*
D13*
X173373080Y-133394740D03*
D15*
X183533080Y-133394740D03*
D13*
X185872420Y-62477940D03*
D15*
X175712420Y-62477940D03*
D13*
X173345140Y-136887240D03*
D15*
X183505140Y-136887240D03*
D13*
X185872420Y-58901620D03*
D15*
X175712420Y-58901620D03*
D16*
X167030700Y-101921600D03*
X185560000Y-94200000D03*
X185560000Y-103090000D03*
X177533600Y-102010500D03*
X174752300Y-108322400D03*
X195440600Y-68203100D03*
X198094900Y-134497100D03*
X176136600Y-88434200D03*
X183733740Y-72985920D03*
X181851600Y-111370400D03*
X192633900Y-125657900D03*
X168821400Y-70247800D03*
X160845800Y-81385700D03*
D17*
X160619740Y-95706220D02*
X165412720Y-95706220D01*
X169631660Y-97819500D02*
X171744940Y-99932780D01*
X167526000Y-97819500D02*
X169631660Y-97819500D01*
X165412720Y-95706220D02*
X167526000Y-97819500D01*
X169244940Y-99932780D02*
X169244940Y-104501600D01*
X169244940Y-104501600D02*
X169278600Y-104535260D01*
X160619740Y-100786220D02*
X165895320Y-100786220D01*
X165895320Y-100786220D02*
X167030700Y-101921600D01*
X185438080Y-116346260D02*
X186746180Y-116346260D01*
X186746180Y-116346260D02*
X191135300Y-120735380D01*
X191135300Y-120735380D02*
X191135300Y-116370300D01*
X191135300Y-116370300D02*
X191107360Y-116342360D01*
X191135300Y-120735380D02*
X191135300Y-120781100D01*
X191135300Y-120781100D02*
X194577000Y-124222800D01*
X194577000Y-124222800D02*
X196108620Y-124222800D01*
X196108620Y-124222800D02*
X197889160Y-122442260D01*
X191135300Y-123235380D02*
X187521520Y-123235380D01*
X187521520Y-123235380D02*
X186718240Y-122432100D01*
X185448240Y-121162100D02*
X186718240Y-122432100D01*
X186718240Y-122432100D02*
X186718240Y-128829720D01*
X186718240Y-128829720D02*
X186715600Y-128832360D01*
X167531080Y-74616600D02*
X167531080Y-74558180D01*
X167531080Y-74558180D02*
X164541500Y-71568600D01*
X161297920Y-71568600D02*
X159880600Y-72985920D01*
X164541500Y-71568600D02*
X161297920Y-71568600D01*
X167294860Y-78718700D02*
X173388320Y-78718700D01*
X173388320Y-78718700D02*
X173403560Y-78733940D01*
X167531080Y-74616600D02*
X167531080Y-78482480D01*
X167531080Y-78482480D02*
X167294860Y-78718700D01*
X172131020Y-72937660D02*
X173401020Y-74207660D01*
X172162770Y-66784510D02*
X172162770Y-72905910D01*
X172162770Y-72905910D02*
X172131020Y-72937660D01*
X167531080Y-72116600D02*
X171309960Y-72116600D01*
X171309960Y-72116600D02*
X173401020Y-74207660D01*
X184175600Y-128832360D02*
X179248640Y-128832360D01*
X179248640Y-128832360D02*
X178633420Y-129447580D01*
X178633420Y-127220000D02*
X178633420Y-129447580D01*
X176880820Y-131200180D02*
X173373080Y-131200180D01*
X178633420Y-129447580D02*
X176880820Y-131200180D01*
X173373080Y-133394740D02*
X173373080Y-131200180D01*
X172969220Y-130796320D02*
X172969220Y-128817660D01*
X173373080Y-131200180D02*
X172969220Y-130796320D01*
X185872420Y-62477940D02*
X185872420Y-66376840D01*
X185872420Y-66376840D02*
X186195000Y-66699420D01*
X186195000Y-66699420D02*
X186195000Y-68698400D01*
X186195000Y-68698400D02*
X185013900Y-69879500D01*
X185013900Y-69879500D02*
X179705300Y-69879500D01*
X179705300Y-69879500D02*
X178113990Y-68288190D01*
X174702770Y-66784510D02*
X176610310Y-66784510D01*
X176610310Y-66784510D02*
X178113990Y-68288190D01*
X183505140Y-136887240D02*
X185694620Y-136887240D01*
X185694620Y-136887240D02*
X186504880Y-136076980D01*
X175712420Y-58901620D02*
X173578820Y-58901620D01*
X173578820Y-58901620D02*
X173020020Y-59460420D01*
X158549640Y-91436480D02*
X158549640Y-91319640D01*
X158549640Y-91319640D02*
X157414260Y-90184260D01*
X157414260Y-79948060D02*
X159095740Y-78266580D01*
X157414260Y-90184260D02*
X157414260Y-79948060D01*
X158549640Y-91436480D02*
X157843520Y-91436480D01*
X157843520Y-91436480D02*
X157620000Y-91660000D01*
X159065260Y-104535260D02*
X160619740Y-104535260D01*
X157620000Y-103090000D02*
X159065260Y-104535260D01*
X157620000Y-91660000D02*
X157620000Y-103090000D01*
X185560000Y-103090000D02*
X185560000Y-94200000D01*
X192375600Y-133022360D02*
X192375600Y-133832400D01*
X192375600Y-133832400D02*
X195849540Y-137306340D01*
X158549640Y-91436480D02*
X158516620Y-91436480D01*
X162611100Y-58335200D02*
X162611100Y-59021000D01*
X162611100Y-59021000D02*
X166087090Y-62496990D01*
X174676100Y-104868000D02*
X177533600Y-102010500D01*
X174676100Y-108246200D02*
X174676100Y-104868000D01*
X174752300Y-108322400D02*
X174676100Y-108246200D01*
X159400540Y-113178880D02*
X162781280Y-113178880D01*
X162781280Y-113178880D02*
X164218920Y-111741240D01*
X164218920Y-111741240D02*
X165689580Y-111741240D01*
X160619740Y-109615260D02*
X160619740Y-111017340D01*
X160619740Y-111017340D02*
X162834620Y-113232220D01*
X189317930Y-62563030D02*
X189800530Y-62563030D01*
X189800530Y-62563030D02*
X195440600Y-68203100D01*
X196071790Y-60871390D02*
X196071790Y-67571910D01*
X196071790Y-67571910D02*
X195440600Y-68203100D01*
X190871140Y-75315100D02*
X190871140Y-82094360D01*
X190871140Y-82094360D02*
X192631360Y-83854580D01*
X192631360Y-83854580D02*
X195961300Y-83854580D01*
X195961300Y-83854580D02*
X196027340Y-83920620D01*
X196027340Y-83920620D02*
X199603660Y-83920620D01*
X197939960Y-96879700D02*
X197939960Y-97232760D01*
X197939960Y-97232760D02*
X202057300Y-101350100D01*
X202057300Y-130534700D02*
X198094900Y-134497100D01*
X202057300Y-101350100D02*
X202057300Y-130534700D01*
X191105600Y-134292360D02*
X191105600Y-134412500D01*
X191105600Y-134412500D02*
X186626800Y-138891300D01*
X186626800Y-138891300D02*
X175349200Y-138891300D01*
X175349200Y-138891300D02*
X173345140Y-136887240D01*
X197939960Y-96879700D02*
X196443900Y-96879700D01*
X196443900Y-96879700D02*
X193538140Y-99785460D01*
X193538140Y-99785460D02*
X189674800Y-99785460D01*
X168557240Y-134380260D02*
X168557240Y-136049040D01*
X169395440Y-136887240D02*
X173345140Y-136887240D01*
X168557240Y-136049040D02*
X169395440Y-136887240D01*
X171765260Y-92853800D02*
X171765260Y-92805540D01*
X171765260Y-92805540D02*
X176136600Y-88434200D01*
X167357090Y-61226990D02*
X167357090Y-61196510D01*
X167357090Y-61196510D02*
X172504400Y-56049200D01*
X172504400Y-56049200D02*
X183020000Y-56049200D01*
X183020000Y-56049200D02*
X185872420Y-58901620D01*
X197939960Y-91799700D02*
X194069000Y-91799700D01*
X171765260Y-92853800D02*
X169354800Y-95264260D01*
X193014900Y-92853800D02*
X171765260Y-92853800D01*
X194069000Y-91799700D02*
X193014900Y-92853800D01*
X185872420Y-58901620D02*
X188196520Y-58901620D01*
X188196520Y-58901620D02*
X190587930Y-61293030D01*
X169331940Y-121253540D02*
X169331940Y-108136980D01*
X169331940Y-108136980D02*
X169220180Y-108025220D01*
X175897840Y-115363280D02*
X178757880Y-115363280D01*
X178757880Y-115363280D02*
X179570680Y-114550480D01*
X162834620Y-123392220D02*
X163555980Y-123392220D01*
X163555980Y-123392220D02*
X165737840Y-121210360D01*
X165737840Y-115363280D02*
X165737840Y-121210360D01*
X165737840Y-121210360D02*
X165737840Y-121324660D01*
X166936720Y-122523540D02*
X168061940Y-122523540D01*
X165737840Y-121324660D02*
X166936720Y-122523540D01*
X182471360Y-79998860D02*
X183220660Y-79998860D01*
X183220660Y-79998860D02*
X185687000Y-82465200D01*
X185687000Y-83506600D02*
X189702740Y-87522340D01*
X185687000Y-82465200D02*
X185687000Y-83506600D01*
X182471360Y-79998860D02*
X179875480Y-79998860D01*
X179875480Y-79998860D02*
X179118560Y-80755780D01*
X189601140Y-74045100D02*
X189601140Y-74009540D01*
X189601140Y-74009540D02*
X187198300Y-71606700D01*
X187198300Y-71606700D02*
X185112960Y-71606700D01*
X185112960Y-71606700D02*
X183733740Y-72985920D01*
X196027340Y-73760620D02*
X193281600Y-73760620D01*
X193281600Y-73760620D02*
X192631360Y-74410860D01*
X190871140Y-72775100D02*
X190995600Y-72775100D01*
X190995600Y-72775100D02*
X192631360Y-74410860D01*
X192631360Y-74410860D02*
X192631360Y-79998860D01*
X179438600Y-104535260D02*
X179438600Y-99861660D01*
X179438600Y-99861660D02*
X179514800Y-99785460D01*
X179438600Y-104535260D02*
X180464760Y-104535260D01*
X181851600Y-105922100D02*
X181851600Y-111370400D01*
X180464760Y-104535260D02*
X181851600Y-105922100D01*
X180840680Y-113280480D02*
X181842980Y-113280480D01*
X181842980Y-113280480D02*
X184201100Y-110922360D01*
X184201100Y-110922360D02*
X184201100Y-112569280D01*
X184201100Y-112569280D02*
X186708080Y-115076260D01*
X168564860Y-79988700D02*
X168564860Y-81619380D01*
X168564860Y-81619380D02*
X166022320Y-84161920D01*
X166022320Y-84161920D02*
X167292320Y-85431920D01*
X167292320Y-85431920D02*
X173411180Y-85431920D01*
X173411180Y-85431920D02*
X173416260Y-85426840D01*
X172133560Y-80003940D02*
X172133560Y-81604140D01*
X172555200Y-82025780D02*
X174686260Y-84156840D01*
X172133560Y-81604140D02*
X172555200Y-82025780D01*
X174686260Y-84156840D02*
X175717500Y-84156840D01*
X175717500Y-84156840D02*
X177848560Y-82025780D01*
X189715440Y-103476080D02*
X189715440Y-110802200D01*
X189715440Y-110802200D02*
X189835600Y-110922360D01*
X179570680Y-112010480D02*
X176118820Y-112010480D01*
X176118820Y-112010480D02*
X175849580Y-111741240D01*
X179118560Y-83295780D02*
X181912560Y-83295780D01*
X181912560Y-83295780D02*
X182471360Y-83854580D01*
X192377360Y-115072360D02*
X194278640Y-115072360D01*
X199428400Y-109922600D02*
X199428400Y-106582500D01*
X194278640Y-115072360D02*
X199428400Y-109922600D01*
X166024860Y-79988700D02*
X165227300Y-79988700D01*
X159095740Y-86120260D02*
X159095740Y-88426580D01*
X165227300Y-79988700D02*
X159095740Y-86120260D01*
X192633900Y-125657900D02*
X192862500Y-125429300D01*
X192862500Y-125429300D02*
X198049180Y-125429300D01*
X198049180Y-125429300D02*
X199801780Y-127181900D01*
X159080500Y-68589180D02*
X159080500Y-68901600D01*
X159080500Y-68901600D02*
X160426700Y-70247800D01*
X160426700Y-70247800D02*
X168821400Y-70247800D01*
X195963840Y-116742500D02*
X195963840Y-120516940D01*
X195963840Y-120516940D02*
X196619160Y-121172260D01*
X178569920Y-122442260D02*
X178569920Y-122452420D01*
X178569920Y-122452420D02*
X180327600Y-124210100D01*
X180327600Y-124210100D02*
X182400240Y-124210100D01*
X182400240Y-124210100D02*
X184178240Y-122432100D01*
X179839920Y-121172260D02*
X181109920Y-122442260D01*
X174226520Y-121195120D02*
X179817060Y-121195120D01*
X179817060Y-121195120D02*
X179839920Y-121172260D01*
X174226520Y-121195120D02*
X174226520Y-124916220D01*
X175509220Y-126198920D02*
X175509220Y-128817660D01*
X174226520Y-124916220D02*
X175509220Y-126198920D01*
X172956520Y-122465120D02*
X172956520Y-122780080D01*
X172956520Y-122780080D02*
X170535900Y-125200700D01*
X170535900Y-125200700D02*
X161262360Y-125200700D01*
X161262360Y-125200700D02*
X159400540Y-123338880D01*
X161150600Y-74255920D02*
X161150600Y-76699400D01*
X160845800Y-77004200D02*
X160845800Y-81385700D01*
X161150600Y-76699400D02*
X160845800Y-77004200D01*
X174671020Y-72937660D02*
X174671020Y-72881780D01*
X174671020Y-72881780D02*
X176200100Y-71352700D01*
X176200100Y-71352700D02*
X178884880Y-71352700D01*
X178884880Y-71352700D02*
X180490160Y-72957980D01*
X179220160Y-74227980D02*
X184975800Y-74227980D01*
X184975800Y-74227980D02*
X185003740Y-74255920D01*
X179220160Y-74227980D02*
X177950160Y-72957980D01*
X168557240Y-127537500D02*
X171087080Y-127537500D01*
X171087080Y-127537500D02*
X171097240Y-127547660D01*
X169827240Y-128807500D02*
X169837400Y-128807500D01*
X169837400Y-128807500D02*
X171097240Y-127547660D01*
X171097240Y-127547660D02*
X174239220Y-127547660D01*
X167287240Y-133110260D02*
X167287240Y-131347500D01*
X167287240Y-131347500D02*
X169827240Y-128807500D01*
X168627090Y-62496990D02*
X168596610Y-62496990D01*
X168596610Y-62496990D02*
X166079470Y-65014130D01*
X166079470Y-65014130D02*
X166079470Y-66840390D01*
X166079470Y-66840390D02*
X167349470Y-68110390D01*
X189805600Y-128832360D02*
X189805600Y-128862100D01*
X189805600Y-128862100D02*
X191554400Y-130610900D01*
X191554400Y-130610900D02*
X192384980Y-130610900D01*
X192384980Y-130610900D02*
X195849540Y-127146340D01*
X162763500Y-127220000D02*
X165699740Y-127220000D01*
X165699740Y-127220000D02*
X167287240Y-128807500D01*
X191857930Y-66738790D02*
X191857930Y-66817530D01*
X191857930Y-66817530D02*
X196071790Y-71031390D01*
D18*
G36*
X206636390Y-51049408D02*
X208023654Y-51976349D01*
X208950592Y-53363610D01*
X209290000Y-55069931D01*
X209290000Y-139930069D01*
X208950592Y-141636390D01*
X208023654Y-143023651D01*
X206636390Y-143950592D01*
X204930069Y-144290000D01*
X155069931Y-144290000D01*
X153363610Y-143950592D01*
X151976349Y-143023654D01*
X151049408Y-141636390D01*
X150811953Y-140442619D01*
X152764613Y-140442619D01*
X153104155Y-141264372D01*
X153732321Y-141893636D01*
X154553481Y-142234611D01*
X155442619Y-142235387D01*
X156264372Y-141895845D01*
X156893636Y-141267679D01*
X157234611Y-140446519D01*
X157234614Y-140442619D01*
X202764613Y-140442619D01*
X203104155Y-141264372D01*
X203732321Y-141893636D01*
X204553481Y-142234611D01*
X205442619Y-142235387D01*
X206264372Y-141895845D01*
X206893636Y-141267679D01*
X207234611Y-140446519D01*
X207235387Y-139557381D01*
X206895845Y-138735628D01*
X206267679Y-138106364D01*
X205446519Y-137765389D01*
X204557381Y-137764613D01*
X203735628Y-138104155D01*
X203106364Y-138732321D01*
X202765389Y-139553481D01*
X202764613Y-140442619D01*
X157234614Y-140442619D01*
X157235387Y-139557381D01*
X156895845Y-138735628D01*
X156267679Y-138106364D01*
X155446519Y-137765389D01*
X154557381Y-137764613D01*
X153735628Y-138104155D01*
X153106364Y-138732321D01*
X152765389Y-139553481D01*
X152764613Y-140442619D01*
X150811953Y-140442619D01*
X150710000Y-139930069D01*
X150710000Y-137351887D01*
X161328500Y-137351887D01*
X161328500Y-137408113D01*
X161437733Y-137957264D01*
X161748802Y-138422811D01*
X162214349Y-138733880D01*
X162763500Y-138843113D01*
X163312651Y-138733880D01*
X163778198Y-138422811D01*
X164089267Y-137957264D01*
X164198500Y-137408113D01*
X164198500Y-137351887D01*
X164089267Y-136802736D01*
X163778198Y-136337189D01*
X163312651Y-136026120D01*
X162763500Y-135916887D01*
X162214349Y-136026120D01*
X161748802Y-136337189D01*
X161437733Y-136802736D01*
X161328500Y-137351887D01*
X150710000Y-137351887D01*
X150710000Y-123623067D01*
X157965292Y-123623067D01*
X158183297Y-124150680D01*
X158586617Y-124554704D01*
X159113849Y-124773630D01*
X159230260Y-124773732D01*
X160459794Y-126003266D01*
X160828014Y-126249303D01*
X161262360Y-126335700D01*
X161618176Y-126335700D01*
X161547676Y-126406077D01*
X161328750Y-126933309D01*
X161328252Y-127504187D01*
X161546257Y-128031800D01*
X161949577Y-128435824D01*
X162476809Y-128654750D01*
X163047687Y-128655248D01*
X163575300Y-128437243D01*
X163657687Y-128355000D01*
X165229608Y-128355000D01*
X166139800Y-129265192D01*
X166139800Y-129307500D01*
X166184078Y-129542817D01*
X166323150Y-129758941D01*
X166535350Y-129903931D01*
X166787240Y-129954940D01*
X167074668Y-129954940D01*
X166484674Y-130544934D01*
X166238637Y-130913154D01*
X166152240Y-131347500D01*
X166152240Y-133109270D01*
X166152043Y-133335035D01*
X166324473Y-133752346D01*
X166643475Y-134071905D01*
X167060484Y-134245063D01*
X167422357Y-134245379D01*
X167422043Y-134605035D01*
X167422240Y-134605512D01*
X167422240Y-136049040D01*
X167508637Y-136483386D01*
X167586923Y-136600549D01*
X167754674Y-136851606D01*
X168592874Y-137689806D01*
X168961094Y-137935843D01*
X169395440Y-138022240D01*
X172450534Y-138022240D01*
X172531217Y-138103064D01*
X173058449Y-138321990D01*
X173174860Y-138322092D01*
X174546634Y-139693866D01*
X174914854Y-139939903D01*
X175349200Y-140026300D01*
X186626800Y-140026300D01*
X187061146Y-139939903D01*
X187429366Y-139693866D01*
X191908166Y-135215066D01*
X192006287Y-135068219D01*
X194414392Y-137476324D01*
X194414292Y-137590527D01*
X194632297Y-138118140D01*
X195035617Y-138522164D01*
X195562849Y-138741090D01*
X196133727Y-138741588D01*
X196661340Y-138523583D01*
X197065364Y-138120263D01*
X197243634Y-137690941D01*
X198409866Y-137690941D01*
X198649391Y-138197034D01*
X199064357Y-138572941D01*
X199452741Y-138733804D01*
X199674780Y-138611815D01*
X199674780Y-137468900D01*
X199928780Y-137468900D01*
X199928780Y-138611815D01*
X200150819Y-138733804D01*
X200539203Y-138572941D01*
X200954169Y-138197034D01*
X201193694Y-137690941D01*
X201072409Y-137468900D01*
X199928780Y-137468900D01*
X199674780Y-137468900D01*
X198531151Y-137468900D01*
X198409866Y-137690941D01*
X197243634Y-137690941D01*
X197284290Y-137593031D01*
X197284788Y-137022153D01*
X197272684Y-136992859D01*
X198409866Y-136992859D01*
X198531151Y-137214900D01*
X199674780Y-137214900D01*
X199674780Y-136071985D01*
X199928780Y-136071985D01*
X199928780Y-137214900D01*
X201072409Y-137214900D01*
X201193694Y-136992859D01*
X200954169Y-136486766D01*
X200539203Y-136110859D01*
X200150819Y-135949996D01*
X199928780Y-136071985D01*
X199674780Y-136071985D01*
X199452741Y-135949996D01*
X199064357Y-136110859D01*
X198649391Y-136486766D01*
X198409866Y-136992859D01*
X197272684Y-136992859D01*
X197066783Y-136494540D01*
X196663463Y-136090516D01*
X196136231Y-135871590D01*
X196019820Y-135871488D01*
X193523040Y-133374708D01*
X193523040Y-132522360D01*
X193478762Y-132287043D01*
X193339690Y-132070919D01*
X193127490Y-131925929D01*
X192875600Y-131874920D01*
X191875600Y-131874920D01*
X191640283Y-131919198D01*
X191424159Y-132058270D01*
X191279169Y-132270470D01*
X191228160Y-132522360D01*
X191228160Y-133157466D01*
X190970483Y-133157241D01*
X190970797Y-132797585D01*
X190798367Y-132380274D01*
X190479365Y-132060715D01*
X190062356Y-131887557D01*
X189610825Y-131887163D01*
X189193514Y-132059593D01*
X188873955Y-132378595D01*
X188700797Y-132795604D01*
X188700403Y-133247135D01*
X188872833Y-133664446D01*
X189191835Y-133984005D01*
X189608844Y-134157163D01*
X189755677Y-134157291D01*
X187939971Y-135972997D01*
X187940128Y-135792793D01*
X187722123Y-135265180D01*
X187318803Y-134861156D01*
X187252336Y-134833557D01*
X187258885Y-134830844D01*
X187333019Y-134584725D01*
X186504880Y-133756585D01*
X185676741Y-134584725D01*
X185750875Y-134830844D01*
X185757363Y-134833176D01*
X185693080Y-134859737D01*
X185289056Y-135263057D01*
X185085929Y-135752240D01*
X184367907Y-135752240D01*
X184082404Y-135561473D01*
X183533253Y-135452240D01*
X183477027Y-135452240D01*
X182927876Y-135561473D01*
X182462329Y-135872542D01*
X182151260Y-136338089D01*
X182042027Y-136887240D01*
X182151260Y-137436391D01*
X182365017Y-137756300D01*
X175819332Y-137756300D01*
X174780288Y-136717256D01*
X174780388Y-136603053D01*
X174562383Y-136075440D01*
X174159063Y-135671416D01*
X173631831Y-135452490D01*
X173060953Y-135451992D01*
X172533340Y-135669997D01*
X172450953Y-135752240D01*
X169865572Y-135752240D01*
X169692240Y-135578908D01*
X169692240Y-134381251D01*
X169692348Y-134257700D01*
X170327240Y-134257700D01*
X170562557Y-134213422D01*
X170778681Y-134074350D01*
X170923671Y-133862150D01*
X170974680Y-133610260D01*
X170974680Y-132610260D01*
X170930402Y-132374943D01*
X170791330Y-132158819D01*
X170579130Y-132013829D01*
X170327240Y-131962820D01*
X169327240Y-131962820D01*
X169091923Y-132007098D01*
X168875799Y-132146170D01*
X168730809Y-132358370D01*
X168679800Y-132610260D01*
X168679800Y-133245366D01*
X168422123Y-133245141D01*
X168422437Y-132885485D01*
X168422240Y-132885008D01*
X168422240Y-131817632D01*
X170609350Y-129630523D01*
X170639966Y-129610066D01*
X171567372Y-128682660D01*
X171821780Y-128682660D01*
X171821780Y-129317660D01*
X171834220Y-129383773D01*
X171834220Y-130796320D01*
X171920617Y-131230666D01*
X172156242Y-131583303D01*
X172166654Y-131598886D01*
X172238080Y-131670312D01*
X172238080Y-132500134D01*
X172157256Y-132580817D01*
X171938330Y-133108049D01*
X171937832Y-133678927D01*
X172155837Y-134206540D01*
X172559157Y-134610564D01*
X173086389Y-134829490D01*
X173657267Y-134829988D01*
X174184880Y-134611983D01*
X174588904Y-134208663D01*
X174781940Y-133743779D01*
X182141176Y-133743779D01*
X182302039Y-134132163D01*
X182677946Y-134547129D01*
X183184039Y-134786654D01*
X183406080Y-134665369D01*
X183406080Y-133521740D01*
X183660080Y-133521740D01*
X183660080Y-134665369D01*
X183882121Y-134786654D01*
X184388214Y-134547129D01*
X184764121Y-134132163D01*
X184924984Y-133743779D01*
X184802995Y-133521740D01*
X183660080Y-133521740D01*
X183406080Y-133521740D01*
X182263165Y-133521740D01*
X182141176Y-133743779D01*
X174781940Y-133743779D01*
X174807830Y-133681431D01*
X174808110Y-133360203D01*
X185057915Y-133360203D01*
X185085102Y-133930434D01*
X185251016Y-134330985D01*
X185497135Y-134405119D01*
X186325275Y-133576980D01*
X186684485Y-133576980D01*
X187512625Y-134405119D01*
X187758744Y-134330985D01*
X187951845Y-133793757D01*
X187924658Y-133223526D01*
X187758744Y-132822975D01*
X187512625Y-132748841D01*
X186684485Y-133576980D01*
X186325275Y-133576980D01*
X185497135Y-132748841D01*
X185251016Y-132822975D01*
X185057915Y-133360203D01*
X174808110Y-133360203D01*
X174808328Y-133110553D01*
X174781532Y-133045701D01*
X182141176Y-133045701D01*
X182263165Y-133267740D01*
X183406080Y-133267740D01*
X183406080Y-132124111D01*
X183660080Y-132124111D01*
X183660080Y-133267740D01*
X184802995Y-133267740D01*
X184924984Y-133045701D01*
X184764121Y-132657317D01*
X184684330Y-132569235D01*
X185676741Y-132569235D01*
X186504880Y-133397375D01*
X187333019Y-132569235D01*
X187258885Y-132323116D01*
X186721657Y-132130015D01*
X186151426Y-132157202D01*
X185750875Y-132323116D01*
X185676741Y-132569235D01*
X184684330Y-132569235D01*
X184388214Y-132242351D01*
X183882121Y-132002826D01*
X183660080Y-132124111D01*
X183406080Y-132124111D01*
X183184039Y-132002826D01*
X182677946Y-132242351D01*
X182302039Y-132657317D01*
X182141176Y-133045701D01*
X174781532Y-133045701D01*
X174590323Y-132582940D01*
X174508080Y-132500553D01*
X174508080Y-132335180D01*
X176880820Y-132335180D01*
X177315166Y-132248783D01*
X177683386Y-132002746D01*
X179718772Y-129967360D01*
X183614169Y-129967360D01*
X183675600Y-129979800D01*
X184675600Y-129979800D01*
X184910917Y-129935522D01*
X185127041Y-129796450D01*
X185272031Y-129584250D01*
X185323040Y-129332360D01*
X185323040Y-128697254D01*
X185580717Y-128697479D01*
X185580403Y-129057135D01*
X185752833Y-129474446D01*
X186071835Y-129794005D01*
X186488844Y-129967163D01*
X186940375Y-129967557D01*
X187357686Y-129795127D01*
X187677245Y-129476125D01*
X187762766Y-129270168D01*
X187766844Y-129264065D01*
X187768263Y-129256929D01*
X187850403Y-129059116D01*
X187850592Y-128843035D01*
X187853240Y-128829720D01*
X187853240Y-124370380D01*
X190240694Y-124370380D01*
X190321377Y-124451204D01*
X190848609Y-124670130D01*
X191419487Y-124670628D01*
X191947100Y-124452623D01*
X192351124Y-124049303D01*
X192482348Y-123733280D01*
X193043368Y-124294300D01*
X192862500Y-124294300D01*
X192428154Y-124380697D01*
X192165611Y-124556123D01*
X192059934Y-124626734D01*
X191831334Y-124855334D01*
X191585297Y-125223555D01*
X191498900Y-125657900D01*
X191585297Y-126092245D01*
X191831334Y-126460466D01*
X192199555Y-126706503D01*
X192633900Y-126792900D01*
X193068245Y-126706503D01*
X193281067Y-126564300D01*
X194526964Y-126564300D01*
X194523773Y-126569076D01*
X194449804Y-126940944D01*
X193254468Y-128136280D01*
X192989365Y-127870715D01*
X192572356Y-127697557D01*
X192210483Y-127697241D01*
X192210797Y-127337585D01*
X192038367Y-126920274D01*
X191719365Y-126600715D01*
X191302356Y-126427557D01*
X190850825Y-126427163D01*
X190433514Y-126599593D01*
X190113955Y-126918595D01*
X189940797Y-127335604D01*
X189940492Y-127684920D01*
X189305600Y-127684920D01*
X189070283Y-127729198D01*
X188854159Y-127868270D01*
X188709169Y-128080470D01*
X188658160Y-128332360D01*
X188658160Y-129332360D01*
X188702438Y-129567677D01*
X188841510Y-129783801D01*
X189053710Y-129928791D01*
X189305600Y-129979800D01*
X189318168Y-129979800D01*
X190751834Y-131413466D01*
X191120055Y-131659504D01*
X191554400Y-131745900D01*
X192384980Y-131745900D01*
X192819326Y-131659503D01*
X193187546Y-131413466D01*
X196026823Y-128574189D01*
X196398691Y-128500220D01*
X196864238Y-128189151D01*
X197175307Y-127723604D01*
X197284540Y-127174453D01*
X197284540Y-127118227D01*
X197175307Y-126569076D01*
X197172116Y-126564300D01*
X197579048Y-126564300D01*
X198366632Y-127351884D01*
X198366532Y-127466087D01*
X198584537Y-127993700D01*
X198987857Y-128397724D01*
X199515089Y-128616650D01*
X200085967Y-128617148D01*
X200613580Y-128399143D01*
X200922300Y-128090961D01*
X200922300Y-130064568D01*
X197292334Y-133694534D01*
X197046297Y-134062755D01*
X196959900Y-134497100D01*
X197046297Y-134931445D01*
X197292334Y-135299666D01*
X197660555Y-135545703D01*
X198094900Y-135632100D01*
X198529245Y-135545703D01*
X198897466Y-135299666D01*
X202859866Y-131337266D01*
X202931094Y-131230666D01*
X203105903Y-130969046D01*
X203192300Y-130534700D01*
X203192300Y-101350100D01*
X203105903Y-100915754D01*
X202859866Y-100547534D01*
X199899072Y-97586740D01*
X200016078Y-97411630D01*
X200121885Y-96879700D01*
X200016078Y-96347770D01*
X199714763Y-95896822D01*
X199265973Y-95596949D01*
X199339223Y-95575292D01*
X199762641Y-95232776D01*
X200022753Y-94754297D01*
X200037237Y-94681671D01*
X199914643Y-94466700D01*
X198066960Y-94466700D01*
X198066960Y-94486700D01*
X197812960Y-94486700D01*
X197812960Y-94466700D01*
X195965277Y-94466700D01*
X195842683Y-94681671D01*
X195857167Y-94754297D01*
X196117279Y-95232776D01*
X196540697Y-95575292D01*
X196613947Y-95596949D01*
X196371172Y-95759166D01*
X196009554Y-95831097D01*
X195911190Y-95896822D01*
X195641334Y-96077134D01*
X193068008Y-98650460D01*
X190569406Y-98650460D01*
X190488723Y-98569636D01*
X189961491Y-98350710D01*
X189390613Y-98350212D01*
X188863000Y-98568217D01*
X188458976Y-98971537D01*
X188240050Y-99498769D01*
X188239552Y-100069647D01*
X188457557Y-100597260D01*
X188860877Y-101001284D01*
X189388109Y-101220210D01*
X189958987Y-101220708D01*
X190486600Y-101002703D01*
X190568987Y-100920460D01*
X193538140Y-100920460D01*
X193972486Y-100834063D01*
X194340706Y-100588026D01*
X196740163Y-98188569D01*
X197148035Y-98269700D01*
X197371768Y-98269700D01*
X200922300Y-101820232D01*
X200922300Y-102493600D01*
X200689363Y-102260256D01*
X200162131Y-102041330D01*
X199591253Y-102040832D01*
X199063640Y-102258837D01*
X198659616Y-102662157D01*
X198440690Y-103189389D01*
X198440192Y-103760267D01*
X198658197Y-104287880D01*
X199061517Y-104691904D01*
X199588749Y-104910830D01*
X200159627Y-104911328D01*
X200687240Y-104693323D01*
X200922300Y-104458673D01*
X200922300Y-126273208D01*
X200615703Y-125966076D01*
X200088471Y-125747150D01*
X199972060Y-125747048D01*
X198851746Y-124626734D01*
X198746069Y-124556123D01*
X198483526Y-124380697D01*
X198049180Y-124294300D01*
X197642252Y-124294300D01*
X198691312Y-123245240D01*
X198850805Y-123086025D01*
X199023963Y-122669016D01*
X199024357Y-122217485D01*
X198851927Y-121800174D01*
X198532925Y-121480615D01*
X198115916Y-121307457D01*
X197754043Y-121307141D01*
X197754357Y-120947485D01*
X197581927Y-120530174D01*
X197262925Y-120210615D01*
X197262451Y-120210418D01*
X197098840Y-120046807D01*
X197098840Y-117637106D01*
X197179664Y-117556423D01*
X197398590Y-117029191D01*
X197398592Y-117026687D01*
X197993152Y-117026687D01*
X198211157Y-117554300D01*
X198614477Y-117958324D01*
X199141709Y-118177250D01*
X199712587Y-118177748D01*
X200240200Y-117959743D01*
X200644224Y-117556423D01*
X200863150Y-117029191D01*
X200863648Y-116458313D01*
X200645643Y-115930700D01*
X200242323Y-115526676D01*
X199715091Y-115307750D01*
X199144213Y-115307252D01*
X198616600Y-115525257D01*
X198212576Y-115928577D01*
X197993650Y-116455809D01*
X197993152Y-117026687D01*
X197398592Y-117026687D01*
X197399088Y-116458313D01*
X197181083Y-115930700D01*
X196777763Y-115526676D01*
X196250531Y-115307750D01*
X195679653Y-115307252D01*
X195627212Y-115328920D01*
X200230966Y-110725167D01*
X200477003Y-110356946D01*
X200505283Y-110214774D01*
X200563400Y-109922600D01*
X200563400Y-107445267D01*
X200754167Y-107159764D01*
X200863400Y-106610613D01*
X200863400Y-106554387D01*
X200754167Y-106005236D01*
X200443098Y-105539689D01*
X199977551Y-105228620D01*
X199428400Y-105119387D01*
X198879249Y-105228620D01*
X198413702Y-105539689D01*
X198102633Y-106005236D01*
X197993400Y-106554387D01*
X197993400Y-106610613D01*
X198102633Y-107159764D01*
X198293400Y-107445267D01*
X198293400Y-109452467D01*
X193808508Y-113937360D01*
X192938791Y-113937360D01*
X192877360Y-113924920D01*
X191877360Y-113924920D01*
X191642043Y-113969198D01*
X191425919Y-114108270D01*
X191280929Y-114320470D01*
X191229920Y-114572360D01*
X191229920Y-115207466D01*
X190972243Y-115207241D01*
X190972557Y-114847585D01*
X190800127Y-114430274D01*
X190481125Y-114110715D01*
X190064116Y-113937557D01*
X189612585Y-113937163D01*
X189195274Y-114109593D01*
X188875715Y-114428595D01*
X188702557Y-114845604D01*
X188702163Y-115297135D01*
X188874593Y-115714446D01*
X189193595Y-116034005D01*
X189610604Y-116207163D01*
X189972477Y-116207479D01*
X189972163Y-116567135D01*
X190000300Y-116635232D01*
X190000300Y-117995248D01*
X187809343Y-115804291D01*
X187855520Y-115576260D01*
X187855520Y-114576260D01*
X187811242Y-114340943D01*
X187672170Y-114124819D01*
X187459970Y-113979829D01*
X187208080Y-113928820D01*
X187165772Y-113928820D01*
X185336100Y-112099148D01*
X185336100Y-111483791D01*
X185348540Y-111422360D01*
X185348540Y-110787254D01*
X185606217Y-110787479D01*
X185605903Y-111147135D01*
X185778333Y-111564446D01*
X186097335Y-111884005D01*
X186514344Y-112057163D01*
X186965875Y-112057557D01*
X187383186Y-111885127D01*
X187702745Y-111566125D01*
X187875903Y-111149116D01*
X187876297Y-110697585D01*
X187703867Y-110280274D01*
X187384865Y-109960715D01*
X186967856Y-109787557D01*
X186605983Y-109787241D01*
X186606297Y-109427585D01*
X186433867Y-109010274D01*
X186114865Y-108690715D01*
X185697856Y-108517557D01*
X185246325Y-108517163D01*
X184829014Y-108689593D01*
X184509455Y-109008595D01*
X184336297Y-109425604D01*
X184335992Y-109774920D01*
X183701100Y-109774920D01*
X183465783Y-109819198D01*
X183249659Y-109958270D01*
X183104669Y-110170470D01*
X183053660Y-110422360D01*
X183053660Y-110464668D01*
X182986600Y-110531728D01*
X182986600Y-105922100D01*
X182900203Y-105487754D01*
X182654166Y-105119534D01*
X181267326Y-103732694D01*
X181184043Y-103677046D01*
X180899106Y-103486657D01*
X180573600Y-103421910D01*
X180573600Y-100776229D01*
X180868680Y-100334611D01*
X180977913Y-99785460D01*
X180868680Y-99236309D01*
X180557611Y-98770762D01*
X180092064Y-98459693D01*
X179542913Y-98350460D01*
X179486687Y-98350460D01*
X178937536Y-98459693D01*
X178471989Y-98770762D01*
X178160920Y-99236309D01*
X178051687Y-99785460D01*
X178160920Y-100334611D01*
X178303600Y-100548146D01*
X178303600Y-101186174D01*
X177967945Y-100961897D01*
X177533600Y-100875500D01*
X177099255Y-100961897D01*
X176731034Y-101207934D01*
X173873534Y-104065434D01*
X173627497Y-104433654D01*
X173541100Y-104868000D01*
X173541100Y-108246200D01*
X173627497Y-108680546D01*
X173867622Y-109039918D01*
X173873534Y-109048766D01*
X173949734Y-109124966D01*
X174317955Y-109371003D01*
X174752300Y-109457400D01*
X175186645Y-109371003D01*
X175554866Y-109124966D01*
X175800903Y-108756745D01*
X175887300Y-108322400D01*
X175811100Y-107939319D01*
X175811100Y-105338132D01*
X178303600Y-102845632D01*
X178303600Y-103658532D01*
X178084720Y-103986109D01*
X177975487Y-104535260D01*
X178084720Y-105084411D01*
X178395789Y-105549958D01*
X178861336Y-105861027D01*
X179410487Y-105970260D01*
X179466713Y-105970260D01*
X180015864Y-105861027D01*
X180117490Y-105793122D01*
X180716600Y-106392232D01*
X180716600Y-107501851D01*
X180597423Y-107213420D01*
X180194103Y-106809396D01*
X179666871Y-106590470D01*
X179095993Y-106589972D01*
X178568380Y-106807977D01*
X178164356Y-107211297D01*
X177945430Y-107738529D01*
X177944932Y-108309407D01*
X178162937Y-108837020D01*
X178566257Y-109241044D01*
X179093489Y-109459970D01*
X179664367Y-109460468D01*
X180191980Y-109242463D01*
X180596004Y-108839143D01*
X180716600Y-108548716D01*
X180716600Y-111370400D01*
X180802997Y-111804746D01*
X181030668Y-112145480D01*
X180841670Y-112145480D01*
X180718120Y-112145372D01*
X180718120Y-111510480D01*
X180673842Y-111275163D01*
X180534770Y-111059039D01*
X180322570Y-110914049D01*
X180070680Y-110863040D01*
X179070680Y-110863040D01*
X179004567Y-110875480D01*
X177012957Y-110875480D01*
X176663503Y-110525416D01*
X176136271Y-110306490D01*
X175565393Y-110305992D01*
X175037780Y-110523997D01*
X174633756Y-110927317D01*
X174414830Y-111454549D01*
X174414332Y-112025427D01*
X174632337Y-112553040D01*
X175035657Y-112957064D01*
X175562889Y-113175990D01*
X176133767Y-113176488D01*
X176208812Y-113145480D01*
X179009249Y-113145480D01*
X179070680Y-113157920D01*
X179705786Y-113157920D01*
X179705561Y-113415597D01*
X179345905Y-113415283D01*
X178928594Y-113587713D01*
X178609035Y-113906715D01*
X178608838Y-113907190D01*
X178287748Y-114228280D01*
X176792446Y-114228280D01*
X176711763Y-114147456D01*
X176184531Y-113928530D01*
X175613653Y-113928032D01*
X175086040Y-114146037D01*
X174682016Y-114549357D01*
X174463090Y-115076589D01*
X174462592Y-115647467D01*
X174680597Y-116175080D01*
X175083917Y-116579104D01*
X175611149Y-116798030D01*
X176182027Y-116798528D01*
X176709640Y-116580523D01*
X176792027Y-116498280D01*
X178757880Y-116498280D01*
X179192226Y-116411883D01*
X179560446Y-116165846D01*
X180372832Y-115353460D01*
X180532325Y-115194245D01*
X180705483Y-114777236D01*
X180705799Y-114415363D01*
X181065455Y-114415677D01*
X181065932Y-114415480D01*
X181842980Y-114415480D01*
X182277326Y-114329083D01*
X182645546Y-114083046D01*
X183381796Y-113346796D01*
X183398534Y-113371846D01*
X183967772Y-113941084D01*
X183943305Y-113941063D01*
X183525994Y-114113493D01*
X183206435Y-114432495D01*
X183033277Y-114849504D01*
X183032883Y-115301035D01*
X183205313Y-115718346D01*
X183524315Y-116037905D01*
X183941324Y-116211063D01*
X184303197Y-116211379D01*
X184302883Y-116571035D01*
X184475313Y-116988346D01*
X184794315Y-117307905D01*
X185211324Y-117481063D01*
X185662855Y-117481457D01*
X185663332Y-117481260D01*
X186276048Y-117481260D01*
X189700152Y-120905364D01*
X189700052Y-121019567D01*
X189918057Y-121547180D01*
X190321377Y-121951204D01*
X190403231Y-121985193D01*
X190323500Y-122018137D01*
X190241113Y-122100380D01*
X187991653Y-122100380D01*
X187521219Y-121629947D01*
X187362005Y-121470455D01*
X187361530Y-121470258D01*
X186251220Y-120359948D01*
X186092005Y-120200455D01*
X185674996Y-120027297D01*
X185223465Y-120026903D01*
X184806154Y-120199333D01*
X184486595Y-120518335D01*
X184313437Y-120935344D01*
X184313132Y-121284660D01*
X183678240Y-121284660D01*
X183442923Y-121328938D01*
X183226799Y-121468010D01*
X183081809Y-121680210D01*
X183030800Y-121932100D01*
X183030800Y-121974408D01*
X182179771Y-122825437D01*
X182244723Y-122669016D01*
X182245117Y-122217485D01*
X182072687Y-121800174D01*
X181753685Y-121480615D01*
X181753210Y-121480418D01*
X180642900Y-120370108D01*
X180483685Y-120210615D01*
X180066676Y-120037457D01*
X179615145Y-120037063D01*
X179559343Y-120060120D01*
X174227510Y-120060120D01*
X174001745Y-120059923D01*
X173584434Y-120232353D01*
X173264875Y-120551355D01*
X173091717Y-120968364D01*
X173091412Y-121317680D01*
X172456520Y-121317680D01*
X172221203Y-121361958D01*
X172005079Y-121501030D01*
X171860089Y-121713230D01*
X171809080Y-121965120D01*
X171809080Y-122322388D01*
X170065768Y-124065700D01*
X164487632Y-124065700D01*
X165680690Y-122872642D01*
X166134154Y-123326106D01*
X166502374Y-123572143D01*
X166936720Y-123658540D01*
X168060949Y-123658540D01*
X168286715Y-123658737D01*
X168704026Y-123486307D01*
X169023585Y-123167305D01*
X169196743Y-122750296D01*
X169197059Y-122388423D01*
X169556715Y-122388737D01*
X169974026Y-122216307D01*
X170293585Y-121897305D01*
X170466743Y-121480296D01*
X170467137Y-121028765D01*
X170466940Y-121028288D01*
X170466940Y-108734687D01*
X170574060Y-108574371D01*
X170683293Y-108025220D01*
X170574060Y-107476069D01*
X170262991Y-107010522D01*
X169797444Y-106699453D01*
X169248293Y-106590220D01*
X169192067Y-106590220D01*
X168642916Y-106699453D01*
X168177369Y-107010522D01*
X167866300Y-107476069D01*
X167757067Y-108025220D01*
X167866300Y-108574371D01*
X168177369Y-109039918D01*
X168196940Y-109052995D01*
X168196940Y-118836100D01*
X167561940Y-118836100D01*
X167326623Y-118880378D01*
X167110499Y-119019450D01*
X166965509Y-119231650D01*
X166914500Y-119483540D01*
X166914500Y-120483540D01*
X166958778Y-120718857D01*
X167097850Y-120934981D01*
X167310050Y-121079971D01*
X167561940Y-121130980D01*
X168196940Y-121130980D01*
X168196940Y-121252550D01*
X168196821Y-121388657D01*
X167837165Y-121388343D01*
X167836688Y-121388540D01*
X167406852Y-121388540D01*
X166872840Y-120854528D01*
X166872840Y-116240008D01*
X167091720Y-115912431D01*
X167200953Y-115363280D01*
X167091720Y-114814129D01*
X166780651Y-114348582D01*
X166315104Y-114037513D01*
X165765953Y-113928280D01*
X165709727Y-113928280D01*
X165160576Y-114037513D01*
X164695029Y-114348582D01*
X164383960Y-114814129D01*
X164274727Y-115363280D01*
X164383960Y-115912431D01*
X164602840Y-116240008D01*
X164602840Y-120740228D01*
X163308055Y-122035013D01*
X163121311Y-121957470D01*
X162550433Y-121956972D01*
X162022820Y-122174977D01*
X161618796Y-122578297D01*
X161399870Y-123105529D01*
X161399372Y-123676407D01*
X161438925Y-123772133D01*
X160835688Y-123168896D01*
X160835788Y-123054693D01*
X160617783Y-122527080D01*
X160214463Y-122123056D01*
X159687231Y-121904130D01*
X159116353Y-121903632D01*
X158588740Y-122121637D01*
X158184716Y-122524957D01*
X157965790Y-123052189D01*
X157965292Y-123623067D01*
X150710000Y-123623067D01*
X150710000Y-113150767D01*
X157965540Y-113150767D01*
X157965540Y-113206993D01*
X158074773Y-113756144D01*
X158385842Y-114221691D01*
X158851389Y-114532760D01*
X159400540Y-114641993D01*
X159949691Y-114532760D01*
X160277268Y-114313880D01*
X161878064Y-114313880D01*
X162285469Y-114586100D01*
X162834620Y-114695333D01*
X163383771Y-114586100D01*
X163849318Y-114275031D01*
X164160387Y-113809484D01*
X164260845Y-113304447D01*
X164689052Y-112876240D01*
X164826813Y-112876240D01*
X165112316Y-113067007D01*
X165661467Y-113176240D01*
X165717693Y-113176240D01*
X166266844Y-113067007D01*
X166732391Y-112755938D01*
X167043460Y-112290391D01*
X167152693Y-111741240D01*
X167043460Y-111192089D01*
X166732391Y-110726542D01*
X166266844Y-110415473D01*
X165717693Y-110306240D01*
X165661467Y-110306240D01*
X165112316Y-110415473D01*
X164826813Y-110606240D01*
X164218920Y-110606240D01*
X163784574Y-110692637D01*
X163475052Y-110899453D01*
X163416354Y-110938674D01*
X162781280Y-111573748D01*
X162041540Y-110834008D01*
X162394543Y-110598138D01*
X162695858Y-110147190D01*
X162801665Y-109615260D01*
X162695858Y-109083330D01*
X162394543Y-108632382D01*
X161945753Y-108332509D01*
X162019003Y-108310852D01*
X162442421Y-107968336D01*
X162702533Y-107489857D01*
X162717017Y-107417231D01*
X162594423Y-107202260D01*
X160746740Y-107202260D01*
X160746740Y-107222260D01*
X160492740Y-107222260D01*
X160492740Y-107202260D01*
X158645057Y-107202260D01*
X158522463Y-107417231D01*
X158536947Y-107489857D01*
X158797059Y-107968336D01*
X159220477Y-108310852D01*
X159293727Y-108332509D01*
X158844937Y-108632382D01*
X158543622Y-109083330D01*
X158437815Y-109615260D01*
X158543622Y-110147190D01*
X158844937Y-110598138D01*
X159295885Y-110899453D01*
X159484740Y-110937018D01*
X159484740Y-111017340D01*
X159571137Y-111451686D01*
X159753710Y-111724926D01*
X159800787Y-111795381D01*
X159400540Y-111715767D01*
X158851389Y-111825000D01*
X158385842Y-112136069D01*
X158074773Y-112601616D01*
X157965540Y-113150767D01*
X150710000Y-113150767D01*
X150710000Y-79948060D01*
X156279260Y-79948060D01*
X156279260Y-90184260D01*
X156365657Y-90618606D01*
X156543853Y-90885295D01*
X156611694Y-90986826D01*
X156683199Y-91058331D01*
X156571397Y-91225654D01*
X156485000Y-91660000D01*
X156485000Y-103090000D01*
X156571397Y-103524346D01*
X156729035Y-103760267D01*
X156817434Y-103892566D01*
X158262694Y-105337826D01*
X158630914Y-105583863D01*
X159065260Y-105670260D01*
X159072603Y-105670260D01*
X159293727Y-105818011D01*
X159220477Y-105839668D01*
X158797059Y-106182184D01*
X158536947Y-106660663D01*
X158522463Y-106733289D01*
X158645057Y-106948260D01*
X160492740Y-106948260D01*
X160492740Y-106928260D01*
X160746740Y-106928260D01*
X160746740Y-106948260D01*
X162594423Y-106948260D01*
X162717017Y-106733289D01*
X162702533Y-106660663D01*
X162442421Y-106182184D01*
X162019003Y-105839668D01*
X161945753Y-105818011D01*
X162394543Y-105518138D01*
X162695858Y-105067190D01*
X162801665Y-104535260D01*
X162695858Y-104003330D01*
X162394543Y-103552382D01*
X161943595Y-103251067D01*
X161411665Y-103145260D01*
X159827815Y-103145260D01*
X159371215Y-103236083D01*
X158755000Y-102619868D01*
X158755000Y-101634498D01*
X158844937Y-101769098D01*
X159295885Y-102070413D01*
X159827815Y-102176220D01*
X161411665Y-102176220D01*
X161943595Y-102070413D01*
X162166877Y-101921220D01*
X165425188Y-101921220D01*
X166228134Y-102724166D01*
X166596355Y-102970203D01*
X167030700Y-103056600D01*
X167465045Y-102970203D01*
X167833266Y-102724166D01*
X168079303Y-102355945D01*
X168109940Y-102201923D01*
X168109940Y-103674255D01*
X168062776Y-103721337D01*
X167843850Y-104248569D01*
X167843352Y-104819447D01*
X168061357Y-105347060D01*
X168464677Y-105751084D01*
X168991909Y-105970010D01*
X169562787Y-105970508D01*
X170090400Y-105752503D01*
X170494424Y-105349183D01*
X170713350Y-104821951D01*
X170713848Y-104251073D01*
X170495843Y-103723460D01*
X170379940Y-103607355D01*
X170379940Y-100827386D01*
X170460764Y-100746703D01*
X170494753Y-100664849D01*
X170527697Y-100744580D01*
X170931017Y-101148604D01*
X171458249Y-101367530D01*
X172029127Y-101368028D01*
X172556740Y-101150023D01*
X172960764Y-100746703D01*
X173179690Y-100219471D01*
X173180188Y-99648593D01*
X172962183Y-99120980D01*
X172558863Y-98716956D01*
X172031631Y-98498030D01*
X171915220Y-98497928D01*
X170434226Y-97016934D01*
X170424788Y-97010628D01*
X170066006Y-96770897D01*
X169661125Y-96690361D01*
X170166600Y-96481503D01*
X170570624Y-96078183D01*
X170789550Y-95550951D01*
X170789652Y-95434540D01*
X172235392Y-93988800D01*
X178862246Y-93988800D01*
X178471989Y-94249562D01*
X178160920Y-94715109D01*
X178051687Y-95264260D01*
X178160920Y-95813411D01*
X178471989Y-96278958D01*
X178937536Y-96590027D01*
X179486687Y-96699260D01*
X179542913Y-96699260D01*
X180092064Y-96590027D01*
X180557611Y-96278958D01*
X180868680Y-95813411D01*
X180977913Y-95264260D01*
X180868680Y-94715109D01*
X180557611Y-94249562D01*
X180167354Y-93988800D01*
X184467010Y-93988800D01*
X184425000Y-94200000D01*
X184425000Y-103090000D01*
X184511397Y-103524346D01*
X184757434Y-103892566D01*
X185125654Y-104138603D01*
X185560000Y-104225000D01*
X185994346Y-104138603D01*
X186362566Y-103892566D01*
X186608603Y-103524346D01*
X186618203Y-103476080D01*
X188252327Y-103476080D01*
X188361560Y-104025231D01*
X188580440Y-104352808D01*
X188580440Y-110802200D01*
X188666837Y-111236546D01*
X188688160Y-111268458D01*
X188688160Y-111422360D01*
X188732438Y-111657677D01*
X188871510Y-111873801D01*
X189083710Y-112018791D01*
X189335600Y-112069800D01*
X190335600Y-112069800D01*
X190570917Y-112025522D01*
X190787041Y-111886450D01*
X190932031Y-111674250D01*
X190983040Y-111422360D01*
X190983040Y-110787254D01*
X191240717Y-110787479D01*
X191240403Y-111147135D01*
X191412833Y-111564446D01*
X191731835Y-111884005D01*
X192148844Y-112057163D01*
X192600375Y-112057557D01*
X193017686Y-111885127D01*
X193337245Y-111566125D01*
X193510403Y-111149116D01*
X193510797Y-110697585D01*
X193338367Y-110280274D01*
X193019365Y-109960715D01*
X192602356Y-109787557D01*
X192240483Y-109787241D01*
X192240797Y-109427585D01*
X192068367Y-109010274D01*
X191749365Y-108690715D01*
X191332356Y-108517557D01*
X190880825Y-108517163D01*
X190850440Y-108529718D01*
X190850440Y-106554387D01*
X194528840Y-106554387D01*
X194528840Y-106610613D01*
X194638073Y-107159764D01*
X194949142Y-107625311D01*
X195414689Y-107936380D01*
X195963840Y-108045613D01*
X196512991Y-107936380D01*
X196978538Y-107625311D01*
X197289607Y-107159764D01*
X197398840Y-106610613D01*
X197398840Y-106554387D01*
X197289607Y-106005236D01*
X196978538Y-105539689D01*
X196512991Y-105228620D01*
X195963840Y-105119387D01*
X195414689Y-105228620D01*
X194949142Y-105539689D01*
X194638073Y-106005236D01*
X194528840Y-106554387D01*
X190850440Y-106554387D01*
X190850440Y-104352808D01*
X191069320Y-104025231D01*
X191178553Y-103476080D01*
X191069320Y-102926929D01*
X190758251Y-102461382D01*
X190292704Y-102150313D01*
X189743553Y-102041080D01*
X189687327Y-102041080D01*
X189138176Y-102150313D01*
X188672629Y-102461382D01*
X188361560Y-102926929D01*
X188252327Y-103476080D01*
X186618203Y-103476080D01*
X186695000Y-103090000D01*
X186695000Y-96704319D01*
X187061469Y-96856490D01*
X187632347Y-96856988D01*
X188159960Y-96638983D01*
X188563984Y-96235663D01*
X188597973Y-96153809D01*
X188630917Y-96233540D01*
X189034237Y-96637564D01*
X189561469Y-96856490D01*
X190132347Y-96856988D01*
X190659960Y-96638983D01*
X191063984Y-96235663D01*
X191282910Y-95708431D01*
X191283408Y-95137553D01*
X191065403Y-94609940D01*
X190662083Y-94205916D01*
X190139210Y-93988800D01*
X193014900Y-93988800D01*
X193449246Y-93902403D01*
X193817466Y-93656366D01*
X194539133Y-92934700D01*
X196392823Y-92934700D01*
X196613947Y-93082451D01*
X196540697Y-93104108D01*
X196117279Y-93446624D01*
X195857167Y-93925103D01*
X195842683Y-93997729D01*
X195965277Y-94212700D01*
X197812960Y-94212700D01*
X197812960Y-94192700D01*
X198066960Y-94192700D01*
X198066960Y-94212700D01*
X199914643Y-94212700D01*
X200037237Y-93997729D01*
X200022753Y-93925103D01*
X199762641Y-93446624D01*
X199339223Y-93104108D01*
X199265973Y-93082451D01*
X199714763Y-92782578D01*
X200016078Y-92331630D01*
X200121885Y-91799700D01*
X200016078Y-91267770D01*
X199714763Y-90816822D01*
X199263815Y-90515507D01*
X198731885Y-90409700D01*
X197148035Y-90409700D01*
X196616105Y-90515507D01*
X196392823Y-90664700D01*
X194069000Y-90664700D01*
X193634655Y-90751096D01*
X193266434Y-90997133D01*
X192544768Y-91718800D01*
X191055902Y-91718800D01*
X191236550Y-91283751D01*
X191237048Y-90712873D01*
X191019043Y-90185260D01*
X190615723Y-89781236D01*
X190088491Y-89562310D01*
X189517613Y-89561812D01*
X188990000Y-89779817D01*
X188585976Y-90183137D01*
X188367050Y-90710369D01*
X188366552Y-91281247D01*
X188547345Y-91718800D01*
X180880360Y-91718800D01*
X180995680Y-91546211D01*
X181104913Y-90997060D01*
X180995680Y-90447909D01*
X180684611Y-89982362D01*
X180219064Y-89671293D01*
X179669913Y-89562060D01*
X179613687Y-89562060D01*
X179064536Y-89671293D01*
X178598989Y-89982362D01*
X178287920Y-90447909D01*
X178178687Y-90997060D01*
X178287920Y-91546211D01*
X178403240Y-91718800D01*
X174457132Y-91718800D01*
X176939166Y-89236766D01*
X177185203Y-88868546D01*
X177271600Y-88434200D01*
X177185203Y-87999855D01*
X177056026Y-87806527D01*
X178107492Y-87806527D01*
X178325497Y-88334140D01*
X178728817Y-88738164D01*
X179256049Y-88957090D01*
X179826927Y-88957588D01*
X180354540Y-88739583D01*
X180758564Y-88336263D01*
X180977490Y-87809031D01*
X180977988Y-87238153D01*
X180759983Y-86710540D01*
X180356663Y-86306516D01*
X179829431Y-86087590D01*
X179258553Y-86087092D01*
X178730940Y-86305097D01*
X178326916Y-86708417D01*
X178107990Y-87235649D01*
X178107492Y-87806527D01*
X177056026Y-87806527D01*
X176939166Y-87631634D01*
X176570945Y-87385597D01*
X176136600Y-87299200D01*
X175702254Y-87385597D01*
X175334034Y-87631634D01*
X170962694Y-92002974D01*
X170865514Y-92148414D01*
X169184816Y-93829112D01*
X169070613Y-93829012D01*
X168543000Y-94047017D01*
X168138976Y-94450337D01*
X167920050Y-94977569D01*
X167919552Y-95548447D01*
X168137557Y-96076060D01*
X168540877Y-96480084D01*
X169033165Y-96684500D01*
X167996132Y-96684500D01*
X166215286Y-94903654D01*
X166040770Y-94787046D01*
X165847066Y-94657617D01*
X165412720Y-94571220D01*
X162166877Y-94571220D01*
X161943595Y-94422027D01*
X161411665Y-94316220D01*
X159827815Y-94316220D01*
X159295885Y-94422027D01*
X158844937Y-94723342D01*
X158755000Y-94857942D01*
X158755000Y-92871659D01*
X158833827Y-92871728D01*
X159361440Y-92653723D01*
X159765464Y-92250403D01*
X159984390Y-91723171D01*
X159984640Y-91436480D01*
X167246527Y-91436480D01*
X167355760Y-91985631D01*
X167666829Y-92451178D01*
X168132376Y-92762247D01*
X168681527Y-92871480D01*
X168737753Y-92871480D01*
X169286904Y-92762247D01*
X169752451Y-92451178D01*
X170063520Y-91985631D01*
X170172753Y-91436480D01*
X170063520Y-90887329D01*
X169752451Y-90421782D01*
X169286904Y-90110713D01*
X168737753Y-90001480D01*
X168681527Y-90001480D01*
X168132376Y-90110713D01*
X167666829Y-90421782D01*
X167355760Y-90887329D01*
X167246527Y-91436480D01*
X159984640Y-91436480D01*
X159984888Y-91152293D01*
X159766883Y-90624680D01*
X159363563Y-90220656D01*
X158837239Y-90002107D01*
X158632726Y-89797594D01*
X159095740Y-89889693D01*
X159644891Y-89780460D01*
X160110438Y-89469391D01*
X160421507Y-89003844D01*
X160466667Y-88776807D01*
X161208872Y-88776807D01*
X161426877Y-89304420D01*
X161830197Y-89708444D01*
X162357429Y-89927370D01*
X162928307Y-89927868D01*
X163455920Y-89709863D01*
X163859944Y-89306543D01*
X164078870Y-88779311D01*
X164079368Y-88208433D01*
X163861363Y-87680820D01*
X163458043Y-87276796D01*
X162930811Y-87057870D01*
X162359933Y-87057372D01*
X161832320Y-87275377D01*
X161428296Y-87678697D01*
X161209370Y-88205929D01*
X161208872Y-88776807D01*
X160466667Y-88776807D01*
X160530740Y-88454693D01*
X160530740Y-88398467D01*
X160421507Y-87849316D01*
X160230740Y-87563813D01*
X160230740Y-86590392D01*
X165684992Y-81136140D01*
X166524860Y-81136140D01*
X166760177Y-81091862D01*
X166976301Y-80952790D01*
X167121291Y-80740590D01*
X167172300Y-80488700D01*
X167172300Y-79853594D01*
X167429977Y-79853819D01*
X167429663Y-80213475D01*
X167429860Y-80213952D01*
X167429860Y-81149247D01*
X165220168Y-83358940D01*
X165060675Y-83518155D01*
X164887517Y-83935164D01*
X164887123Y-84386695D01*
X165059553Y-84804006D01*
X165378555Y-85123565D01*
X165379030Y-85123762D01*
X166489340Y-86234072D01*
X166648555Y-86393565D01*
X167065564Y-86566723D01*
X167517095Y-86567117D01*
X167517572Y-86566920D01*
X173411180Y-86566920D01*
X173436625Y-86561859D01*
X173641035Y-86562037D01*
X173831618Y-86483290D01*
X173845526Y-86480523D01*
X173857214Y-86472713D01*
X174058346Y-86389607D01*
X174213721Y-86234502D01*
X174213746Y-86234486D01*
X174218412Y-86229820D01*
X174377905Y-86070605D01*
X174551063Y-85653596D01*
X174551368Y-85304280D01*
X175186260Y-85304280D01*
X175252373Y-85291840D01*
X175717500Y-85291840D01*
X176151846Y-85205443D01*
X176520066Y-84959406D01*
X177971120Y-83508352D01*
X177971120Y-83795780D01*
X178015398Y-84031097D01*
X178154470Y-84247221D01*
X178366670Y-84392211D01*
X178618560Y-84443220D01*
X179618560Y-84443220D01*
X179684673Y-84430780D01*
X181156769Y-84430780D01*
X181254117Y-84666380D01*
X181657437Y-85070404D01*
X182184669Y-85289330D01*
X182755547Y-85289828D01*
X183283160Y-85071823D01*
X183687184Y-84668503D01*
X183906110Y-84141271D01*
X183906608Y-83570393D01*
X183688603Y-83042780D01*
X183285283Y-82638756D01*
X182758051Y-82419830D01*
X182605100Y-82419697D01*
X182346906Y-82247177D01*
X181912560Y-82160780D01*
X179679991Y-82160780D01*
X179618560Y-82148340D01*
X178983454Y-82148340D01*
X178983679Y-81890663D01*
X179343335Y-81890977D01*
X179760646Y-81718547D01*
X180080205Y-81399545D01*
X180080402Y-81399070D01*
X180345613Y-81133860D01*
X181576754Y-81133860D01*
X181657437Y-81214684D01*
X182184669Y-81433610D01*
X182755547Y-81434108D01*
X182964456Y-81347789D01*
X184552000Y-82935333D01*
X184552000Y-83506600D01*
X184638397Y-83940946D01*
X184872857Y-84291840D01*
X184884434Y-84309166D01*
X188274891Y-87699623D01*
X188348860Y-88071491D01*
X188659929Y-88537038D01*
X189125476Y-88848107D01*
X189674627Y-88957340D01*
X189730853Y-88957340D01*
X190280004Y-88848107D01*
X190745551Y-88537038D01*
X191056620Y-88071491D01*
X191165853Y-87522340D01*
X191056620Y-86973189D01*
X190745551Y-86507642D01*
X190280004Y-86196573D01*
X189908136Y-86122604D01*
X186822000Y-83036468D01*
X186822000Y-82465200D01*
X186735603Y-82030854D01*
X186732213Y-82025780D01*
X186489566Y-81662633D01*
X184023226Y-79196294D01*
X184009406Y-79187060D01*
X183655006Y-78950257D01*
X183401968Y-78899924D01*
X183285283Y-78783036D01*
X182758051Y-78564110D01*
X182187173Y-78563612D01*
X181659560Y-78781617D01*
X181577173Y-78863860D01*
X179875480Y-78863860D01*
X179441135Y-78950256D01*
X179072914Y-79196293D01*
X178316407Y-79952801D01*
X178156915Y-80112015D01*
X177983757Y-80529024D01*
X177983441Y-80890897D01*
X177623785Y-80890583D01*
X177206474Y-81063013D01*
X176886915Y-81382015D01*
X176886718Y-81382490D01*
X175247422Y-83021786D01*
X175186260Y-83009400D01*
X175143952Y-83009400D01*
X173268560Y-81134008D01*
X173268560Y-80565371D01*
X173281000Y-80503940D01*
X173281000Y-79868834D01*
X173538677Y-79869059D01*
X173538363Y-80228715D01*
X173710793Y-80646026D01*
X174029795Y-80965585D01*
X174446804Y-81138743D01*
X174898335Y-81139137D01*
X175315646Y-80966707D01*
X175635205Y-80647705D01*
X175808363Y-80230696D01*
X175808757Y-79779165D01*
X175636327Y-79361854D01*
X175317325Y-79042295D01*
X174900316Y-78869137D01*
X174538443Y-78868821D01*
X174538757Y-78509165D01*
X174366327Y-78091854D01*
X174047325Y-77772295D01*
X173857896Y-77693637D01*
X173822666Y-77670097D01*
X173781473Y-77661903D01*
X173630316Y-77599137D01*
X173465203Y-77598993D01*
X173388320Y-77583700D01*
X168666080Y-77583700D01*
X168666080Y-75511206D01*
X168746904Y-75430523D01*
X168965830Y-74903291D01*
X168966328Y-74332413D01*
X168748323Y-73804800D01*
X168345003Y-73400776D01*
X168263149Y-73366787D01*
X168342880Y-73333843D01*
X168425267Y-73251600D01*
X170839828Y-73251600D01*
X171328040Y-73739812D01*
X171487255Y-73899305D01*
X171487730Y-73899502D01*
X172598040Y-75009812D01*
X172757255Y-75169305D01*
X173174264Y-75342463D01*
X173625795Y-75342857D01*
X174043106Y-75170427D01*
X174362665Y-74851425D01*
X174535823Y-74434416D01*
X174536128Y-74085100D01*
X175171020Y-74085100D01*
X175406337Y-74040822D01*
X175622461Y-73901750D01*
X175767451Y-73689550D01*
X175818460Y-73437660D01*
X175818460Y-73339472D01*
X176670232Y-72487700D01*
X176916477Y-72487700D01*
X176815357Y-72731224D01*
X176814963Y-73182755D01*
X176987393Y-73600066D01*
X177306395Y-73919625D01*
X177306870Y-73919822D01*
X178417180Y-75030132D01*
X178576395Y-75189625D01*
X178993404Y-75362783D01*
X179444935Y-75363177D01*
X179445412Y-75362980D01*
X184710172Y-75362980D01*
X184776984Y-75390723D01*
X185228515Y-75391117D01*
X185645826Y-75218687D01*
X185965385Y-74899685D01*
X186138543Y-74482676D01*
X186138848Y-74133360D01*
X186773740Y-74133360D01*
X187009057Y-74089082D01*
X187225181Y-73950010D01*
X187370171Y-73737810D01*
X187421180Y-73485920D01*
X187421180Y-73434712D01*
X188613530Y-74627062D01*
X188638373Y-74687186D01*
X188957375Y-75006745D01*
X189374384Y-75179903D01*
X189723700Y-75180208D01*
X189723700Y-75815100D01*
X189736140Y-75881213D01*
X189736140Y-82094360D01*
X189822537Y-82528706D01*
X190007804Y-82805977D01*
X190068574Y-82896926D01*
X191203511Y-84031863D01*
X191277480Y-84403731D01*
X191588549Y-84869278D01*
X192054096Y-85180347D01*
X192603247Y-85289580D01*
X192659473Y-85289580D01*
X193208624Y-85180347D01*
X193494127Y-84989580D01*
X195051777Y-84989580D01*
X195478189Y-85274500D01*
X196027340Y-85383733D01*
X196576491Y-85274500D01*
X196904068Y-85055620D01*
X198726932Y-85055620D01*
X199054509Y-85274500D01*
X199603660Y-85383733D01*
X200152811Y-85274500D01*
X200618358Y-84963431D01*
X200929427Y-84497884D01*
X201038660Y-83948733D01*
X201038660Y-83892507D01*
X200929427Y-83343356D01*
X200618358Y-82877809D01*
X200152811Y-82566740D01*
X199603660Y-82457507D01*
X199054509Y-82566740D01*
X198726932Y-82785620D01*
X196904068Y-82785620D01*
X196576491Y-82566740D01*
X196027340Y-82457507D01*
X195478189Y-82566740D01*
X195249448Y-82719580D01*
X193494127Y-82719580D01*
X193208624Y-82528813D01*
X192836756Y-82454844D01*
X192006140Y-81624228D01*
X192006140Y-81292584D01*
X192054096Y-81324627D01*
X192603247Y-81433860D01*
X192659473Y-81433860D01*
X193208624Y-81324627D01*
X193674171Y-81013558D01*
X193985240Y-80548011D01*
X194094473Y-79998860D01*
X193985240Y-79449709D01*
X193766360Y-79122132D01*
X193766360Y-74895620D01*
X195132734Y-74895620D01*
X195213417Y-74976444D01*
X195740649Y-75195370D01*
X196311527Y-75195868D01*
X196839140Y-74977863D01*
X197243164Y-74574543D01*
X197462090Y-74047311D01*
X197462092Y-74044807D01*
X198168412Y-74044807D01*
X198386417Y-74572420D01*
X198789737Y-74976444D01*
X199316969Y-75195370D01*
X199887847Y-75195868D01*
X200415460Y-74977863D01*
X200819484Y-74574543D01*
X201038410Y-74047311D01*
X201038908Y-73476433D01*
X200820903Y-72948820D01*
X200417583Y-72544796D01*
X199890351Y-72325870D01*
X199319473Y-72325372D01*
X198791860Y-72543377D01*
X198387836Y-72946697D01*
X198168910Y-73473929D01*
X198168412Y-74044807D01*
X197462092Y-74044807D01*
X197462588Y-73476433D01*
X197244583Y-72948820D01*
X196841263Y-72544796D01*
X196504874Y-72405115D01*
X196883590Y-72248633D01*
X197287614Y-71845313D01*
X197506540Y-71318081D01*
X197507038Y-70747203D01*
X197289033Y-70219590D01*
X196885713Y-69815566D01*
X196358481Y-69596640D01*
X196242070Y-69596538D01*
X195888307Y-69242775D01*
X196243166Y-69005666D01*
X196874356Y-68374477D01*
X197120393Y-68006256D01*
X197131080Y-67952530D01*
X197206790Y-67571910D01*
X197206790Y-61734157D01*
X197397557Y-61448654D01*
X197506790Y-60899503D01*
X197506790Y-60843277D01*
X197397557Y-60294126D01*
X197086488Y-59828579D01*
X196620941Y-59517510D01*
X196071790Y-59408277D01*
X195522639Y-59517510D01*
X195057092Y-59828579D01*
X194746023Y-60294126D01*
X194636790Y-60843277D01*
X194636790Y-60899503D01*
X194746023Y-61448654D01*
X194936790Y-61734157D01*
X194936790Y-66094157D01*
X192406903Y-63564271D01*
X192500016Y-63525797D01*
X192819575Y-63206795D01*
X192992733Y-62789786D01*
X192993127Y-62338255D01*
X192820697Y-61920944D01*
X192501695Y-61601385D01*
X192084686Y-61428227D01*
X191722813Y-61427911D01*
X191723127Y-61068255D01*
X191550697Y-60650944D01*
X191231695Y-60331385D01*
X191231221Y-60331188D01*
X188999086Y-58099054D01*
X188970778Y-58080139D01*
X188630866Y-57853017D01*
X188196520Y-57766620D01*
X186767026Y-57766620D01*
X186686343Y-57685796D01*
X186159111Y-57466870D01*
X186042700Y-57466768D01*
X184018551Y-55442619D01*
X202764613Y-55442619D01*
X203104155Y-56264372D01*
X203732321Y-56893636D01*
X204553481Y-57234611D01*
X205442619Y-57235387D01*
X206264372Y-56895845D01*
X206893636Y-56267679D01*
X207234611Y-55446519D01*
X207235387Y-54557381D01*
X206895845Y-53735628D01*
X206267679Y-53106364D01*
X205446519Y-52765389D01*
X204557381Y-52764613D01*
X203735628Y-53104155D01*
X203106364Y-53732321D01*
X202765389Y-54553481D01*
X202764613Y-55442619D01*
X184018551Y-55442619D01*
X183822566Y-55246634D01*
X183660753Y-55138514D01*
X183454346Y-55000597D01*
X183020000Y-54914200D01*
X172504400Y-54914200D01*
X172070055Y-55000596D01*
X171701834Y-55246634D01*
X166554524Y-60393944D01*
X166493363Y-60485477D01*
X166395445Y-60583225D01*
X166341919Y-60712130D01*
X166308487Y-60762164D01*
X166296850Y-60820667D01*
X166222287Y-61000234D01*
X166222264Y-61027032D01*
X163978741Y-58783509D01*
X164045850Y-58621891D01*
X164046348Y-58051013D01*
X163828343Y-57523400D01*
X163425023Y-57119376D01*
X162897791Y-56900450D01*
X162326913Y-56899952D01*
X161799300Y-57117957D01*
X161395276Y-57521277D01*
X161176350Y-58048509D01*
X161175852Y-58619387D01*
X161393857Y-59147000D01*
X161527866Y-59281242D01*
X161562497Y-59455346D01*
X161725365Y-59699095D01*
X161808534Y-59823566D01*
X164939650Y-62954682D01*
X164939650Y-62996990D01*
X164983928Y-63232307D01*
X165123000Y-63448431D01*
X165335200Y-63593421D01*
X165587090Y-63644430D01*
X165844038Y-63644430D01*
X165276904Y-64211564D01*
X165030867Y-64579784D01*
X164944470Y-65014130D01*
X164944470Y-66839400D01*
X164944273Y-67065165D01*
X165116703Y-67482476D01*
X165435705Y-67802035D01*
X165436180Y-67802232D01*
X166546490Y-68912542D01*
X166705705Y-69072035D01*
X166803878Y-69112800D01*
X163909915Y-69112800D01*
X163936867Y-69072464D01*
X164046100Y-68523313D01*
X164046100Y-68467087D01*
X163936867Y-67917936D01*
X163625798Y-67452389D01*
X163160251Y-67141320D01*
X162611100Y-67032087D01*
X162061949Y-67141320D01*
X161596402Y-67452389D01*
X161285333Y-67917936D01*
X161176100Y-68467087D01*
X161176100Y-68523313D01*
X161285333Y-69072464D01*
X161312285Y-69112800D01*
X160896832Y-69112800D01*
X160515376Y-68731344D01*
X160515748Y-68304993D01*
X160297743Y-67777380D01*
X159894423Y-67373356D01*
X159367191Y-67154430D01*
X158796313Y-67153932D01*
X158268700Y-67371937D01*
X157864676Y-67775257D01*
X157645750Y-68302489D01*
X157645252Y-68873367D01*
X157863257Y-69400980D01*
X158266577Y-69805004D01*
X158458441Y-69884673D01*
X159624134Y-71050366D01*
X159975947Y-71285441D01*
X159078448Y-72182940D01*
X158918955Y-72342155D01*
X158745797Y-72759164D01*
X158745403Y-73210695D01*
X158917833Y-73628006D01*
X159236835Y-73947565D01*
X159653844Y-74120723D01*
X160015717Y-74121039D01*
X160015403Y-74480695D01*
X160015600Y-74481172D01*
X160015600Y-76242991D01*
X159797197Y-76569854D01*
X159717418Y-76970929D01*
X159382431Y-76831830D01*
X158811553Y-76831332D01*
X158283940Y-77049337D01*
X157879916Y-77452657D01*
X157660990Y-77979889D01*
X157660888Y-78096300D01*
X156611694Y-79145494D01*
X156365657Y-79513714D01*
X156279260Y-79948060D01*
X150710000Y-79948060D01*
X150710000Y-58778221D01*
X157688586Y-58778221D01*
X157928111Y-59284314D01*
X158343077Y-59660221D01*
X158731461Y-59821084D01*
X158953500Y-59699095D01*
X158953500Y-58556180D01*
X159207500Y-58556180D01*
X159207500Y-59699095D01*
X159429539Y-59821084D01*
X159817923Y-59660221D01*
X160232889Y-59284314D01*
X160472414Y-58778221D01*
X160351129Y-58556180D01*
X159207500Y-58556180D01*
X158953500Y-58556180D01*
X157809871Y-58556180D01*
X157688586Y-58778221D01*
X150710000Y-58778221D01*
X150710000Y-58080139D01*
X157688586Y-58080139D01*
X157809871Y-58302180D01*
X158953500Y-58302180D01*
X158953500Y-57159265D01*
X159207500Y-57159265D01*
X159207500Y-58302180D01*
X160351129Y-58302180D01*
X160472414Y-58080139D01*
X160232889Y-57574046D01*
X159817923Y-57198139D01*
X159429539Y-57037276D01*
X159207500Y-57159265D01*
X158953500Y-57159265D01*
X158731461Y-57037276D01*
X158343077Y-57198139D01*
X157928111Y-57574046D01*
X157688586Y-58080139D01*
X150710000Y-58080139D01*
X150710000Y-55442619D01*
X152764613Y-55442619D01*
X153104155Y-56264372D01*
X153732321Y-56893636D01*
X154553481Y-57234611D01*
X155442619Y-57235387D01*
X156264372Y-56895845D01*
X156893636Y-56267679D01*
X157234611Y-55446519D01*
X157235387Y-54557381D01*
X156895845Y-53735628D01*
X156267679Y-53106364D01*
X155446519Y-52765389D01*
X154557381Y-52764613D01*
X153735628Y-53104155D01*
X153106364Y-53732321D01*
X152765389Y-54553481D01*
X152764613Y-55442619D01*
X150710000Y-55442619D01*
X150710000Y-55069931D01*
X151049408Y-53363610D01*
X151976349Y-51976346D01*
X153363610Y-51049408D01*
X155069931Y-50710000D01*
X204930069Y-50710000D01*
X206636390Y-51049408D01*
X206636390Y-51049408D01*
G37*
X206636390Y-51049408D02*
X208023654Y-51976349D01*
X208950592Y-53363610D01*
X209290000Y-55069931D01*
X209290000Y-139930069D01*
X208950592Y-141636390D01*
X208023654Y-143023651D01*
X206636390Y-143950592D01*
X204930069Y-144290000D01*
X155069931Y-144290000D01*
X153363610Y-143950592D01*
X151976349Y-143023654D01*
X151049408Y-141636390D01*
X150811953Y-140442619D01*
X152764613Y-140442619D01*
X153104155Y-141264372D01*
X153732321Y-141893636D01*
X154553481Y-142234611D01*
X155442619Y-142235387D01*
X156264372Y-141895845D01*
X156893636Y-141267679D01*
X157234611Y-140446519D01*
X157234614Y-140442619D01*
X202764613Y-140442619D01*
X203104155Y-141264372D01*
X203732321Y-141893636D01*
X204553481Y-142234611D01*
X205442619Y-142235387D01*
X206264372Y-141895845D01*
X206893636Y-141267679D01*
X207234611Y-140446519D01*
X207235387Y-139557381D01*
X206895845Y-138735628D01*
X206267679Y-138106364D01*
X205446519Y-137765389D01*
X204557381Y-137764613D01*
X203735628Y-138104155D01*
X203106364Y-138732321D01*
X202765389Y-139553481D01*
X202764613Y-140442619D01*
X157234614Y-140442619D01*
X157235387Y-139557381D01*
X156895845Y-138735628D01*
X156267679Y-138106364D01*
X155446519Y-137765389D01*
X154557381Y-137764613D01*
X153735628Y-138104155D01*
X153106364Y-138732321D01*
X152765389Y-139553481D01*
X152764613Y-140442619D01*
X150811953Y-140442619D01*
X150710000Y-139930069D01*
X150710000Y-137351887D01*
X161328500Y-137351887D01*
X161328500Y-137408113D01*
X161437733Y-137957264D01*
X161748802Y-138422811D01*
X162214349Y-138733880D01*
X162763500Y-138843113D01*
X163312651Y-138733880D01*
X163778198Y-138422811D01*
X164089267Y-137957264D01*
X164198500Y-137408113D01*
X164198500Y-137351887D01*
X164089267Y-136802736D01*
X163778198Y-136337189D01*
X163312651Y-136026120D01*
X162763500Y-135916887D01*
X162214349Y-136026120D01*
X161748802Y-136337189D01*
X161437733Y-136802736D01*
X161328500Y-137351887D01*
X150710000Y-137351887D01*
X150710000Y-123623067D01*
X157965292Y-123623067D01*
X158183297Y-124150680D01*
X158586617Y-124554704D01*
X159113849Y-124773630D01*
X159230260Y-124773732D01*
X160459794Y-126003266D01*
X160828014Y-126249303D01*
X161262360Y-126335700D01*
X161618176Y-126335700D01*
X161547676Y-126406077D01*
X161328750Y-126933309D01*
X161328252Y-127504187D01*
X161546257Y-128031800D01*
X161949577Y-128435824D01*
X162476809Y-128654750D01*
X163047687Y-128655248D01*
X163575300Y-128437243D01*
X163657687Y-128355000D01*
X165229608Y-128355000D01*
X166139800Y-129265192D01*
X166139800Y-129307500D01*
X166184078Y-129542817D01*
X166323150Y-129758941D01*
X166535350Y-129903931D01*
X166787240Y-129954940D01*
X167074668Y-129954940D01*
X166484674Y-130544934D01*
X166238637Y-130913154D01*
X166152240Y-131347500D01*
X166152240Y-133109270D01*
X166152043Y-133335035D01*
X166324473Y-133752346D01*
X166643475Y-134071905D01*
X167060484Y-134245063D01*
X167422357Y-134245379D01*
X167422043Y-134605035D01*
X167422240Y-134605512D01*
X167422240Y-136049040D01*
X167508637Y-136483386D01*
X167586923Y-136600549D01*
X167754674Y-136851606D01*
X168592874Y-137689806D01*
X168961094Y-137935843D01*
X169395440Y-138022240D01*
X172450534Y-138022240D01*
X172531217Y-138103064D01*
X173058449Y-138321990D01*
X173174860Y-138322092D01*
X174546634Y-139693866D01*
X174914854Y-139939903D01*
X175349200Y-140026300D01*
X186626800Y-140026300D01*
X187061146Y-139939903D01*
X187429366Y-139693866D01*
X191908166Y-135215066D01*
X192006287Y-135068219D01*
X194414392Y-137476324D01*
X194414292Y-137590527D01*
X194632297Y-138118140D01*
X195035617Y-138522164D01*
X195562849Y-138741090D01*
X196133727Y-138741588D01*
X196661340Y-138523583D01*
X197065364Y-138120263D01*
X197243634Y-137690941D01*
X198409866Y-137690941D01*
X198649391Y-138197034D01*
X199064357Y-138572941D01*
X199452741Y-138733804D01*
X199674780Y-138611815D01*
X199674780Y-137468900D01*
X199928780Y-137468900D01*
X199928780Y-138611815D01*
X200150819Y-138733804D01*
X200539203Y-138572941D01*
X200954169Y-138197034D01*
X201193694Y-137690941D01*
X201072409Y-137468900D01*
X199928780Y-137468900D01*
X199674780Y-137468900D01*
X198531151Y-137468900D01*
X198409866Y-137690941D01*
X197243634Y-137690941D01*
X197284290Y-137593031D01*
X197284788Y-137022153D01*
X197272684Y-136992859D01*
X198409866Y-136992859D01*
X198531151Y-137214900D01*
X199674780Y-137214900D01*
X199674780Y-136071985D01*
X199928780Y-136071985D01*
X199928780Y-137214900D01*
X201072409Y-137214900D01*
X201193694Y-136992859D01*
X200954169Y-136486766D01*
X200539203Y-136110859D01*
X200150819Y-135949996D01*
X199928780Y-136071985D01*
X199674780Y-136071985D01*
X199452741Y-135949996D01*
X199064357Y-136110859D01*
X198649391Y-136486766D01*
X198409866Y-136992859D01*
X197272684Y-136992859D01*
X197066783Y-136494540D01*
X196663463Y-136090516D01*
X196136231Y-135871590D01*
X196019820Y-135871488D01*
X193523040Y-133374708D01*
X193523040Y-132522360D01*
X193478762Y-132287043D01*
X193339690Y-132070919D01*
X193127490Y-131925929D01*
X192875600Y-131874920D01*
X191875600Y-131874920D01*
X191640283Y-131919198D01*
X191424159Y-132058270D01*
X191279169Y-132270470D01*
X191228160Y-132522360D01*
X191228160Y-133157466D01*
X190970483Y-133157241D01*
X190970797Y-132797585D01*
X190798367Y-132380274D01*
X190479365Y-132060715D01*
X190062356Y-131887557D01*
X189610825Y-131887163D01*
X189193514Y-132059593D01*
X188873955Y-132378595D01*
X188700797Y-132795604D01*
X188700403Y-133247135D01*
X188872833Y-133664446D01*
X189191835Y-133984005D01*
X189608844Y-134157163D01*
X189755677Y-134157291D01*
X187939971Y-135972997D01*
X187940128Y-135792793D01*
X187722123Y-135265180D01*
X187318803Y-134861156D01*
X187252336Y-134833557D01*
X187258885Y-134830844D01*
X187333019Y-134584725D01*
X186504880Y-133756585D01*
X185676741Y-134584725D01*
X185750875Y-134830844D01*
X185757363Y-134833176D01*
X185693080Y-134859737D01*
X185289056Y-135263057D01*
X185085929Y-135752240D01*
X184367907Y-135752240D01*
X184082404Y-135561473D01*
X183533253Y-135452240D01*
X183477027Y-135452240D01*
X182927876Y-135561473D01*
X182462329Y-135872542D01*
X182151260Y-136338089D01*
X182042027Y-136887240D01*
X182151260Y-137436391D01*
X182365017Y-137756300D01*
X175819332Y-137756300D01*
X174780288Y-136717256D01*
X174780388Y-136603053D01*
X174562383Y-136075440D01*
X174159063Y-135671416D01*
X173631831Y-135452490D01*
X173060953Y-135451992D01*
X172533340Y-135669997D01*
X172450953Y-135752240D01*
X169865572Y-135752240D01*
X169692240Y-135578908D01*
X169692240Y-134381251D01*
X169692348Y-134257700D01*
X170327240Y-134257700D01*
X170562557Y-134213422D01*
X170778681Y-134074350D01*
X170923671Y-133862150D01*
X170974680Y-133610260D01*
X170974680Y-132610260D01*
X170930402Y-132374943D01*
X170791330Y-132158819D01*
X170579130Y-132013829D01*
X170327240Y-131962820D01*
X169327240Y-131962820D01*
X169091923Y-132007098D01*
X168875799Y-132146170D01*
X168730809Y-132358370D01*
X168679800Y-132610260D01*
X168679800Y-133245366D01*
X168422123Y-133245141D01*
X168422437Y-132885485D01*
X168422240Y-132885008D01*
X168422240Y-131817632D01*
X170609350Y-129630523D01*
X170639966Y-129610066D01*
X171567372Y-128682660D01*
X171821780Y-128682660D01*
X171821780Y-129317660D01*
X171834220Y-129383773D01*
X171834220Y-130796320D01*
X171920617Y-131230666D01*
X172156242Y-131583303D01*
X172166654Y-131598886D01*
X172238080Y-131670312D01*
X172238080Y-132500134D01*
X172157256Y-132580817D01*
X171938330Y-133108049D01*
X171937832Y-133678927D01*
X172155837Y-134206540D01*
X172559157Y-134610564D01*
X173086389Y-134829490D01*
X173657267Y-134829988D01*
X174184880Y-134611983D01*
X174588904Y-134208663D01*
X174781940Y-133743779D01*
X182141176Y-133743779D01*
X182302039Y-134132163D01*
X182677946Y-134547129D01*
X183184039Y-134786654D01*
X183406080Y-134665369D01*
X183406080Y-133521740D01*
X183660080Y-133521740D01*
X183660080Y-134665369D01*
X183882121Y-134786654D01*
X184388214Y-134547129D01*
X184764121Y-134132163D01*
X184924984Y-133743779D01*
X184802995Y-133521740D01*
X183660080Y-133521740D01*
X183406080Y-133521740D01*
X182263165Y-133521740D01*
X182141176Y-133743779D01*
X174781940Y-133743779D01*
X174807830Y-133681431D01*
X174808110Y-133360203D01*
X185057915Y-133360203D01*
X185085102Y-133930434D01*
X185251016Y-134330985D01*
X185497135Y-134405119D01*
X186325275Y-133576980D01*
X186684485Y-133576980D01*
X187512625Y-134405119D01*
X187758744Y-134330985D01*
X187951845Y-133793757D01*
X187924658Y-133223526D01*
X187758744Y-132822975D01*
X187512625Y-132748841D01*
X186684485Y-133576980D01*
X186325275Y-133576980D01*
X185497135Y-132748841D01*
X185251016Y-132822975D01*
X185057915Y-133360203D01*
X174808110Y-133360203D01*
X174808328Y-133110553D01*
X174781532Y-133045701D01*
X182141176Y-133045701D01*
X182263165Y-133267740D01*
X183406080Y-133267740D01*
X183406080Y-132124111D01*
X183660080Y-132124111D01*
X183660080Y-133267740D01*
X184802995Y-133267740D01*
X184924984Y-133045701D01*
X184764121Y-132657317D01*
X184684330Y-132569235D01*
X185676741Y-132569235D01*
X186504880Y-133397375D01*
X187333019Y-132569235D01*
X187258885Y-132323116D01*
X186721657Y-132130015D01*
X186151426Y-132157202D01*
X185750875Y-132323116D01*
X185676741Y-132569235D01*
X184684330Y-132569235D01*
X184388214Y-132242351D01*
X183882121Y-132002826D01*
X183660080Y-132124111D01*
X183406080Y-132124111D01*
X183184039Y-132002826D01*
X182677946Y-132242351D01*
X182302039Y-132657317D01*
X182141176Y-133045701D01*
X174781532Y-133045701D01*
X174590323Y-132582940D01*
X174508080Y-132500553D01*
X174508080Y-132335180D01*
X176880820Y-132335180D01*
X177315166Y-132248783D01*
X177683386Y-132002746D01*
X179718772Y-129967360D01*
X183614169Y-129967360D01*
X183675600Y-129979800D01*
X184675600Y-129979800D01*
X184910917Y-129935522D01*
X185127041Y-129796450D01*
X185272031Y-129584250D01*
X185323040Y-129332360D01*
X185323040Y-128697254D01*
X185580717Y-128697479D01*
X185580403Y-129057135D01*
X185752833Y-129474446D01*
X186071835Y-129794005D01*
X186488844Y-129967163D01*
X186940375Y-129967557D01*
X187357686Y-129795127D01*
X187677245Y-129476125D01*
X187762766Y-129270168D01*
X187766844Y-129264065D01*
X187768263Y-129256929D01*
X187850403Y-129059116D01*
X187850592Y-128843035D01*
X187853240Y-128829720D01*
X187853240Y-124370380D01*
X190240694Y-124370380D01*
X190321377Y-124451204D01*
X190848609Y-124670130D01*
X191419487Y-124670628D01*
X191947100Y-124452623D01*
X192351124Y-124049303D01*
X192482348Y-123733280D01*
X193043368Y-124294300D01*
X192862500Y-124294300D01*
X192428154Y-124380697D01*
X192165611Y-124556123D01*
X192059934Y-124626734D01*
X191831334Y-124855334D01*
X191585297Y-125223555D01*
X191498900Y-125657900D01*
X191585297Y-126092245D01*
X191831334Y-126460466D01*
X192199555Y-126706503D01*
X192633900Y-126792900D01*
X193068245Y-126706503D01*
X193281067Y-126564300D01*
X194526964Y-126564300D01*
X194523773Y-126569076D01*
X194449804Y-126940944D01*
X193254468Y-128136280D01*
X192989365Y-127870715D01*
X192572356Y-127697557D01*
X192210483Y-127697241D01*
X192210797Y-127337585D01*
X192038367Y-126920274D01*
X191719365Y-126600715D01*
X191302356Y-126427557D01*
X190850825Y-126427163D01*
X190433514Y-126599593D01*
X190113955Y-126918595D01*
X189940797Y-127335604D01*
X189940492Y-127684920D01*
X189305600Y-127684920D01*
X189070283Y-127729198D01*
X188854159Y-127868270D01*
X188709169Y-128080470D01*
X188658160Y-128332360D01*
X188658160Y-129332360D01*
X188702438Y-129567677D01*
X188841510Y-129783801D01*
X189053710Y-129928791D01*
X189305600Y-129979800D01*
X189318168Y-129979800D01*
X190751834Y-131413466D01*
X191120055Y-131659504D01*
X191554400Y-131745900D01*
X192384980Y-131745900D01*
X192819326Y-131659503D01*
X193187546Y-131413466D01*
X196026823Y-128574189D01*
X196398691Y-128500220D01*
X196864238Y-128189151D01*
X197175307Y-127723604D01*
X197284540Y-127174453D01*
X197284540Y-127118227D01*
X197175307Y-126569076D01*
X197172116Y-126564300D01*
X197579048Y-126564300D01*
X198366632Y-127351884D01*
X198366532Y-127466087D01*
X198584537Y-127993700D01*
X198987857Y-128397724D01*
X199515089Y-128616650D01*
X200085967Y-128617148D01*
X200613580Y-128399143D01*
X200922300Y-128090961D01*
X200922300Y-130064568D01*
X197292334Y-133694534D01*
X197046297Y-134062755D01*
X196959900Y-134497100D01*
X197046297Y-134931445D01*
X197292334Y-135299666D01*
X197660555Y-135545703D01*
X198094900Y-135632100D01*
X198529245Y-135545703D01*
X198897466Y-135299666D01*
X202859866Y-131337266D01*
X202931094Y-131230666D01*
X203105903Y-130969046D01*
X203192300Y-130534700D01*
X203192300Y-101350100D01*
X203105903Y-100915754D01*
X202859866Y-100547534D01*
X199899072Y-97586740D01*
X200016078Y-97411630D01*
X200121885Y-96879700D01*
X200016078Y-96347770D01*
X199714763Y-95896822D01*
X199265973Y-95596949D01*
X199339223Y-95575292D01*
X199762641Y-95232776D01*
X200022753Y-94754297D01*
X200037237Y-94681671D01*
X199914643Y-94466700D01*
X198066960Y-94466700D01*
X198066960Y-94486700D01*
X197812960Y-94486700D01*
X197812960Y-94466700D01*
X195965277Y-94466700D01*
X195842683Y-94681671D01*
X195857167Y-94754297D01*
X196117279Y-95232776D01*
X196540697Y-95575292D01*
X196613947Y-95596949D01*
X196371172Y-95759166D01*
X196009554Y-95831097D01*
X195911190Y-95896822D01*
X195641334Y-96077134D01*
X193068008Y-98650460D01*
X190569406Y-98650460D01*
X190488723Y-98569636D01*
X189961491Y-98350710D01*
X189390613Y-98350212D01*
X188863000Y-98568217D01*
X188458976Y-98971537D01*
X188240050Y-99498769D01*
X188239552Y-100069647D01*
X188457557Y-100597260D01*
X188860877Y-101001284D01*
X189388109Y-101220210D01*
X189958987Y-101220708D01*
X190486600Y-101002703D01*
X190568987Y-100920460D01*
X193538140Y-100920460D01*
X193972486Y-100834063D01*
X194340706Y-100588026D01*
X196740163Y-98188569D01*
X197148035Y-98269700D01*
X197371768Y-98269700D01*
X200922300Y-101820232D01*
X200922300Y-102493600D01*
X200689363Y-102260256D01*
X200162131Y-102041330D01*
X199591253Y-102040832D01*
X199063640Y-102258837D01*
X198659616Y-102662157D01*
X198440690Y-103189389D01*
X198440192Y-103760267D01*
X198658197Y-104287880D01*
X199061517Y-104691904D01*
X199588749Y-104910830D01*
X200159627Y-104911328D01*
X200687240Y-104693323D01*
X200922300Y-104458673D01*
X200922300Y-126273208D01*
X200615703Y-125966076D01*
X200088471Y-125747150D01*
X199972060Y-125747048D01*
X198851746Y-124626734D01*
X198746069Y-124556123D01*
X198483526Y-124380697D01*
X198049180Y-124294300D01*
X197642252Y-124294300D01*
X198691312Y-123245240D01*
X198850805Y-123086025D01*
X199023963Y-122669016D01*
X199024357Y-122217485D01*
X198851927Y-121800174D01*
X198532925Y-121480615D01*
X198115916Y-121307457D01*
X197754043Y-121307141D01*
X197754357Y-120947485D01*
X197581927Y-120530174D01*
X197262925Y-120210615D01*
X197262451Y-120210418D01*
X197098840Y-120046807D01*
X197098840Y-117637106D01*
X197179664Y-117556423D01*
X197398590Y-117029191D01*
X197398592Y-117026687D01*
X197993152Y-117026687D01*
X198211157Y-117554300D01*
X198614477Y-117958324D01*
X199141709Y-118177250D01*
X199712587Y-118177748D01*
X200240200Y-117959743D01*
X200644224Y-117556423D01*
X200863150Y-117029191D01*
X200863648Y-116458313D01*
X200645643Y-115930700D01*
X200242323Y-115526676D01*
X199715091Y-115307750D01*
X199144213Y-115307252D01*
X198616600Y-115525257D01*
X198212576Y-115928577D01*
X197993650Y-116455809D01*
X197993152Y-117026687D01*
X197398592Y-117026687D01*
X197399088Y-116458313D01*
X197181083Y-115930700D01*
X196777763Y-115526676D01*
X196250531Y-115307750D01*
X195679653Y-115307252D01*
X195627212Y-115328920D01*
X200230966Y-110725167D01*
X200477003Y-110356946D01*
X200505283Y-110214774D01*
X200563400Y-109922600D01*
X200563400Y-107445267D01*
X200754167Y-107159764D01*
X200863400Y-106610613D01*
X200863400Y-106554387D01*
X200754167Y-106005236D01*
X200443098Y-105539689D01*
X199977551Y-105228620D01*
X199428400Y-105119387D01*
X198879249Y-105228620D01*
X198413702Y-105539689D01*
X198102633Y-106005236D01*
X197993400Y-106554387D01*
X197993400Y-106610613D01*
X198102633Y-107159764D01*
X198293400Y-107445267D01*
X198293400Y-109452467D01*
X193808508Y-113937360D01*
X192938791Y-113937360D01*
X192877360Y-113924920D01*
X191877360Y-113924920D01*
X191642043Y-113969198D01*
X191425919Y-114108270D01*
X191280929Y-114320470D01*
X191229920Y-114572360D01*
X191229920Y-115207466D01*
X190972243Y-115207241D01*
X190972557Y-114847585D01*
X190800127Y-114430274D01*
X190481125Y-114110715D01*
X190064116Y-113937557D01*
X189612585Y-113937163D01*
X189195274Y-114109593D01*
X188875715Y-114428595D01*
X188702557Y-114845604D01*
X188702163Y-115297135D01*
X188874593Y-115714446D01*
X189193595Y-116034005D01*
X189610604Y-116207163D01*
X189972477Y-116207479D01*
X189972163Y-116567135D01*
X190000300Y-116635232D01*
X190000300Y-117995248D01*
X187809343Y-115804291D01*
X187855520Y-115576260D01*
X187855520Y-114576260D01*
X187811242Y-114340943D01*
X187672170Y-114124819D01*
X187459970Y-113979829D01*
X187208080Y-113928820D01*
X187165772Y-113928820D01*
X185336100Y-112099148D01*
X185336100Y-111483791D01*
X185348540Y-111422360D01*
X185348540Y-110787254D01*
X185606217Y-110787479D01*
X185605903Y-111147135D01*
X185778333Y-111564446D01*
X186097335Y-111884005D01*
X186514344Y-112057163D01*
X186965875Y-112057557D01*
X187383186Y-111885127D01*
X187702745Y-111566125D01*
X187875903Y-111149116D01*
X187876297Y-110697585D01*
X187703867Y-110280274D01*
X187384865Y-109960715D01*
X186967856Y-109787557D01*
X186605983Y-109787241D01*
X186606297Y-109427585D01*
X186433867Y-109010274D01*
X186114865Y-108690715D01*
X185697856Y-108517557D01*
X185246325Y-108517163D01*
X184829014Y-108689593D01*
X184509455Y-109008595D01*
X184336297Y-109425604D01*
X184335992Y-109774920D01*
X183701100Y-109774920D01*
X183465783Y-109819198D01*
X183249659Y-109958270D01*
X183104669Y-110170470D01*
X183053660Y-110422360D01*
X183053660Y-110464668D01*
X182986600Y-110531728D01*
X182986600Y-105922100D01*
X182900203Y-105487754D01*
X182654166Y-105119534D01*
X181267326Y-103732694D01*
X181184043Y-103677046D01*
X180899106Y-103486657D01*
X180573600Y-103421910D01*
X180573600Y-100776229D01*
X180868680Y-100334611D01*
X180977913Y-99785460D01*
X180868680Y-99236309D01*
X180557611Y-98770762D01*
X180092064Y-98459693D01*
X179542913Y-98350460D01*
X179486687Y-98350460D01*
X178937536Y-98459693D01*
X178471989Y-98770762D01*
X178160920Y-99236309D01*
X178051687Y-99785460D01*
X178160920Y-100334611D01*
X178303600Y-100548146D01*
X178303600Y-101186174D01*
X177967945Y-100961897D01*
X177533600Y-100875500D01*
X177099255Y-100961897D01*
X176731034Y-101207934D01*
X173873534Y-104065434D01*
X173627497Y-104433654D01*
X173541100Y-104868000D01*
X173541100Y-108246200D01*
X173627497Y-108680546D01*
X173867622Y-109039918D01*
X173873534Y-109048766D01*
X173949734Y-109124966D01*
X174317955Y-109371003D01*
X174752300Y-109457400D01*
X175186645Y-109371003D01*
X175554866Y-109124966D01*
X175800903Y-108756745D01*
X175887300Y-108322400D01*
X175811100Y-107939319D01*
X175811100Y-105338132D01*
X178303600Y-102845632D01*
X178303600Y-103658532D01*
X178084720Y-103986109D01*
X177975487Y-104535260D01*
X178084720Y-105084411D01*
X178395789Y-105549958D01*
X178861336Y-105861027D01*
X179410487Y-105970260D01*
X179466713Y-105970260D01*
X180015864Y-105861027D01*
X180117490Y-105793122D01*
X180716600Y-106392232D01*
X180716600Y-107501851D01*
X180597423Y-107213420D01*
X180194103Y-106809396D01*
X179666871Y-106590470D01*
X179095993Y-106589972D01*
X178568380Y-106807977D01*
X178164356Y-107211297D01*
X177945430Y-107738529D01*
X177944932Y-108309407D01*
X178162937Y-108837020D01*
X178566257Y-109241044D01*
X179093489Y-109459970D01*
X179664367Y-109460468D01*
X180191980Y-109242463D01*
X180596004Y-108839143D01*
X180716600Y-108548716D01*
X180716600Y-111370400D01*
X180802997Y-111804746D01*
X181030668Y-112145480D01*
X180841670Y-112145480D01*
X180718120Y-112145372D01*
X180718120Y-111510480D01*
X180673842Y-111275163D01*
X180534770Y-111059039D01*
X180322570Y-110914049D01*
X180070680Y-110863040D01*
X179070680Y-110863040D01*
X179004567Y-110875480D01*
X177012957Y-110875480D01*
X176663503Y-110525416D01*
X176136271Y-110306490D01*
X175565393Y-110305992D01*
X175037780Y-110523997D01*
X174633756Y-110927317D01*
X174414830Y-111454549D01*
X174414332Y-112025427D01*
X174632337Y-112553040D01*
X175035657Y-112957064D01*
X175562889Y-113175990D01*
X176133767Y-113176488D01*
X176208812Y-113145480D01*
X179009249Y-113145480D01*
X179070680Y-113157920D01*
X179705786Y-113157920D01*
X179705561Y-113415597D01*
X179345905Y-113415283D01*
X178928594Y-113587713D01*
X178609035Y-113906715D01*
X178608838Y-113907190D01*
X178287748Y-114228280D01*
X176792446Y-114228280D01*
X176711763Y-114147456D01*
X176184531Y-113928530D01*
X175613653Y-113928032D01*
X175086040Y-114146037D01*
X174682016Y-114549357D01*
X174463090Y-115076589D01*
X174462592Y-115647467D01*
X174680597Y-116175080D01*
X175083917Y-116579104D01*
X175611149Y-116798030D01*
X176182027Y-116798528D01*
X176709640Y-116580523D01*
X176792027Y-116498280D01*
X178757880Y-116498280D01*
X179192226Y-116411883D01*
X179560446Y-116165846D01*
X180372832Y-115353460D01*
X180532325Y-115194245D01*
X180705483Y-114777236D01*
X180705799Y-114415363D01*
X181065455Y-114415677D01*
X181065932Y-114415480D01*
X181842980Y-114415480D01*
X182277326Y-114329083D01*
X182645546Y-114083046D01*
X183381796Y-113346796D01*
X183398534Y-113371846D01*
X183967772Y-113941084D01*
X183943305Y-113941063D01*
X183525994Y-114113493D01*
X183206435Y-114432495D01*
X183033277Y-114849504D01*
X183032883Y-115301035D01*
X183205313Y-115718346D01*
X183524315Y-116037905D01*
X183941324Y-116211063D01*
X184303197Y-116211379D01*
X184302883Y-116571035D01*
X184475313Y-116988346D01*
X184794315Y-117307905D01*
X185211324Y-117481063D01*
X185662855Y-117481457D01*
X185663332Y-117481260D01*
X186276048Y-117481260D01*
X189700152Y-120905364D01*
X189700052Y-121019567D01*
X189918057Y-121547180D01*
X190321377Y-121951204D01*
X190403231Y-121985193D01*
X190323500Y-122018137D01*
X190241113Y-122100380D01*
X187991653Y-122100380D01*
X187521219Y-121629947D01*
X187362005Y-121470455D01*
X187361530Y-121470258D01*
X186251220Y-120359948D01*
X186092005Y-120200455D01*
X185674996Y-120027297D01*
X185223465Y-120026903D01*
X184806154Y-120199333D01*
X184486595Y-120518335D01*
X184313437Y-120935344D01*
X184313132Y-121284660D01*
X183678240Y-121284660D01*
X183442923Y-121328938D01*
X183226799Y-121468010D01*
X183081809Y-121680210D01*
X183030800Y-121932100D01*
X183030800Y-121974408D01*
X182179771Y-122825437D01*
X182244723Y-122669016D01*
X182245117Y-122217485D01*
X182072687Y-121800174D01*
X181753685Y-121480615D01*
X181753210Y-121480418D01*
X180642900Y-120370108D01*
X180483685Y-120210615D01*
X180066676Y-120037457D01*
X179615145Y-120037063D01*
X179559343Y-120060120D01*
X174227510Y-120060120D01*
X174001745Y-120059923D01*
X173584434Y-120232353D01*
X173264875Y-120551355D01*
X173091717Y-120968364D01*
X173091412Y-121317680D01*
X172456520Y-121317680D01*
X172221203Y-121361958D01*
X172005079Y-121501030D01*
X171860089Y-121713230D01*
X171809080Y-121965120D01*
X171809080Y-122322388D01*
X170065768Y-124065700D01*
X164487632Y-124065700D01*
X165680690Y-122872642D01*
X166134154Y-123326106D01*
X166502374Y-123572143D01*
X166936720Y-123658540D01*
X168060949Y-123658540D01*
X168286715Y-123658737D01*
X168704026Y-123486307D01*
X169023585Y-123167305D01*
X169196743Y-122750296D01*
X169197059Y-122388423D01*
X169556715Y-122388737D01*
X169974026Y-122216307D01*
X170293585Y-121897305D01*
X170466743Y-121480296D01*
X170467137Y-121028765D01*
X170466940Y-121028288D01*
X170466940Y-108734687D01*
X170574060Y-108574371D01*
X170683293Y-108025220D01*
X170574060Y-107476069D01*
X170262991Y-107010522D01*
X169797444Y-106699453D01*
X169248293Y-106590220D01*
X169192067Y-106590220D01*
X168642916Y-106699453D01*
X168177369Y-107010522D01*
X167866300Y-107476069D01*
X167757067Y-108025220D01*
X167866300Y-108574371D01*
X168177369Y-109039918D01*
X168196940Y-109052995D01*
X168196940Y-118836100D01*
X167561940Y-118836100D01*
X167326623Y-118880378D01*
X167110499Y-119019450D01*
X166965509Y-119231650D01*
X166914500Y-119483540D01*
X166914500Y-120483540D01*
X166958778Y-120718857D01*
X167097850Y-120934981D01*
X167310050Y-121079971D01*
X167561940Y-121130980D01*
X168196940Y-121130980D01*
X168196940Y-121252550D01*
X168196821Y-121388657D01*
X167837165Y-121388343D01*
X167836688Y-121388540D01*
X167406852Y-121388540D01*
X166872840Y-120854528D01*
X166872840Y-116240008D01*
X167091720Y-115912431D01*
X167200953Y-115363280D01*
X167091720Y-114814129D01*
X166780651Y-114348582D01*
X166315104Y-114037513D01*
X165765953Y-113928280D01*
X165709727Y-113928280D01*
X165160576Y-114037513D01*
X164695029Y-114348582D01*
X164383960Y-114814129D01*
X164274727Y-115363280D01*
X164383960Y-115912431D01*
X164602840Y-116240008D01*
X164602840Y-120740228D01*
X163308055Y-122035013D01*
X163121311Y-121957470D01*
X162550433Y-121956972D01*
X162022820Y-122174977D01*
X161618796Y-122578297D01*
X161399870Y-123105529D01*
X161399372Y-123676407D01*
X161438925Y-123772133D01*
X160835688Y-123168896D01*
X160835788Y-123054693D01*
X160617783Y-122527080D01*
X160214463Y-122123056D01*
X159687231Y-121904130D01*
X159116353Y-121903632D01*
X158588740Y-122121637D01*
X158184716Y-122524957D01*
X157965790Y-123052189D01*
X157965292Y-123623067D01*
X150710000Y-123623067D01*
X150710000Y-113150767D01*
X157965540Y-113150767D01*
X157965540Y-113206993D01*
X158074773Y-113756144D01*
X158385842Y-114221691D01*
X158851389Y-114532760D01*
X159400540Y-114641993D01*
X159949691Y-114532760D01*
X160277268Y-114313880D01*
X161878064Y-114313880D01*
X162285469Y-114586100D01*
X162834620Y-114695333D01*
X163383771Y-114586100D01*
X163849318Y-114275031D01*
X164160387Y-113809484D01*
X164260845Y-113304447D01*
X164689052Y-112876240D01*
X164826813Y-112876240D01*
X165112316Y-113067007D01*
X165661467Y-113176240D01*
X165717693Y-113176240D01*
X166266844Y-113067007D01*
X166732391Y-112755938D01*
X167043460Y-112290391D01*
X167152693Y-111741240D01*
X167043460Y-111192089D01*
X166732391Y-110726542D01*
X166266844Y-110415473D01*
X165717693Y-110306240D01*
X165661467Y-110306240D01*
X165112316Y-110415473D01*
X164826813Y-110606240D01*
X164218920Y-110606240D01*
X163784574Y-110692637D01*
X163475052Y-110899453D01*
X163416354Y-110938674D01*
X162781280Y-111573748D01*
X162041540Y-110834008D01*
X162394543Y-110598138D01*
X162695858Y-110147190D01*
X162801665Y-109615260D01*
X162695858Y-109083330D01*
X162394543Y-108632382D01*
X161945753Y-108332509D01*
X162019003Y-108310852D01*
X162442421Y-107968336D01*
X162702533Y-107489857D01*
X162717017Y-107417231D01*
X162594423Y-107202260D01*
X160746740Y-107202260D01*
X160746740Y-107222260D01*
X160492740Y-107222260D01*
X160492740Y-107202260D01*
X158645057Y-107202260D01*
X158522463Y-107417231D01*
X158536947Y-107489857D01*
X158797059Y-107968336D01*
X159220477Y-108310852D01*
X159293727Y-108332509D01*
X158844937Y-108632382D01*
X158543622Y-109083330D01*
X158437815Y-109615260D01*
X158543622Y-110147190D01*
X158844937Y-110598138D01*
X159295885Y-110899453D01*
X159484740Y-110937018D01*
X159484740Y-111017340D01*
X159571137Y-111451686D01*
X159753710Y-111724926D01*
X159800787Y-111795381D01*
X159400540Y-111715767D01*
X158851389Y-111825000D01*
X158385842Y-112136069D01*
X158074773Y-112601616D01*
X157965540Y-113150767D01*
X150710000Y-113150767D01*
X150710000Y-79948060D01*
X156279260Y-79948060D01*
X156279260Y-90184260D01*
X156365657Y-90618606D01*
X156543853Y-90885295D01*
X156611694Y-90986826D01*
X156683199Y-91058331D01*
X156571397Y-91225654D01*
X156485000Y-91660000D01*
X156485000Y-103090000D01*
X156571397Y-103524346D01*
X156729035Y-103760267D01*
X156817434Y-103892566D01*
X158262694Y-105337826D01*
X158630914Y-105583863D01*
X159065260Y-105670260D01*
X159072603Y-105670260D01*
X159293727Y-105818011D01*
X159220477Y-105839668D01*
X158797059Y-106182184D01*
X158536947Y-106660663D01*
X158522463Y-106733289D01*
X158645057Y-106948260D01*
X160492740Y-106948260D01*
X160492740Y-106928260D01*
X160746740Y-106928260D01*
X160746740Y-106948260D01*
X162594423Y-106948260D01*
X162717017Y-106733289D01*
X162702533Y-106660663D01*
X162442421Y-106182184D01*
X162019003Y-105839668D01*
X161945753Y-105818011D01*
X162394543Y-105518138D01*
X162695858Y-105067190D01*
X162801665Y-104535260D01*
X162695858Y-104003330D01*
X162394543Y-103552382D01*
X161943595Y-103251067D01*
X161411665Y-103145260D01*
X159827815Y-103145260D01*
X159371215Y-103236083D01*
X158755000Y-102619868D01*
X158755000Y-101634498D01*
X158844937Y-101769098D01*
X159295885Y-102070413D01*
X159827815Y-102176220D01*
X161411665Y-102176220D01*
X161943595Y-102070413D01*
X162166877Y-101921220D01*
X165425188Y-101921220D01*
X166228134Y-102724166D01*
X166596355Y-102970203D01*
X167030700Y-103056600D01*
X167465045Y-102970203D01*
X167833266Y-102724166D01*
X168079303Y-102355945D01*
X168109940Y-102201923D01*
X168109940Y-103674255D01*
X168062776Y-103721337D01*
X167843850Y-104248569D01*
X167843352Y-104819447D01*
X168061357Y-105347060D01*
X168464677Y-105751084D01*
X168991909Y-105970010D01*
X169562787Y-105970508D01*
X170090400Y-105752503D01*
X170494424Y-105349183D01*
X170713350Y-104821951D01*
X170713848Y-104251073D01*
X170495843Y-103723460D01*
X170379940Y-103607355D01*
X170379940Y-100827386D01*
X170460764Y-100746703D01*
X170494753Y-100664849D01*
X170527697Y-100744580D01*
X170931017Y-101148604D01*
X171458249Y-101367530D01*
X172029127Y-101368028D01*
X172556740Y-101150023D01*
X172960764Y-100746703D01*
X173179690Y-100219471D01*
X173180188Y-99648593D01*
X172962183Y-99120980D01*
X172558863Y-98716956D01*
X172031631Y-98498030D01*
X171915220Y-98497928D01*
X170434226Y-97016934D01*
X170424788Y-97010628D01*
X170066006Y-96770897D01*
X169661125Y-96690361D01*
X170166600Y-96481503D01*
X170570624Y-96078183D01*
X170789550Y-95550951D01*
X170789652Y-95434540D01*
X172235392Y-93988800D01*
X178862246Y-93988800D01*
X178471989Y-94249562D01*
X178160920Y-94715109D01*
X178051687Y-95264260D01*
X178160920Y-95813411D01*
X178471989Y-96278958D01*
X178937536Y-96590027D01*
X179486687Y-96699260D01*
X179542913Y-96699260D01*
X180092064Y-96590027D01*
X180557611Y-96278958D01*
X180868680Y-95813411D01*
X180977913Y-95264260D01*
X180868680Y-94715109D01*
X180557611Y-94249562D01*
X180167354Y-93988800D01*
X184467010Y-93988800D01*
X184425000Y-94200000D01*
X184425000Y-103090000D01*
X184511397Y-103524346D01*
X184757434Y-103892566D01*
X185125654Y-104138603D01*
X185560000Y-104225000D01*
X185994346Y-104138603D01*
X186362566Y-103892566D01*
X186608603Y-103524346D01*
X186618203Y-103476080D01*
X188252327Y-103476080D01*
X188361560Y-104025231D01*
X188580440Y-104352808D01*
X188580440Y-110802200D01*
X188666837Y-111236546D01*
X188688160Y-111268458D01*
X188688160Y-111422360D01*
X188732438Y-111657677D01*
X188871510Y-111873801D01*
X189083710Y-112018791D01*
X189335600Y-112069800D01*
X190335600Y-112069800D01*
X190570917Y-112025522D01*
X190787041Y-111886450D01*
X190932031Y-111674250D01*
X190983040Y-111422360D01*
X190983040Y-110787254D01*
X191240717Y-110787479D01*
X191240403Y-111147135D01*
X191412833Y-111564446D01*
X191731835Y-111884005D01*
X192148844Y-112057163D01*
X192600375Y-112057557D01*
X193017686Y-111885127D01*
X193337245Y-111566125D01*
X193510403Y-111149116D01*
X193510797Y-110697585D01*
X193338367Y-110280274D01*
X193019365Y-109960715D01*
X192602356Y-109787557D01*
X192240483Y-109787241D01*
X192240797Y-109427585D01*
X192068367Y-109010274D01*
X191749365Y-108690715D01*
X191332356Y-108517557D01*
X190880825Y-108517163D01*
X190850440Y-108529718D01*
X190850440Y-106554387D01*
X194528840Y-106554387D01*
X194528840Y-106610613D01*
X194638073Y-107159764D01*
X194949142Y-107625311D01*
X195414689Y-107936380D01*
X195963840Y-108045613D01*
X196512991Y-107936380D01*
X196978538Y-107625311D01*
X197289607Y-107159764D01*
X197398840Y-106610613D01*
X197398840Y-106554387D01*
X197289607Y-106005236D01*
X196978538Y-105539689D01*
X196512991Y-105228620D01*
X195963840Y-105119387D01*
X195414689Y-105228620D01*
X194949142Y-105539689D01*
X194638073Y-106005236D01*
X194528840Y-106554387D01*
X190850440Y-106554387D01*
X190850440Y-104352808D01*
X191069320Y-104025231D01*
X191178553Y-103476080D01*
X191069320Y-102926929D01*
X190758251Y-102461382D01*
X190292704Y-102150313D01*
X189743553Y-102041080D01*
X189687327Y-102041080D01*
X189138176Y-102150313D01*
X188672629Y-102461382D01*
X188361560Y-102926929D01*
X188252327Y-103476080D01*
X186618203Y-103476080D01*
X186695000Y-103090000D01*
X186695000Y-96704319D01*
X187061469Y-96856490D01*
X187632347Y-96856988D01*
X188159960Y-96638983D01*
X188563984Y-96235663D01*
X188597973Y-96153809D01*
X188630917Y-96233540D01*
X189034237Y-96637564D01*
X189561469Y-96856490D01*
X190132347Y-96856988D01*
X190659960Y-96638983D01*
X191063984Y-96235663D01*
X191282910Y-95708431D01*
X191283408Y-95137553D01*
X191065403Y-94609940D01*
X190662083Y-94205916D01*
X190139210Y-93988800D01*
X193014900Y-93988800D01*
X193449246Y-93902403D01*
X193817466Y-93656366D01*
X194539133Y-92934700D01*
X196392823Y-92934700D01*
X196613947Y-93082451D01*
X196540697Y-93104108D01*
X196117279Y-93446624D01*
X195857167Y-93925103D01*
X195842683Y-93997729D01*
X195965277Y-94212700D01*
X197812960Y-94212700D01*
X197812960Y-94192700D01*
X198066960Y-94192700D01*
X198066960Y-94212700D01*
X199914643Y-94212700D01*
X200037237Y-93997729D01*
X200022753Y-93925103D01*
X199762641Y-93446624D01*
X199339223Y-93104108D01*
X199265973Y-93082451D01*
X199714763Y-92782578D01*
X200016078Y-92331630D01*
X200121885Y-91799700D01*
X200016078Y-91267770D01*
X199714763Y-90816822D01*
X199263815Y-90515507D01*
X198731885Y-90409700D01*
X197148035Y-90409700D01*
X196616105Y-90515507D01*
X196392823Y-90664700D01*
X194069000Y-90664700D01*
X193634655Y-90751096D01*
X193266434Y-90997133D01*
X192544768Y-91718800D01*
X191055902Y-91718800D01*
X191236550Y-91283751D01*
X191237048Y-90712873D01*
X191019043Y-90185260D01*
X190615723Y-89781236D01*
X190088491Y-89562310D01*
X189517613Y-89561812D01*
X188990000Y-89779817D01*
X188585976Y-90183137D01*
X188367050Y-90710369D01*
X188366552Y-91281247D01*
X188547345Y-91718800D01*
X180880360Y-91718800D01*
X180995680Y-91546211D01*
X181104913Y-90997060D01*
X180995680Y-90447909D01*
X180684611Y-89982362D01*
X180219064Y-89671293D01*
X179669913Y-89562060D01*
X179613687Y-89562060D01*
X179064536Y-89671293D01*
X178598989Y-89982362D01*
X178287920Y-90447909D01*
X178178687Y-90997060D01*
X178287920Y-91546211D01*
X178403240Y-91718800D01*
X174457132Y-91718800D01*
X176939166Y-89236766D01*
X177185203Y-88868546D01*
X177271600Y-88434200D01*
X177185203Y-87999855D01*
X177056026Y-87806527D01*
X178107492Y-87806527D01*
X178325497Y-88334140D01*
X178728817Y-88738164D01*
X179256049Y-88957090D01*
X179826927Y-88957588D01*
X180354540Y-88739583D01*
X180758564Y-88336263D01*
X180977490Y-87809031D01*
X180977988Y-87238153D01*
X180759983Y-86710540D01*
X180356663Y-86306516D01*
X179829431Y-86087590D01*
X179258553Y-86087092D01*
X178730940Y-86305097D01*
X178326916Y-86708417D01*
X178107990Y-87235649D01*
X178107492Y-87806527D01*
X177056026Y-87806527D01*
X176939166Y-87631634D01*
X176570945Y-87385597D01*
X176136600Y-87299200D01*
X175702254Y-87385597D01*
X175334034Y-87631634D01*
X170962694Y-92002974D01*
X170865514Y-92148414D01*
X169184816Y-93829112D01*
X169070613Y-93829012D01*
X168543000Y-94047017D01*
X168138976Y-94450337D01*
X167920050Y-94977569D01*
X167919552Y-95548447D01*
X168137557Y-96076060D01*
X168540877Y-96480084D01*
X169033165Y-96684500D01*
X167996132Y-96684500D01*
X166215286Y-94903654D01*
X166040770Y-94787046D01*
X165847066Y-94657617D01*
X165412720Y-94571220D01*
X162166877Y-94571220D01*
X161943595Y-94422027D01*
X161411665Y-94316220D01*
X159827815Y-94316220D01*
X159295885Y-94422027D01*
X158844937Y-94723342D01*
X158755000Y-94857942D01*
X158755000Y-92871659D01*
X158833827Y-92871728D01*
X159361440Y-92653723D01*
X159765464Y-92250403D01*
X159984390Y-91723171D01*
X159984640Y-91436480D01*
X167246527Y-91436480D01*
X167355760Y-91985631D01*
X167666829Y-92451178D01*
X168132376Y-92762247D01*
X168681527Y-92871480D01*
X168737753Y-92871480D01*
X169286904Y-92762247D01*
X169752451Y-92451178D01*
X170063520Y-91985631D01*
X170172753Y-91436480D01*
X170063520Y-90887329D01*
X169752451Y-90421782D01*
X169286904Y-90110713D01*
X168737753Y-90001480D01*
X168681527Y-90001480D01*
X168132376Y-90110713D01*
X167666829Y-90421782D01*
X167355760Y-90887329D01*
X167246527Y-91436480D01*
X159984640Y-91436480D01*
X159984888Y-91152293D01*
X159766883Y-90624680D01*
X159363563Y-90220656D01*
X158837239Y-90002107D01*
X158632726Y-89797594D01*
X159095740Y-89889693D01*
X159644891Y-89780460D01*
X160110438Y-89469391D01*
X160421507Y-89003844D01*
X160466667Y-88776807D01*
X161208872Y-88776807D01*
X161426877Y-89304420D01*
X161830197Y-89708444D01*
X162357429Y-89927370D01*
X162928307Y-89927868D01*
X163455920Y-89709863D01*
X163859944Y-89306543D01*
X164078870Y-88779311D01*
X164079368Y-88208433D01*
X163861363Y-87680820D01*
X163458043Y-87276796D01*
X162930811Y-87057870D01*
X162359933Y-87057372D01*
X161832320Y-87275377D01*
X161428296Y-87678697D01*
X161209370Y-88205929D01*
X161208872Y-88776807D01*
X160466667Y-88776807D01*
X160530740Y-88454693D01*
X160530740Y-88398467D01*
X160421507Y-87849316D01*
X160230740Y-87563813D01*
X160230740Y-86590392D01*
X165684992Y-81136140D01*
X166524860Y-81136140D01*
X166760177Y-81091862D01*
X166976301Y-80952790D01*
X167121291Y-80740590D01*
X167172300Y-80488700D01*
X167172300Y-79853594D01*
X167429977Y-79853819D01*
X167429663Y-80213475D01*
X167429860Y-80213952D01*
X167429860Y-81149247D01*
X165220168Y-83358940D01*
X165060675Y-83518155D01*
X164887517Y-83935164D01*
X164887123Y-84386695D01*
X165059553Y-84804006D01*
X165378555Y-85123565D01*
X165379030Y-85123762D01*
X166489340Y-86234072D01*
X166648555Y-86393565D01*
X167065564Y-86566723D01*
X167517095Y-86567117D01*
X167517572Y-86566920D01*
X173411180Y-86566920D01*
X173436625Y-86561859D01*
X173641035Y-86562037D01*
X173831618Y-86483290D01*
X173845526Y-86480523D01*
X173857214Y-86472713D01*
X174058346Y-86389607D01*
X174213721Y-86234502D01*
X174213746Y-86234486D01*
X174218412Y-86229820D01*
X174377905Y-86070605D01*
X174551063Y-85653596D01*
X174551368Y-85304280D01*
X175186260Y-85304280D01*
X175252373Y-85291840D01*
X175717500Y-85291840D01*
X176151846Y-85205443D01*
X176520066Y-84959406D01*
X177971120Y-83508352D01*
X177971120Y-83795780D01*
X178015398Y-84031097D01*
X178154470Y-84247221D01*
X178366670Y-84392211D01*
X178618560Y-84443220D01*
X179618560Y-84443220D01*
X179684673Y-84430780D01*
X181156769Y-84430780D01*
X181254117Y-84666380D01*
X181657437Y-85070404D01*
X182184669Y-85289330D01*
X182755547Y-85289828D01*
X183283160Y-85071823D01*
X183687184Y-84668503D01*
X183906110Y-84141271D01*
X183906608Y-83570393D01*
X183688603Y-83042780D01*
X183285283Y-82638756D01*
X182758051Y-82419830D01*
X182605100Y-82419697D01*
X182346906Y-82247177D01*
X181912560Y-82160780D01*
X179679991Y-82160780D01*
X179618560Y-82148340D01*
X178983454Y-82148340D01*
X178983679Y-81890663D01*
X179343335Y-81890977D01*
X179760646Y-81718547D01*
X180080205Y-81399545D01*
X180080402Y-81399070D01*
X180345613Y-81133860D01*
X181576754Y-81133860D01*
X181657437Y-81214684D01*
X182184669Y-81433610D01*
X182755547Y-81434108D01*
X182964456Y-81347789D01*
X184552000Y-82935333D01*
X184552000Y-83506600D01*
X184638397Y-83940946D01*
X184872857Y-84291840D01*
X184884434Y-84309166D01*
X188274891Y-87699623D01*
X188348860Y-88071491D01*
X188659929Y-88537038D01*
X189125476Y-88848107D01*
X189674627Y-88957340D01*
X189730853Y-88957340D01*
X190280004Y-88848107D01*
X190745551Y-88537038D01*
X191056620Y-88071491D01*
X191165853Y-87522340D01*
X191056620Y-86973189D01*
X190745551Y-86507642D01*
X190280004Y-86196573D01*
X189908136Y-86122604D01*
X186822000Y-83036468D01*
X186822000Y-82465200D01*
X186735603Y-82030854D01*
X186732213Y-82025780D01*
X186489566Y-81662633D01*
X184023226Y-79196294D01*
X184009406Y-79187060D01*
X183655006Y-78950257D01*
X183401968Y-78899924D01*
X183285283Y-78783036D01*
X182758051Y-78564110D01*
X182187173Y-78563612D01*
X181659560Y-78781617D01*
X181577173Y-78863860D01*
X179875480Y-78863860D01*
X179441135Y-78950256D01*
X179072914Y-79196293D01*
X178316407Y-79952801D01*
X178156915Y-80112015D01*
X177983757Y-80529024D01*
X177983441Y-80890897D01*
X177623785Y-80890583D01*
X177206474Y-81063013D01*
X176886915Y-81382015D01*
X176886718Y-81382490D01*
X175247422Y-83021786D01*
X175186260Y-83009400D01*
X175143952Y-83009400D01*
X173268560Y-81134008D01*
X173268560Y-80565371D01*
X173281000Y-80503940D01*
X173281000Y-79868834D01*
X173538677Y-79869059D01*
X173538363Y-80228715D01*
X173710793Y-80646026D01*
X174029795Y-80965585D01*
X174446804Y-81138743D01*
X174898335Y-81139137D01*
X175315646Y-80966707D01*
X175635205Y-80647705D01*
X175808363Y-80230696D01*
X175808757Y-79779165D01*
X175636327Y-79361854D01*
X175317325Y-79042295D01*
X174900316Y-78869137D01*
X174538443Y-78868821D01*
X174538757Y-78509165D01*
X174366327Y-78091854D01*
X174047325Y-77772295D01*
X173857896Y-77693637D01*
X173822666Y-77670097D01*
X173781473Y-77661903D01*
X173630316Y-77599137D01*
X173465203Y-77598993D01*
X173388320Y-77583700D01*
X168666080Y-77583700D01*
X168666080Y-75511206D01*
X168746904Y-75430523D01*
X168965830Y-74903291D01*
X168966328Y-74332413D01*
X168748323Y-73804800D01*
X168345003Y-73400776D01*
X168263149Y-73366787D01*
X168342880Y-73333843D01*
X168425267Y-73251600D01*
X170839828Y-73251600D01*
X171328040Y-73739812D01*
X171487255Y-73899305D01*
X171487730Y-73899502D01*
X172598040Y-75009812D01*
X172757255Y-75169305D01*
X173174264Y-75342463D01*
X173625795Y-75342857D01*
X174043106Y-75170427D01*
X174362665Y-74851425D01*
X174535823Y-74434416D01*
X174536128Y-74085100D01*
X175171020Y-74085100D01*
X175406337Y-74040822D01*
X175622461Y-73901750D01*
X175767451Y-73689550D01*
X175818460Y-73437660D01*
X175818460Y-73339472D01*
X176670232Y-72487700D01*
X176916477Y-72487700D01*
X176815357Y-72731224D01*
X176814963Y-73182755D01*
X176987393Y-73600066D01*
X177306395Y-73919625D01*
X177306870Y-73919822D01*
X178417180Y-75030132D01*
X178576395Y-75189625D01*
X178993404Y-75362783D01*
X179444935Y-75363177D01*
X179445412Y-75362980D01*
X184710172Y-75362980D01*
X184776984Y-75390723D01*
X185228515Y-75391117D01*
X185645826Y-75218687D01*
X185965385Y-74899685D01*
X186138543Y-74482676D01*
X186138848Y-74133360D01*
X186773740Y-74133360D01*
X187009057Y-74089082D01*
X187225181Y-73950010D01*
X187370171Y-73737810D01*
X187421180Y-73485920D01*
X187421180Y-73434712D01*
X188613530Y-74627062D01*
X188638373Y-74687186D01*
X188957375Y-75006745D01*
X189374384Y-75179903D01*
X189723700Y-75180208D01*
X189723700Y-75815100D01*
X189736140Y-75881213D01*
X189736140Y-82094360D01*
X189822537Y-82528706D01*
X190007804Y-82805977D01*
X190068574Y-82896926D01*
X191203511Y-84031863D01*
X191277480Y-84403731D01*
X191588549Y-84869278D01*
X192054096Y-85180347D01*
X192603247Y-85289580D01*
X192659473Y-85289580D01*
X193208624Y-85180347D01*
X193494127Y-84989580D01*
X195051777Y-84989580D01*
X195478189Y-85274500D01*
X196027340Y-85383733D01*
X196576491Y-85274500D01*
X196904068Y-85055620D01*
X198726932Y-85055620D01*
X199054509Y-85274500D01*
X199603660Y-85383733D01*
X200152811Y-85274500D01*
X200618358Y-84963431D01*
X200929427Y-84497884D01*
X201038660Y-83948733D01*
X201038660Y-83892507D01*
X200929427Y-83343356D01*
X200618358Y-82877809D01*
X200152811Y-82566740D01*
X199603660Y-82457507D01*
X199054509Y-82566740D01*
X198726932Y-82785620D01*
X196904068Y-82785620D01*
X196576491Y-82566740D01*
X196027340Y-82457507D01*
X195478189Y-82566740D01*
X195249448Y-82719580D01*
X193494127Y-82719580D01*
X193208624Y-82528813D01*
X192836756Y-82454844D01*
X192006140Y-81624228D01*
X192006140Y-81292584D01*
X192054096Y-81324627D01*
X192603247Y-81433860D01*
X192659473Y-81433860D01*
X193208624Y-81324627D01*
X193674171Y-81013558D01*
X193985240Y-80548011D01*
X194094473Y-79998860D01*
X193985240Y-79449709D01*
X193766360Y-79122132D01*
X193766360Y-74895620D01*
X195132734Y-74895620D01*
X195213417Y-74976444D01*
X195740649Y-75195370D01*
X196311527Y-75195868D01*
X196839140Y-74977863D01*
X197243164Y-74574543D01*
X197462090Y-74047311D01*
X197462092Y-74044807D01*
X198168412Y-74044807D01*
X198386417Y-74572420D01*
X198789737Y-74976444D01*
X199316969Y-75195370D01*
X199887847Y-75195868D01*
X200415460Y-74977863D01*
X200819484Y-74574543D01*
X201038410Y-74047311D01*
X201038908Y-73476433D01*
X200820903Y-72948820D01*
X200417583Y-72544796D01*
X199890351Y-72325870D01*
X199319473Y-72325372D01*
X198791860Y-72543377D01*
X198387836Y-72946697D01*
X198168910Y-73473929D01*
X198168412Y-74044807D01*
X197462092Y-74044807D01*
X197462588Y-73476433D01*
X197244583Y-72948820D01*
X196841263Y-72544796D01*
X196504874Y-72405115D01*
X196883590Y-72248633D01*
X197287614Y-71845313D01*
X197506540Y-71318081D01*
X197507038Y-70747203D01*
X197289033Y-70219590D01*
X196885713Y-69815566D01*
X196358481Y-69596640D01*
X196242070Y-69596538D01*
X195888307Y-69242775D01*
X196243166Y-69005666D01*
X196874356Y-68374477D01*
X197120393Y-68006256D01*
X197131080Y-67952530D01*
X197206790Y-67571910D01*
X197206790Y-61734157D01*
X197397557Y-61448654D01*
X197506790Y-60899503D01*
X197506790Y-60843277D01*
X197397557Y-60294126D01*
X197086488Y-59828579D01*
X196620941Y-59517510D01*
X196071790Y-59408277D01*
X195522639Y-59517510D01*
X195057092Y-59828579D01*
X194746023Y-60294126D01*
X194636790Y-60843277D01*
X194636790Y-60899503D01*
X194746023Y-61448654D01*
X194936790Y-61734157D01*
X194936790Y-66094157D01*
X192406903Y-63564271D01*
X192500016Y-63525797D01*
X192819575Y-63206795D01*
X192992733Y-62789786D01*
X192993127Y-62338255D01*
X192820697Y-61920944D01*
X192501695Y-61601385D01*
X192084686Y-61428227D01*
X191722813Y-61427911D01*
X191723127Y-61068255D01*
X191550697Y-60650944D01*
X191231695Y-60331385D01*
X191231221Y-60331188D01*
X188999086Y-58099054D01*
X188970778Y-58080139D01*
X188630866Y-57853017D01*
X188196520Y-57766620D01*
X186767026Y-57766620D01*
X186686343Y-57685796D01*
X186159111Y-57466870D01*
X186042700Y-57466768D01*
X184018551Y-55442619D01*
X202764613Y-55442619D01*
X203104155Y-56264372D01*
X203732321Y-56893636D01*
X204553481Y-57234611D01*
X205442619Y-57235387D01*
X206264372Y-56895845D01*
X206893636Y-56267679D01*
X207234611Y-55446519D01*
X207235387Y-54557381D01*
X206895845Y-53735628D01*
X206267679Y-53106364D01*
X205446519Y-52765389D01*
X204557381Y-52764613D01*
X203735628Y-53104155D01*
X203106364Y-53732321D01*
X202765389Y-54553481D01*
X202764613Y-55442619D01*
X184018551Y-55442619D01*
X183822566Y-55246634D01*
X183660753Y-55138514D01*
X183454346Y-55000597D01*
X183020000Y-54914200D01*
X172504400Y-54914200D01*
X172070055Y-55000596D01*
X171701834Y-55246634D01*
X166554524Y-60393944D01*
X166493363Y-60485477D01*
X166395445Y-60583225D01*
X166341919Y-60712130D01*
X166308487Y-60762164D01*
X166296850Y-60820667D01*
X166222287Y-61000234D01*
X166222264Y-61027032D01*
X163978741Y-58783509D01*
X164045850Y-58621891D01*
X164046348Y-58051013D01*
X163828343Y-57523400D01*
X163425023Y-57119376D01*
X162897791Y-56900450D01*
X162326913Y-56899952D01*
X161799300Y-57117957D01*
X161395276Y-57521277D01*
X161176350Y-58048509D01*
X161175852Y-58619387D01*
X161393857Y-59147000D01*
X161527866Y-59281242D01*
X161562497Y-59455346D01*
X161725365Y-59699095D01*
X161808534Y-59823566D01*
X164939650Y-62954682D01*
X164939650Y-62996990D01*
X164983928Y-63232307D01*
X165123000Y-63448431D01*
X165335200Y-63593421D01*
X165587090Y-63644430D01*
X165844038Y-63644430D01*
X165276904Y-64211564D01*
X165030867Y-64579784D01*
X164944470Y-65014130D01*
X164944470Y-66839400D01*
X164944273Y-67065165D01*
X165116703Y-67482476D01*
X165435705Y-67802035D01*
X165436180Y-67802232D01*
X166546490Y-68912542D01*
X166705705Y-69072035D01*
X166803878Y-69112800D01*
X163909915Y-69112800D01*
X163936867Y-69072464D01*
X164046100Y-68523313D01*
X164046100Y-68467087D01*
X163936867Y-67917936D01*
X163625798Y-67452389D01*
X163160251Y-67141320D01*
X162611100Y-67032087D01*
X162061949Y-67141320D01*
X161596402Y-67452389D01*
X161285333Y-67917936D01*
X161176100Y-68467087D01*
X161176100Y-68523313D01*
X161285333Y-69072464D01*
X161312285Y-69112800D01*
X160896832Y-69112800D01*
X160515376Y-68731344D01*
X160515748Y-68304993D01*
X160297743Y-67777380D01*
X159894423Y-67373356D01*
X159367191Y-67154430D01*
X158796313Y-67153932D01*
X158268700Y-67371937D01*
X157864676Y-67775257D01*
X157645750Y-68302489D01*
X157645252Y-68873367D01*
X157863257Y-69400980D01*
X158266577Y-69805004D01*
X158458441Y-69884673D01*
X159624134Y-71050366D01*
X159975947Y-71285441D01*
X159078448Y-72182940D01*
X158918955Y-72342155D01*
X158745797Y-72759164D01*
X158745403Y-73210695D01*
X158917833Y-73628006D01*
X159236835Y-73947565D01*
X159653844Y-74120723D01*
X160015717Y-74121039D01*
X160015403Y-74480695D01*
X160015600Y-74481172D01*
X160015600Y-76242991D01*
X159797197Y-76569854D01*
X159717418Y-76970929D01*
X159382431Y-76831830D01*
X158811553Y-76831332D01*
X158283940Y-77049337D01*
X157879916Y-77452657D01*
X157660990Y-77979889D01*
X157660888Y-78096300D01*
X156611694Y-79145494D01*
X156365657Y-79513714D01*
X156279260Y-79948060D01*
X150710000Y-79948060D01*
X150710000Y-58778221D01*
X157688586Y-58778221D01*
X157928111Y-59284314D01*
X158343077Y-59660221D01*
X158731461Y-59821084D01*
X158953500Y-59699095D01*
X158953500Y-58556180D01*
X159207500Y-58556180D01*
X159207500Y-59699095D01*
X159429539Y-59821084D01*
X159817923Y-59660221D01*
X160232889Y-59284314D01*
X160472414Y-58778221D01*
X160351129Y-58556180D01*
X159207500Y-58556180D01*
X158953500Y-58556180D01*
X157809871Y-58556180D01*
X157688586Y-58778221D01*
X150710000Y-58778221D01*
X150710000Y-58080139D01*
X157688586Y-58080139D01*
X157809871Y-58302180D01*
X158953500Y-58302180D01*
X158953500Y-57159265D01*
X159207500Y-57159265D01*
X159207500Y-58302180D01*
X160351129Y-58302180D01*
X160472414Y-58080139D01*
X160232889Y-57574046D01*
X159817923Y-57198139D01*
X159429539Y-57037276D01*
X159207500Y-57159265D01*
X158953500Y-57159265D01*
X158731461Y-57037276D01*
X158343077Y-57198139D01*
X157928111Y-57574046D01*
X157688586Y-58080139D01*
X150710000Y-58080139D01*
X150710000Y-55442619D01*
X152764613Y-55442619D01*
X153104155Y-56264372D01*
X153732321Y-56893636D01*
X154553481Y-57234611D01*
X155442619Y-57235387D01*
X156264372Y-56895845D01*
X156893636Y-56267679D01*
X157234611Y-55446519D01*
X157235387Y-54557381D01*
X156895845Y-53735628D01*
X156267679Y-53106364D01*
X155446519Y-52765389D01*
X154557381Y-52764613D01*
X153735628Y-53104155D01*
X153106364Y-53732321D01*
X152765389Y-54553481D01*
X152764613Y-55442619D01*
X150710000Y-55442619D01*
X150710000Y-55069931D01*
X151049408Y-53363610D01*
X151976349Y-51976346D01*
X153363610Y-51049408D01*
X155069931Y-50710000D01*
X204930069Y-50710000D01*
X206636390Y-51049408D01*
G36*
X177422480Y-122942260D02*
X177466758Y-123177577D01*
X177605830Y-123393701D01*
X177818030Y-123538691D01*
X178069920Y-123589700D01*
X178102068Y-123589700D01*
X179525034Y-125012666D01*
X179893254Y-125258703D01*
X180327600Y-125345100D01*
X182400240Y-125345100D01*
X182834586Y-125258703D01*
X183202806Y-125012666D01*
X184635932Y-123579540D01*
X184678240Y-123579540D01*
X184913557Y-123535262D01*
X185129681Y-123396190D01*
X185274671Y-123183990D01*
X185325680Y-122932100D01*
X185325680Y-122644672D01*
X185583240Y-122902232D01*
X185583240Y-126427479D01*
X185220825Y-126427163D01*
X184803514Y-126599593D01*
X184483955Y-126918595D01*
X184310797Y-127335604D01*
X184310492Y-127684920D01*
X183675600Y-127684920D01*
X183609487Y-127697360D01*
X182486721Y-127697360D01*
X182580385Y-127436777D01*
X182553198Y-126866546D01*
X182387284Y-126465995D01*
X182141165Y-126391861D01*
X181313025Y-127220000D01*
X181327168Y-127234142D01*
X181147563Y-127413748D01*
X181133420Y-127399605D01*
X181119278Y-127413748D01*
X180939672Y-127234142D01*
X180953815Y-127220000D01*
X180125675Y-126391861D01*
X179879556Y-126465995D01*
X179877224Y-126472483D01*
X179850663Y-126408200D01*
X179655060Y-126212255D01*
X180305281Y-126212255D01*
X181133420Y-127040395D01*
X181961559Y-126212255D01*
X181887425Y-125966136D01*
X181350197Y-125773035D01*
X180779966Y-125800222D01*
X180379415Y-125966136D01*
X180305281Y-126212255D01*
X179655060Y-126212255D01*
X179447343Y-126004176D01*
X178920111Y-125785250D01*
X178349233Y-125784752D01*
X177821620Y-126002757D01*
X177417596Y-126406077D01*
X177198670Y-126933309D01*
X177198172Y-127504187D01*
X177416177Y-128031800D01*
X177498420Y-128114187D01*
X177498420Y-128977448D01*
X176410688Y-130065180D01*
X174104220Y-130065180D01*
X174104220Y-129379091D01*
X174116660Y-129317660D01*
X174116660Y-128682660D01*
X174238229Y-128682660D01*
X174374220Y-128682779D01*
X174374220Y-128816670D01*
X174374023Y-129042435D01*
X174546453Y-129459746D01*
X174865455Y-129779305D01*
X175282464Y-129952463D01*
X175733995Y-129952857D01*
X176151306Y-129780427D01*
X176470865Y-129461425D01*
X176644023Y-129044416D01*
X176644417Y-128592885D01*
X176644220Y-128592408D01*
X176644220Y-126198920D01*
X176557823Y-125764574D01*
X176311786Y-125396354D01*
X175361520Y-124446088D01*
X175361520Y-123600003D01*
X175721295Y-123600317D01*
X176138606Y-123427887D01*
X176458165Y-123108885D01*
X176631323Y-122691876D01*
X176631639Y-122330120D01*
X177422480Y-122330120D01*
X177422480Y-122942260D01*
X177422480Y-122942260D01*
G37*
X177422480Y-122942260D02*
X177466758Y-123177577D01*
X177605830Y-123393701D01*
X177818030Y-123538691D01*
X178069920Y-123589700D01*
X178102068Y-123589700D01*
X179525034Y-125012666D01*
X179893254Y-125258703D01*
X180327600Y-125345100D01*
X182400240Y-125345100D01*
X182834586Y-125258703D01*
X183202806Y-125012666D01*
X184635932Y-123579540D01*
X184678240Y-123579540D01*
X184913557Y-123535262D01*
X185129681Y-123396190D01*
X185274671Y-123183990D01*
X185325680Y-122932100D01*
X185325680Y-122644672D01*
X185583240Y-122902232D01*
X185583240Y-126427479D01*
X185220825Y-126427163D01*
X184803514Y-126599593D01*
X184483955Y-126918595D01*
X184310797Y-127335604D01*
X184310492Y-127684920D01*
X183675600Y-127684920D01*
X183609487Y-127697360D01*
X182486721Y-127697360D01*
X182580385Y-127436777D01*
X182553198Y-126866546D01*
X182387284Y-126465995D01*
X182141165Y-126391861D01*
X181313025Y-127220000D01*
X181327168Y-127234142D01*
X181147563Y-127413748D01*
X181133420Y-127399605D01*
X181119278Y-127413748D01*
X180939672Y-127234142D01*
X180953815Y-127220000D01*
X180125675Y-126391861D01*
X179879556Y-126465995D01*
X179877224Y-126472483D01*
X179850663Y-126408200D01*
X179655060Y-126212255D01*
X180305281Y-126212255D01*
X181133420Y-127040395D01*
X181961559Y-126212255D01*
X181887425Y-125966136D01*
X181350197Y-125773035D01*
X180779966Y-125800222D01*
X180379415Y-125966136D01*
X180305281Y-126212255D01*
X179655060Y-126212255D01*
X179447343Y-126004176D01*
X178920111Y-125785250D01*
X178349233Y-125784752D01*
X177821620Y-126002757D01*
X177417596Y-126406077D01*
X177198670Y-126933309D01*
X177198172Y-127504187D01*
X177416177Y-128031800D01*
X177498420Y-128114187D01*
X177498420Y-128977448D01*
X176410688Y-130065180D01*
X174104220Y-130065180D01*
X174104220Y-129379091D01*
X174116660Y-129317660D01*
X174116660Y-128682660D01*
X174238229Y-128682660D01*
X174374220Y-128682779D01*
X174374220Y-128816670D01*
X174374023Y-129042435D01*
X174546453Y-129459746D01*
X174865455Y-129779305D01*
X175282464Y-129952463D01*
X175733995Y-129952857D01*
X176151306Y-129780427D01*
X176470865Y-129461425D01*
X176644023Y-129044416D01*
X176644417Y-128592885D01*
X176644220Y-128592408D01*
X176644220Y-126198920D01*
X176557823Y-125764574D01*
X176311786Y-125396354D01*
X175361520Y-124446088D01*
X175361520Y-123600003D01*
X175721295Y-123600317D01*
X176138606Y-123427887D01*
X176458165Y-123108885D01*
X176631323Y-122691876D01*
X176631639Y-122330120D01*
X177422480Y-122330120D01*
X177422480Y-122942260D01*
G36*
X166723434Y-98622066D02*
X167091654Y-98868103D01*
X167526000Y-98954500D01*
X168193760Y-98954500D01*
X168029116Y-99118857D01*
X167810190Y-99646089D01*
X167809692Y-100216967D01*
X168027697Y-100744580D01*
X168109940Y-100826967D01*
X168109940Y-101641277D01*
X168079303Y-101487255D01*
X167833266Y-101119034D01*
X166697886Y-99983654D01*
X166428030Y-99803342D01*
X166329666Y-99737617D01*
X165895320Y-99651220D01*
X162166877Y-99651220D01*
X161945753Y-99503469D01*
X162019003Y-99481812D01*
X162442421Y-99139296D01*
X162702533Y-98660817D01*
X162717017Y-98588191D01*
X162594423Y-98373220D01*
X160746740Y-98373220D01*
X160746740Y-98393220D01*
X160492740Y-98393220D01*
X160492740Y-98373220D01*
X160472740Y-98373220D01*
X160472740Y-98119220D01*
X160492740Y-98119220D01*
X160492740Y-98099220D01*
X160746740Y-98099220D01*
X160746740Y-98119220D01*
X162594423Y-98119220D01*
X162717017Y-97904249D01*
X162702533Y-97831623D01*
X162442421Y-97353144D01*
X162019003Y-97010628D01*
X161945753Y-96988971D01*
X162166877Y-96841220D01*
X164942588Y-96841220D01*
X166723434Y-98622066D01*
X166723434Y-98622066D01*
G37*
X166723434Y-98622066D02*
X167091654Y-98868103D01*
X167526000Y-98954500D01*
X168193760Y-98954500D01*
X168029116Y-99118857D01*
X167810190Y-99646089D01*
X167809692Y-100216967D01*
X168027697Y-100744580D01*
X168109940Y-100826967D01*
X168109940Y-101641277D01*
X168079303Y-101487255D01*
X167833266Y-101119034D01*
X166697886Y-99983654D01*
X166428030Y-99803342D01*
X166329666Y-99737617D01*
X165895320Y-99651220D01*
X162166877Y-99651220D01*
X161945753Y-99503469D01*
X162019003Y-99481812D01*
X162442421Y-99139296D01*
X162702533Y-98660817D01*
X162717017Y-98588191D01*
X162594423Y-98373220D01*
X160746740Y-98373220D01*
X160746740Y-98393220D01*
X160492740Y-98393220D01*
X160492740Y-98373220D01*
X160472740Y-98373220D01*
X160472740Y-98119220D01*
X160492740Y-98119220D01*
X160492740Y-98099220D01*
X160746740Y-98099220D01*
X160746740Y-98119220D01*
X162594423Y-98119220D01*
X162717017Y-97904249D01*
X162702533Y-97831623D01*
X162442421Y-97353144D01*
X162019003Y-97010628D01*
X161945753Y-96988971D01*
X162166877Y-96841220D01*
X164942588Y-96841220D01*
X166723434Y-98622066D01*
G36*
X184437272Y-59071604D02*
X184437172Y-59185807D01*
X184655177Y-59713420D01*
X185058497Y-60117444D01*
X185585729Y-60336370D01*
X186156607Y-60336868D01*
X186684220Y-60118863D01*
X186766607Y-60036620D01*
X187726388Y-60036620D01*
X189105357Y-61415590D01*
X188817930Y-61415590D01*
X188582613Y-61459868D01*
X188366489Y-61598940D01*
X188221499Y-61811140D01*
X188170490Y-62063030D01*
X188170490Y-63063030D01*
X188214768Y-63298347D01*
X188353840Y-63514471D01*
X188566040Y-63659461D01*
X188817930Y-63710470D01*
X189342838Y-63710470D01*
X191244972Y-65612605D01*
X191122613Y-65635628D01*
X190906489Y-65774700D01*
X190761499Y-65986900D01*
X190710490Y-66238790D01*
X190710490Y-66873896D01*
X190452813Y-66873671D01*
X190453127Y-66514015D01*
X190280697Y-66096704D01*
X189961695Y-65777145D01*
X189544686Y-65603987D01*
X189093155Y-65603593D01*
X188675844Y-65776023D01*
X188356285Y-66095025D01*
X188183127Y-66512034D01*
X188182733Y-66963565D01*
X188355163Y-67380876D01*
X188674165Y-67700435D01*
X189091174Y-67873593D01*
X189453047Y-67873909D01*
X189452733Y-68233565D01*
X189625163Y-68650876D01*
X189944165Y-68970435D01*
X190361174Y-69143593D01*
X190812705Y-69143987D01*
X191230016Y-68971557D01*
X191549575Y-68652555D01*
X191707500Y-68272232D01*
X194636642Y-71201374D01*
X194636542Y-71315577D01*
X194854547Y-71843190D01*
X195257867Y-72247214D01*
X195594256Y-72386895D01*
X195215540Y-72543377D01*
X195133153Y-72625620D01*
X193281600Y-72625620D01*
X192847254Y-72712017D01*
X192661659Y-72836027D01*
X191798166Y-71972534D01*
X191766088Y-71951100D01*
X191429946Y-71726497D01*
X191191047Y-71678977D01*
X191097896Y-71640297D01*
X190996144Y-71640208D01*
X190995600Y-71640100D01*
X190872130Y-71640100D01*
X190646365Y-71639903D01*
X190229054Y-71812333D01*
X189909495Y-72131335D01*
X189738901Y-72542169D01*
X188000866Y-70804134D01*
X187818298Y-70682146D01*
X187632646Y-70558097D01*
X187198300Y-70471700D01*
X186026832Y-70471700D01*
X186997566Y-69500966D01*
X187243604Y-69132745D01*
X187330000Y-68698400D01*
X187330000Y-67434304D01*
X187371650Y-67228630D01*
X187371650Y-66228630D01*
X187327372Y-65993313D01*
X187188300Y-65777189D01*
X187007420Y-65653599D01*
X187007420Y-63372546D01*
X187088244Y-63291863D01*
X187307170Y-62764631D01*
X187307668Y-62193753D01*
X187089663Y-61666140D01*
X186686343Y-61262116D01*
X186159111Y-61043190D01*
X185588233Y-61042692D01*
X185060620Y-61260697D01*
X184656596Y-61664017D01*
X184437670Y-62191249D01*
X184437172Y-62762127D01*
X184655177Y-63289740D01*
X184737420Y-63372127D01*
X184737420Y-66305432D01*
X184646977Y-66086544D01*
X184327975Y-65766985D01*
X183910966Y-65593827D01*
X183459435Y-65593433D01*
X183042124Y-65765863D01*
X182722565Y-66084865D01*
X182549407Y-66501874D01*
X182549013Y-66953405D01*
X182721443Y-67370716D01*
X183040445Y-67690275D01*
X183457454Y-67863433D01*
X183819327Y-67863749D01*
X183819013Y-68223405D01*
X183991443Y-68640716D01*
X184095046Y-68744500D01*
X181974857Y-68744500D01*
X182060955Y-68504967D01*
X182033768Y-67934736D01*
X181867854Y-67534185D01*
X181621735Y-67460051D01*
X180793595Y-68288190D01*
X180807738Y-68302332D01*
X180628133Y-68481938D01*
X180613990Y-68467795D01*
X180599848Y-68481938D01*
X180420242Y-68302332D01*
X180434385Y-68288190D01*
X179606245Y-67460051D01*
X179360126Y-67534185D01*
X179357794Y-67540673D01*
X179331233Y-67476390D01*
X179135630Y-67280445D01*
X179785851Y-67280445D01*
X180613990Y-68108585D01*
X181442129Y-67280445D01*
X181367995Y-67034326D01*
X180830767Y-66841225D01*
X180260536Y-66868412D01*
X179859985Y-67034326D01*
X179785851Y-67280445D01*
X179135630Y-67280445D01*
X178927913Y-67072366D01*
X178400681Y-66853440D01*
X178284270Y-66853338D01*
X177412876Y-65981944D01*
X177258428Y-65878745D01*
X177044656Y-65735907D01*
X176610310Y-65649510D01*
X175264201Y-65649510D01*
X175202770Y-65637070D01*
X174202770Y-65637070D01*
X173967453Y-65681348D01*
X173751329Y-65820420D01*
X173606339Y-66032620D01*
X173555330Y-66284510D01*
X173555330Y-66919616D01*
X173297770Y-66919391D01*
X173297770Y-66785501D01*
X173297967Y-66559735D01*
X173125537Y-66142424D01*
X172806535Y-65822865D01*
X172389526Y-65649707D01*
X171937995Y-65649313D01*
X171520684Y-65821743D01*
X171201125Y-66140745D01*
X171027967Y-66557754D01*
X171027573Y-67009285D01*
X171027770Y-67009762D01*
X171027770Y-70981600D01*
X169669914Y-70981600D01*
X169870003Y-70682146D01*
X169956400Y-70247800D01*
X169870003Y-69813454D01*
X169623966Y-69445234D01*
X169255746Y-69199197D01*
X168821400Y-69112800D01*
X167895613Y-69112800D01*
X167991556Y-69073157D01*
X168311115Y-68754155D01*
X168484273Y-68337146D01*
X168484578Y-67987830D01*
X169119470Y-67987830D01*
X169354787Y-67943552D01*
X169570911Y-67804480D01*
X169715901Y-67592280D01*
X169766910Y-67340390D01*
X169766910Y-66340390D01*
X169722632Y-66105073D01*
X169583560Y-65888949D01*
X169371360Y-65743959D01*
X169119470Y-65692950D01*
X168119470Y-65692950D01*
X167884153Y-65737228D01*
X167668029Y-65876300D01*
X167523039Y-66088500D01*
X167472030Y-66340390D01*
X167472030Y-66627818D01*
X167214470Y-66370258D01*
X167214470Y-65484262D01*
X169217711Y-63481022D01*
X169269176Y-63459757D01*
X169588735Y-63140755D01*
X169660400Y-62968165D01*
X172191881Y-62968165D01*
X172266015Y-63214284D01*
X172803243Y-63407385D01*
X173373474Y-63380198D01*
X173774025Y-63214284D01*
X173848159Y-62968165D01*
X173020020Y-62140025D01*
X172191881Y-62968165D01*
X169660400Y-62968165D01*
X169761893Y-62723746D01*
X169762287Y-62272215D01*
X169589857Y-61854904D01*
X169478790Y-61743643D01*
X171573055Y-61743643D01*
X171600242Y-62313874D01*
X171766156Y-62714425D01*
X172012275Y-62788559D01*
X172840415Y-61960420D01*
X173199625Y-61960420D01*
X174027765Y-62788559D01*
X174273884Y-62714425D01*
X174313237Y-62604942D01*
X174442504Y-62604942D01*
X174320516Y-62826979D01*
X174481379Y-63215363D01*
X174857286Y-63630329D01*
X175363379Y-63869854D01*
X175585420Y-63748569D01*
X175585420Y-62604940D01*
X175839420Y-62604940D01*
X175839420Y-63748569D01*
X176061461Y-63869854D01*
X176567554Y-63630329D01*
X176943461Y-63215363D01*
X177104324Y-62826979D01*
X176982335Y-62604940D01*
X175839420Y-62604940D01*
X175585420Y-62604940D01*
X175565420Y-62604940D01*
X175565420Y-62350940D01*
X175585420Y-62350940D01*
X175585420Y-61207311D01*
X175839420Y-61207311D01*
X175839420Y-62350940D01*
X176982335Y-62350940D01*
X177104324Y-62128901D01*
X176943461Y-61740517D01*
X176567554Y-61325551D01*
X176061461Y-61086026D01*
X175839420Y-61207311D01*
X175585420Y-61207311D01*
X175363379Y-61086026D01*
X174857286Y-61325551D01*
X174481379Y-61740517D01*
X174449800Y-61816760D01*
X174439798Y-61606966D01*
X174273884Y-61206415D01*
X174027765Y-61132281D01*
X173199625Y-61960420D01*
X172840415Y-61960420D01*
X172012275Y-61132281D01*
X171766156Y-61206415D01*
X171573055Y-61743643D01*
X169478790Y-61743643D01*
X169270855Y-61535345D01*
X168853846Y-61362187D01*
X168796595Y-61362137D01*
X170414125Y-59744607D01*
X171584772Y-59744607D01*
X171802777Y-60272220D01*
X172206097Y-60676244D01*
X172272564Y-60703843D01*
X172266015Y-60706556D01*
X172191881Y-60952675D01*
X173020020Y-61780815D01*
X173848159Y-60952675D01*
X173774025Y-60706556D01*
X173767537Y-60704224D01*
X173831820Y-60677663D01*
X174235844Y-60274343D01*
X174334555Y-60036620D01*
X174849653Y-60036620D01*
X175135156Y-60227387D01*
X175684307Y-60336620D01*
X175740533Y-60336620D01*
X176289684Y-60227387D01*
X176755231Y-59916318D01*
X177066300Y-59450771D01*
X177175533Y-58901620D01*
X177066300Y-58352469D01*
X176755231Y-57886922D01*
X176289684Y-57575853D01*
X175740533Y-57466620D01*
X175684307Y-57466620D01*
X175135156Y-57575853D01*
X174849653Y-57766620D01*
X173578820Y-57766620D01*
X173144475Y-57853016D01*
X172886628Y-58025304D01*
X172735833Y-58025172D01*
X172208220Y-58243177D01*
X171804196Y-58646497D01*
X171585270Y-59173729D01*
X171584772Y-59744607D01*
X170414125Y-59744607D01*
X172974532Y-57184200D01*
X182549868Y-57184200D01*
X184437272Y-59071604D01*
X184437272Y-59071604D01*
G37*
X184437272Y-59071604D02*
X184437172Y-59185807D01*
X184655177Y-59713420D01*
X185058497Y-60117444D01*
X185585729Y-60336370D01*
X186156607Y-60336868D01*
X186684220Y-60118863D01*
X186766607Y-60036620D01*
X187726388Y-60036620D01*
X189105357Y-61415590D01*
X188817930Y-61415590D01*
X188582613Y-61459868D01*
X188366489Y-61598940D01*
X188221499Y-61811140D01*
X188170490Y-62063030D01*
X188170490Y-63063030D01*
X188214768Y-63298347D01*
X188353840Y-63514471D01*
X188566040Y-63659461D01*
X188817930Y-63710470D01*
X189342838Y-63710470D01*
X191244972Y-65612605D01*
X191122613Y-65635628D01*
X190906489Y-65774700D01*
X190761499Y-65986900D01*
X190710490Y-66238790D01*
X190710490Y-66873896D01*
X190452813Y-66873671D01*
X190453127Y-66514015D01*
X190280697Y-66096704D01*
X189961695Y-65777145D01*
X189544686Y-65603987D01*
X189093155Y-65603593D01*
X188675844Y-65776023D01*
X188356285Y-66095025D01*
X188183127Y-66512034D01*
X188182733Y-66963565D01*
X188355163Y-67380876D01*
X188674165Y-67700435D01*
X189091174Y-67873593D01*
X189453047Y-67873909D01*
X189452733Y-68233565D01*
X189625163Y-68650876D01*
X189944165Y-68970435D01*
X190361174Y-69143593D01*
X190812705Y-69143987D01*
X191230016Y-68971557D01*
X191549575Y-68652555D01*
X191707500Y-68272232D01*
X194636642Y-71201374D01*
X194636542Y-71315577D01*
X194854547Y-71843190D01*
X195257867Y-72247214D01*
X195594256Y-72386895D01*
X195215540Y-72543377D01*
X195133153Y-72625620D01*
X193281600Y-72625620D01*
X192847254Y-72712017D01*
X192661659Y-72836027D01*
X191798166Y-71972534D01*
X191766088Y-71951100D01*
X191429946Y-71726497D01*
X191191047Y-71678977D01*
X191097896Y-71640297D01*
X190996144Y-71640208D01*
X190995600Y-71640100D01*
X190872130Y-71640100D01*
X190646365Y-71639903D01*
X190229054Y-71812333D01*
X189909495Y-72131335D01*
X189738901Y-72542169D01*
X188000866Y-70804134D01*
X187818298Y-70682146D01*
X187632646Y-70558097D01*
X187198300Y-70471700D01*
X186026832Y-70471700D01*
X186997566Y-69500966D01*
X187243604Y-69132745D01*
X187330000Y-68698400D01*
X187330000Y-67434304D01*
X187371650Y-67228630D01*
X187371650Y-66228630D01*
X187327372Y-65993313D01*
X187188300Y-65777189D01*
X187007420Y-65653599D01*
X187007420Y-63372546D01*
X187088244Y-63291863D01*
X187307170Y-62764631D01*
X187307668Y-62193753D01*
X187089663Y-61666140D01*
X186686343Y-61262116D01*
X186159111Y-61043190D01*
X185588233Y-61042692D01*
X185060620Y-61260697D01*
X184656596Y-61664017D01*
X184437670Y-62191249D01*
X184437172Y-62762127D01*
X184655177Y-63289740D01*
X184737420Y-63372127D01*
X184737420Y-66305432D01*
X184646977Y-66086544D01*
X184327975Y-65766985D01*
X183910966Y-65593827D01*
X183459435Y-65593433D01*
X183042124Y-65765863D01*
X182722565Y-66084865D01*
X182549407Y-66501874D01*
X182549013Y-66953405D01*
X182721443Y-67370716D01*
X183040445Y-67690275D01*
X183457454Y-67863433D01*
X183819327Y-67863749D01*
X183819013Y-68223405D01*
X183991443Y-68640716D01*
X184095046Y-68744500D01*
X181974857Y-68744500D01*
X182060955Y-68504967D01*
X182033768Y-67934736D01*
X181867854Y-67534185D01*
X181621735Y-67460051D01*
X180793595Y-68288190D01*
X180807738Y-68302332D01*
X180628133Y-68481938D01*
X180613990Y-68467795D01*
X180599848Y-68481938D01*
X180420242Y-68302332D01*
X180434385Y-68288190D01*
X179606245Y-67460051D01*
X179360126Y-67534185D01*
X179357794Y-67540673D01*
X179331233Y-67476390D01*
X179135630Y-67280445D01*
X179785851Y-67280445D01*
X180613990Y-68108585D01*
X181442129Y-67280445D01*
X181367995Y-67034326D01*
X180830767Y-66841225D01*
X180260536Y-66868412D01*
X179859985Y-67034326D01*
X179785851Y-67280445D01*
X179135630Y-67280445D01*
X178927913Y-67072366D01*
X178400681Y-66853440D01*
X178284270Y-66853338D01*
X177412876Y-65981944D01*
X177258428Y-65878745D01*
X177044656Y-65735907D01*
X176610310Y-65649510D01*
X175264201Y-65649510D01*
X175202770Y-65637070D01*
X174202770Y-65637070D01*
X173967453Y-65681348D01*
X173751329Y-65820420D01*
X173606339Y-66032620D01*
X173555330Y-66284510D01*
X173555330Y-66919616D01*
X173297770Y-66919391D01*
X173297770Y-66785501D01*
X173297967Y-66559735D01*
X173125537Y-66142424D01*
X172806535Y-65822865D01*
X172389526Y-65649707D01*
X171937995Y-65649313D01*
X171520684Y-65821743D01*
X171201125Y-66140745D01*
X171027967Y-66557754D01*
X171027573Y-67009285D01*
X171027770Y-67009762D01*
X171027770Y-70981600D01*
X169669914Y-70981600D01*
X169870003Y-70682146D01*
X169956400Y-70247800D01*
X169870003Y-69813454D01*
X169623966Y-69445234D01*
X169255746Y-69199197D01*
X168821400Y-69112800D01*
X167895613Y-69112800D01*
X167991556Y-69073157D01*
X168311115Y-68754155D01*
X168484273Y-68337146D01*
X168484578Y-67987830D01*
X169119470Y-67987830D01*
X169354787Y-67943552D01*
X169570911Y-67804480D01*
X169715901Y-67592280D01*
X169766910Y-67340390D01*
X169766910Y-66340390D01*
X169722632Y-66105073D01*
X169583560Y-65888949D01*
X169371360Y-65743959D01*
X169119470Y-65692950D01*
X168119470Y-65692950D01*
X167884153Y-65737228D01*
X167668029Y-65876300D01*
X167523039Y-66088500D01*
X167472030Y-66340390D01*
X167472030Y-66627818D01*
X167214470Y-66370258D01*
X167214470Y-65484262D01*
X169217711Y-63481022D01*
X169269176Y-63459757D01*
X169588735Y-63140755D01*
X169660400Y-62968165D01*
X172191881Y-62968165D01*
X172266015Y-63214284D01*
X172803243Y-63407385D01*
X173373474Y-63380198D01*
X173774025Y-63214284D01*
X173848159Y-62968165D01*
X173020020Y-62140025D01*
X172191881Y-62968165D01*
X169660400Y-62968165D01*
X169761893Y-62723746D01*
X169762287Y-62272215D01*
X169589857Y-61854904D01*
X169478790Y-61743643D01*
X171573055Y-61743643D01*
X171600242Y-62313874D01*
X171766156Y-62714425D01*
X172012275Y-62788559D01*
X172840415Y-61960420D01*
X173199625Y-61960420D01*
X174027765Y-62788559D01*
X174273884Y-62714425D01*
X174313237Y-62604942D01*
X174442504Y-62604942D01*
X174320516Y-62826979D01*
X174481379Y-63215363D01*
X174857286Y-63630329D01*
X175363379Y-63869854D01*
X175585420Y-63748569D01*
X175585420Y-62604940D01*
X175839420Y-62604940D01*
X175839420Y-63748569D01*
X176061461Y-63869854D01*
X176567554Y-63630329D01*
X176943461Y-63215363D01*
X177104324Y-62826979D01*
X176982335Y-62604940D01*
X175839420Y-62604940D01*
X175585420Y-62604940D01*
X175565420Y-62604940D01*
X175565420Y-62350940D01*
X175585420Y-62350940D01*
X175585420Y-61207311D01*
X175839420Y-61207311D01*
X175839420Y-62350940D01*
X176982335Y-62350940D01*
X177104324Y-62128901D01*
X176943461Y-61740517D01*
X176567554Y-61325551D01*
X176061461Y-61086026D01*
X175839420Y-61207311D01*
X175585420Y-61207311D01*
X175363379Y-61086026D01*
X174857286Y-61325551D01*
X174481379Y-61740517D01*
X174449800Y-61816760D01*
X174439798Y-61606966D01*
X174273884Y-61206415D01*
X174027765Y-61132281D01*
X173199625Y-61960420D01*
X172840415Y-61960420D01*
X172012275Y-61132281D01*
X171766156Y-61206415D01*
X171573055Y-61743643D01*
X169478790Y-61743643D01*
X169270855Y-61535345D01*
X168853846Y-61362187D01*
X168796595Y-61362137D01*
X170414125Y-59744607D01*
X171584772Y-59744607D01*
X171802777Y-60272220D01*
X172206097Y-60676244D01*
X172272564Y-60703843D01*
X172266015Y-60706556D01*
X172191881Y-60952675D01*
X173020020Y-61780815D01*
X173848159Y-60952675D01*
X173774025Y-60706556D01*
X173767537Y-60704224D01*
X173831820Y-60677663D01*
X174235844Y-60274343D01*
X174334555Y-60036620D01*
X174849653Y-60036620D01*
X175135156Y-60227387D01*
X175684307Y-60336620D01*
X175740533Y-60336620D01*
X176289684Y-60227387D01*
X176755231Y-59916318D01*
X177066300Y-59450771D01*
X177175533Y-58901620D01*
X177066300Y-58352469D01*
X176755231Y-57886922D01*
X176289684Y-57575853D01*
X175740533Y-57466620D01*
X175684307Y-57466620D01*
X175135156Y-57575853D01*
X174849653Y-57766620D01*
X173578820Y-57766620D01*
X173144475Y-57853016D01*
X172886628Y-58025304D01*
X172735833Y-58025172D01*
X172208220Y-58243177D01*
X171804196Y-58646497D01*
X171585270Y-59173729D01*
X171584772Y-59744607D01*
X170414125Y-59744607D01*
X172974532Y-57184200D01*
X182549868Y-57184200D01*
X184437272Y-59071604D01*
M02*
