G04 #@! TF.FileFunction,Copper,L1,Top,Signal*
%FSLAX46Y46*%
G04 Gerber Fmt 4.6, Leading zero omitted, Abs format (unit mm)*
G04 Created by KiCad (PCBNEW 4.0.6) date 06/07/18 20:08:10*
%MOMM*%
%LPD*%
G01*
G04 APERTURE LIST*
%ADD10C,0.100000*%
%ADD11C,1.000000*%
%ADD12R,1.000000X1.000000*%
%ADD13C,1.600000*%
%ADD14O,3.010000X1.510000*%
%ADD15O,1.600000X1.600000*%
%ADD16C,0.800000*%
%ADD17C,1.000000*%
%ADD18C,0.254000*%
G04 APERTURE END LIST*
D10*
D11*
X185438080Y-116346260D03*
X184168080Y-115076260D03*
D12*
X186708080Y-115076260D03*
D13*
X171744940Y-99932780D03*
X169244940Y-99932780D03*
X187348160Y-95421740D03*
X189848160Y-95421740D03*
X191135300Y-120735380D03*
X191135300Y-123235380D03*
X167531080Y-74616600D03*
X167531080Y-72116600D03*
X178633420Y-127220000D03*
X181133420Y-127220000D03*
X178113990Y-68288190D03*
X180613990Y-68288190D03*
X186504880Y-136076980D03*
X186504880Y-133576980D03*
X173020020Y-59460420D03*
X173020020Y-61960420D03*
D14*
X160619740Y-95706220D03*
X160619740Y-98246220D03*
X160619740Y-100786220D03*
X160619740Y-104535260D03*
X160619740Y-107075260D03*
X160619740Y-109615260D03*
X197939960Y-96879700D03*
X197939960Y-94339700D03*
X197939960Y-91799700D03*
D11*
X169331940Y-121253540D03*
X168061940Y-122523540D03*
D12*
X168061940Y-119983540D03*
D11*
X189601140Y-74045100D03*
X190871140Y-72775100D03*
D12*
X190871140Y-75315100D03*
D11*
X185471100Y-109652360D03*
X186741100Y-110922360D03*
D12*
X184201100Y-110922360D03*
D11*
X173416260Y-85426840D03*
X172146260Y-84156840D03*
D12*
X174686260Y-84156840D03*
D11*
X191105600Y-109652360D03*
X192375600Y-110922360D03*
D12*
X189835600Y-110922360D03*
D11*
X167292320Y-85431920D03*
X166022320Y-84161920D03*
D12*
X168562320Y-84161920D03*
D11*
X180840680Y-113280480D03*
X179570680Y-114550480D03*
D12*
X179570680Y-112010480D03*
D11*
X177848560Y-82025780D03*
X179118560Y-80755780D03*
D12*
X179118560Y-83295780D03*
D11*
X191107360Y-116342360D03*
X189837360Y-115072360D03*
D12*
X192377360Y-115072360D03*
D11*
X167294860Y-78718700D03*
X168564860Y-79988700D03*
D12*
X166024860Y-79988700D03*
D11*
X173403560Y-78733940D03*
X174673560Y-80003940D03*
D12*
X172133560Y-80003940D03*
D11*
X196619160Y-121172260D03*
X197889160Y-122442260D03*
D12*
X195349160Y-122442260D03*
D11*
X185448240Y-121162100D03*
X186718240Y-122432100D03*
D12*
X184178240Y-122432100D03*
D11*
X179839920Y-121172260D03*
X181109920Y-122442260D03*
D12*
X178569920Y-122442260D03*
D11*
X174226520Y-121195120D03*
X175496520Y-122465120D03*
D12*
X172956520Y-122465120D03*
D11*
X161150600Y-74255920D03*
X159880600Y-72985920D03*
D12*
X162420600Y-72985920D03*
D11*
X173401020Y-74207660D03*
X172131020Y-72937660D03*
D12*
X174671020Y-72937660D03*
D11*
X179220160Y-74227980D03*
X177950160Y-72957980D03*
D12*
X180490160Y-72957980D03*
D11*
X185003740Y-74255920D03*
X183733740Y-72985920D03*
D12*
X186273740Y-72985920D03*
D11*
X185445600Y-127562360D03*
X186715600Y-128832360D03*
D12*
X184175600Y-128832360D03*
D11*
X174239220Y-127547660D03*
X175509220Y-128817660D03*
D12*
X172969220Y-128817660D03*
D11*
X173432770Y-68054510D03*
X172162770Y-66784510D03*
D12*
X174702770Y-66784510D03*
D11*
X184954210Y-67998630D03*
X183684210Y-66728630D03*
D12*
X186224210Y-66728630D03*
D11*
X191075600Y-127562360D03*
X192345600Y-128832360D03*
D12*
X189805600Y-128832360D03*
D11*
X168557240Y-127537500D03*
X169827240Y-128807500D03*
D12*
X167287240Y-128807500D03*
D11*
X167349470Y-68110390D03*
X166079470Y-66840390D03*
D12*
X168619470Y-66840390D03*
D11*
X190587930Y-68008790D03*
X189317930Y-66738790D03*
D12*
X191857930Y-66738790D03*
D11*
X191105600Y-134292360D03*
X189835600Y-133022360D03*
D12*
X192375600Y-133022360D03*
D11*
X168557240Y-134380260D03*
X167287240Y-133110260D03*
D12*
X169827240Y-133110260D03*
D11*
X167357090Y-61226990D03*
X168627090Y-62496990D03*
D12*
X166087090Y-62496990D03*
D11*
X190587930Y-61293030D03*
X191857930Y-62563030D03*
D12*
X189317930Y-62563030D03*
D13*
X169278600Y-104535260D03*
D15*
X179438600Y-104535260D03*
D13*
X189674800Y-99785460D03*
D15*
X179514800Y-99785460D03*
D13*
X189801800Y-90997060D03*
D15*
X179641800Y-90997060D03*
D13*
X169354800Y-95264260D03*
D15*
X179514800Y-95264260D03*
D13*
X175897840Y-115363280D03*
D15*
X165737840Y-115363280D03*
D13*
X162834620Y-123392220D03*
D15*
X162834620Y-113232220D03*
D13*
X182471360Y-79998860D03*
D15*
X192631360Y-79998860D03*
D13*
X196027340Y-73760620D03*
D15*
X196027340Y-83920620D03*
D13*
X179380180Y-108025220D03*
D15*
X169220180Y-108025220D03*
D13*
X179542740Y-87522340D03*
D15*
X189702740Y-87522340D03*
D13*
X199875440Y-103476080D03*
D15*
X189715440Y-103476080D03*
D13*
X158549640Y-91436480D03*
D15*
X168709640Y-91436480D03*
D13*
X175849580Y-111741240D03*
D15*
X165689580Y-111741240D03*
D13*
X182471360Y-83854580D03*
D15*
X192631360Y-83854580D03*
D13*
X199428400Y-116742500D03*
D15*
X199428400Y-106582500D03*
D13*
X159095740Y-78266580D03*
D15*
X159095740Y-88426580D03*
D13*
X199801780Y-127181900D03*
D15*
X199801780Y-137341900D03*
D13*
X159080500Y-68589180D03*
D15*
X159080500Y-58429180D03*
D13*
X195963840Y-116742500D03*
D15*
X195963840Y-106582500D03*
D13*
X159400540Y-123338880D03*
D15*
X159400540Y-113178880D03*
D13*
X162644120Y-88492620D03*
D15*
X162644120Y-78332620D03*
D13*
X199603660Y-73760620D03*
D15*
X199603660Y-83920620D03*
D13*
X195849540Y-137306340D03*
D15*
X195849540Y-127146340D03*
D13*
X162763500Y-127220000D03*
D15*
X162763500Y-137380000D03*
D13*
X162611100Y-58335200D03*
D15*
X162611100Y-68495200D03*
D13*
X196071790Y-71031390D03*
D15*
X196071790Y-60871390D03*
D13*
X173373080Y-133394740D03*
D15*
X183533080Y-133394740D03*
D13*
X185872420Y-62477940D03*
D15*
X175712420Y-62477940D03*
D13*
X173345140Y-136887240D03*
D15*
X183505140Y-136887240D03*
D13*
X185872420Y-58901620D03*
D15*
X175712420Y-58901620D03*
D16*
X167030700Y-101921600D03*
X185560000Y-94200000D03*
X185560000Y-103090000D03*
X177533600Y-102010500D03*
X174752300Y-108322400D03*
X195440600Y-68203100D03*
X198094900Y-134497100D03*
X176136600Y-88434200D03*
X183733740Y-72985920D03*
X181851600Y-111370400D03*
X192633900Y-125657900D03*
X168821400Y-70247800D03*
X160845800Y-81385700D03*
D17*
X185318700Y-97451200D02*
X187348160Y-95421740D01*
X177584400Y-97451200D02*
X185318700Y-97451200D01*
X172948900Y-102086700D02*
X177584400Y-97451200D01*
X167195800Y-102086700D02*
X172948900Y-102086700D01*
X167030700Y-101921600D02*
X167195800Y-102086700D01*
X189801800Y-90997060D02*
X189801800Y-95375380D01*
X189801800Y-95375380D02*
X189848160Y-95421740D01*
X191135300Y-123235380D02*
X191135300Y-123092500D01*
X191135300Y-123092500D02*
X194132500Y-120095300D01*
X194132500Y-108413840D02*
X195963840Y-106582500D01*
X194132500Y-120095300D02*
X194132500Y-108413840D01*
X167531080Y-72116600D02*
X166939900Y-72116600D01*
X166939900Y-72116600D02*
X162644120Y-76412380D01*
X162644120Y-76412380D02*
X162644120Y-78332620D01*
X159347200Y-70743100D02*
X158216900Y-70743100D01*
X160985500Y-70743100D02*
X159347200Y-70743100D01*
X157620000Y-76790840D02*
X159095740Y-78266580D01*
X157620000Y-71340000D02*
X157620000Y-76790840D01*
X158216900Y-70743100D02*
X157620000Y-71340000D01*
X184048700Y-105807800D02*
X184112200Y-105807800D01*
X181422340Y-87522340D02*
X179542740Y-87522340D01*
X185560000Y-91660000D02*
X181422340Y-87522340D01*
X185560000Y-94200000D02*
X185560000Y-91660000D01*
X185560000Y-104360000D02*
X185560000Y-103090000D01*
X184112200Y-105807800D02*
X185560000Y-104360000D01*
X199875440Y-103476080D02*
X201186080Y-103476080D01*
X202070000Y-114100900D02*
X199428400Y-116742500D01*
X202070000Y-104360000D02*
X202070000Y-114100900D01*
X201186080Y-103476080D02*
X202070000Y-104360000D01*
X160619740Y-104535260D02*
X165085060Y-104535260D01*
X177632660Y-106277700D02*
X179380180Y-108025220D01*
X166827500Y-106277700D02*
X177632660Y-106277700D01*
X165085060Y-104535260D02*
X166827500Y-106277700D01*
X179380180Y-108025220D02*
X181831280Y-108025220D01*
X181831280Y-108025220D02*
X184048700Y-105807800D01*
X184048700Y-105807800D02*
X192278300Y-105807800D01*
X192278300Y-105807800D02*
X194610020Y-103476080D01*
X194610020Y-103476080D02*
X199875440Y-103476080D01*
X199428400Y-116742500D02*
X199428400Y-123092500D01*
X199428400Y-123092500D02*
X196964600Y-125556300D01*
X196964600Y-125556300D02*
X194043600Y-125556300D01*
X192375600Y-133022360D02*
X192622740Y-133022360D01*
X192622740Y-133022360D02*
X194043600Y-131601500D01*
X194043600Y-123747820D02*
X195349160Y-122442260D01*
X194043600Y-131601500D02*
X194043600Y-125556300D01*
X194043600Y-125556300D02*
X194043600Y-123747820D01*
X162420600Y-72985920D02*
X162420600Y-72178200D01*
X160985500Y-67598580D02*
X166087090Y-62496990D01*
X160985500Y-70743100D02*
X160985500Y-67598580D01*
X162420600Y-72178200D02*
X160985500Y-70743100D01*
X168053050Y-113789750D02*
X169284950Y-113789750D01*
X192631360Y-96475840D02*
X192631360Y-83854580D01*
X191224200Y-97883000D02*
X192631360Y-96475840D01*
X188201600Y-97883000D02*
X191224200Y-97883000D01*
X183578800Y-102505800D02*
X188201600Y-97883000D01*
X178028900Y-102505800D02*
X183578800Y-102505800D01*
X177533600Y-102010500D02*
X178028900Y-102505800D01*
X169284950Y-113789750D02*
X174752300Y-108322400D01*
X165689580Y-111741240D02*
X166004540Y-111741240D01*
X166004540Y-111741240D02*
X168053050Y-113789750D01*
X168053050Y-113789750D02*
X168061940Y-113798640D01*
X168061940Y-113798640D02*
X168061940Y-119983540D01*
X169827240Y-133110260D02*
X169593560Y-133110260D01*
X169593560Y-133110260D02*
X165379700Y-128896400D01*
X165379700Y-122665780D02*
X168061940Y-119983540D01*
X165379700Y-128896400D02*
X165379700Y-122665780D01*
X162763500Y-137380000D02*
X168059400Y-137380000D01*
X169827240Y-135612160D02*
X169827240Y-133110260D01*
X168059400Y-137380000D02*
X169827240Y-135612160D01*
X192532300Y-73653940D02*
X190871140Y-75315100D01*
X192532300Y-71111400D02*
X192532300Y-73653940D01*
X195440600Y-68203100D02*
X192532300Y-71111400D01*
X197890160Y-134292360D02*
X191105600Y-134292360D01*
X198094900Y-134497100D02*
X197890160Y-134292360D01*
X167357090Y-63576490D02*
X167357090Y-61226990D01*
X168478500Y-64697900D02*
X167357090Y-63576490D01*
X174879300Y-64697900D02*
X168478500Y-64697900D01*
X176479500Y-66298100D02*
X174879300Y-64697900D01*
X176479500Y-88091300D02*
X176479500Y-66298100D01*
X176136600Y-88434200D02*
X176479500Y-88091300D01*
X169331940Y-121253540D02*
X170007580Y-121253540D01*
X170007580Y-121253540D02*
X175897840Y-115363280D01*
X175897840Y-115363280D02*
X175897840Y-122063800D01*
X175897840Y-122063800D02*
X175496520Y-122465120D01*
X183733740Y-72985920D02*
X182471360Y-74248300D01*
X182471360Y-74248300D02*
X182471360Y-79998860D01*
X185471100Y-109652360D02*
X191105600Y-109652360D01*
X191105600Y-109652360D02*
X192375600Y-110922360D01*
X192375600Y-110922360D02*
X192375600Y-112534120D01*
X192375600Y-112534120D02*
X189837360Y-115072360D01*
X186741100Y-112081600D02*
X186741100Y-110922360D01*
X185699700Y-113123000D02*
X186741100Y-112081600D01*
X183604200Y-113123000D02*
X185699700Y-113123000D01*
X181851600Y-111370400D02*
X183604200Y-113123000D01*
X179514800Y-95264260D02*
X180812740Y-95264260D01*
X181610300Y-92965560D02*
X179641800Y-90997060D01*
X181610300Y-94466700D02*
X181610300Y-92965560D01*
X180812740Y-95264260D02*
X181610300Y-94466700D01*
X172146260Y-84156840D02*
X172146260Y-87895720D01*
X172146260Y-87895720D02*
X179514800Y-95264260D01*
X168562320Y-84161920D02*
X168562320Y-91289160D01*
X168562320Y-91289160D02*
X168709640Y-91436480D01*
X184168080Y-115076260D02*
X184168080Y-115111820D01*
X184168080Y-115111820D02*
X182537400Y-116742500D01*
X182537400Y-116742500D02*
X182537400Y-123829100D01*
X182537400Y-123829100D02*
X184366200Y-125657900D01*
X184366200Y-125657900D02*
X192633900Y-125657900D01*
X168821400Y-70247800D02*
X169812000Y-71238400D01*
X169812000Y-71238400D02*
X169812000Y-75607200D01*
X169812000Y-75607200D02*
X171132800Y-76928000D01*
X171132800Y-76928000D02*
X173749000Y-76928000D01*
X173749000Y-76928000D02*
X174673560Y-77852560D01*
X174673560Y-77852560D02*
X174673560Y-80003940D01*
X162644120Y-83184020D02*
X162644120Y-88492620D01*
X160845800Y-81385700D02*
X162644120Y-83184020D01*
X183684210Y-66728630D02*
X183684210Y-71000910D01*
X184937700Y-72254400D02*
X184937700Y-74189880D01*
X183684210Y-71000910D02*
X184937700Y-72254400D01*
X184937700Y-74189880D02*
X185003740Y-74255920D01*
X186273740Y-72985920D02*
X186273740Y-74454040D01*
X196245780Y-77118500D02*
X199603660Y-73760620D01*
X188938200Y-77118500D02*
X196245780Y-77118500D01*
X186273740Y-74454040D02*
X188938200Y-77118500D01*
X192345600Y-128832360D02*
X192345600Y-130512360D01*
X192345600Y-130512360D02*
X189835600Y-133022360D01*
X192345600Y-128832360D02*
X191075600Y-127562360D01*
X191075600Y-127562360D02*
X185445600Y-127562360D01*
X167349470Y-68110390D02*
X173376890Y-68110390D01*
X173376890Y-68110390D02*
X173432770Y-68054510D01*
X190587930Y-68008790D02*
X188068250Y-68008790D01*
X188068250Y-68008790D02*
X188058090Y-67998630D01*
X189317930Y-66738790D02*
X189317930Y-65103030D01*
X189317930Y-65103030D02*
X191857930Y-62563030D01*
X184954210Y-67998630D02*
X188058090Y-67998630D01*
X188058090Y-67998630D02*
X189317930Y-66738790D01*
X168619470Y-66840390D02*
X168411190Y-66840390D01*
X168411190Y-66840390D02*
X167183100Y-65612300D01*
X167183100Y-65612300D02*
X165494000Y-65612300D01*
X165494000Y-65612300D02*
X162611100Y-68495200D01*
D18*
G36*
X206636390Y-51049408D02*
X208023654Y-51976349D01*
X208950592Y-53363610D01*
X209290000Y-55069931D01*
X209290000Y-139930069D01*
X208950592Y-141636390D01*
X208023654Y-143023651D01*
X206636390Y-143950592D01*
X204930069Y-144290000D01*
X155069931Y-144290000D01*
X153363610Y-143950592D01*
X151976349Y-143023654D01*
X151049408Y-141636390D01*
X150811953Y-140442619D01*
X152764613Y-140442619D01*
X153104155Y-141264372D01*
X153732321Y-141893636D01*
X154553481Y-142234611D01*
X155442619Y-142235387D01*
X156264372Y-141895845D01*
X156893636Y-141267679D01*
X157234611Y-140446519D01*
X157234614Y-140442619D01*
X202764613Y-140442619D01*
X203104155Y-141264372D01*
X203732321Y-141893636D01*
X204553481Y-142234611D01*
X205442619Y-142235387D01*
X206264372Y-141895845D01*
X206893636Y-141267679D01*
X207234611Y-140446519D01*
X207235387Y-139557381D01*
X206895845Y-138735628D01*
X206267679Y-138106364D01*
X205446519Y-137765389D01*
X204557381Y-137764613D01*
X203735628Y-138104155D01*
X203106364Y-138732321D01*
X202765389Y-139553481D01*
X202764613Y-140442619D01*
X157234614Y-140442619D01*
X157235387Y-139557381D01*
X156895845Y-138735628D01*
X156267679Y-138106364D01*
X155446519Y-137765389D01*
X154557381Y-137764613D01*
X153735628Y-138104155D01*
X153106364Y-138732321D01*
X152765389Y-139553481D01*
X152764613Y-140442619D01*
X150811953Y-140442619D01*
X150710000Y-139930069D01*
X150710000Y-127504187D01*
X161328252Y-127504187D01*
X161546257Y-128031800D01*
X161949577Y-128435824D01*
X162476809Y-128654750D01*
X163047687Y-128655248D01*
X163575300Y-128437243D01*
X163979324Y-128033923D01*
X164198250Y-127506691D01*
X164198748Y-126935813D01*
X163980743Y-126408200D01*
X163577423Y-126004176D01*
X163050191Y-125785250D01*
X162479313Y-125784752D01*
X161951700Y-126002757D01*
X161547676Y-126406077D01*
X161328750Y-126933309D01*
X161328252Y-127504187D01*
X150710000Y-127504187D01*
X150710000Y-123623067D01*
X157965292Y-123623067D01*
X158183297Y-124150680D01*
X158586617Y-124554704D01*
X159113849Y-124773630D01*
X159684727Y-124774128D01*
X160212340Y-124556123D01*
X160616364Y-124152803D01*
X160835290Y-123625571D01*
X160835788Y-123054693D01*
X160617783Y-122527080D01*
X160214463Y-122123056D01*
X159687231Y-121904130D01*
X159116353Y-121903632D01*
X158588740Y-122121637D01*
X158184716Y-122524957D01*
X157965790Y-123052189D01*
X157965292Y-123623067D01*
X150710000Y-123623067D01*
X150710000Y-113150767D01*
X157965540Y-113150767D01*
X157965540Y-113206993D01*
X158074773Y-113756144D01*
X158385842Y-114221691D01*
X158851389Y-114532760D01*
X159400540Y-114641993D01*
X159949691Y-114532760D01*
X160415238Y-114221691D01*
X160726307Y-113756144D01*
X160835540Y-113206993D01*
X160835540Y-113204107D01*
X161399620Y-113204107D01*
X161399620Y-113260333D01*
X161508853Y-113809484D01*
X161819922Y-114275031D01*
X162285469Y-114586100D01*
X162834620Y-114695333D01*
X163383771Y-114586100D01*
X163849318Y-114275031D01*
X164160387Y-113809484D01*
X164269620Y-113260333D01*
X164269620Y-113204107D01*
X164160387Y-112654956D01*
X163849318Y-112189409D01*
X163383771Y-111878340D01*
X162834620Y-111769107D01*
X162285469Y-111878340D01*
X161819922Y-112189409D01*
X161508853Y-112654956D01*
X161399620Y-113204107D01*
X160835540Y-113204107D01*
X160835540Y-113150767D01*
X160726307Y-112601616D01*
X160415238Y-112136069D01*
X159949691Y-111825000D01*
X159400540Y-111715767D01*
X158851389Y-111825000D01*
X158385842Y-112136069D01*
X158074773Y-112601616D01*
X157965540Y-113150767D01*
X150710000Y-113150767D01*
X150710000Y-109615260D01*
X158437815Y-109615260D01*
X158543622Y-110147190D01*
X158844937Y-110598138D01*
X159295885Y-110899453D01*
X159827815Y-111005260D01*
X161411665Y-111005260D01*
X161943595Y-110899453D01*
X162394543Y-110598138D01*
X162695858Y-110147190D01*
X162801665Y-109615260D01*
X162695858Y-109083330D01*
X162394543Y-108632382D01*
X161945753Y-108332509D01*
X162019003Y-108310852D01*
X162442421Y-107968336D01*
X162702533Y-107489857D01*
X162717017Y-107417231D01*
X162594423Y-107202260D01*
X160746740Y-107202260D01*
X160746740Y-107222260D01*
X160492740Y-107222260D01*
X160492740Y-107202260D01*
X158645057Y-107202260D01*
X158522463Y-107417231D01*
X158536947Y-107489857D01*
X158797059Y-107968336D01*
X159220477Y-108310852D01*
X159293727Y-108332509D01*
X158844937Y-108632382D01*
X158543622Y-109083330D01*
X158437815Y-109615260D01*
X150710000Y-109615260D01*
X150710000Y-100786220D01*
X158437815Y-100786220D01*
X158543622Y-101318150D01*
X158844937Y-101769098D01*
X159295885Y-102070413D01*
X159827815Y-102176220D01*
X161411665Y-102176220D01*
X161943595Y-102070413D01*
X162394543Y-101769098D01*
X162695858Y-101318150D01*
X162801665Y-100786220D01*
X162695858Y-100254290D01*
X162394543Y-99803342D01*
X161945753Y-99503469D01*
X162019003Y-99481812D01*
X162442421Y-99139296D01*
X162702533Y-98660817D01*
X162717017Y-98588191D01*
X162594423Y-98373220D01*
X160746740Y-98373220D01*
X160746740Y-98393220D01*
X160492740Y-98393220D01*
X160492740Y-98373220D01*
X158645057Y-98373220D01*
X158522463Y-98588191D01*
X158536947Y-98660817D01*
X158797059Y-99139296D01*
X159220477Y-99481812D01*
X159293727Y-99503469D01*
X158844937Y-99803342D01*
X158543622Y-100254290D01*
X158437815Y-100786220D01*
X150710000Y-100786220D01*
X150710000Y-95706220D01*
X158437815Y-95706220D01*
X158543622Y-96238150D01*
X158844937Y-96689098D01*
X159293727Y-96988971D01*
X159220477Y-97010628D01*
X158797059Y-97353144D01*
X158536947Y-97831623D01*
X158522463Y-97904249D01*
X158645057Y-98119220D01*
X160492740Y-98119220D01*
X160492740Y-98099220D01*
X160746740Y-98099220D01*
X160746740Y-98119220D01*
X162594423Y-98119220D01*
X162717017Y-97904249D01*
X162702533Y-97831623D01*
X162442421Y-97353144D01*
X162019003Y-97010628D01*
X161945753Y-96988971D01*
X162394543Y-96689098D01*
X162695858Y-96238150D01*
X162801665Y-95706220D01*
X162770283Y-95548447D01*
X167919552Y-95548447D01*
X168137557Y-96076060D01*
X168540877Y-96480084D01*
X169068109Y-96699010D01*
X169638987Y-96699508D01*
X170166600Y-96481503D01*
X170570624Y-96078183D01*
X170789550Y-95550951D01*
X170790048Y-94980073D01*
X170572043Y-94452460D01*
X170168723Y-94048436D01*
X169641491Y-93829510D01*
X169070613Y-93829012D01*
X168543000Y-94047017D01*
X168138976Y-94450337D01*
X167920050Y-94977569D01*
X167919552Y-95548447D01*
X162770283Y-95548447D01*
X162695858Y-95174290D01*
X162394543Y-94723342D01*
X161943595Y-94422027D01*
X161411665Y-94316220D01*
X159827815Y-94316220D01*
X159295885Y-94422027D01*
X158844937Y-94723342D01*
X158543622Y-95174290D01*
X158437815Y-95706220D01*
X150710000Y-95706220D01*
X150710000Y-91720667D01*
X157114392Y-91720667D01*
X157332397Y-92248280D01*
X157735717Y-92652304D01*
X158262949Y-92871230D01*
X158833827Y-92871728D01*
X159361440Y-92653723D01*
X159765464Y-92250403D01*
X159984390Y-91723171D01*
X159984888Y-91152293D01*
X159766883Y-90624680D01*
X159363563Y-90220656D01*
X158836331Y-90001730D01*
X158265453Y-90001232D01*
X157737840Y-90219237D01*
X157333816Y-90622557D01*
X157114890Y-91149789D01*
X157114392Y-91720667D01*
X150710000Y-91720667D01*
X150710000Y-88398467D01*
X157660740Y-88398467D01*
X157660740Y-88454693D01*
X157769973Y-89003844D01*
X158081042Y-89469391D01*
X158546589Y-89780460D01*
X159095740Y-89889693D01*
X159644891Y-89780460D01*
X160110438Y-89469391D01*
X160421507Y-89003844D01*
X160530740Y-88454693D01*
X160530740Y-88398467D01*
X160421507Y-87849316D01*
X160110438Y-87383769D01*
X159644891Y-87072700D01*
X159095740Y-86963467D01*
X158546589Y-87072700D01*
X158081042Y-87383769D01*
X157769973Y-87849316D01*
X157660740Y-88398467D01*
X150710000Y-88398467D01*
X150710000Y-81385700D01*
X159710800Y-81385700D01*
X159797197Y-81820045D01*
X160043234Y-82188266D01*
X161509120Y-83654153D01*
X161509120Y-87598014D01*
X161428296Y-87678697D01*
X161209370Y-88205929D01*
X161208872Y-88776807D01*
X161426877Y-89304420D01*
X161830197Y-89708444D01*
X162357429Y-89927370D01*
X162928307Y-89927868D01*
X163455920Y-89709863D01*
X163859944Y-89306543D01*
X164078870Y-88779311D01*
X164079368Y-88208433D01*
X163861363Y-87680820D01*
X163779120Y-87598433D01*
X163779120Y-84386695D01*
X164887123Y-84386695D01*
X165059553Y-84804006D01*
X165378555Y-85123565D01*
X165795564Y-85296723D01*
X166157437Y-85297039D01*
X166157123Y-85656695D01*
X166329553Y-86074006D01*
X166648555Y-86393565D01*
X167065564Y-86566723D01*
X167427320Y-86567039D01*
X167427320Y-90780232D01*
X167355760Y-90887329D01*
X167246527Y-91436480D01*
X167355760Y-91985631D01*
X167666829Y-92451178D01*
X168132376Y-92762247D01*
X168681527Y-92871480D01*
X168737753Y-92871480D01*
X169286904Y-92762247D01*
X169752451Y-92451178D01*
X170063520Y-91985631D01*
X170172753Y-91436480D01*
X170063520Y-90887329D01*
X169752451Y-90421782D01*
X169697320Y-90384945D01*
X169697320Y-84723351D01*
X169709760Y-84661920D01*
X169709760Y-83661920D01*
X169665482Y-83426603D01*
X169526410Y-83210479D01*
X169314210Y-83065489D01*
X169062320Y-83014480D01*
X168062320Y-83014480D01*
X167827003Y-83058758D01*
X167610879Y-83197830D01*
X167465889Y-83410030D01*
X167414880Y-83661920D01*
X167414880Y-84297026D01*
X167157203Y-84296801D01*
X167157517Y-83937145D01*
X166985087Y-83519834D01*
X166666085Y-83200275D01*
X166249076Y-83027117D01*
X165797545Y-83026723D01*
X165380234Y-83199153D01*
X165060675Y-83518155D01*
X164887517Y-83935164D01*
X164887123Y-84386695D01*
X163779120Y-84386695D01*
X163779120Y-83184020D01*
X163754204Y-83058758D01*
X163692724Y-82749675D01*
X163446687Y-82381454D01*
X161648366Y-80583134D01*
X161280145Y-80337097D01*
X160845800Y-80250700D01*
X160411455Y-80337097D01*
X160043234Y-80583134D01*
X159797197Y-80951355D01*
X159710800Y-81385700D01*
X150710000Y-81385700D01*
X150710000Y-71340000D01*
X156485000Y-71340000D01*
X156485000Y-76790840D01*
X156571397Y-77225186D01*
X156724807Y-77454780D01*
X156817434Y-77593406D01*
X157660592Y-78436564D01*
X157660492Y-78550767D01*
X157878497Y-79078380D01*
X158281817Y-79482404D01*
X158809049Y-79701330D01*
X159379927Y-79701828D01*
X159907540Y-79483823D01*
X160311564Y-79080503D01*
X160530490Y-78553271D01*
X160530988Y-77982393D01*
X160312983Y-77454780D01*
X159909663Y-77050756D01*
X159382431Y-76831830D01*
X159266021Y-76831728D01*
X158755000Y-76320708D01*
X158755000Y-73233921D01*
X158917833Y-73628006D01*
X159236835Y-73947565D01*
X159653844Y-74120723D01*
X160015717Y-74121039D01*
X160015403Y-74480695D01*
X160187833Y-74898006D01*
X160506835Y-75217565D01*
X160923844Y-75390723D01*
X161375375Y-75391117D01*
X161792686Y-75218687D01*
X162112245Y-74899685D01*
X162285403Y-74482676D01*
X162285708Y-74133360D01*
X162920600Y-74133360D01*
X163155917Y-74089082D01*
X163372041Y-73950010D01*
X163517031Y-73737810D01*
X163568040Y-73485920D01*
X163568040Y-72485920D01*
X163555600Y-72419807D01*
X163555600Y-72178200D01*
X163469203Y-71743854D01*
X163223166Y-71375634D01*
X162120500Y-70272968D01*
X162120500Y-69860727D01*
X162611100Y-69958313D01*
X163160251Y-69849080D01*
X163625798Y-69538011D01*
X163936867Y-69072464D01*
X164010836Y-68700596D01*
X165172781Y-67538651D01*
X165435705Y-67802035D01*
X165852714Y-67975193D01*
X166214587Y-67975509D01*
X166214273Y-68335165D01*
X166386703Y-68752476D01*
X166705705Y-69072035D01*
X167122714Y-69245193D01*
X167574245Y-69245587D01*
X167574722Y-69245390D01*
X168317922Y-69245390D01*
X168018834Y-69445234D01*
X167772797Y-69813455D01*
X167686400Y-70247800D01*
X167772731Y-70681811D01*
X167246893Y-70681352D01*
X166719280Y-70899357D01*
X166561492Y-71056870D01*
X166505554Y-71067997D01*
X166137334Y-71314034D01*
X161841554Y-75609814D01*
X161595517Y-75978034D01*
X161509120Y-76412380D01*
X161509120Y-77469853D01*
X161318353Y-77755356D01*
X161209120Y-78304507D01*
X161209120Y-78360733D01*
X161318353Y-78909884D01*
X161629422Y-79375431D01*
X162094969Y-79686500D01*
X162644120Y-79795733D01*
X163193271Y-79686500D01*
X163489299Y-79488700D01*
X164877420Y-79488700D01*
X164877420Y-80488700D01*
X164921698Y-80724017D01*
X165060770Y-80940141D01*
X165272970Y-81085131D01*
X165524860Y-81136140D01*
X166524860Y-81136140D01*
X166760177Y-81091862D01*
X166976301Y-80952790D01*
X167121291Y-80740590D01*
X167172300Y-80488700D01*
X167172300Y-79853594D01*
X167429977Y-79853819D01*
X167429663Y-80213475D01*
X167602093Y-80630786D01*
X167921095Y-80950345D01*
X168338104Y-81123503D01*
X168789635Y-81123897D01*
X169206946Y-80951467D01*
X169526505Y-80632465D01*
X169699663Y-80215456D01*
X169700057Y-79763925D01*
X169527627Y-79346614D01*
X169208625Y-79027055D01*
X168791616Y-78853897D01*
X168429743Y-78853581D01*
X168430057Y-78493925D01*
X168257627Y-78076614D01*
X167938625Y-77757055D01*
X167521616Y-77583897D01*
X167070085Y-77583503D01*
X166652774Y-77755933D01*
X166333215Y-78074935D01*
X166160057Y-78491944D01*
X166159752Y-78841260D01*
X165524860Y-78841260D01*
X165289543Y-78885538D01*
X165073419Y-79024610D01*
X164928429Y-79236810D01*
X164877420Y-79488700D01*
X163489299Y-79488700D01*
X163658818Y-79375431D01*
X163969887Y-78909884D01*
X164079120Y-78360733D01*
X164079120Y-78304507D01*
X163969887Y-77755356D01*
X163779120Y-77469853D01*
X163779120Y-76882512D01*
X166096124Y-74565508D01*
X166095832Y-74900787D01*
X166313837Y-75428400D01*
X166717157Y-75832424D01*
X167244389Y-76051350D01*
X167815267Y-76051848D01*
X168342880Y-75833843D01*
X168677000Y-75500305D01*
X168677000Y-75607200D01*
X168763397Y-76041546D01*
X168978656Y-76363703D01*
X169009434Y-76409766D01*
X170330234Y-77730566D01*
X170698454Y-77976603D01*
X171132800Y-78063000D01*
X172469137Y-78063000D01*
X172441915Y-78090175D01*
X172268757Y-78507184D01*
X172268452Y-78856500D01*
X171633560Y-78856500D01*
X171398243Y-78900778D01*
X171182119Y-79039850D01*
X171037129Y-79252050D01*
X170986120Y-79503940D01*
X170986120Y-80503940D01*
X171030398Y-80739257D01*
X171169470Y-80955381D01*
X171381670Y-81100371D01*
X171633560Y-81151380D01*
X172633560Y-81151380D01*
X172868877Y-81107102D01*
X173085001Y-80968030D01*
X173229991Y-80755830D01*
X173281000Y-80503940D01*
X173281000Y-79868834D01*
X173538560Y-79869059D01*
X173538560Y-80002950D01*
X173538363Y-80228715D01*
X173710793Y-80646026D01*
X174029795Y-80965585D01*
X174446804Y-81138743D01*
X174898335Y-81139137D01*
X175315646Y-80966707D01*
X175344500Y-80937903D01*
X175344500Y-83041444D01*
X175186260Y-83009400D01*
X174186260Y-83009400D01*
X173950943Y-83053678D01*
X173734819Y-83192750D01*
X173589829Y-83404950D01*
X173538820Y-83656840D01*
X173538820Y-84291946D01*
X173281260Y-84291721D01*
X173281260Y-84157831D01*
X173281457Y-83932065D01*
X173109027Y-83514754D01*
X172790025Y-83195195D01*
X172373016Y-83022037D01*
X171921485Y-83021643D01*
X171504174Y-83194073D01*
X171184615Y-83513075D01*
X171011457Y-83930084D01*
X171011063Y-84381615D01*
X171011260Y-84382092D01*
X171011260Y-87895720D01*
X171097657Y-88330066D01*
X171258606Y-88570943D01*
X171343694Y-88698286D01*
X178086951Y-95441543D01*
X178160920Y-95813411D01*
X178471989Y-96278958D01*
X178527726Y-96316200D01*
X177584400Y-96316200D01*
X177150054Y-96402597D01*
X176798401Y-96637564D01*
X176781834Y-96648634D01*
X173157459Y-100273009D01*
X173179690Y-100219471D01*
X173180188Y-99648593D01*
X172962183Y-99120980D01*
X172558863Y-98716956D01*
X172031631Y-98498030D01*
X171460753Y-98497532D01*
X170933140Y-98715537D01*
X170529116Y-99118857D01*
X170495127Y-99200711D01*
X170462183Y-99120980D01*
X170058863Y-98716956D01*
X169531631Y-98498030D01*
X168960753Y-98497532D01*
X168433140Y-98715537D01*
X168029116Y-99118857D01*
X167810190Y-99646089D01*
X167809692Y-100216967D01*
X168027697Y-100744580D01*
X168234456Y-100951700D01*
X167582833Y-100951700D01*
X167465045Y-100872997D01*
X167030700Y-100786600D01*
X166596355Y-100872997D01*
X166228134Y-101119034D01*
X165982097Y-101487255D01*
X165895700Y-101921600D01*
X165982097Y-102355945D01*
X166228134Y-102724166D01*
X166393234Y-102889266D01*
X166761455Y-103135304D01*
X167195800Y-103221700D01*
X168699905Y-103221700D01*
X168466800Y-103318017D01*
X168062776Y-103721337D01*
X167843850Y-104248569D01*
X167843352Y-104819447D01*
X167976917Y-105142700D01*
X167297632Y-105142700D01*
X165887626Y-103732694D01*
X165804343Y-103677046D01*
X165519406Y-103486657D01*
X165085060Y-103400260D01*
X162166877Y-103400260D01*
X161943595Y-103251067D01*
X161411665Y-103145260D01*
X159827815Y-103145260D01*
X159295885Y-103251067D01*
X158844937Y-103552382D01*
X158543622Y-104003330D01*
X158437815Y-104535260D01*
X158543622Y-105067190D01*
X158844937Y-105518138D01*
X159293727Y-105818011D01*
X159220477Y-105839668D01*
X158797059Y-106182184D01*
X158536947Y-106660663D01*
X158522463Y-106733289D01*
X158645057Y-106948260D01*
X160492740Y-106948260D01*
X160492740Y-106928260D01*
X160746740Y-106928260D01*
X160746740Y-106948260D01*
X162594423Y-106948260D01*
X162717017Y-106733289D01*
X162702533Y-106660663D01*
X162442421Y-106182184D01*
X162019003Y-105839668D01*
X161945753Y-105818011D01*
X162166877Y-105670260D01*
X164614928Y-105670260D01*
X166024934Y-107080266D01*
X166393154Y-107326303D01*
X166827500Y-107412700D01*
X167908642Y-107412700D01*
X167866300Y-107476069D01*
X167757067Y-108025220D01*
X167866300Y-108574371D01*
X168177369Y-109039918D01*
X168642916Y-109350987D01*
X169192067Y-109460220D01*
X169248293Y-109460220D01*
X169797444Y-109350987D01*
X170262991Y-109039918D01*
X170574060Y-108574371D01*
X170683293Y-108025220D01*
X170574060Y-107476069D01*
X170531718Y-107412700D01*
X174110070Y-107412700D01*
X173949734Y-107519833D01*
X168814818Y-112654750D01*
X168523182Y-112654750D01*
X167009105Y-111140673D01*
X166732391Y-110726542D01*
X166266844Y-110415473D01*
X165717693Y-110306240D01*
X165661467Y-110306240D01*
X165112316Y-110415473D01*
X164646769Y-110726542D01*
X164335700Y-111192089D01*
X164226467Y-111741240D01*
X164335700Y-112290391D01*
X164646769Y-112755938D01*
X165112316Y-113067007D01*
X165661467Y-113176240D01*
X165717693Y-113176240D01*
X165815044Y-113156876D01*
X166926940Y-114268772D01*
X166926940Y-114567519D01*
X166780651Y-114348582D01*
X166315104Y-114037513D01*
X165765953Y-113928280D01*
X165709727Y-113928280D01*
X165160576Y-114037513D01*
X164695029Y-114348582D01*
X164383960Y-114814129D01*
X164274727Y-115363280D01*
X164383960Y-115912431D01*
X164695029Y-116377978D01*
X165160576Y-116689047D01*
X165709727Y-116798280D01*
X165765953Y-116798280D01*
X166315104Y-116689047D01*
X166780651Y-116377978D01*
X166926940Y-116159041D01*
X166926940Y-119422109D01*
X166914500Y-119483540D01*
X166914500Y-119525848D01*
X164577134Y-121863214D01*
X164331097Y-122231434D01*
X164244700Y-122665780D01*
X164244700Y-123047122D01*
X164051863Y-122580420D01*
X163648543Y-122176396D01*
X163121311Y-121957470D01*
X162550433Y-121956972D01*
X162022820Y-122174977D01*
X161618796Y-122578297D01*
X161399870Y-123105529D01*
X161399372Y-123676407D01*
X161617377Y-124204020D01*
X162020697Y-124608044D01*
X162547929Y-124826970D01*
X163118807Y-124827468D01*
X163646420Y-124609463D01*
X164050444Y-124206143D01*
X164244700Y-123738323D01*
X164244700Y-128896400D01*
X164331097Y-129330746D01*
X164490661Y-129569550D01*
X164577134Y-129698966D01*
X166914407Y-132036239D01*
X166645154Y-132147493D01*
X166325595Y-132466495D01*
X166152437Y-132883504D01*
X166152043Y-133335035D01*
X166324473Y-133752346D01*
X166643475Y-134071905D01*
X167060484Y-134245063D01*
X167422357Y-134245379D01*
X167422043Y-134605035D01*
X167594473Y-135022346D01*
X167913475Y-135341905D01*
X168322514Y-135511754D01*
X167589268Y-136245000D01*
X163640228Y-136245000D01*
X163312651Y-136026120D01*
X162763500Y-135916887D01*
X162214349Y-136026120D01*
X161748802Y-136337189D01*
X161437733Y-136802736D01*
X161328500Y-137351887D01*
X161328500Y-137408113D01*
X161437733Y-137957264D01*
X161748802Y-138422811D01*
X162214349Y-138733880D01*
X162763500Y-138843113D01*
X163312651Y-138733880D01*
X163640228Y-138515000D01*
X168059400Y-138515000D01*
X168493746Y-138428603D01*
X168861966Y-138182566D01*
X169873105Y-137171427D01*
X171909892Y-137171427D01*
X172127897Y-137699040D01*
X172531217Y-138103064D01*
X173058449Y-138321990D01*
X173629327Y-138322488D01*
X174156940Y-138104483D01*
X174560964Y-137701163D01*
X174779890Y-137173931D01*
X174780140Y-136887240D01*
X182042027Y-136887240D01*
X182151260Y-137436391D01*
X182462329Y-137901938D01*
X182927876Y-138213007D01*
X183477027Y-138322240D01*
X183533253Y-138322240D01*
X184082404Y-138213007D01*
X184547951Y-137901938D01*
X184756029Y-137590527D01*
X194414292Y-137590527D01*
X194632297Y-138118140D01*
X195035617Y-138522164D01*
X195562849Y-138741090D01*
X196133727Y-138741588D01*
X196661340Y-138523583D01*
X197065364Y-138120263D01*
X197243634Y-137690941D01*
X198409866Y-137690941D01*
X198649391Y-138197034D01*
X199064357Y-138572941D01*
X199452741Y-138733804D01*
X199674780Y-138611815D01*
X199674780Y-137468900D01*
X199928780Y-137468900D01*
X199928780Y-138611815D01*
X200150819Y-138733804D01*
X200539203Y-138572941D01*
X200954169Y-138197034D01*
X201193694Y-137690941D01*
X201072409Y-137468900D01*
X199928780Y-137468900D01*
X199674780Y-137468900D01*
X198531151Y-137468900D01*
X198409866Y-137690941D01*
X197243634Y-137690941D01*
X197284290Y-137593031D01*
X197284788Y-137022153D01*
X197272684Y-136992859D01*
X198409866Y-136992859D01*
X198531151Y-137214900D01*
X199674780Y-137214900D01*
X199674780Y-136071985D01*
X199928780Y-136071985D01*
X199928780Y-137214900D01*
X201072409Y-137214900D01*
X201193694Y-136992859D01*
X200954169Y-136486766D01*
X200539203Y-136110859D01*
X200150819Y-135949996D01*
X199928780Y-136071985D01*
X199674780Y-136071985D01*
X199452741Y-135949996D01*
X199064357Y-136110859D01*
X198649391Y-136486766D01*
X198409866Y-136992859D01*
X197272684Y-136992859D01*
X197066783Y-136494540D01*
X196663463Y-136090516D01*
X196136231Y-135871590D01*
X195565353Y-135871092D01*
X195037740Y-136089097D01*
X194633716Y-136492417D01*
X194414790Y-137019649D01*
X194414292Y-137590527D01*
X184756029Y-137590527D01*
X184859020Y-137436391D01*
X184968253Y-136887240D01*
X184863611Y-136361167D01*
X185069632Y-136361167D01*
X185287637Y-136888780D01*
X185690957Y-137292804D01*
X186218189Y-137511730D01*
X186789067Y-137512228D01*
X187316680Y-137294223D01*
X187720704Y-136890903D01*
X187939630Y-136363671D01*
X187940128Y-135792793D01*
X187722123Y-135265180D01*
X187318803Y-134861156D01*
X187252336Y-134833557D01*
X187258885Y-134830844D01*
X187333019Y-134584725D01*
X186504880Y-133756585D01*
X185676741Y-134584725D01*
X185750875Y-134830844D01*
X185757363Y-134833176D01*
X185693080Y-134859737D01*
X185289056Y-135263057D01*
X185070130Y-135790289D01*
X185069632Y-136361167D01*
X184863611Y-136361167D01*
X184859020Y-136338089D01*
X184547951Y-135872542D01*
X184082404Y-135561473D01*
X183533253Y-135452240D01*
X183477027Y-135452240D01*
X182927876Y-135561473D01*
X182462329Y-135872542D01*
X182151260Y-136338089D01*
X182042027Y-136887240D01*
X174780140Y-136887240D01*
X174780388Y-136603053D01*
X174562383Y-136075440D01*
X174159063Y-135671416D01*
X173631831Y-135452490D01*
X173060953Y-135451992D01*
X172533340Y-135669997D01*
X172129316Y-136073317D01*
X171910390Y-136600549D01*
X171909892Y-137171427D01*
X169873105Y-137171427D01*
X170629806Y-136414726D01*
X170875843Y-136046506D01*
X170962240Y-135612160D01*
X170962240Y-133678927D01*
X171937832Y-133678927D01*
X172155837Y-134206540D01*
X172559157Y-134610564D01*
X173086389Y-134829490D01*
X173657267Y-134829988D01*
X174184880Y-134611983D01*
X174588904Y-134208663D01*
X174781940Y-133743779D01*
X182141176Y-133743779D01*
X182302039Y-134132163D01*
X182677946Y-134547129D01*
X183184039Y-134786654D01*
X183406080Y-134665369D01*
X183406080Y-133521740D01*
X183660080Y-133521740D01*
X183660080Y-134665369D01*
X183882121Y-134786654D01*
X184388214Y-134547129D01*
X184764121Y-134132163D01*
X184924984Y-133743779D01*
X184802995Y-133521740D01*
X183660080Y-133521740D01*
X183406080Y-133521740D01*
X182263165Y-133521740D01*
X182141176Y-133743779D01*
X174781940Y-133743779D01*
X174807830Y-133681431D01*
X174808110Y-133360203D01*
X185057915Y-133360203D01*
X185085102Y-133930434D01*
X185251016Y-134330985D01*
X185497135Y-134405119D01*
X186325275Y-133576980D01*
X186684485Y-133576980D01*
X187512625Y-134405119D01*
X187758744Y-134330985D01*
X187951845Y-133793757D01*
X187924658Y-133223526D01*
X187758744Y-132822975D01*
X187512625Y-132748841D01*
X186684485Y-133576980D01*
X186325275Y-133576980D01*
X185497135Y-132748841D01*
X185251016Y-132822975D01*
X185057915Y-133360203D01*
X174808110Y-133360203D01*
X174808328Y-133110553D01*
X174781532Y-133045701D01*
X182141176Y-133045701D01*
X182263165Y-133267740D01*
X183406080Y-133267740D01*
X183406080Y-132124111D01*
X183660080Y-132124111D01*
X183660080Y-133267740D01*
X184802995Y-133267740D01*
X184924984Y-133045701D01*
X184764121Y-132657317D01*
X184684330Y-132569235D01*
X185676741Y-132569235D01*
X186504880Y-133397375D01*
X187333019Y-132569235D01*
X187258885Y-132323116D01*
X186721657Y-132130015D01*
X186151426Y-132157202D01*
X185750875Y-132323116D01*
X185676741Y-132569235D01*
X184684330Y-132569235D01*
X184388214Y-132242351D01*
X183882121Y-132002826D01*
X183660080Y-132124111D01*
X183406080Y-132124111D01*
X183184039Y-132002826D01*
X182677946Y-132242351D01*
X182302039Y-132657317D01*
X182141176Y-133045701D01*
X174781532Y-133045701D01*
X174590323Y-132582940D01*
X174187003Y-132178916D01*
X173659771Y-131959990D01*
X173088893Y-131959492D01*
X172561280Y-132177497D01*
X172157256Y-132580817D01*
X171938330Y-133108049D01*
X171937832Y-133678927D01*
X170962240Y-133678927D01*
X170962240Y-133671691D01*
X170974680Y-133610260D01*
X170974680Y-132610260D01*
X170930402Y-132374943D01*
X170791330Y-132158819D01*
X170579130Y-132013829D01*
X170327240Y-131962820D01*
X170051252Y-131962820D01*
X168002810Y-129914378D01*
X168022557Y-129910662D01*
X168238681Y-129771590D01*
X168383671Y-129559390D01*
X168434680Y-129307500D01*
X168434680Y-128672394D01*
X168692357Y-128672619D01*
X168692043Y-129032275D01*
X168864473Y-129449586D01*
X169183475Y-129769145D01*
X169600484Y-129942303D01*
X170052015Y-129942697D01*
X170469326Y-129770267D01*
X170788885Y-129451265D01*
X170962043Y-129034256D01*
X170962437Y-128582725D01*
X170852914Y-128317660D01*
X171821780Y-128317660D01*
X171821780Y-129317660D01*
X171866058Y-129552977D01*
X172005130Y-129769101D01*
X172217330Y-129914091D01*
X172469220Y-129965100D01*
X173469220Y-129965100D01*
X173704537Y-129920822D01*
X173920661Y-129781750D01*
X174065651Y-129569550D01*
X174116660Y-129317660D01*
X174116660Y-128682554D01*
X174374337Y-128682779D01*
X174374023Y-129042435D01*
X174546453Y-129459746D01*
X174865455Y-129779305D01*
X175282464Y-129952463D01*
X175733995Y-129952857D01*
X176151306Y-129780427D01*
X176470865Y-129461425D01*
X176644023Y-129044416D01*
X176644417Y-128592885D01*
X176471987Y-128175574D01*
X176152985Y-127856015D01*
X175735976Y-127682857D01*
X175374103Y-127682541D01*
X175374258Y-127504187D01*
X177198172Y-127504187D01*
X177416177Y-128031800D01*
X177819497Y-128435824D01*
X178346729Y-128654750D01*
X178917607Y-128655248D01*
X179445220Y-128437243D01*
X179655083Y-128227745D01*
X180305281Y-128227745D01*
X180379415Y-128473864D01*
X180916643Y-128666965D01*
X181486874Y-128639778D01*
X181887425Y-128473864D01*
X181961559Y-128227745D01*
X181133420Y-127399605D01*
X180305281Y-128227745D01*
X179655083Y-128227745D01*
X179849244Y-128033923D01*
X179876843Y-127967456D01*
X179879556Y-127974005D01*
X180125675Y-128048139D01*
X180953815Y-127220000D01*
X181313025Y-127220000D01*
X182141165Y-128048139D01*
X182387284Y-127974005D01*
X182580385Y-127436777D01*
X182553198Y-126866546D01*
X182387284Y-126465995D01*
X182141165Y-126391861D01*
X181313025Y-127220000D01*
X180953815Y-127220000D01*
X180125675Y-126391861D01*
X179879556Y-126465995D01*
X179877224Y-126472483D01*
X179850663Y-126408200D01*
X179655060Y-126212255D01*
X180305281Y-126212255D01*
X181133420Y-127040395D01*
X181961559Y-126212255D01*
X181887425Y-125966136D01*
X181350197Y-125773035D01*
X180779966Y-125800222D01*
X180379415Y-125966136D01*
X180305281Y-126212255D01*
X179655060Y-126212255D01*
X179447343Y-126004176D01*
X178920111Y-125785250D01*
X178349233Y-125784752D01*
X177821620Y-126002757D01*
X177417596Y-126406077D01*
X177198670Y-126933309D01*
X177198172Y-127504187D01*
X175374258Y-127504187D01*
X175374417Y-127322885D01*
X175201987Y-126905574D01*
X174882985Y-126586015D01*
X174465976Y-126412857D01*
X174014445Y-126412463D01*
X173597134Y-126584893D01*
X173277575Y-126903895D01*
X173104417Y-127320904D01*
X173104112Y-127670220D01*
X172469220Y-127670220D01*
X172233903Y-127714498D01*
X172017779Y-127853570D01*
X171872789Y-128065770D01*
X171821780Y-128317660D01*
X170852914Y-128317660D01*
X170790007Y-128165414D01*
X170471005Y-127845855D01*
X170053996Y-127672697D01*
X169692123Y-127672381D01*
X169692437Y-127312725D01*
X169520007Y-126895414D01*
X169201005Y-126575855D01*
X168783996Y-126402697D01*
X168332465Y-126402303D01*
X167915154Y-126574733D01*
X167595595Y-126893735D01*
X167422437Y-127310744D01*
X167422132Y-127660060D01*
X166787240Y-127660060D01*
X166551923Y-127704338D01*
X166514700Y-127728290D01*
X166514700Y-123135912D01*
X166926764Y-122723848D01*
X166926743Y-122748315D01*
X167099173Y-123165626D01*
X167418175Y-123485185D01*
X167835184Y-123658343D01*
X168286715Y-123658737D01*
X168704026Y-123486307D01*
X169023585Y-123167305D01*
X169196743Y-122750296D01*
X169197059Y-122388423D01*
X169556715Y-122388737D01*
X169557192Y-122388540D01*
X170007580Y-122388540D01*
X170441926Y-122302143D01*
X170810146Y-122056106D01*
X174762840Y-118103412D01*
X174762840Y-120188860D01*
X174453276Y-120060317D01*
X174001745Y-120059923D01*
X173584434Y-120232353D01*
X173264875Y-120551355D01*
X173091717Y-120968364D01*
X173091412Y-121317680D01*
X172456520Y-121317680D01*
X172221203Y-121361958D01*
X172005079Y-121501030D01*
X171860089Y-121713230D01*
X171809080Y-121965120D01*
X171809080Y-122965120D01*
X171853358Y-123200437D01*
X171992430Y-123416561D01*
X172204630Y-123561551D01*
X172456520Y-123612560D01*
X173456520Y-123612560D01*
X173691837Y-123568282D01*
X173907961Y-123429210D01*
X174052951Y-123217010D01*
X174103960Y-122965120D01*
X174103960Y-122330014D01*
X174361637Y-122330239D01*
X174361323Y-122689895D01*
X174533753Y-123107206D01*
X174852755Y-123426765D01*
X175269764Y-123599923D01*
X175721295Y-123600317D01*
X176138606Y-123427887D01*
X176458165Y-123108885D01*
X176458362Y-123108410D01*
X176700406Y-122866366D01*
X176757782Y-122780497D01*
X176946443Y-122498146D01*
X177032840Y-122063800D01*
X177032840Y-116257886D01*
X177113664Y-116177203D01*
X177332590Y-115649971D01*
X177333088Y-115079093D01*
X177115083Y-114551480D01*
X176711763Y-114147456D01*
X176184531Y-113928530D01*
X175613653Y-113928032D01*
X175086040Y-114146037D01*
X174682016Y-114549357D01*
X174463090Y-115076589D01*
X174462988Y-115193000D01*
X169537448Y-120118540D01*
X169332930Y-120118540D01*
X169209380Y-120118432D01*
X169209380Y-119483540D01*
X169196940Y-119417427D01*
X169196940Y-114924750D01*
X169284950Y-114924750D01*
X169719296Y-114838353D01*
X170087516Y-114592316D01*
X172654405Y-112025427D01*
X174414332Y-112025427D01*
X174632337Y-112553040D01*
X175035657Y-112957064D01*
X175562889Y-113175990D01*
X176133767Y-113176488D01*
X176661380Y-112958483D01*
X177065404Y-112555163D01*
X177284330Y-112027931D01*
X177284828Y-111457053D01*
X177066823Y-110929440D01*
X176663503Y-110525416D01*
X176136271Y-110306490D01*
X175565393Y-110305992D01*
X175037780Y-110523997D01*
X174633756Y-110927317D01*
X174414830Y-111454549D01*
X174414332Y-112025427D01*
X172654405Y-112025427D01*
X175554867Y-109124966D01*
X175800904Y-108756745D01*
X175887300Y-108322400D01*
X175800904Y-107888054D01*
X175554867Y-107519833D01*
X175394531Y-107412700D01*
X177162528Y-107412700D01*
X177945032Y-108195204D01*
X177944932Y-108309407D01*
X178162937Y-108837020D01*
X178566257Y-109241044D01*
X179093489Y-109459970D01*
X179664367Y-109460468D01*
X180191980Y-109242463D01*
X180274367Y-109160220D01*
X181831280Y-109160220D01*
X182265626Y-109073823D01*
X182633846Y-108827786D01*
X184518833Y-106942800D01*
X192278300Y-106942800D01*
X192712646Y-106856403D01*
X193080866Y-106610366D01*
X195080152Y-104611080D01*
X198980834Y-104611080D01*
X199061517Y-104691904D01*
X199588749Y-104910830D01*
X200159627Y-104911328D01*
X200687240Y-104693323D01*
X200742764Y-104637896D01*
X200935000Y-104830132D01*
X200935000Y-113630767D01*
X199258416Y-115307352D01*
X199144213Y-115307252D01*
X198616600Y-115525257D01*
X198212576Y-115928577D01*
X197993650Y-116455809D01*
X197993152Y-117026687D01*
X198211157Y-117554300D01*
X198293400Y-117636687D01*
X198293400Y-121381155D01*
X198115916Y-121307457D01*
X197754043Y-121307141D01*
X197754357Y-120947485D01*
X197581927Y-120530174D01*
X197262925Y-120210615D01*
X196845916Y-120037457D01*
X196394385Y-120037063D01*
X195977074Y-120209493D01*
X195657515Y-120528495D01*
X195484357Y-120945504D01*
X195484052Y-121294820D01*
X194849160Y-121294820D01*
X194613843Y-121339098D01*
X194397719Y-121478170D01*
X194252729Y-121690370D01*
X194201720Y-121942260D01*
X194201720Y-121984568D01*
X193241034Y-122945254D01*
X192994997Y-123313474D01*
X192908600Y-123747820D01*
X192908600Y-124577541D01*
X192633900Y-124522900D01*
X191777016Y-124522900D01*
X191947100Y-124452623D01*
X192351124Y-124049303D01*
X192570050Y-123522071D01*
X192570276Y-123262656D01*
X194935066Y-120897866D01*
X195054676Y-120718857D01*
X195181103Y-120529646D01*
X195267500Y-120095300D01*
X195267500Y-118007149D01*
X195677149Y-118177250D01*
X196248027Y-118177748D01*
X196775640Y-117959743D01*
X197179664Y-117556423D01*
X197398590Y-117029191D01*
X197399088Y-116458313D01*
X197181083Y-115930700D01*
X196777763Y-115526676D01*
X196250531Y-115307750D01*
X195679653Y-115307252D01*
X195267500Y-115477550D01*
X195267500Y-108883972D01*
X196141123Y-108010349D01*
X196512991Y-107936380D01*
X196978538Y-107625311D01*
X197289607Y-107159764D01*
X197398840Y-106610613D01*
X197398840Y-106554387D01*
X197993400Y-106554387D01*
X197993400Y-106610613D01*
X198102633Y-107159764D01*
X198413702Y-107625311D01*
X198879249Y-107936380D01*
X199428400Y-108045613D01*
X199977551Y-107936380D01*
X200443098Y-107625311D01*
X200754167Y-107159764D01*
X200863400Y-106610613D01*
X200863400Y-106554387D01*
X200754167Y-106005236D01*
X200443098Y-105539689D01*
X199977551Y-105228620D01*
X199428400Y-105119387D01*
X198879249Y-105228620D01*
X198413702Y-105539689D01*
X198102633Y-106005236D01*
X197993400Y-106554387D01*
X197398840Y-106554387D01*
X197289607Y-106005236D01*
X196978538Y-105539689D01*
X196512991Y-105228620D01*
X195963840Y-105119387D01*
X195414689Y-105228620D01*
X194949142Y-105539689D01*
X194638073Y-106005236D01*
X194564104Y-106377104D01*
X193329934Y-107611274D01*
X193083897Y-107979494D01*
X192997500Y-108413840D01*
X192997500Y-109939128D01*
X191908580Y-108850208D01*
X191749365Y-108690715D01*
X191332356Y-108517557D01*
X190880825Y-108517163D01*
X190880348Y-108517360D01*
X185472090Y-108517360D01*
X185246325Y-108517163D01*
X184829014Y-108689593D01*
X184509455Y-109008595D01*
X184336297Y-109425604D01*
X184335992Y-109774920D01*
X183701100Y-109774920D01*
X183465783Y-109819198D01*
X183249659Y-109958270D01*
X183104669Y-110170470D01*
X183053660Y-110422360D01*
X183053660Y-110967328D01*
X182654166Y-110567834D01*
X182285945Y-110321797D01*
X181851600Y-110235400D01*
X181417255Y-110321797D01*
X181049034Y-110567834D01*
X180802997Y-110936055D01*
X180716600Y-111370400D01*
X180802997Y-111804745D01*
X181030779Y-112145645D01*
X180718120Y-112145372D01*
X180718120Y-111510480D01*
X180673842Y-111275163D01*
X180534770Y-111059039D01*
X180322570Y-110914049D01*
X180070680Y-110863040D01*
X179070680Y-110863040D01*
X178835363Y-110907318D01*
X178619239Y-111046390D01*
X178474249Y-111258590D01*
X178423240Y-111510480D01*
X178423240Y-112510480D01*
X178467518Y-112745797D01*
X178606590Y-112961921D01*
X178818790Y-113106911D01*
X179070680Y-113157920D01*
X179705786Y-113157920D01*
X179705561Y-113415597D01*
X179345905Y-113415283D01*
X178928594Y-113587713D01*
X178609035Y-113906715D01*
X178435877Y-114323724D01*
X178435483Y-114775255D01*
X178607913Y-115192566D01*
X178926915Y-115512125D01*
X179343924Y-115685283D01*
X179795455Y-115685677D01*
X180212766Y-115513247D01*
X180532325Y-115194245D01*
X180705483Y-114777236D01*
X180705799Y-114415363D01*
X181065455Y-114415677D01*
X181482766Y-114243247D01*
X181802325Y-113924245D01*
X181975483Y-113507236D01*
X181975839Y-113099771D01*
X182801634Y-113925566D01*
X183169855Y-114171604D01*
X183418281Y-114221019D01*
X183206435Y-114432495D01*
X183180987Y-114493781D01*
X181734834Y-115939934D01*
X181488797Y-116308154D01*
X181402400Y-116742500D01*
X181402400Y-121334748D01*
X181336676Y-121307457D01*
X180974803Y-121307141D01*
X180975117Y-120947485D01*
X180802687Y-120530174D01*
X180483685Y-120210615D01*
X180066676Y-120037457D01*
X179615145Y-120037063D01*
X179197834Y-120209493D01*
X178878275Y-120528495D01*
X178705117Y-120945504D01*
X178704812Y-121294820D01*
X178069920Y-121294820D01*
X177834603Y-121339098D01*
X177618479Y-121478170D01*
X177473489Y-121690370D01*
X177422480Y-121942260D01*
X177422480Y-122942260D01*
X177466758Y-123177577D01*
X177605830Y-123393701D01*
X177818030Y-123538691D01*
X178069920Y-123589700D01*
X179069920Y-123589700D01*
X179305237Y-123545422D01*
X179521361Y-123406350D01*
X179666351Y-123194150D01*
X179717360Y-122942260D01*
X179717360Y-122307154D01*
X179975037Y-122307379D01*
X179974723Y-122667035D01*
X180147153Y-123084346D01*
X180466155Y-123403905D01*
X180883164Y-123577063D01*
X181334695Y-123577457D01*
X181402400Y-123549482D01*
X181402400Y-123829100D01*
X181488797Y-124263446D01*
X181719998Y-124609463D01*
X181734834Y-124631666D01*
X183563634Y-126460466D01*
X183931854Y-126706503D01*
X184366200Y-126792900D01*
X184609869Y-126792900D01*
X184483955Y-126918595D01*
X184310797Y-127335604D01*
X184310492Y-127684920D01*
X183675600Y-127684920D01*
X183440283Y-127729198D01*
X183224159Y-127868270D01*
X183079169Y-128080470D01*
X183028160Y-128332360D01*
X183028160Y-129332360D01*
X183072438Y-129567677D01*
X183211510Y-129783801D01*
X183423710Y-129928791D01*
X183675600Y-129979800D01*
X184675600Y-129979800D01*
X184910917Y-129935522D01*
X185127041Y-129796450D01*
X185272031Y-129584250D01*
X185323040Y-129332360D01*
X185323040Y-128697254D01*
X185580717Y-128697479D01*
X185580403Y-129057135D01*
X185752833Y-129474446D01*
X186071835Y-129794005D01*
X186488844Y-129967163D01*
X186940375Y-129967557D01*
X187357686Y-129795127D01*
X187677245Y-129476125D01*
X187850403Y-129059116D01*
X187850719Y-128697360D01*
X188658160Y-128697360D01*
X188658160Y-129332360D01*
X188702438Y-129567677D01*
X188841510Y-129783801D01*
X189053710Y-129928791D01*
X189305600Y-129979800D01*
X190305600Y-129979800D01*
X190540917Y-129935522D01*
X190757041Y-129796450D01*
X190902031Y-129584250D01*
X190953040Y-129332360D01*
X190953040Y-129044932D01*
X191210600Y-129302492D01*
X191210600Y-130042228D01*
X189033448Y-132219380D01*
X188873955Y-132378595D01*
X188700797Y-132795604D01*
X188700403Y-133247135D01*
X188872833Y-133664446D01*
X189191835Y-133984005D01*
X189608844Y-134157163D01*
X189970717Y-134157479D01*
X189970403Y-134517135D01*
X190142833Y-134934446D01*
X190461835Y-135254005D01*
X190878844Y-135427163D01*
X191330375Y-135427557D01*
X191330852Y-135427360D01*
X197483442Y-135427360D01*
X197660555Y-135545703D01*
X198094900Y-135632100D01*
X198529245Y-135545703D01*
X198897466Y-135299666D01*
X199143503Y-134931445D01*
X199229900Y-134497100D01*
X199143503Y-134062755D01*
X198897466Y-133694534D01*
X198692726Y-133489794D01*
X198554411Y-133397375D01*
X198324506Y-133243757D01*
X197890160Y-133157360D01*
X194092872Y-133157360D01*
X194846166Y-132404067D01*
X195092203Y-132035846D01*
X195104254Y-131975260D01*
X195178600Y-131601500D01*
X195178600Y-128418843D01*
X195300389Y-128500220D01*
X195849540Y-128609453D01*
X196398691Y-128500220D01*
X196864238Y-128189151D01*
X197175307Y-127723604D01*
X197226530Y-127466087D01*
X198366532Y-127466087D01*
X198584537Y-127993700D01*
X198987857Y-128397724D01*
X199515089Y-128616650D01*
X200085967Y-128617148D01*
X200613580Y-128399143D01*
X201017604Y-127995823D01*
X201236530Y-127468591D01*
X201237028Y-126897713D01*
X201019023Y-126370100D01*
X200615703Y-125966076D01*
X200088471Y-125747150D01*
X199517593Y-125746652D01*
X198989980Y-125964657D01*
X198585956Y-126367977D01*
X198367030Y-126895209D01*
X198366532Y-127466087D01*
X197226530Y-127466087D01*
X197284540Y-127174453D01*
X197284540Y-127118227D01*
X197190674Y-126646331D01*
X197398946Y-126604903D01*
X197767166Y-126358866D01*
X200230966Y-123895066D01*
X200477003Y-123526846D01*
X200501234Y-123405027D01*
X200563400Y-123092500D01*
X200563400Y-117637106D01*
X200644224Y-117556423D01*
X200863150Y-117029191D01*
X200863252Y-116912781D01*
X202872567Y-114903466D01*
X203118604Y-114535245D01*
X203205000Y-114100900D01*
X203205000Y-104360000D01*
X203191077Y-104290003D01*
X203118604Y-103925655D01*
X202872566Y-103557434D01*
X201988646Y-102673514D01*
X201874952Y-102597546D01*
X201620426Y-102427477D01*
X201186080Y-102341080D01*
X200770046Y-102341080D01*
X200689363Y-102260256D01*
X200162131Y-102041330D01*
X199591253Y-102040832D01*
X199063640Y-102258837D01*
X198981253Y-102341080D01*
X194610020Y-102341080D01*
X194175674Y-102427477D01*
X193921148Y-102597546D01*
X193807454Y-102673514D01*
X191808168Y-104672800D01*
X190485836Y-104672800D01*
X190758251Y-104490778D01*
X191069320Y-104025231D01*
X191178553Y-103476080D01*
X191069320Y-102926929D01*
X190758251Y-102461382D01*
X190292704Y-102150313D01*
X189743553Y-102041080D01*
X189687327Y-102041080D01*
X189138176Y-102150313D01*
X188672629Y-102461382D01*
X188361560Y-102926929D01*
X188252327Y-103476080D01*
X188361560Y-104025231D01*
X188672629Y-104490778D01*
X188945044Y-104672800D01*
X186632780Y-104672800D01*
X186645057Y-104611080D01*
X186695000Y-104360000D01*
X186695000Y-103090000D01*
X186608603Y-102655654D01*
X186362566Y-102287434D01*
X185994346Y-102041397D01*
X185705742Y-101983990D01*
X188274906Y-99414827D01*
X188240050Y-99498769D01*
X188239552Y-100069647D01*
X188457557Y-100597260D01*
X188860877Y-101001284D01*
X189388109Y-101220210D01*
X189958987Y-101220708D01*
X190486600Y-101002703D01*
X190890624Y-100599383D01*
X191109550Y-100072151D01*
X191110048Y-99501273D01*
X190910364Y-99018000D01*
X191224200Y-99018000D01*
X191658546Y-98931603D01*
X192026766Y-98685566D01*
X193433926Y-97278406D01*
X193555659Y-97096220D01*
X193679963Y-96910186D01*
X193686027Y-96879700D01*
X195758035Y-96879700D01*
X195863842Y-97411630D01*
X196165157Y-97862578D01*
X196616105Y-98163893D01*
X197148035Y-98269700D01*
X198731885Y-98269700D01*
X199263815Y-98163893D01*
X199714763Y-97862578D01*
X200016078Y-97411630D01*
X200121885Y-96879700D01*
X200016078Y-96347770D01*
X199714763Y-95896822D01*
X199265973Y-95596949D01*
X199339223Y-95575292D01*
X199762641Y-95232776D01*
X200022753Y-94754297D01*
X200037237Y-94681671D01*
X199914643Y-94466700D01*
X198066960Y-94466700D01*
X198066960Y-94486700D01*
X197812960Y-94486700D01*
X197812960Y-94466700D01*
X195965277Y-94466700D01*
X195842683Y-94681671D01*
X195857167Y-94754297D01*
X196117279Y-95232776D01*
X196540697Y-95575292D01*
X196613947Y-95596949D01*
X196165157Y-95896822D01*
X195863842Y-96347770D01*
X195758035Y-96879700D01*
X193686027Y-96879700D01*
X193766360Y-96475840D01*
X193766360Y-91799700D01*
X195758035Y-91799700D01*
X195863842Y-92331630D01*
X196165157Y-92782578D01*
X196613947Y-93082451D01*
X196540697Y-93104108D01*
X196117279Y-93446624D01*
X195857167Y-93925103D01*
X195842683Y-93997729D01*
X195965277Y-94212700D01*
X197812960Y-94212700D01*
X197812960Y-94192700D01*
X198066960Y-94192700D01*
X198066960Y-94212700D01*
X199914643Y-94212700D01*
X200037237Y-93997729D01*
X200022753Y-93925103D01*
X199762641Y-93446624D01*
X199339223Y-93104108D01*
X199265973Y-93082451D01*
X199714763Y-92782578D01*
X200016078Y-92331630D01*
X200121885Y-91799700D01*
X200016078Y-91267770D01*
X199714763Y-90816822D01*
X199263815Y-90515507D01*
X198731885Y-90409700D01*
X197148035Y-90409700D01*
X196616105Y-90515507D01*
X196165157Y-90816822D01*
X195863842Y-91267770D01*
X195758035Y-91799700D01*
X193766360Y-91799700D01*
X193766360Y-84731308D01*
X193985240Y-84403731D01*
X194086928Y-83892507D01*
X194592340Y-83892507D01*
X194592340Y-83948733D01*
X194701573Y-84497884D01*
X195012642Y-84963431D01*
X195478189Y-85274500D01*
X196027340Y-85383733D01*
X196576491Y-85274500D01*
X197042038Y-84963431D01*
X197353107Y-84497884D01*
X197462340Y-83948733D01*
X197462340Y-83892507D01*
X198168660Y-83892507D01*
X198168660Y-83948733D01*
X198277893Y-84497884D01*
X198588962Y-84963431D01*
X199054509Y-85274500D01*
X199603660Y-85383733D01*
X200152811Y-85274500D01*
X200618358Y-84963431D01*
X200929427Y-84497884D01*
X201038660Y-83948733D01*
X201038660Y-83892507D01*
X200929427Y-83343356D01*
X200618358Y-82877809D01*
X200152811Y-82566740D01*
X199603660Y-82457507D01*
X199054509Y-82566740D01*
X198588962Y-82877809D01*
X198277893Y-83343356D01*
X198168660Y-83892507D01*
X197462340Y-83892507D01*
X197353107Y-83343356D01*
X197042038Y-82877809D01*
X196576491Y-82566740D01*
X196027340Y-82457507D01*
X195478189Y-82566740D01*
X195012642Y-82877809D01*
X194701573Y-83343356D01*
X194592340Y-83892507D01*
X194086928Y-83892507D01*
X194094473Y-83854580D01*
X193985240Y-83305429D01*
X193674171Y-82839882D01*
X193208624Y-82528813D01*
X192659473Y-82419580D01*
X192603247Y-82419580D01*
X192054096Y-82528813D01*
X191588549Y-82839882D01*
X191277480Y-83305429D01*
X191168247Y-83854580D01*
X191277480Y-84403731D01*
X191496360Y-84731308D01*
X191496360Y-96005708D01*
X190754068Y-96748000D01*
X190396118Y-96748000D01*
X190659960Y-96638983D01*
X191063984Y-96235663D01*
X191282910Y-95708431D01*
X191283408Y-95137553D01*
X191065403Y-94609940D01*
X190936800Y-94481113D01*
X190936800Y-91891666D01*
X191017624Y-91810983D01*
X191236550Y-91283751D01*
X191237048Y-90712873D01*
X191019043Y-90185260D01*
X190615723Y-89781236D01*
X190088491Y-89562310D01*
X189517613Y-89561812D01*
X188990000Y-89779817D01*
X188585976Y-90183137D01*
X188367050Y-90710369D01*
X188366552Y-91281247D01*
X188584557Y-91808860D01*
X188666800Y-91891247D01*
X188666800Y-94573413D01*
X188632336Y-94607817D01*
X188598347Y-94689671D01*
X188565403Y-94609940D01*
X188162083Y-94205916D01*
X187634851Y-93986990D01*
X187063973Y-93986492D01*
X186695000Y-94138948D01*
X186695000Y-91660000D01*
X186608603Y-91225654D01*
X186362566Y-90857434D01*
X183027472Y-87522340D01*
X188239627Y-87522340D01*
X188348860Y-88071491D01*
X188659929Y-88537038D01*
X189125476Y-88848107D01*
X189674627Y-88957340D01*
X189730853Y-88957340D01*
X190280004Y-88848107D01*
X190745551Y-88537038D01*
X191056620Y-88071491D01*
X191165853Y-87522340D01*
X191056620Y-86973189D01*
X190745551Y-86507642D01*
X190280004Y-86196573D01*
X189730853Y-86087340D01*
X189674627Y-86087340D01*
X189125476Y-86196573D01*
X188659929Y-86507642D01*
X188348860Y-86973189D01*
X188239627Y-87522340D01*
X183027472Y-87522340D01*
X182224906Y-86719774D01*
X182207909Y-86708417D01*
X181856686Y-86473737D01*
X181422340Y-86387340D01*
X180437346Y-86387340D01*
X180356663Y-86306516D01*
X179829431Y-86087590D01*
X179258553Y-86087092D01*
X178730940Y-86305097D01*
X178326916Y-86708417D01*
X178107990Y-87235649D01*
X178107492Y-87806527D01*
X178325497Y-88334140D01*
X178728817Y-88738164D01*
X179256049Y-88957090D01*
X179826927Y-88957588D01*
X180354540Y-88739583D01*
X180436927Y-88657340D01*
X180952208Y-88657340D01*
X184425000Y-92130132D01*
X184425000Y-94200000D01*
X184511397Y-94634346D01*
X184757434Y-95002566D01*
X185125654Y-95248603D01*
X185560000Y-95335000D01*
X185896752Y-95268016D01*
X184848568Y-96316200D01*
X181230310Y-96316200D01*
X181247086Y-96312863D01*
X181615306Y-96066826D01*
X182412866Y-95269266D01*
X182502547Y-95135049D01*
X182658903Y-94901046D01*
X182745300Y-94466700D01*
X182745300Y-92965560D01*
X182658903Y-92531214D01*
X182412866Y-92162994D01*
X181069649Y-90819777D01*
X180995680Y-90447909D01*
X180684611Y-89982362D01*
X180219064Y-89671293D01*
X179669913Y-89562060D01*
X179613687Y-89562060D01*
X179064536Y-89671293D01*
X178598989Y-89982362D01*
X178287920Y-90447909D01*
X178178687Y-90997060D01*
X178287920Y-91546211D01*
X178598989Y-92011758D01*
X179064536Y-92322827D01*
X179436404Y-92396796D01*
X180475300Y-93435692D01*
X180475300Y-93996568D01*
X180356610Y-94115258D01*
X180092064Y-93938493D01*
X179720196Y-93864524D01*
X173281260Y-87425588D01*
X173281260Y-86561723D01*
X173641035Y-86562037D01*
X174058346Y-86389607D01*
X174377905Y-86070605D01*
X174551063Y-85653596D01*
X174551368Y-85304280D01*
X175186260Y-85304280D01*
X175344500Y-85274505D01*
X175344500Y-87621168D01*
X175334034Y-87631634D01*
X175087997Y-87999855D01*
X175001600Y-88434200D01*
X175087997Y-88868545D01*
X175334034Y-89236766D01*
X175702255Y-89482803D01*
X176136600Y-89569200D01*
X176570945Y-89482803D01*
X176939166Y-89236766D01*
X177282066Y-88893866D01*
X177360282Y-88776807D01*
X177528103Y-88525646D01*
X177614500Y-88091300D01*
X177614500Y-83157550D01*
X177621804Y-83160583D01*
X177971120Y-83160888D01*
X177971120Y-83795780D01*
X178015398Y-84031097D01*
X178154470Y-84247221D01*
X178366670Y-84392211D01*
X178618560Y-84443220D01*
X179618560Y-84443220D01*
X179853877Y-84398942D01*
X180070001Y-84259870D01*
X180152747Y-84138767D01*
X181036112Y-84138767D01*
X181254117Y-84666380D01*
X181657437Y-85070404D01*
X182184669Y-85289330D01*
X182755547Y-85289828D01*
X183283160Y-85071823D01*
X183687184Y-84668503D01*
X183906110Y-84141271D01*
X183906608Y-83570393D01*
X183688603Y-83042780D01*
X183285283Y-82638756D01*
X182758051Y-82419830D01*
X182187173Y-82419332D01*
X181659560Y-82637337D01*
X181255536Y-83040657D01*
X181036610Y-83567889D01*
X181036112Y-84138767D01*
X180152747Y-84138767D01*
X180214991Y-84047670D01*
X180266000Y-83795780D01*
X180266000Y-82795780D01*
X180221722Y-82560463D01*
X180082650Y-82344339D01*
X179870450Y-82199349D01*
X179618560Y-82148340D01*
X178983454Y-82148340D01*
X178983679Y-81890663D01*
X179343335Y-81890977D01*
X179760646Y-81718547D01*
X180080205Y-81399545D01*
X180253363Y-80982536D01*
X180253757Y-80531005D01*
X180081327Y-80113694D01*
X179762325Y-79794135D01*
X179345316Y-79620977D01*
X178893785Y-79620583D01*
X178476474Y-79793013D01*
X178156915Y-80112015D01*
X177983757Y-80529024D01*
X177983441Y-80890897D01*
X177623785Y-80890583D01*
X177614500Y-80894419D01*
X177614500Y-74047562D01*
X177723404Y-74092783D01*
X178085277Y-74093099D01*
X178084963Y-74452755D01*
X178257393Y-74870066D01*
X178576395Y-75189625D01*
X178993404Y-75362783D01*
X179444935Y-75363177D01*
X179862246Y-75190747D01*
X180181805Y-74871745D01*
X180354963Y-74454736D01*
X180355268Y-74105420D01*
X180990160Y-74105420D01*
X181225477Y-74061142D01*
X181395329Y-73951845D01*
X181336360Y-74248300D01*
X181336360Y-79104254D01*
X181255536Y-79184937D01*
X181036610Y-79712169D01*
X181036112Y-80283047D01*
X181254117Y-80810660D01*
X181657437Y-81214684D01*
X182184669Y-81433610D01*
X182755547Y-81434108D01*
X183283160Y-81216103D01*
X183687184Y-80812783D01*
X183906110Y-80285551D01*
X183906360Y-79998860D01*
X191168247Y-79998860D01*
X191277480Y-80548011D01*
X191588549Y-81013558D01*
X192054096Y-81324627D01*
X192603247Y-81433860D01*
X192659473Y-81433860D01*
X193208624Y-81324627D01*
X193674171Y-81013558D01*
X193985240Y-80548011D01*
X194094473Y-79998860D01*
X193985240Y-79449709D01*
X193674171Y-78984162D01*
X193208624Y-78673093D01*
X192659473Y-78563860D01*
X192603247Y-78563860D01*
X192054096Y-78673093D01*
X191588549Y-78984162D01*
X191277480Y-79449709D01*
X191168247Y-79998860D01*
X183906360Y-79998860D01*
X183906608Y-79714673D01*
X183688603Y-79187060D01*
X183606360Y-79104673D01*
X183606360Y-74718432D01*
X183857818Y-74466974D01*
X183889097Y-74624226D01*
X183990645Y-74776203D01*
X184040973Y-74898006D01*
X184134902Y-74992099D01*
X184135134Y-74992446D01*
X184200760Y-75058072D01*
X184359975Y-75217565D01*
X184776984Y-75390723D01*
X185228515Y-75391117D01*
X185438085Y-75304524D01*
X185438086Y-75304524D01*
X185438087Y-75304523D01*
X185495407Y-75280839D01*
X188135633Y-77921066D01*
X188388723Y-78090175D01*
X188503854Y-78167103D01*
X188938200Y-78253500D01*
X196245780Y-78253500D01*
X196680126Y-78167103D01*
X197048346Y-77921066D01*
X199773644Y-75195768D01*
X199887847Y-75195868D01*
X200415460Y-74977863D01*
X200819484Y-74574543D01*
X201038410Y-74047311D01*
X201038908Y-73476433D01*
X200820903Y-72948820D01*
X200417583Y-72544796D01*
X199890351Y-72325870D01*
X199319473Y-72325372D01*
X198791860Y-72543377D01*
X198387836Y-72946697D01*
X198168910Y-73473929D01*
X198168808Y-73590339D01*
X197284747Y-74474401D01*
X197462090Y-74047311D01*
X197462588Y-73476433D01*
X197244583Y-72948820D01*
X196841263Y-72544796D01*
X196504874Y-72405115D01*
X196883590Y-72248633D01*
X197287614Y-71845313D01*
X197506540Y-71318081D01*
X197507038Y-70747203D01*
X197289033Y-70219590D01*
X196885713Y-69815566D01*
X196358481Y-69596640D01*
X195787603Y-69596142D01*
X195557693Y-69691139D01*
X196243166Y-69005666D01*
X196489203Y-68637446D01*
X196575600Y-68203100D01*
X196489203Y-67768755D01*
X196243166Y-67400534D01*
X195874945Y-67154497D01*
X195440600Y-67068100D01*
X195006254Y-67154497D01*
X194638034Y-67400534D01*
X191729734Y-70308834D01*
X191483697Y-70677054D01*
X191397300Y-71111400D01*
X191397300Y-71764621D01*
X191097896Y-71640297D01*
X190646365Y-71639903D01*
X190229054Y-71812333D01*
X189909495Y-72131335D01*
X189736337Y-72548344D01*
X189736021Y-72910217D01*
X189376365Y-72909903D01*
X188959054Y-73082333D01*
X188639495Y-73401335D01*
X188466337Y-73818344D01*
X188465943Y-74269875D01*
X188638373Y-74687186D01*
X188957375Y-75006745D01*
X189374384Y-75179903D01*
X189723700Y-75180208D01*
X189723700Y-75815100D01*
X189755387Y-75983500D01*
X189408333Y-75983500D01*
X187408740Y-73983908D01*
X187408740Y-73547351D01*
X187421180Y-73485920D01*
X187421180Y-72485920D01*
X187376902Y-72250603D01*
X187237830Y-72034479D01*
X187025630Y-71889489D01*
X186773740Y-71838480D01*
X185989969Y-71838480D01*
X185986304Y-71820055D01*
X185740267Y-71451834D01*
X184819210Y-70530778D01*
X184819210Y-69133513D01*
X185178985Y-69133827D01*
X185179462Y-69133630D01*
X188017172Y-69133630D01*
X188068250Y-69143790D01*
X190586939Y-69143790D01*
X190812705Y-69143987D01*
X191230016Y-68971557D01*
X191549575Y-68652555D01*
X191722733Y-68235546D01*
X191723038Y-67886230D01*
X192357930Y-67886230D01*
X192593247Y-67841952D01*
X192809371Y-67702880D01*
X192954361Y-67490680D01*
X193005370Y-67238790D01*
X193005370Y-66238790D01*
X192961092Y-66003473D01*
X192822020Y-65787349D01*
X192609820Y-65642359D01*
X192357930Y-65591350D01*
X191357930Y-65591350D01*
X191122613Y-65635628D01*
X190906489Y-65774700D01*
X190761499Y-65986900D01*
X190710490Y-66238790D01*
X190710490Y-66873896D01*
X190452813Y-66873671D01*
X190453127Y-66514015D01*
X190452930Y-66513538D01*
X190452930Y-65573162D01*
X192660496Y-63365597D01*
X192660497Y-63365596D01*
X192819575Y-63206795D01*
X192992733Y-62789786D01*
X192993127Y-62338255D01*
X192820697Y-61920944D01*
X192501695Y-61601385D01*
X192084686Y-61428227D01*
X191722813Y-61427911D01*
X191723127Y-61068255D01*
X191630168Y-60843277D01*
X194636790Y-60843277D01*
X194636790Y-60899503D01*
X194746023Y-61448654D01*
X195057092Y-61914201D01*
X195522639Y-62225270D01*
X196071790Y-62334503D01*
X196620941Y-62225270D01*
X197086488Y-61914201D01*
X197397557Y-61448654D01*
X197506790Y-60899503D01*
X197506790Y-60843277D01*
X197397557Y-60294126D01*
X197086488Y-59828579D01*
X196620941Y-59517510D01*
X196071790Y-59408277D01*
X195522639Y-59517510D01*
X195057092Y-59828579D01*
X194746023Y-60294126D01*
X194636790Y-60843277D01*
X191630168Y-60843277D01*
X191550697Y-60650944D01*
X191231695Y-60331385D01*
X190814686Y-60158227D01*
X190363155Y-60157833D01*
X189945844Y-60330263D01*
X189626285Y-60649265D01*
X189453127Y-61066274D01*
X189452822Y-61415590D01*
X188817930Y-61415590D01*
X188582613Y-61459868D01*
X188366489Y-61598940D01*
X188221499Y-61811140D01*
X188170490Y-62063030D01*
X188170490Y-63063030D01*
X188214768Y-63298347D01*
X188353840Y-63514471D01*
X188566040Y-63659461D01*
X188817930Y-63710470D01*
X189105358Y-63710470D01*
X188515364Y-64300464D01*
X188269327Y-64668684D01*
X188182930Y-65103030D01*
X188182930Y-66268658D01*
X187587958Y-66863630D01*
X187371650Y-66863630D01*
X187371650Y-66228630D01*
X187327372Y-65993313D01*
X187188300Y-65777189D01*
X186976100Y-65632199D01*
X186724210Y-65581190D01*
X185724210Y-65581190D01*
X185488893Y-65625468D01*
X185272769Y-65764540D01*
X185127779Y-65976740D01*
X185076770Y-66228630D01*
X185076770Y-66863630D01*
X184955200Y-66863630D01*
X184819210Y-66863511D01*
X184819210Y-66729621D01*
X184819407Y-66503855D01*
X184646977Y-66086544D01*
X184327975Y-65766985D01*
X183910966Y-65593827D01*
X183459435Y-65593433D01*
X183042124Y-65765863D01*
X182722565Y-66084865D01*
X182549407Y-66501874D01*
X182549013Y-66953405D01*
X182549210Y-66953882D01*
X182549210Y-71000910D01*
X182635607Y-71435256D01*
X182862179Y-71774345D01*
X182881644Y-71803476D01*
X183098494Y-72020327D01*
X183091654Y-72023153D01*
X182772095Y-72342155D01*
X182771898Y-72342630D01*
X181668794Y-73445734D01*
X181627593Y-73507395D01*
X181637600Y-73457980D01*
X181637600Y-72457980D01*
X181593322Y-72222663D01*
X181454250Y-72006539D01*
X181242050Y-71861549D01*
X180990160Y-71810540D01*
X179990160Y-71810540D01*
X179754843Y-71854818D01*
X179538719Y-71993890D01*
X179393729Y-72206090D01*
X179342720Y-72457980D01*
X179342720Y-73093086D01*
X179085043Y-73092861D01*
X179085357Y-72733205D01*
X178912927Y-72315894D01*
X178593925Y-71996335D01*
X178176916Y-71823177D01*
X177725385Y-71822783D01*
X177614500Y-71868600D01*
X177614500Y-69634578D01*
X177827299Y-69722940D01*
X178398177Y-69723438D01*
X178925790Y-69505433D01*
X179135653Y-69295935D01*
X179785851Y-69295935D01*
X179859985Y-69542054D01*
X180397213Y-69735155D01*
X180967444Y-69707968D01*
X181367995Y-69542054D01*
X181442129Y-69295935D01*
X180613990Y-68467795D01*
X179785851Y-69295935D01*
X179135653Y-69295935D01*
X179329814Y-69102113D01*
X179357413Y-69035646D01*
X179360126Y-69042195D01*
X179606245Y-69116329D01*
X180434385Y-68288190D01*
X180793595Y-68288190D01*
X181621735Y-69116329D01*
X181867854Y-69042195D01*
X182060955Y-68504967D01*
X182033768Y-67934736D01*
X181867854Y-67534185D01*
X181621735Y-67460051D01*
X180793595Y-68288190D01*
X180434385Y-68288190D01*
X179606245Y-67460051D01*
X179360126Y-67534185D01*
X179357794Y-67540673D01*
X179331233Y-67476390D01*
X179135630Y-67280445D01*
X179785851Y-67280445D01*
X180613990Y-68108585D01*
X181442129Y-67280445D01*
X181367995Y-67034326D01*
X180830767Y-66841225D01*
X180260536Y-66868412D01*
X179859985Y-67034326D01*
X179785851Y-67280445D01*
X179135630Y-67280445D01*
X178927913Y-67072366D01*
X178400681Y-66853440D01*
X177829803Y-66852942D01*
X177614500Y-66941903D01*
X177614500Y-66298100D01*
X177611797Y-66284510D01*
X177528104Y-65863755D01*
X177282067Y-65495534D01*
X175681866Y-63895334D01*
X175517632Y-63785596D01*
X175585420Y-63748569D01*
X175585420Y-62604940D01*
X175839420Y-62604940D01*
X175839420Y-63748569D01*
X176061461Y-63869854D01*
X176567554Y-63630329D01*
X176943461Y-63215363D01*
X177104324Y-62826979D01*
X177068695Y-62762127D01*
X184437172Y-62762127D01*
X184655177Y-63289740D01*
X185058497Y-63693764D01*
X185585729Y-63912690D01*
X186156607Y-63913188D01*
X186684220Y-63695183D01*
X187088244Y-63291863D01*
X187307170Y-62764631D01*
X187307668Y-62193753D01*
X187089663Y-61666140D01*
X186686343Y-61262116D01*
X186159111Y-61043190D01*
X185588233Y-61042692D01*
X185060620Y-61260697D01*
X184656596Y-61664017D01*
X184437670Y-62191249D01*
X184437172Y-62762127D01*
X177068695Y-62762127D01*
X176982335Y-62604940D01*
X175839420Y-62604940D01*
X175585420Y-62604940D01*
X175565420Y-62604940D01*
X175565420Y-62350940D01*
X175585420Y-62350940D01*
X175585420Y-61207311D01*
X175839420Y-61207311D01*
X175839420Y-62350940D01*
X176982335Y-62350940D01*
X177104324Y-62128901D01*
X176943461Y-61740517D01*
X176567554Y-61325551D01*
X176061461Y-61086026D01*
X175839420Y-61207311D01*
X175585420Y-61207311D01*
X175363379Y-61086026D01*
X174857286Y-61325551D01*
X174481379Y-61740517D01*
X174449800Y-61816760D01*
X174439798Y-61606966D01*
X174273884Y-61206415D01*
X174027765Y-61132281D01*
X173199625Y-61960420D01*
X174027765Y-62788559D01*
X174273884Y-62714425D01*
X174313237Y-62604942D01*
X174442504Y-62604942D01*
X174320516Y-62826979D01*
X174481379Y-63215363D01*
X174796204Y-63562900D01*
X169019552Y-63562900D01*
X169269176Y-63459757D01*
X169588735Y-63140755D01*
X169660400Y-62968165D01*
X172191881Y-62968165D01*
X172266015Y-63214284D01*
X172803243Y-63407385D01*
X173373474Y-63380198D01*
X173774025Y-63214284D01*
X173848159Y-62968165D01*
X173020020Y-62140025D01*
X172191881Y-62968165D01*
X169660400Y-62968165D01*
X169761893Y-62723746D01*
X169762287Y-62272215D01*
X169589857Y-61854904D01*
X169478790Y-61743643D01*
X171573055Y-61743643D01*
X171600242Y-62313874D01*
X171766156Y-62714425D01*
X172012275Y-62788559D01*
X172840415Y-61960420D01*
X172012275Y-61132281D01*
X171766156Y-61206415D01*
X171573055Y-61743643D01*
X169478790Y-61743643D01*
X169270855Y-61535345D01*
X168853846Y-61362187D01*
X168492090Y-61361871D01*
X168492090Y-61227981D01*
X168492287Y-61002215D01*
X168319857Y-60584904D01*
X168000855Y-60265345D01*
X167583846Y-60092187D01*
X167132315Y-60091793D01*
X166715004Y-60264223D01*
X166395445Y-60583225D01*
X166222287Y-61000234D01*
X166221982Y-61349550D01*
X165587090Y-61349550D01*
X165351773Y-61393828D01*
X165135649Y-61532900D01*
X164990659Y-61745100D01*
X164939650Y-61996990D01*
X164939650Y-62039298D01*
X160182934Y-66796014D01*
X159936897Y-67164234D01*
X159895154Y-67374089D01*
X159894423Y-67373356D01*
X159367191Y-67154430D01*
X158796313Y-67153932D01*
X158268700Y-67371937D01*
X157864676Y-67775257D01*
X157645750Y-68302489D01*
X157645252Y-68873367D01*
X157863257Y-69400980D01*
X158094350Y-69632477D01*
X157782554Y-69694497D01*
X157526017Y-69865910D01*
X157414334Y-69940534D01*
X156817434Y-70537434D01*
X156571397Y-70905654D01*
X156485000Y-71340000D01*
X150710000Y-71340000D01*
X150710000Y-58778221D01*
X157688586Y-58778221D01*
X157928111Y-59284314D01*
X158343077Y-59660221D01*
X158731461Y-59821084D01*
X158953500Y-59699095D01*
X158953500Y-58556180D01*
X159207500Y-58556180D01*
X159207500Y-59699095D01*
X159429539Y-59821084D01*
X159817923Y-59660221D01*
X160232889Y-59284314D01*
X160472414Y-58778221D01*
X160385655Y-58619387D01*
X161175852Y-58619387D01*
X161393857Y-59147000D01*
X161797177Y-59551024D01*
X162324409Y-59769950D01*
X162895287Y-59770448D01*
X162957827Y-59744607D01*
X171584772Y-59744607D01*
X171802777Y-60272220D01*
X172206097Y-60676244D01*
X172272564Y-60703843D01*
X172266015Y-60706556D01*
X172191881Y-60952675D01*
X173020020Y-61780815D01*
X173848159Y-60952675D01*
X173774025Y-60706556D01*
X173767537Y-60704224D01*
X173831820Y-60677663D01*
X174235844Y-60274343D01*
X174454770Y-59747111D01*
X174454903Y-59594988D01*
X174669609Y-59916318D01*
X175135156Y-60227387D01*
X175684307Y-60336620D01*
X175740533Y-60336620D01*
X176289684Y-60227387D01*
X176755231Y-59916318D01*
X177066300Y-59450771D01*
X177119004Y-59185807D01*
X184437172Y-59185807D01*
X184655177Y-59713420D01*
X185058497Y-60117444D01*
X185585729Y-60336370D01*
X186156607Y-60336868D01*
X186684220Y-60118863D01*
X187088244Y-59715543D01*
X187307170Y-59188311D01*
X187307668Y-58617433D01*
X187089663Y-58089820D01*
X186686343Y-57685796D01*
X186159111Y-57466870D01*
X185588233Y-57466372D01*
X185060620Y-57684377D01*
X184656596Y-58087697D01*
X184437670Y-58614929D01*
X184437172Y-59185807D01*
X177119004Y-59185807D01*
X177175533Y-58901620D01*
X177066300Y-58352469D01*
X176755231Y-57886922D01*
X176289684Y-57575853D01*
X175740533Y-57466620D01*
X175684307Y-57466620D01*
X175135156Y-57575853D01*
X174669609Y-57886922D01*
X174358540Y-58352469D01*
X174279364Y-58750513D01*
X174237263Y-58648620D01*
X173833943Y-58244596D01*
X173306711Y-58025670D01*
X172735833Y-58025172D01*
X172208220Y-58243177D01*
X171804196Y-58646497D01*
X171585270Y-59173729D01*
X171584772Y-59744607D01*
X162957827Y-59744607D01*
X163422900Y-59552443D01*
X163826924Y-59149123D01*
X164045850Y-58621891D01*
X164046348Y-58051013D01*
X163828343Y-57523400D01*
X163425023Y-57119376D01*
X162897791Y-56900450D01*
X162326913Y-56899952D01*
X161799300Y-57117957D01*
X161395276Y-57521277D01*
X161176350Y-58048509D01*
X161175852Y-58619387D01*
X160385655Y-58619387D01*
X160351129Y-58556180D01*
X159207500Y-58556180D01*
X158953500Y-58556180D01*
X157809871Y-58556180D01*
X157688586Y-58778221D01*
X150710000Y-58778221D01*
X150710000Y-58080139D01*
X157688586Y-58080139D01*
X157809871Y-58302180D01*
X158953500Y-58302180D01*
X158953500Y-57159265D01*
X159207500Y-57159265D01*
X159207500Y-58302180D01*
X160351129Y-58302180D01*
X160472414Y-58080139D01*
X160232889Y-57574046D01*
X159817923Y-57198139D01*
X159429539Y-57037276D01*
X159207500Y-57159265D01*
X158953500Y-57159265D01*
X158731461Y-57037276D01*
X158343077Y-57198139D01*
X157928111Y-57574046D01*
X157688586Y-58080139D01*
X150710000Y-58080139D01*
X150710000Y-55442619D01*
X152764613Y-55442619D01*
X153104155Y-56264372D01*
X153732321Y-56893636D01*
X154553481Y-57234611D01*
X155442619Y-57235387D01*
X156264372Y-56895845D01*
X156893636Y-56267679D01*
X157234611Y-55446519D01*
X157234614Y-55442619D01*
X202764613Y-55442619D01*
X203104155Y-56264372D01*
X203732321Y-56893636D01*
X204553481Y-57234611D01*
X205442619Y-57235387D01*
X206264372Y-56895845D01*
X206893636Y-56267679D01*
X207234611Y-55446519D01*
X207235387Y-54557381D01*
X206895845Y-53735628D01*
X206267679Y-53106364D01*
X205446519Y-52765389D01*
X204557381Y-52764613D01*
X203735628Y-53104155D01*
X203106364Y-53732321D01*
X202765389Y-54553481D01*
X202764613Y-55442619D01*
X157234614Y-55442619D01*
X157235387Y-54557381D01*
X156895845Y-53735628D01*
X156267679Y-53106364D01*
X155446519Y-52765389D01*
X154557381Y-52764613D01*
X153735628Y-53104155D01*
X153106364Y-53732321D01*
X152765389Y-54553481D01*
X152764613Y-55442619D01*
X150710000Y-55442619D01*
X150710000Y-55069931D01*
X151049408Y-53363610D01*
X151976349Y-51976346D01*
X153363610Y-51049408D01*
X155069931Y-50710000D01*
X204930069Y-50710000D01*
X206636390Y-51049408D01*
X206636390Y-51049408D01*
G37*
X206636390Y-51049408D02*
X208023654Y-51976349D01*
X208950592Y-53363610D01*
X209290000Y-55069931D01*
X209290000Y-139930069D01*
X208950592Y-141636390D01*
X208023654Y-143023651D01*
X206636390Y-143950592D01*
X204930069Y-144290000D01*
X155069931Y-144290000D01*
X153363610Y-143950592D01*
X151976349Y-143023654D01*
X151049408Y-141636390D01*
X150811953Y-140442619D01*
X152764613Y-140442619D01*
X153104155Y-141264372D01*
X153732321Y-141893636D01*
X154553481Y-142234611D01*
X155442619Y-142235387D01*
X156264372Y-141895845D01*
X156893636Y-141267679D01*
X157234611Y-140446519D01*
X157234614Y-140442619D01*
X202764613Y-140442619D01*
X203104155Y-141264372D01*
X203732321Y-141893636D01*
X204553481Y-142234611D01*
X205442619Y-142235387D01*
X206264372Y-141895845D01*
X206893636Y-141267679D01*
X207234611Y-140446519D01*
X207235387Y-139557381D01*
X206895845Y-138735628D01*
X206267679Y-138106364D01*
X205446519Y-137765389D01*
X204557381Y-137764613D01*
X203735628Y-138104155D01*
X203106364Y-138732321D01*
X202765389Y-139553481D01*
X202764613Y-140442619D01*
X157234614Y-140442619D01*
X157235387Y-139557381D01*
X156895845Y-138735628D01*
X156267679Y-138106364D01*
X155446519Y-137765389D01*
X154557381Y-137764613D01*
X153735628Y-138104155D01*
X153106364Y-138732321D01*
X152765389Y-139553481D01*
X152764613Y-140442619D01*
X150811953Y-140442619D01*
X150710000Y-139930069D01*
X150710000Y-127504187D01*
X161328252Y-127504187D01*
X161546257Y-128031800D01*
X161949577Y-128435824D01*
X162476809Y-128654750D01*
X163047687Y-128655248D01*
X163575300Y-128437243D01*
X163979324Y-128033923D01*
X164198250Y-127506691D01*
X164198748Y-126935813D01*
X163980743Y-126408200D01*
X163577423Y-126004176D01*
X163050191Y-125785250D01*
X162479313Y-125784752D01*
X161951700Y-126002757D01*
X161547676Y-126406077D01*
X161328750Y-126933309D01*
X161328252Y-127504187D01*
X150710000Y-127504187D01*
X150710000Y-123623067D01*
X157965292Y-123623067D01*
X158183297Y-124150680D01*
X158586617Y-124554704D01*
X159113849Y-124773630D01*
X159684727Y-124774128D01*
X160212340Y-124556123D01*
X160616364Y-124152803D01*
X160835290Y-123625571D01*
X160835788Y-123054693D01*
X160617783Y-122527080D01*
X160214463Y-122123056D01*
X159687231Y-121904130D01*
X159116353Y-121903632D01*
X158588740Y-122121637D01*
X158184716Y-122524957D01*
X157965790Y-123052189D01*
X157965292Y-123623067D01*
X150710000Y-123623067D01*
X150710000Y-113150767D01*
X157965540Y-113150767D01*
X157965540Y-113206993D01*
X158074773Y-113756144D01*
X158385842Y-114221691D01*
X158851389Y-114532760D01*
X159400540Y-114641993D01*
X159949691Y-114532760D01*
X160415238Y-114221691D01*
X160726307Y-113756144D01*
X160835540Y-113206993D01*
X160835540Y-113204107D01*
X161399620Y-113204107D01*
X161399620Y-113260333D01*
X161508853Y-113809484D01*
X161819922Y-114275031D01*
X162285469Y-114586100D01*
X162834620Y-114695333D01*
X163383771Y-114586100D01*
X163849318Y-114275031D01*
X164160387Y-113809484D01*
X164269620Y-113260333D01*
X164269620Y-113204107D01*
X164160387Y-112654956D01*
X163849318Y-112189409D01*
X163383771Y-111878340D01*
X162834620Y-111769107D01*
X162285469Y-111878340D01*
X161819922Y-112189409D01*
X161508853Y-112654956D01*
X161399620Y-113204107D01*
X160835540Y-113204107D01*
X160835540Y-113150767D01*
X160726307Y-112601616D01*
X160415238Y-112136069D01*
X159949691Y-111825000D01*
X159400540Y-111715767D01*
X158851389Y-111825000D01*
X158385842Y-112136069D01*
X158074773Y-112601616D01*
X157965540Y-113150767D01*
X150710000Y-113150767D01*
X150710000Y-109615260D01*
X158437815Y-109615260D01*
X158543622Y-110147190D01*
X158844937Y-110598138D01*
X159295885Y-110899453D01*
X159827815Y-111005260D01*
X161411665Y-111005260D01*
X161943595Y-110899453D01*
X162394543Y-110598138D01*
X162695858Y-110147190D01*
X162801665Y-109615260D01*
X162695858Y-109083330D01*
X162394543Y-108632382D01*
X161945753Y-108332509D01*
X162019003Y-108310852D01*
X162442421Y-107968336D01*
X162702533Y-107489857D01*
X162717017Y-107417231D01*
X162594423Y-107202260D01*
X160746740Y-107202260D01*
X160746740Y-107222260D01*
X160492740Y-107222260D01*
X160492740Y-107202260D01*
X158645057Y-107202260D01*
X158522463Y-107417231D01*
X158536947Y-107489857D01*
X158797059Y-107968336D01*
X159220477Y-108310852D01*
X159293727Y-108332509D01*
X158844937Y-108632382D01*
X158543622Y-109083330D01*
X158437815Y-109615260D01*
X150710000Y-109615260D01*
X150710000Y-100786220D01*
X158437815Y-100786220D01*
X158543622Y-101318150D01*
X158844937Y-101769098D01*
X159295885Y-102070413D01*
X159827815Y-102176220D01*
X161411665Y-102176220D01*
X161943595Y-102070413D01*
X162394543Y-101769098D01*
X162695858Y-101318150D01*
X162801665Y-100786220D01*
X162695858Y-100254290D01*
X162394543Y-99803342D01*
X161945753Y-99503469D01*
X162019003Y-99481812D01*
X162442421Y-99139296D01*
X162702533Y-98660817D01*
X162717017Y-98588191D01*
X162594423Y-98373220D01*
X160746740Y-98373220D01*
X160746740Y-98393220D01*
X160492740Y-98393220D01*
X160492740Y-98373220D01*
X158645057Y-98373220D01*
X158522463Y-98588191D01*
X158536947Y-98660817D01*
X158797059Y-99139296D01*
X159220477Y-99481812D01*
X159293727Y-99503469D01*
X158844937Y-99803342D01*
X158543622Y-100254290D01*
X158437815Y-100786220D01*
X150710000Y-100786220D01*
X150710000Y-95706220D01*
X158437815Y-95706220D01*
X158543622Y-96238150D01*
X158844937Y-96689098D01*
X159293727Y-96988971D01*
X159220477Y-97010628D01*
X158797059Y-97353144D01*
X158536947Y-97831623D01*
X158522463Y-97904249D01*
X158645057Y-98119220D01*
X160492740Y-98119220D01*
X160492740Y-98099220D01*
X160746740Y-98099220D01*
X160746740Y-98119220D01*
X162594423Y-98119220D01*
X162717017Y-97904249D01*
X162702533Y-97831623D01*
X162442421Y-97353144D01*
X162019003Y-97010628D01*
X161945753Y-96988971D01*
X162394543Y-96689098D01*
X162695858Y-96238150D01*
X162801665Y-95706220D01*
X162770283Y-95548447D01*
X167919552Y-95548447D01*
X168137557Y-96076060D01*
X168540877Y-96480084D01*
X169068109Y-96699010D01*
X169638987Y-96699508D01*
X170166600Y-96481503D01*
X170570624Y-96078183D01*
X170789550Y-95550951D01*
X170790048Y-94980073D01*
X170572043Y-94452460D01*
X170168723Y-94048436D01*
X169641491Y-93829510D01*
X169070613Y-93829012D01*
X168543000Y-94047017D01*
X168138976Y-94450337D01*
X167920050Y-94977569D01*
X167919552Y-95548447D01*
X162770283Y-95548447D01*
X162695858Y-95174290D01*
X162394543Y-94723342D01*
X161943595Y-94422027D01*
X161411665Y-94316220D01*
X159827815Y-94316220D01*
X159295885Y-94422027D01*
X158844937Y-94723342D01*
X158543622Y-95174290D01*
X158437815Y-95706220D01*
X150710000Y-95706220D01*
X150710000Y-91720667D01*
X157114392Y-91720667D01*
X157332397Y-92248280D01*
X157735717Y-92652304D01*
X158262949Y-92871230D01*
X158833827Y-92871728D01*
X159361440Y-92653723D01*
X159765464Y-92250403D01*
X159984390Y-91723171D01*
X159984888Y-91152293D01*
X159766883Y-90624680D01*
X159363563Y-90220656D01*
X158836331Y-90001730D01*
X158265453Y-90001232D01*
X157737840Y-90219237D01*
X157333816Y-90622557D01*
X157114890Y-91149789D01*
X157114392Y-91720667D01*
X150710000Y-91720667D01*
X150710000Y-88398467D01*
X157660740Y-88398467D01*
X157660740Y-88454693D01*
X157769973Y-89003844D01*
X158081042Y-89469391D01*
X158546589Y-89780460D01*
X159095740Y-89889693D01*
X159644891Y-89780460D01*
X160110438Y-89469391D01*
X160421507Y-89003844D01*
X160530740Y-88454693D01*
X160530740Y-88398467D01*
X160421507Y-87849316D01*
X160110438Y-87383769D01*
X159644891Y-87072700D01*
X159095740Y-86963467D01*
X158546589Y-87072700D01*
X158081042Y-87383769D01*
X157769973Y-87849316D01*
X157660740Y-88398467D01*
X150710000Y-88398467D01*
X150710000Y-81385700D01*
X159710800Y-81385700D01*
X159797197Y-81820045D01*
X160043234Y-82188266D01*
X161509120Y-83654153D01*
X161509120Y-87598014D01*
X161428296Y-87678697D01*
X161209370Y-88205929D01*
X161208872Y-88776807D01*
X161426877Y-89304420D01*
X161830197Y-89708444D01*
X162357429Y-89927370D01*
X162928307Y-89927868D01*
X163455920Y-89709863D01*
X163859944Y-89306543D01*
X164078870Y-88779311D01*
X164079368Y-88208433D01*
X163861363Y-87680820D01*
X163779120Y-87598433D01*
X163779120Y-84386695D01*
X164887123Y-84386695D01*
X165059553Y-84804006D01*
X165378555Y-85123565D01*
X165795564Y-85296723D01*
X166157437Y-85297039D01*
X166157123Y-85656695D01*
X166329553Y-86074006D01*
X166648555Y-86393565D01*
X167065564Y-86566723D01*
X167427320Y-86567039D01*
X167427320Y-90780232D01*
X167355760Y-90887329D01*
X167246527Y-91436480D01*
X167355760Y-91985631D01*
X167666829Y-92451178D01*
X168132376Y-92762247D01*
X168681527Y-92871480D01*
X168737753Y-92871480D01*
X169286904Y-92762247D01*
X169752451Y-92451178D01*
X170063520Y-91985631D01*
X170172753Y-91436480D01*
X170063520Y-90887329D01*
X169752451Y-90421782D01*
X169697320Y-90384945D01*
X169697320Y-84723351D01*
X169709760Y-84661920D01*
X169709760Y-83661920D01*
X169665482Y-83426603D01*
X169526410Y-83210479D01*
X169314210Y-83065489D01*
X169062320Y-83014480D01*
X168062320Y-83014480D01*
X167827003Y-83058758D01*
X167610879Y-83197830D01*
X167465889Y-83410030D01*
X167414880Y-83661920D01*
X167414880Y-84297026D01*
X167157203Y-84296801D01*
X167157517Y-83937145D01*
X166985087Y-83519834D01*
X166666085Y-83200275D01*
X166249076Y-83027117D01*
X165797545Y-83026723D01*
X165380234Y-83199153D01*
X165060675Y-83518155D01*
X164887517Y-83935164D01*
X164887123Y-84386695D01*
X163779120Y-84386695D01*
X163779120Y-83184020D01*
X163754204Y-83058758D01*
X163692724Y-82749675D01*
X163446687Y-82381454D01*
X161648366Y-80583134D01*
X161280145Y-80337097D01*
X160845800Y-80250700D01*
X160411455Y-80337097D01*
X160043234Y-80583134D01*
X159797197Y-80951355D01*
X159710800Y-81385700D01*
X150710000Y-81385700D01*
X150710000Y-71340000D01*
X156485000Y-71340000D01*
X156485000Y-76790840D01*
X156571397Y-77225186D01*
X156724807Y-77454780D01*
X156817434Y-77593406D01*
X157660592Y-78436564D01*
X157660492Y-78550767D01*
X157878497Y-79078380D01*
X158281817Y-79482404D01*
X158809049Y-79701330D01*
X159379927Y-79701828D01*
X159907540Y-79483823D01*
X160311564Y-79080503D01*
X160530490Y-78553271D01*
X160530988Y-77982393D01*
X160312983Y-77454780D01*
X159909663Y-77050756D01*
X159382431Y-76831830D01*
X159266021Y-76831728D01*
X158755000Y-76320708D01*
X158755000Y-73233921D01*
X158917833Y-73628006D01*
X159236835Y-73947565D01*
X159653844Y-74120723D01*
X160015717Y-74121039D01*
X160015403Y-74480695D01*
X160187833Y-74898006D01*
X160506835Y-75217565D01*
X160923844Y-75390723D01*
X161375375Y-75391117D01*
X161792686Y-75218687D01*
X162112245Y-74899685D01*
X162285403Y-74482676D01*
X162285708Y-74133360D01*
X162920600Y-74133360D01*
X163155917Y-74089082D01*
X163372041Y-73950010D01*
X163517031Y-73737810D01*
X163568040Y-73485920D01*
X163568040Y-72485920D01*
X163555600Y-72419807D01*
X163555600Y-72178200D01*
X163469203Y-71743854D01*
X163223166Y-71375634D01*
X162120500Y-70272968D01*
X162120500Y-69860727D01*
X162611100Y-69958313D01*
X163160251Y-69849080D01*
X163625798Y-69538011D01*
X163936867Y-69072464D01*
X164010836Y-68700596D01*
X165172781Y-67538651D01*
X165435705Y-67802035D01*
X165852714Y-67975193D01*
X166214587Y-67975509D01*
X166214273Y-68335165D01*
X166386703Y-68752476D01*
X166705705Y-69072035D01*
X167122714Y-69245193D01*
X167574245Y-69245587D01*
X167574722Y-69245390D01*
X168317922Y-69245390D01*
X168018834Y-69445234D01*
X167772797Y-69813455D01*
X167686400Y-70247800D01*
X167772731Y-70681811D01*
X167246893Y-70681352D01*
X166719280Y-70899357D01*
X166561492Y-71056870D01*
X166505554Y-71067997D01*
X166137334Y-71314034D01*
X161841554Y-75609814D01*
X161595517Y-75978034D01*
X161509120Y-76412380D01*
X161509120Y-77469853D01*
X161318353Y-77755356D01*
X161209120Y-78304507D01*
X161209120Y-78360733D01*
X161318353Y-78909884D01*
X161629422Y-79375431D01*
X162094969Y-79686500D01*
X162644120Y-79795733D01*
X163193271Y-79686500D01*
X163489299Y-79488700D01*
X164877420Y-79488700D01*
X164877420Y-80488700D01*
X164921698Y-80724017D01*
X165060770Y-80940141D01*
X165272970Y-81085131D01*
X165524860Y-81136140D01*
X166524860Y-81136140D01*
X166760177Y-81091862D01*
X166976301Y-80952790D01*
X167121291Y-80740590D01*
X167172300Y-80488700D01*
X167172300Y-79853594D01*
X167429977Y-79853819D01*
X167429663Y-80213475D01*
X167602093Y-80630786D01*
X167921095Y-80950345D01*
X168338104Y-81123503D01*
X168789635Y-81123897D01*
X169206946Y-80951467D01*
X169526505Y-80632465D01*
X169699663Y-80215456D01*
X169700057Y-79763925D01*
X169527627Y-79346614D01*
X169208625Y-79027055D01*
X168791616Y-78853897D01*
X168429743Y-78853581D01*
X168430057Y-78493925D01*
X168257627Y-78076614D01*
X167938625Y-77757055D01*
X167521616Y-77583897D01*
X167070085Y-77583503D01*
X166652774Y-77755933D01*
X166333215Y-78074935D01*
X166160057Y-78491944D01*
X166159752Y-78841260D01*
X165524860Y-78841260D01*
X165289543Y-78885538D01*
X165073419Y-79024610D01*
X164928429Y-79236810D01*
X164877420Y-79488700D01*
X163489299Y-79488700D01*
X163658818Y-79375431D01*
X163969887Y-78909884D01*
X164079120Y-78360733D01*
X164079120Y-78304507D01*
X163969887Y-77755356D01*
X163779120Y-77469853D01*
X163779120Y-76882512D01*
X166096124Y-74565508D01*
X166095832Y-74900787D01*
X166313837Y-75428400D01*
X166717157Y-75832424D01*
X167244389Y-76051350D01*
X167815267Y-76051848D01*
X168342880Y-75833843D01*
X168677000Y-75500305D01*
X168677000Y-75607200D01*
X168763397Y-76041546D01*
X168978656Y-76363703D01*
X169009434Y-76409766D01*
X170330234Y-77730566D01*
X170698454Y-77976603D01*
X171132800Y-78063000D01*
X172469137Y-78063000D01*
X172441915Y-78090175D01*
X172268757Y-78507184D01*
X172268452Y-78856500D01*
X171633560Y-78856500D01*
X171398243Y-78900778D01*
X171182119Y-79039850D01*
X171037129Y-79252050D01*
X170986120Y-79503940D01*
X170986120Y-80503940D01*
X171030398Y-80739257D01*
X171169470Y-80955381D01*
X171381670Y-81100371D01*
X171633560Y-81151380D01*
X172633560Y-81151380D01*
X172868877Y-81107102D01*
X173085001Y-80968030D01*
X173229991Y-80755830D01*
X173281000Y-80503940D01*
X173281000Y-79868834D01*
X173538560Y-79869059D01*
X173538560Y-80002950D01*
X173538363Y-80228715D01*
X173710793Y-80646026D01*
X174029795Y-80965585D01*
X174446804Y-81138743D01*
X174898335Y-81139137D01*
X175315646Y-80966707D01*
X175344500Y-80937903D01*
X175344500Y-83041444D01*
X175186260Y-83009400D01*
X174186260Y-83009400D01*
X173950943Y-83053678D01*
X173734819Y-83192750D01*
X173589829Y-83404950D01*
X173538820Y-83656840D01*
X173538820Y-84291946D01*
X173281260Y-84291721D01*
X173281260Y-84157831D01*
X173281457Y-83932065D01*
X173109027Y-83514754D01*
X172790025Y-83195195D01*
X172373016Y-83022037D01*
X171921485Y-83021643D01*
X171504174Y-83194073D01*
X171184615Y-83513075D01*
X171011457Y-83930084D01*
X171011063Y-84381615D01*
X171011260Y-84382092D01*
X171011260Y-87895720D01*
X171097657Y-88330066D01*
X171258606Y-88570943D01*
X171343694Y-88698286D01*
X178086951Y-95441543D01*
X178160920Y-95813411D01*
X178471989Y-96278958D01*
X178527726Y-96316200D01*
X177584400Y-96316200D01*
X177150054Y-96402597D01*
X176798401Y-96637564D01*
X176781834Y-96648634D01*
X173157459Y-100273009D01*
X173179690Y-100219471D01*
X173180188Y-99648593D01*
X172962183Y-99120980D01*
X172558863Y-98716956D01*
X172031631Y-98498030D01*
X171460753Y-98497532D01*
X170933140Y-98715537D01*
X170529116Y-99118857D01*
X170495127Y-99200711D01*
X170462183Y-99120980D01*
X170058863Y-98716956D01*
X169531631Y-98498030D01*
X168960753Y-98497532D01*
X168433140Y-98715537D01*
X168029116Y-99118857D01*
X167810190Y-99646089D01*
X167809692Y-100216967D01*
X168027697Y-100744580D01*
X168234456Y-100951700D01*
X167582833Y-100951700D01*
X167465045Y-100872997D01*
X167030700Y-100786600D01*
X166596355Y-100872997D01*
X166228134Y-101119034D01*
X165982097Y-101487255D01*
X165895700Y-101921600D01*
X165982097Y-102355945D01*
X166228134Y-102724166D01*
X166393234Y-102889266D01*
X166761455Y-103135304D01*
X167195800Y-103221700D01*
X168699905Y-103221700D01*
X168466800Y-103318017D01*
X168062776Y-103721337D01*
X167843850Y-104248569D01*
X167843352Y-104819447D01*
X167976917Y-105142700D01*
X167297632Y-105142700D01*
X165887626Y-103732694D01*
X165804343Y-103677046D01*
X165519406Y-103486657D01*
X165085060Y-103400260D01*
X162166877Y-103400260D01*
X161943595Y-103251067D01*
X161411665Y-103145260D01*
X159827815Y-103145260D01*
X159295885Y-103251067D01*
X158844937Y-103552382D01*
X158543622Y-104003330D01*
X158437815Y-104535260D01*
X158543622Y-105067190D01*
X158844937Y-105518138D01*
X159293727Y-105818011D01*
X159220477Y-105839668D01*
X158797059Y-106182184D01*
X158536947Y-106660663D01*
X158522463Y-106733289D01*
X158645057Y-106948260D01*
X160492740Y-106948260D01*
X160492740Y-106928260D01*
X160746740Y-106928260D01*
X160746740Y-106948260D01*
X162594423Y-106948260D01*
X162717017Y-106733289D01*
X162702533Y-106660663D01*
X162442421Y-106182184D01*
X162019003Y-105839668D01*
X161945753Y-105818011D01*
X162166877Y-105670260D01*
X164614928Y-105670260D01*
X166024934Y-107080266D01*
X166393154Y-107326303D01*
X166827500Y-107412700D01*
X167908642Y-107412700D01*
X167866300Y-107476069D01*
X167757067Y-108025220D01*
X167866300Y-108574371D01*
X168177369Y-109039918D01*
X168642916Y-109350987D01*
X169192067Y-109460220D01*
X169248293Y-109460220D01*
X169797444Y-109350987D01*
X170262991Y-109039918D01*
X170574060Y-108574371D01*
X170683293Y-108025220D01*
X170574060Y-107476069D01*
X170531718Y-107412700D01*
X174110070Y-107412700D01*
X173949734Y-107519833D01*
X168814818Y-112654750D01*
X168523182Y-112654750D01*
X167009105Y-111140673D01*
X166732391Y-110726542D01*
X166266844Y-110415473D01*
X165717693Y-110306240D01*
X165661467Y-110306240D01*
X165112316Y-110415473D01*
X164646769Y-110726542D01*
X164335700Y-111192089D01*
X164226467Y-111741240D01*
X164335700Y-112290391D01*
X164646769Y-112755938D01*
X165112316Y-113067007D01*
X165661467Y-113176240D01*
X165717693Y-113176240D01*
X165815044Y-113156876D01*
X166926940Y-114268772D01*
X166926940Y-114567519D01*
X166780651Y-114348582D01*
X166315104Y-114037513D01*
X165765953Y-113928280D01*
X165709727Y-113928280D01*
X165160576Y-114037513D01*
X164695029Y-114348582D01*
X164383960Y-114814129D01*
X164274727Y-115363280D01*
X164383960Y-115912431D01*
X164695029Y-116377978D01*
X165160576Y-116689047D01*
X165709727Y-116798280D01*
X165765953Y-116798280D01*
X166315104Y-116689047D01*
X166780651Y-116377978D01*
X166926940Y-116159041D01*
X166926940Y-119422109D01*
X166914500Y-119483540D01*
X166914500Y-119525848D01*
X164577134Y-121863214D01*
X164331097Y-122231434D01*
X164244700Y-122665780D01*
X164244700Y-123047122D01*
X164051863Y-122580420D01*
X163648543Y-122176396D01*
X163121311Y-121957470D01*
X162550433Y-121956972D01*
X162022820Y-122174977D01*
X161618796Y-122578297D01*
X161399870Y-123105529D01*
X161399372Y-123676407D01*
X161617377Y-124204020D01*
X162020697Y-124608044D01*
X162547929Y-124826970D01*
X163118807Y-124827468D01*
X163646420Y-124609463D01*
X164050444Y-124206143D01*
X164244700Y-123738323D01*
X164244700Y-128896400D01*
X164331097Y-129330746D01*
X164490661Y-129569550D01*
X164577134Y-129698966D01*
X166914407Y-132036239D01*
X166645154Y-132147493D01*
X166325595Y-132466495D01*
X166152437Y-132883504D01*
X166152043Y-133335035D01*
X166324473Y-133752346D01*
X166643475Y-134071905D01*
X167060484Y-134245063D01*
X167422357Y-134245379D01*
X167422043Y-134605035D01*
X167594473Y-135022346D01*
X167913475Y-135341905D01*
X168322514Y-135511754D01*
X167589268Y-136245000D01*
X163640228Y-136245000D01*
X163312651Y-136026120D01*
X162763500Y-135916887D01*
X162214349Y-136026120D01*
X161748802Y-136337189D01*
X161437733Y-136802736D01*
X161328500Y-137351887D01*
X161328500Y-137408113D01*
X161437733Y-137957264D01*
X161748802Y-138422811D01*
X162214349Y-138733880D01*
X162763500Y-138843113D01*
X163312651Y-138733880D01*
X163640228Y-138515000D01*
X168059400Y-138515000D01*
X168493746Y-138428603D01*
X168861966Y-138182566D01*
X169873105Y-137171427D01*
X171909892Y-137171427D01*
X172127897Y-137699040D01*
X172531217Y-138103064D01*
X173058449Y-138321990D01*
X173629327Y-138322488D01*
X174156940Y-138104483D01*
X174560964Y-137701163D01*
X174779890Y-137173931D01*
X174780140Y-136887240D01*
X182042027Y-136887240D01*
X182151260Y-137436391D01*
X182462329Y-137901938D01*
X182927876Y-138213007D01*
X183477027Y-138322240D01*
X183533253Y-138322240D01*
X184082404Y-138213007D01*
X184547951Y-137901938D01*
X184756029Y-137590527D01*
X194414292Y-137590527D01*
X194632297Y-138118140D01*
X195035617Y-138522164D01*
X195562849Y-138741090D01*
X196133727Y-138741588D01*
X196661340Y-138523583D01*
X197065364Y-138120263D01*
X197243634Y-137690941D01*
X198409866Y-137690941D01*
X198649391Y-138197034D01*
X199064357Y-138572941D01*
X199452741Y-138733804D01*
X199674780Y-138611815D01*
X199674780Y-137468900D01*
X199928780Y-137468900D01*
X199928780Y-138611815D01*
X200150819Y-138733804D01*
X200539203Y-138572941D01*
X200954169Y-138197034D01*
X201193694Y-137690941D01*
X201072409Y-137468900D01*
X199928780Y-137468900D01*
X199674780Y-137468900D01*
X198531151Y-137468900D01*
X198409866Y-137690941D01*
X197243634Y-137690941D01*
X197284290Y-137593031D01*
X197284788Y-137022153D01*
X197272684Y-136992859D01*
X198409866Y-136992859D01*
X198531151Y-137214900D01*
X199674780Y-137214900D01*
X199674780Y-136071985D01*
X199928780Y-136071985D01*
X199928780Y-137214900D01*
X201072409Y-137214900D01*
X201193694Y-136992859D01*
X200954169Y-136486766D01*
X200539203Y-136110859D01*
X200150819Y-135949996D01*
X199928780Y-136071985D01*
X199674780Y-136071985D01*
X199452741Y-135949996D01*
X199064357Y-136110859D01*
X198649391Y-136486766D01*
X198409866Y-136992859D01*
X197272684Y-136992859D01*
X197066783Y-136494540D01*
X196663463Y-136090516D01*
X196136231Y-135871590D01*
X195565353Y-135871092D01*
X195037740Y-136089097D01*
X194633716Y-136492417D01*
X194414790Y-137019649D01*
X194414292Y-137590527D01*
X184756029Y-137590527D01*
X184859020Y-137436391D01*
X184968253Y-136887240D01*
X184863611Y-136361167D01*
X185069632Y-136361167D01*
X185287637Y-136888780D01*
X185690957Y-137292804D01*
X186218189Y-137511730D01*
X186789067Y-137512228D01*
X187316680Y-137294223D01*
X187720704Y-136890903D01*
X187939630Y-136363671D01*
X187940128Y-135792793D01*
X187722123Y-135265180D01*
X187318803Y-134861156D01*
X187252336Y-134833557D01*
X187258885Y-134830844D01*
X187333019Y-134584725D01*
X186504880Y-133756585D01*
X185676741Y-134584725D01*
X185750875Y-134830844D01*
X185757363Y-134833176D01*
X185693080Y-134859737D01*
X185289056Y-135263057D01*
X185070130Y-135790289D01*
X185069632Y-136361167D01*
X184863611Y-136361167D01*
X184859020Y-136338089D01*
X184547951Y-135872542D01*
X184082404Y-135561473D01*
X183533253Y-135452240D01*
X183477027Y-135452240D01*
X182927876Y-135561473D01*
X182462329Y-135872542D01*
X182151260Y-136338089D01*
X182042027Y-136887240D01*
X174780140Y-136887240D01*
X174780388Y-136603053D01*
X174562383Y-136075440D01*
X174159063Y-135671416D01*
X173631831Y-135452490D01*
X173060953Y-135451992D01*
X172533340Y-135669997D01*
X172129316Y-136073317D01*
X171910390Y-136600549D01*
X171909892Y-137171427D01*
X169873105Y-137171427D01*
X170629806Y-136414726D01*
X170875843Y-136046506D01*
X170962240Y-135612160D01*
X170962240Y-133678927D01*
X171937832Y-133678927D01*
X172155837Y-134206540D01*
X172559157Y-134610564D01*
X173086389Y-134829490D01*
X173657267Y-134829988D01*
X174184880Y-134611983D01*
X174588904Y-134208663D01*
X174781940Y-133743779D01*
X182141176Y-133743779D01*
X182302039Y-134132163D01*
X182677946Y-134547129D01*
X183184039Y-134786654D01*
X183406080Y-134665369D01*
X183406080Y-133521740D01*
X183660080Y-133521740D01*
X183660080Y-134665369D01*
X183882121Y-134786654D01*
X184388214Y-134547129D01*
X184764121Y-134132163D01*
X184924984Y-133743779D01*
X184802995Y-133521740D01*
X183660080Y-133521740D01*
X183406080Y-133521740D01*
X182263165Y-133521740D01*
X182141176Y-133743779D01*
X174781940Y-133743779D01*
X174807830Y-133681431D01*
X174808110Y-133360203D01*
X185057915Y-133360203D01*
X185085102Y-133930434D01*
X185251016Y-134330985D01*
X185497135Y-134405119D01*
X186325275Y-133576980D01*
X186684485Y-133576980D01*
X187512625Y-134405119D01*
X187758744Y-134330985D01*
X187951845Y-133793757D01*
X187924658Y-133223526D01*
X187758744Y-132822975D01*
X187512625Y-132748841D01*
X186684485Y-133576980D01*
X186325275Y-133576980D01*
X185497135Y-132748841D01*
X185251016Y-132822975D01*
X185057915Y-133360203D01*
X174808110Y-133360203D01*
X174808328Y-133110553D01*
X174781532Y-133045701D01*
X182141176Y-133045701D01*
X182263165Y-133267740D01*
X183406080Y-133267740D01*
X183406080Y-132124111D01*
X183660080Y-132124111D01*
X183660080Y-133267740D01*
X184802995Y-133267740D01*
X184924984Y-133045701D01*
X184764121Y-132657317D01*
X184684330Y-132569235D01*
X185676741Y-132569235D01*
X186504880Y-133397375D01*
X187333019Y-132569235D01*
X187258885Y-132323116D01*
X186721657Y-132130015D01*
X186151426Y-132157202D01*
X185750875Y-132323116D01*
X185676741Y-132569235D01*
X184684330Y-132569235D01*
X184388214Y-132242351D01*
X183882121Y-132002826D01*
X183660080Y-132124111D01*
X183406080Y-132124111D01*
X183184039Y-132002826D01*
X182677946Y-132242351D01*
X182302039Y-132657317D01*
X182141176Y-133045701D01*
X174781532Y-133045701D01*
X174590323Y-132582940D01*
X174187003Y-132178916D01*
X173659771Y-131959990D01*
X173088893Y-131959492D01*
X172561280Y-132177497D01*
X172157256Y-132580817D01*
X171938330Y-133108049D01*
X171937832Y-133678927D01*
X170962240Y-133678927D01*
X170962240Y-133671691D01*
X170974680Y-133610260D01*
X170974680Y-132610260D01*
X170930402Y-132374943D01*
X170791330Y-132158819D01*
X170579130Y-132013829D01*
X170327240Y-131962820D01*
X170051252Y-131962820D01*
X168002810Y-129914378D01*
X168022557Y-129910662D01*
X168238681Y-129771590D01*
X168383671Y-129559390D01*
X168434680Y-129307500D01*
X168434680Y-128672394D01*
X168692357Y-128672619D01*
X168692043Y-129032275D01*
X168864473Y-129449586D01*
X169183475Y-129769145D01*
X169600484Y-129942303D01*
X170052015Y-129942697D01*
X170469326Y-129770267D01*
X170788885Y-129451265D01*
X170962043Y-129034256D01*
X170962437Y-128582725D01*
X170852914Y-128317660D01*
X171821780Y-128317660D01*
X171821780Y-129317660D01*
X171866058Y-129552977D01*
X172005130Y-129769101D01*
X172217330Y-129914091D01*
X172469220Y-129965100D01*
X173469220Y-129965100D01*
X173704537Y-129920822D01*
X173920661Y-129781750D01*
X174065651Y-129569550D01*
X174116660Y-129317660D01*
X174116660Y-128682554D01*
X174374337Y-128682779D01*
X174374023Y-129042435D01*
X174546453Y-129459746D01*
X174865455Y-129779305D01*
X175282464Y-129952463D01*
X175733995Y-129952857D01*
X176151306Y-129780427D01*
X176470865Y-129461425D01*
X176644023Y-129044416D01*
X176644417Y-128592885D01*
X176471987Y-128175574D01*
X176152985Y-127856015D01*
X175735976Y-127682857D01*
X175374103Y-127682541D01*
X175374258Y-127504187D01*
X177198172Y-127504187D01*
X177416177Y-128031800D01*
X177819497Y-128435824D01*
X178346729Y-128654750D01*
X178917607Y-128655248D01*
X179445220Y-128437243D01*
X179655083Y-128227745D01*
X180305281Y-128227745D01*
X180379415Y-128473864D01*
X180916643Y-128666965D01*
X181486874Y-128639778D01*
X181887425Y-128473864D01*
X181961559Y-128227745D01*
X181133420Y-127399605D01*
X180305281Y-128227745D01*
X179655083Y-128227745D01*
X179849244Y-128033923D01*
X179876843Y-127967456D01*
X179879556Y-127974005D01*
X180125675Y-128048139D01*
X180953815Y-127220000D01*
X181313025Y-127220000D01*
X182141165Y-128048139D01*
X182387284Y-127974005D01*
X182580385Y-127436777D01*
X182553198Y-126866546D01*
X182387284Y-126465995D01*
X182141165Y-126391861D01*
X181313025Y-127220000D01*
X180953815Y-127220000D01*
X180125675Y-126391861D01*
X179879556Y-126465995D01*
X179877224Y-126472483D01*
X179850663Y-126408200D01*
X179655060Y-126212255D01*
X180305281Y-126212255D01*
X181133420Y-127040395D01*
X181961559Y-126212255D01*
X181887425Y-125966136D01*
X181350197Y-125773035D01*
X180779966Y-125800222D01*
X180379415Y-125966136D01*
X180305281Y-126212255D01*
X179655060Y-126212255D01*
X179447343Y-126004176D01*
X178920111Y-125785250D01*
X178349233Y-125784752D01*
X177821620Y-126002757D01*
X177417596Y-126406077D01*
X177198670Y-126933309D01*
X177198172Y-127504187D01*
X175374258Y-127504187D01*
X175374417Y-127322885D01*
X175201987Y-126905574D01*
X174882985Y-126586015D01*
X174465976Y-126412857D01*
X174014445Y-126412463D01*
X173597134Y-126584893D01*
X173277575Y-126903895D01*
X173104417Y-127320904D01*
X173104112Y-127670220D01*
X172469220Y-127670220D01*
X172233903Y-127714498D01*
X172017779Y-127853570D01*
X171872789Y-128065770D01*
X171821780Y-128317660D01*
X170852914Y-128317660D01*
X170790007Y-128165414D01*
X170471005Y-127845855D01*
X170053996Y-127672697D01*
X169692123Y-127672381D01*
X169692437Y-127312725D01*
X169520007Y-126895414D01*
X169201005Y-126575855D01*
X168783996Y-126402697D01*
X168332465Y-126402303D01*
X167915154Y-126574733D01*
X167595595Y-126893735D01*
X167422437Y-127310744D01*
X167422132Y-127660060D01*
X166787240Y-127660060D01*
X166551923Y-127704338D01*
X166514700Y-127728290D01*
X166514700Y-123135912D01*
X166926764Y-122723848D01*
X166926743Y-122748315D01*
X167099173Y-123165626D01*
X167418175Y-123485185D01*
X167835184Y-123658343D01*
X168286715Y-123658737D01*
X168704026Y-123486307D01*
X169023585Y-123167305D01*
X169196743Y-122750296D01*
X169197059Y-122388423D01*
X169556715Y-122388737D01*
X169557192Y-122388540D01*
X170007580Y-122388540D01*
X170441926Y-122302143D01*
X170810146Y-122056106D01*
X174762840Y-118103412D01*
X174762840Y-120188860D01*
X174453276Y-120060317D01*
X174001745Y-120059923D01*
X173584434Y-120232353D01*
X173264875Y-120551355D01*
X173091717Y-120968364D01*
X173091412Y-121317680D01*
X172456520Y-121317680D01*
X172221203Y-121361958D01*
X172005079Y-121501030D01*
X171860089Y-121713230D01*
X171809080Y-121965120D01*
X171809080Y-122965120D01*
X171853358Y-123200437D01*
X171992430Y-123416561D01*
X172204630Y-123561551D01*
X172456520Y-123612560D01*
X173456520Y-123612560D01*
X173691837Y-123568282D01*
X173907961Y-123429210D01*
X174052951Y-123217010D01*
X174103960Y-122965120D01*
X174103960Y-122330014D01*
X174361637Y-122330239D01*
X174361323Y-122689895D01*
X174533753Y-123107206D01*
X174852755Y-123426765D01*
X175269764Y-123599923D01*
X175721295Y-123600317D01*
X176138606Y-123427887D01*
X176458165Y-123108885D01*
X176458362Y-123108410D01*
X176700406Y-122866366D01*
X176757782Y-122780497D01*
X176946443Y-122498146D01*
X177032840Y-122063800D01*
X177032840Y-116257886D01*
X177113664Y-116177203D01*
X177332590Y-115649971D01*
X177333088Y-115079093D01*
X177115083Y-114551480D01*
X176711763Y-114147456D01*
X176184531Y-113928530D01*
X175613653Y-113928032D01*
X175086040Y-114146037D01*
X174682016Y-114549357D01*
X174463090Y-115076589D01*
X174462988Y-115193000D01*
X169537448Y-120118540D01*
X169332930Y-120118540D01*
X169209380Y-120118432D01*
X169209380Y-119483540D01*
X169196940Y-119417427D01*
X169196940Y-114924750D01*
X169284950Y-114924750D01*
X169719296Y-114838353D01*
X170087516Y-114592316D01*
X172654405Y-112025427D01*
X174414332Y-112025427D01*
X174632337Y-112553040D01*
X175035657Y-112957064D01*
X175562889Y-113175990D01*
X176133767Y-113176488D01*
X176661380Y-112958483D01*
X177065404Y-112555163D01*
X177284330Y-112027931D01*
X177284828Y-111457053D01*
X177066823Y-110929440D01*
X176663503Y-110525416D01*
X176136271Y-110306490D01*
X175565393Y-110305992D01*
X175037780Y-110523997D01*
X174633756Y-110927317D01*
X174414830Y-111454549D01*
X174414332Y-112025427D01*
X172654405Y-112025427D01*
X175554867Y-109124966D01*
X175800904Y-108756745D01*
X175887300Y-108322400D01*
X175800904Y-107888054D01*
X175554867Y-107519833D01*
X175394531Y-107412700D01*
X177162528Y-107412700D01*
X177945032Y-108195204D01*
X177944932Y-108309407D01*
X178162937Y-108837020D01*
X178566257Y-109241044D01*
X179093489Y-109459970D01*
X179664367Y-109460468D01*
X180191980Y-109242463D01*
X180274367Y-109160220D01*
X181831280Y-109160220D01*
X182265626Y-109073823D01*
X182633846Y-108827786D01*
X184518833Y-106942800D01*
X192278300Y-106942800D01*
X192712646Y-106856403D01*
X193080866Y-106610366D01*
X195080152Y-104611080D01*
X198980834Y-104611080D01*
X199061517Y-104691904D01*
X199588749Y-104910830D01*
X200159627Y-104911328D01*
X200687240Y-104693323D01*
X200742764Y-104637896D01*
X200935000Y-104830132D01*
X200935000Y-113630767D01*
X199258416Y-115307352D01*
X199144213Y-115307252D01*
X198616600Y-115525257D01*
X198212576Y-115928577D01*
X197993650Y-116455809D01*
X197993152Y-117026687D01*
X198211157Y-117554300D01*
X198293400Y-117636687D01*
X198293400Y-121381155D01*
X198115916Y-121307457D01*
X197754043Y-121307141D01*
X197754357Y-120947485D01*
X197581927Y-120530174D01*
X197262925Y-120210615D01*
X196845916Y-120037457D01*
X196394385Y-120037063D01*
X195977074Y-120209493D01*
X195657515Y-120528495D01*
X195484357Y-120945504D01*
X195484052Y-121294820D01*
X194849160Y-121294820D01*
X194613843Y-121339098D01*
X194397719Y-121478170D01*
X194252729Y-121690370D01*
X194201720Y-121942260D01*
X194201720Y-121984568D01*
X193241034Y-122945254D01*
X192994997Y-123313474D01*
X192908600Y-123747820D01*
X192908600Y-124577541D01*
X192633900Y-124522900D01*
X191777016Y-124522900D01*
X191947100Y-124452623D01*
X192351124Y-124049303D01*
X192570050Y-123522071D01*
X192570276Y-123262656D01*
X194935066Y-120897866D01*
X195054676Y-120718857D01*
X195181103Y-120529646D01*
X195267500Y-120095300D01*
X195267500Y-118007149D01*
X195677149Y-118177250D01*
X196248027Y-118177748D01*
X196775640Y-117959743D01*
X197179664Y-117556423D01*
X197398590Y-117029191D01*
X197399088Y-116458313D01*
X197181083Y-115930700D01*
X196777763Y-115526676D01*
X196250531Y-115307750D01*
X195679653Y-115307252D01*
X195267500Y-115477550D01*
X195267500Y-108883972D01*
X196141123Y-108010349D01*
X196512991Y-107936380D01*
X196978538Y-107625311D01*
X197289607Y-107159764D01*
X197398840Y-106610613D01*
X197398840Y-106554387D01*
X197993400Y-106554387D01*
X197993400Y-106610613D01*
X198102633Y-107159764D01*
X198413702Y-107625311D01*
X198879249Y-107936380D01*
X199428400Y-108045613D01*
X199977551Y-107936380D01*
X200443098Y-107625311D01*
X200754167Y-107159764D01*
X200863400Y-106610613D01*
X200863400Y-106554387D01*
X200754167Y-106005236D01*
X200443098Y-105539689D01*
X199977551Y-105228620D01*
X199428400Y-105119387D01*
X198879249Y-105228620D01*
X198413702Y-105539689D01*
X198102633Y-106005236D01*
X197993400Y-106554387D01*
X197398840Y-106554387D01*
X197289607Y-106005236D01*
X196978538Y-105539689D01*
X196512991Y-105228620D01*
X195963840Y-105119387D01*
X195414689Y-105228620D01*
X194949142Y-105539689D01*
X194638073Y-106005236D01*
X194564104Y-106377104D01*
X193329934Y-107611274D01*
X193083897Y-107979494D01*
X192997500Y-108413840D01*
X192997500Y-109939128D01*
X191908580Y-108850208D01*
X191749365Y-108690715D01*
X191332356Y-108517557D01*
X190880825Y-108517163D01*
X190880348Y-108517360D01*
X185472090Y-108517360D01*
X185246325Y-108517163D01*
X184829014Y-108689593D01*
X184509455Y-109008595D01*
X184336297Y-109425604D01*
X184335992Y-109774920D01*
X183701100Y-109774920D01*
X183465783Y-109819198D01*
X183249659Y-109958270D01*
X183104669Y-110170470D01*
X183053660Y-110422360D01*
X183053660Y-110967328D01*
X182654166Y-110567834D01*
X182285945Y-110321797D01*
X181851600Y-110235400D01*
X181417255Y-110321797D01*
X181049034Y-110567834D01*
X180802997Y-110936055D01*
X180716600Y-111370400D01*
X180802997Y-111804745D01*
X181030779Y-112145645D01*
X180718120Y-112145372D01*
X180718120Y-111510480D01*
X180673842Y-111275163D01*
X180534770Y-111059039D01*
X180322570Y-110914049D01*
X180070680Y-110863040D01*
X179070680Y-110863040D01*
X178835363Y-110907318D01*
X178619239Y-111046390D01*
X178474249Y-111258590D01*
X178423240Y-111510480D01*
X178423240Y-112510480D01*
X178467518Y-112745797D01*
X178606590Y-112961921D01*
X178818790Y-113106911D01*
X179070680Y-113157920D01*
X179705786Y-113157920D01*
X179705561Y-113415597D01*
X179345905Y-113415283D01*
X178928594Y-113587713D01*
X178609035Y-113906715D01*
X178435877Y-114323724D01*
X178435483Y-114775255D01*
X178607913Y-115192566D01*
X178926915Y-115512125D01*
X179343924Y-115685283D01*
X179795455Y-115685677D01*
X180212766Y-115513247D01*
X180532325Y-115194245D01*
X180705483Y-114777236D01*
X180705799Y-114415363D01*
X181065455Y-114415677D01*
X181482766Y-114243247D01*
X181802325Y-113924245D01*
X181975483Y-113507236D01*
X181975839Y-113099771D01*
X182801634Y-113925566D01*
X183169855Y-114171604D01*
X183418281Y-114221019D01*
X183206435Y-114432495D01*
X183180987Y-114493781D01*
X181734834Y-115939934D01*
X181488797Y-116308154D01*
X181402400Y-116742500D01*
X181402400Y-121334748D01*
X181336676Y-121307457D01*
X180974803Y-121307141D01*
X180975117Y-120947485D01*
X180802687Y-120530174D01*
X180483685Y-120210615D01*
X180066676Y-120037457D01*
X179615145Y-120037063D01*
X179197834Y-120209493D01*
X178878275Y-120528495D01*
X178705117Y-120945504D01*
X178704812Y-121294820D01*
X178069920Y-121294820D01*
X177834603Y-121339098D01*
X177618479Y-121478170D01*
X177473489Y-121690370D01*
X177422480Y-121942260D01*
X177422480Y-122942260D01*
X177466758Y-123177577D01*
X177605830Y-123393701D01*
X177818030Y-123538691D01*
X178069920Y-123589700D01*
X179069920Y-123589700D01*
X179305237Y-123545422D01*
X179521361Y-123406350D01*
X179666351Y-123194150D01*
X179717360Y-122942260D01*
X179717360Y-122307154D01*
X179975037Y-122307379D01*
X179974723Y-122667035D01*
X180147153Y-123084346D01*
X180466155Y-123403905D01*
X180883164Y-123577063D01*
X181334695Y-123577457D01*
X181402400Y-123549482D01*
X181402400Y-123829100D01*
X181488797Y-124263446D01*
X181719998Y-124609463D01*
X181734834Y-124631666D01*
X183563634Y-126460466D01*
X183931854Y-126706503D01*
X184366200Y-126792900D01*
X184609869Y-126792900D01*
X184483955Y-126918595D01*
X184310797Y-127335604D01*
X184310492Y-127684920D01*
X183675600Y-127684920D01*
X183440283Y-127729198D01*
X183224159Y-127868270D01*
X183079169Y-128080470D01*
X183028160Y-128332360D01*
X183028160Y-129332360D01*
X183072438Y-129567677D01*
X183211510Y-129783801D01*
X183423710Y-129928791D01*
X183675600Y-129979800D01*
X184675600Y-129979800D01*
X184910917Y-129935522D01*
X185127041Y-129796450D01*
X185272031Y-129584250D01*
X185323040Y-129332360D01*
X185323040Y-128697254D01*
X185580717Y-128697479D01*
X185580403Y-129057135D01*
X185752833Y-129474446D01*
X186071835Y-129794005D01*
X186488844Y-129967163D01*
X186940375Y-129967557D01*
X187357686Y-129795127D01*
X187677245Y-129476125D01*
X187850403Y-129059116D01*
X187850719Y-128697360D01*
X188658160Y-128697360D01*
X188658160Y-129332360D01*
X188702438Y-129567677D01*
X188841510Y-129783801D01*
X189053710Y-129928791D01*
X189305600Y-129979800D01*
X190305600Y-129979800D01*
X190540917Y-129935522D01*
X190757041Y-129796450D01*
X190902031Y-129584250D01*
X190953040Y-129332360D01*
X190953040Y-129044932D01*
X191210600Y-129302492D01*
X191210600Y-130042228D01*
X189033448Y-132219380D01*
X188873955Y-132378595D01*
X188700797Y-132795604D01*
X188700403Y-133247135D01*
X188872833Y-133664446D01*
X189191835Y-133984005D01*
X189608844Y-134157163D01*
X189970717Y-134157479D01*
X189970403Y-134517135D01*
X190142833Y-134934446D01*
X190461835Y-135254005D01*
X190878844Y-135427163D01*
X191330375Y-135427557D01*
X191330852Y-135427360D01*
X197483442Y-135427360D01*
X197660555Y-135545703D01*
X198094900Y-135632100D01*
X198529245Y-135545703D01*
X198897466Y-135299666D01*
X199143503Y-134931445D01*
X199229900Y-134497100D01*
X199143503Y-134062755D01*
X198897466Y-133694534D01*
X198692726Y-133489794D01*
X198554411Y-133397375D01*
X198324506Y-133243757D01*
X197890160Y-133157360D01*
X194092872Y-133157360D01*
X194846166Y-132404067D01*
X195092203Y-132035846D01*
X195104254Y-131975260D01*
X195178600Y-131601500D01*
X195178600Y-128418843D01*
X195300389Y-128500220D01*
X195849540Y-128609453D01*
X196398691Y-128500220D01*
X196864238Y-128189151D01*
X197175307Y-127723604D01*
X197226530Y-127466087D01*
X198366532Y-127466087D01*
X198584537Y-127993700D01*
X198987857Y-128397724D01*
X199515089Y-128616650D01*
X200085967Y-128617148D01*
X200613580Y-128399143D01*
X201017604Y-127995823D01*
X201236530Y-127468591D01*
X201237028Y-126897713D01*
X201019023Y-126370100D01*
X200615703Y-125966076D01*
X200088471Y-125747150D01*
X199517593Y-125746652D01*
X198989980Y-125964657D01*
X198585956Y-126367977D01*
X198367030Y-126895209D01*
X198366532Y-127466087D01*
X197226530Y-127466087D01*
X197284540Y-127174453D01*
X197284540Y-127118227D01*
X197190674Y-126646331D01*
X197398946Y-126604903D01*
X197767166Y-126358866D01*
X200230966Y-123895066D01*
X200477003Y-123526846D01*
X200501234Y-123405027D01*
X200563400Y-123092500D01*
X200563400Y-117637106D01*
X200644224Y-117556423D01*
X200863150Y-117029191D01*
X200863252Y-116912781D01*
X202872567Y-114903466D01*
X203118604Y-114535245D01*
X203205000Y-114100900D01*
X203205000Y-104360000D01*
X203191077Y-104290003D01*
X203118604Y-103925655D01*
X202872566Y-103557434D01*
X201988646Y-102673514D01*
X201874952Y-102597546D01*
X201620426Y-102427477D01*
X201186080Y-102341080D01*
X200770046Y-102341080D01*
X200689363Y-102260256D01*
X200162131Y-102041330D01*
X199591253Y-102040832D01*
X199063640Y-102258837D01*
X198981253Y-102341080D01*
X194610020Y-102341080D01*
X194175674Y-102427477D01*
X193921148Y-102597546D01*
X193807454Y-102673514D01*
X191808168Y-104672800D01*
X190485836Y-104672800D01*
X190758251Y-104490778D01*
X191069320Y-104025231D01*
X191178553Y-103476080D01*
X191069320Y-102926929D01*
X190758251Y-102461382D01*
X190292704Y-102150313D01*
X189743553Y-102041080D01*
X189687327Y-102041080D01*
X189138176Y-102150313D01*
X188672629Y-102461382D01*
X188361560Y-102926929D01*
X188252327Y-103476080D01*
X188361560Y-104025231D01*
X188672629Y-104490778D01*
X188945044Y-104672800D01*
X186632780Y-104672800D01*
X186645057Y-104611080D01*
X186695000Y-104360000D01*
X186695000Y-103090000D01*
X186608603Y-102655654D01*
X186362566Y-102287434D01*
X185994346Y-102041397D01*
X185705742Y-101983990D01*
X188274906Y-99414827D01*
X188240050Y-99498769D01*
X188239552Y-100069647D01*
X188457557Y-100597260D01*
X188860877Y-101001284D01*
X189388109Y-101220210D01*
X189958987Y-101220708D01*
X190486600Y-101002703D01*
X190890624Y-100599383D01*
X191109550Y-100072151D01*
X191110048Y-99501273D01*
X190910364Y-99018000D01*
X191224200Y-99018000D01*
X191658546Y-98931603D01*
X192026766Y-98685566D01*
X193433926Y-97278406D01*
X193555659Y-97096220D01*
X193679963Y-96910186D01*
X193686027Y-96879700D01*
X195758035Y-96879700D01*
X195863842Y-97411630D01*
X196165157Y-97862578D01*
X196616105Y-98163893D01*
X197148035Y-98269700D01*
X198731885Y-98269700D01*
X199263815Y-98163893D01*
X199714763Y-97862578D01*
X200016078Y-97411630D01*
X200121885Y-96879700D01*
X200016078Y-96347770D01*
X199714763Y-95896822D01*
X199265973Y-95596949D01*
X199339223Y-95575292D01*
X199762641Y-95232776D01*
X200022753Y-94754297D01*
X200037237Y-94681671D01*
X199914643Y-94466700D01*
X198066960Y-94466700D01*
X198066960Y-94486700D01*
X197812960Y-94486700D01*
X197812960Y-94466700D01*
X195965277Y-94466700D01*
X195842683Y-94681671D01*
X195857167Y-94754297D01*
X196117279Y-95232776D01*
X196540697Y-95575292D01*
X196613947Y-95596949D01*
X196165157Y-95896822D01*
X195863842Y-96347770D01*
X195758035Y-96879700D01*
X193686027Y-96879700D01*
X193766360Y-96475840D01*
X193766360Y-91799700D01*
X195758035Y-91799700D01*
X195863842Y-92331630D01*
X196165157Y-92782578D01*
X196613947Y-93082451D01*
X196540697Y-93104108D01*
X196117279Y-93446624D01*
X195857167Y-93925103D01*
X195842683Y-93997729D01*
X195965277Y-94212700D01*
X197812960Y-94212700D01*
X197812960Y-94192700D01*
X198066960Y-94192700D01*
X198066960Y-94212700D01*
X199914643Y-94212700D01*
X200037237Y-93997729D01*
X200022753Y-93925103D01*
X199762641Y-93446624D01*
X199339223Y-93104108D01*
X199265973Y-93082451D01*
X199714763Y-92782578D01*
X200016078Y-92331630D01*
X200121885Y-91799700D01*
X200016078Y-91267770D01*
X199714763Y-90816822D01*
X199263815Y-90515507D01*
X198731885Y-90409700D01*
X197148035Y-90409700D01*
X196616105Y-90515507D01*
X196165157Y-90816822D01*
X195863842Y-91267770D01*
X195758035Y-91799700D01*
X193766360Y-91799700D01*
X193766360Y-84731308D01*
X193985240Y-84403731D01*
X194086928Y-83892507D01*
X194592340Y-83892507D01*
X194592340Y-83948733D01*
X194701573Y-84497884D01*
X195012642Y-84963431D01*
X195478189Y-85274500D01*
X196027340Y-85383733D01*
X196576491Y-85274500D01*
X197042038Y-84963431D01*
X197353107Y-84497884D01*
X197462340Y-83948733D01*
X197462340Y-83892507D01*
X198168660Y-83892507D01*
X198168660Y-83948733D01*
X198277893Y-84497884D01*
X198588962Y-84963431D01*
X199054509Y-85274500D01*
X199603660Y-85383733D01*
X200152811Y-85274500D01*
X200618358Y-84963431D01*
X200929427Y-84497884D01*
X201038660Y-83948733D01*
X201038660Y-83892507D01*
X200929427Y-83343356D01*
X200618358Y-82877809D01*
X200152811Y-82566740D01*
X199603660Y-82457507D01*
X199054509Y-82566740D01*
X198588962Y-82877809D01*
X198277893Y-83343356D01*
X198168660Y-83892507D01*
X197462340Y-83892507D01*
X197353107Y-83343356D01*
X197042038Y-82877809D01*
X196576491Y-82566740D01*
X196027340Y-82457507D01*
X195478189Y-82566740D01*
X195012642Y-82877809D01*
X194701573Y-83343356D01*
X194592340Y-83892507D01*
X194086928Y-83892507D01*
X194094473Y-83854580D01*
X193985240Y-83305429D01*
X193674171Y-82839882D01*
X193208624Y-82528813D01*
X192659473Y-82419580D01*
X192603247Y-82419580D01*
X192054096Y-82528813D01*
X191588549Y-82839882D01*
X191277480Y-83305429D01*
X191168247Y-83854580D01*
X191277480Y-84403731D01*
X191496360Y-84731308D01*
X191496360Y-96005708D01*
X190754068Y-96748000D01*
X190396118Y-96748000D01*
X190659960Y-96638983D01*
X191063984Y-96235663D01*
X191282910Y-95708431D01*
X191283408Y-95137553D01*
X191065403Y-94609940D01*
X190936800Y-94481113D01*
X190936800Y-91891666D01*
X191017624Y-91810983D01*
X191236550Y-91283751D01*
X191237048Y-90712873D01*
X191019043Y-90185260D01*
X190615723Y-89781236D01*
X190088491Y-89562310D01*
X189517613Y-89561812D01*
X188990000Y-89779817D01*
X188585976Y-90183137D01*
X188367050Y-90710369D01*
X188366552Y-91281247D01*
X188584557Y-91808860D01*
X188666800Y-91891247D01*
X188666800Y-94573413D01*
X188632336Y-94607817D01*
X188598347Y-94689671D01*
X188565403Y-94609940D01*
X188162083Y-94205916D01*
X187634851Y-93986990D01*
X187063973Y-93986492D01*
X186695000Y-94138948D01*
X186695000Y-91660000D01*
X186608603Y-91225654D01*
X186362566Y-90857434D01*
X183027472Y-87522340D01*
X188239627Y-87522340D01*
X188348860Y-88071491D01*
X188659929Y-88537038D01*
X189125476Y-88848107D01*
X189674627Y-88957340D01*
X189730853Y-88957340D01*
X190280004Y-88848107D01*
X190745551Y-88537038D01*
X191056620Y-88071491D01*
X191165853Y-87522340D01*
X191056620Y-86973189D01*
X190745551Y-86507642D01*
X190280004Y-86196573D01*
X189730853Y-86087340D01*
X189674627Y-86087340D01*
X189125476Y-86196573D01*
X188659929Y-86507642D01*
X188348860Y-86973189D01*
X188239627Y-87522340D01*
X183027472Y-87522340D01*
X182224906Y-86719774D01*
X182207909Y-86708417D01*
X181856686Y-86473737D01*
X181422340Y-86387340D01*
X180437346Y-86387340D01*
X180356663Y-86306516D01*
X179829431Y-86087590D01*
X179258553Y-86087092D01*
X178730940Y-86305097D01*
X178326916Y-86708417D01*
X178107990Y-87235649D01*
X178107492Y-87806527D01*
X178325497Y-88334140D01*
X178728817Y-88738164D01*
X179256049Y-88957090D01*
X179826927Y-88957588D01*
X180354540Y-88739583D01*
X180436927Y-88657340D01*
X180952208Y-88657340D01*
X184425000Y-92130132D01*
X184425000Y-94200000D01*
X184511397Y-94634346D01*
X184757434Y-95002566D01*
X185125654Y-95248603D01*
X185560000Y-95335000D01*
X185896752Y-95268016D01*
X184848568Y-96316200D01*
X181230310Y-96316200D01*
X181247086Y-96312863D01*
X181615306Y-96066826D01*
X182412866Y-95269266D01*
X182502547Y-95135049D01*
X182658903Y-94901046D01*
X182745300Y-94466700D01*
X182745300Y-92965560D01*
X182658903Y-92531214D01*
X182412866Y-92162994D01*
X181069649Y-90819777D01*
X180995680Y-90447909D01*
X180684611Y-89982362D01*
X180219064Y-89671293D01*
X179669913Y-89562060D01*
X179613687Y-89562060D01*
X179064536Y-89671293D01*
X178598989Y-89982362D01*
X178287920Y-90447909D01*
X178178687Y-90997060D01*
X178287920Y-91546211D01*
X178598989Y-92011758D01*
X179064536Y-92322827D01*
X179436404Y-92396796D01*
X180475300Y-93435692D01*
X180475300Y-93996568D01*
X180356610Y-94115258D01*
X180092064Y-93938493D01*
X179720196Y-93864524D01*
X173281260Y-87425588D01*
X173281260Y-86561723D01*
X173641035Y-86562037D01*
X174058346Y-86389607D01*
X174377905Y-86070605D01*
X174551063Y-85653596D01*
X174551368Y-85304280D01*
X175186260Y-85304280D01*
X175344500Y-85274505D01*
X175344500Y-87621168D01*
X175334034Y-87631634D01*
X175087997Y-87999855D01*
X175001600Y-88434200D01*
X175087997Y-88868545D01*
X175334034Y-89236766D01*
X175702255Y-89482803D01*
X176136600Y-89569200D01*
X176570945Y-89482803D01*
X176939166Y-89236766D01*
X177282066Y-88893866D01*
X177360282Y-88776807D01*
X177528103Y-88525646D01*
X177614500Y-88091300D01*
X177614500Y-83157550D01*
X177621804Y-83160583D01*
X177971120Y-83160888D01*
X177971120Y-83795780D01*
X178015398Y-84031097D01*
X178154470Y-84247221D01*
X178366670Y-84392211D01*
X178618560Y-84443220D01*
X179618560Y-84443220D01*
X179853877Y-84398942D01*
X180070001Y-84259870D01*
X180152747Y-84138767D01*
X181036112Y-84138767D01*
X181254117Y-84666380D01*
X181657437Y-85070404D01*
X182184669Y-85289330D01*
X182755547Y-85289828D01*
X183283160Y-85071823D01*
X183687184Y-84668503D01*
X183906110Y-84141271D01*
X183906608Y-83570393D01*
X183688603Y-83042780D01*
X183285283Y-82638756D01*
X182758051Y-82419830D01*
X182187173Y-82419332D01*
X181659560Y-82637337D01*
X181255536Y-83040657D01*
X181036610Y-83567889D01*
X181036112Y-84138767D01*
X180152747Y-84138767D01*
X180214991Y-84047670D01*
X180266000Y-83795780D01*
X180266000Y-82795780D01*
X180221722Y-82560463D01*
X180082650Y-82344339D01*
X179870450Y-82199349D01*
X179618560Y-82148340D01*
X178983454Y-82148340D01*
X178983679Y-81890663D01*
X179343335Y-81890977D01*
X179760646Y-81718547D01*
X180080205Y-81399545D01*
X180253363Y-80982536D01*
X180253757Y-80531005D01*
X180081327Y-80113694D01*
X179762325Y-79794135D01*
X179345316Y-79620977D01*
X178893785Y-79620583D01*
X178476474Y-79793013D01*
X178156915Y-80112015D01*
X177983757Y-80529024D01*
X177983441Y-80890897D01*
X177623785Y-80890583D01*
X177614500Y-80894419D01*
X177614500Y-74047562D01*
X177723404Y-74092783D01*
X178085277Y-74093099D01*
X178084963Y-74452755D01*
X178257393Y-74870066D01*
X178576395Y-75189625D01*
X178993404Y-75362783D01*
X179444935Y-75363177D01*
X179862246Y-75190747D01*
X180181805Y-74871745D01*
X180354963Y-74454736D01*
X180355268Y-74105420D01*
X180990160Y-74105420D01*
X181225477Y-74061142D01*
X181395329Y-73951845D01*
X181336360Y-74248300D01*
X181336360Y-79104254D01*
X181255536Y-79184937D01*
X181036610Y-79712169D01*
X181036112Y-80283047D01*
X181254117Y-80810660D01*
X181657437Y-81214684D01*
X182184669Y-81433610D01*
X182755547Y-81434108D01*
X183283160Y-81216103D01*
X183687184Y-80812783D01*
X183906110Y-80285551D01*
X183906360Y-79998860D01*
X191168247Y-79998860D01*
X191277480Y-80548011D01*
X191588549Y-81013558D01*
X192054096Y-81324627D01*
X192603247Y-81433860D01*
X192659473Y-81433860D01*
X193208624Y-81324627D01*
X193674171Y-81013558D01*
X193985240Y-80548011D01*
X194094473Y-79998860D01*
X193985240Y-79449709D01*
X193674171Y-78984162D01*
X193208624Y-78673093D01*
X192659473Y-78563860D01*
X192603247Y-78563860D01*
X192054096Y-78673093D01*
X191588549Y-78984162D01*
X191277480Y-79449709D01*
X191168247Y-79998860D01*
X183906360Y-79998860D01*
X183906608Y-79714673D01*
X183688603Y-79187060D01*
X183606360Y-79104673D01*
X183606360Y-74718432D01*
X183857818Y-74466974D01*
X183889097Y-74624226D01*
X183990645Y-74776203D01*
X184040973Y-74898006D01*
X184134902Y-74992099D01*
X184135134Y-74992446D01*
X184200760Y-75058072D01*
X184359975Y-75217565D01*
X184776984Y-75390723D01*
X185228515Y-75391117D01*
X185438085Y-75304524D01*
X185438086Y-75304524D01*
X185438087Y-75304523D01*
X185495407Y-75280839D01*
X188135633Y-77921066D01*
X188388723Y-78090175D01*
X188503854Y-78167103D01*
X188938200Y-78253500D01*
X196245780Y-78253500D01*
X196680126Y-78167103D01*
X197048346Y-77921066D01*
X199773644Y-75195768D01*
X199887847Y-75195868D01*
X200415460Y-74977863D01*
X200819484Y-74574543D01*
X201038410Y-74047311D01*
X201038908Y-73476433D01*
X200820903Y-72948820D01*
X200417583Y-72544796D01*
X199890351Y-72325870D01*
X199319473Y-72325372D01*
X198791860Y-72543377D01*
X198387836Y-72946697D01*
X198168910Y-73473929D01*
X198168808Y-73590339D01*
X197284747Y-74474401D01*
X197462090Y-74047311D01*
X197462588Y-73476433D01*
X197244583Y-72948820D01*
X196841263Y-72544796D01*
X196504874Y-72405115D01*
X196883590Y-72248633D01*
X197287614Y-71845313D01*
X197506540Y-71318081D01*
X197507038Y-70747203D01*
X197289033Y-70219590D01*
X196885713Y-69815566D01*
X196358481Y-69596640D01*
X195787603Y-69596142D01*
X195557693Y-69691139D01*
X196243166Y-69005666D01*
X196489203Y-68637446D01*
X196575600Y-68203100D01*
X196489203Y-67768755D01*
X196243166Y-67400534D01*
X195874945Y-67154497D01*
X195440600Y-67068100D01*
X195006254Y-67154497D01*
X194638034Y-67400534D01*
X191729734Y-70308834D01*
X191483697Y-70677054D01*
X191397300Y-71111400D01*
X191397300Y-71764621D01*
X191097896Y-71640297D01*
X190646365Y-71639903D01*
X190229054Y-71812333D01*
X189909495Y-72131335D01*
X189736337Y-72548344D01*
X189736021Y-72910217D01*
X189376365Y-72909903D01*
X188959054Y-73082333D01*
X188639495Y-73401335D01*
X188466337Y-73818344D01*
X188465943Y-74269875D01*
X188638373Y-74687186D01*
X188957375Y-75006745D01*
X189374384Y-75179903D01*
X189723700Y-75180208D01*
X189723700Y-75815100D01*
X189755387Y-75983500D01*
X189408333Y-75983500D01*
X187408740Y-73983908D01*
X187408740Y-73547351D01*
X187421180Y-73485920D01*
X187421180Y-72485920D01*
X187376902Y-72250603D01*
X187237830Y-72034479D01*
X187025630Y-71889489D01*
X186773740Y-71838480D01*
X185989969Y-71838480D01*
X185986304Y-71820055D01*
X185740267Y-71451834D01*
X184819210Y-70530778D01*
X184819210Y-69133513D01*
X185178985Y-69133827D01*
X185179462Y-69133630D01*
X188017172Y-69133630D01*
X188068250Y-69143790D01*
X190586939Y-69143790D01*
X190812705Y-69143987D01*
X191230016Y-68971557D01*
X191549575Y-68652555D01*
X191722733Y-68235546D01*
X191723038Y-67886230D01*
X192357930Y-67886230D01*
X192593247Y-67841952D01*
X192809371Y-67702880D01*
X192954361Y-67490680D01*
X193005370Y-67238790D01*
X193005370Y-66238790D01*
X192961092Y-66003473D01*
X192822020Y-65787349D01*
X192609820Y-65642359D01*
X192357930Y-65591350D01*
X191357930Y-65591350D01*
X191122613Y-65635628D01*
X190906489Y-65774700D01*
X190761499Y-65986900D01*
X190710490Y-66238790D01*
X190710490Y-66873896D01*
X190452813Y-66873671D01*
X190453127Y-66514015D01*
X190452930Y-66513538D01*
X190452930Y-65573162D01*
X192660496Y-63365597D01*
X192660497Y-63365596D01*
X192819575Y-63206795D01*
X192992733Y-62789786D01*
X192993127Y-62338255D01*
X192820697Y-61920944D01*
X192501695Y-61601385D01*
X192084686Y-61428227D01*
X191722813Y-61427911D01*
X191723127Y-61068255D01*
X191630168Y-60843277D01*
X194636790Y-60843277D01*
X194636790Y-60899503D01*
X194746023Y-61448654D01*
X195057092Y-61914201D01*
X195522639Y-62225270D01*
X196071790Y-62334503D01*
X196620941Y-62225270D01*
X197086488Y-61914201D01*
X197397557Y-61448654D01*
X197506790Y-60899503D01*
X197506790Y-60843277D01*
X197397557Y-60294126D01*
X197086488Y-59828579D01*
X196620941Y-59517510D01*
X196071790Y-59408277D01*
X195522639Y-59517510D01*
X195057092Y-59828579D01*
X194746023Y-60294126D01*
X194636790Y-60843277D01*
X191630168Y-60843277D01*
X191550697Y-60650944D01*
X191231695Y-60331385D01*
X190814686Y-60158227D01*
X190363155Y-60157833D01*
X189945844Y-60330263D01*
X189626285Y-60649265D01*
X189453127Y-61066274D01*
X189452822Y-61415590D01*
X188817930Y-61415590D01*
X188582613Y-61459868D01*
X188366489Y-61598940D01*
X188221499Y-61811140D01*
X188170490Y-62063030D01*
X188170490Y-63063030D01*
X188214768Y-63298347D01*
X188353840Y-63514471D01*
X188566040Y-63659461D01*
X188817930Y-63710470D01*
X189105358Y-63710470D01*
X188515364Y-64300464D01*
X188269327Y-64668684D01*
X188182930Y-65103030D01*
X188182930Y-66268658D01*
X187587958Y-66863630D01*
X187371650Y-66863630D01*
X187371650Y-66228630D01*
X187327372Y-65993313D01*
X187188300Y-65777189D01*
X186976100Y-65632199D01*
X186724210Y-65581190D01*
X185724210Y-65581190D01*
X185488893Y-65625468D01*
X185272769Y-65764540D01*
X185127779Y-65976740D01*
X185076770Y-66228630D01*
X185076770Y-66863630D01*
X184955200Y-66863630D01*
X184819210Y-66863511D01*
X184819210Y-66729621D01*
X184819407Y-66503855D01*
X184646977Y-66086544D01*
X184327975Y-65766985D01*
X183910966Y-65593827D01*
X183459435Y-65593433D01*
X183042124Y-65765863D01*
X182722565Y-66084865D01*
X182549407Y-66501874D01*
X182549013Y-66953405D01*
X182549210Y-66953882D01*
X182549210Y-71000910D01*
X182635607Y-71435256D01*
X182862179Y-71774345D01*
X182881644Y-71803476D01*
X183098494Y-72020327D01*
X183091654Y-72023153D01*
X182772095Y-72342155D01*
X182771898Y-72342630D01*
X181668794Y-73445734D01*
X181627593Y-73507395D01*
X181637600Y-73457980D01*
X181637600Y-72457980D01*
X181593322Y-72222663D01*
X181454250Y-72006539D01*
X181242050Y-71861549D01*
X180990160Y-71810540D01*
X179990160Y-71810540D01*
X179754843Y-71854818D01*
X179538719Y-71993890D01*
X179393729Y-72206090D01*
X179342720Y-72457980D01*
X179342720Y-73093086D01*
X179085043Y-73092861D01*
X179085357Y-72733205D01*
X178912927Y-72315894D01*
X178593925Y-71996335D01*
X178176916Y-71823177D01*
X177725385Y-71822783D01*
X177614500Y-71868600D01*
X177614500Y-69634578D01*
X177827299Y-69722940D01*
X178398177Y-69723438D01*
X178925790Y-69505433D01*
X179135653Y-69295935D01*
X179785851Y-69295935D01*
X179859985Y-69542054D01*
X180397213Y-69735155D01*
X180967444Y-69707968D01*
X181367995Y-69542054D01*
X181442129Y-69295935D01*
X180613990Y-68467795D01*
X179785851Y-69295935D01*
X179135653Y-69295935D01*
X179329814Y-69102113D01*
X179357413Y-69035646D01*
X179360126Y-69042195D01*
X179606245Y-69116329D01*
X180434385Y-68288190D01*
X180793595Y-68288190D01*
X181621735Y-69116329D01*
X181867854Y-69042195D01*
X182060955Y-68504967D01*
X182033768Y-67934736D01*
X181867854Y-67534185D01*
X181621735Y-67460051D01*
X180793595Y-68288190D01*
X180434385Y-68288190D01*
X179606245Y-67460051D01*
X179360126Y-67534185D01*
X179357794Y-67540673D01*
X179331233Y-67476390D01*
X179135630Y-67280445D01*
X179785851Y-67280445D01*
X180613990Y-68108585D01*
X181442129Y-67280445D01*
X181367995Y-67034326D01*
X180830767Y-66841225D01*
X180260536Y-66868412D01*
X179859985Y-67034326D01*
X179785851Y-67280445D01*
X179135630Y-67280445D01*
X178927913Y-67072366D01*
X178400681Y-66853440D01*
X177829803Y-66852942D01*
X177614500Y-66941903D01*
X177614500Y-66298100D01*
X177611797Y-66284510D01*
X177528104Y-65863755D01*
X177282067Y-65495534D01*
X175681866Y-63895334D01*
X175517632Y-63785596D01*
X175585420Y-63748569D01*
X175585420Y-62604940D01*
X175839420Y-62604940D01*
X175839420Y-63748569D01*
X176061461Y-63869854D01*
X176567554Y-63630329D01*
X176943461Y-63215363D01*
X177104324Y-62826979D01*
X177068695Y-62762127D01*
X184437172Y-62762127D01*
X184655177Y-63289740D01*
X185058497Y-63693764D01*
X185585729Y-63912690D01*
X186156607Y-63913188D01*
X186684220Y-63695183D01*
X187088244Y-63291863D01*
X187307170Y-62764631D01*
X187307668Y-62193753D01*
X187089663Y-61666140D01*
X186686343Y-61262116D01*
X186159111Y-61043190D01*
X185588233Y-61042692D01*
X185060620Y-61260697D01*
X184656596Y-61664017D01*
X184437670Y-62191249D01*
X184437172Y-62762127D01*
X177068695Y-62762127D01*
X176982335Y-62604940D01*
X175839420Y-62604940D01*
X175585420Y-62604940D01*
X175565420Y-62604940D01*
X175565420Y-62350940D01*
X175585420Y-62350940D01*
X175585420Y-61207311D01*
X175839420Y-61207311D01*
X175839420Y-62350940D01*
X176982335Y-62350940D01*
X177104324Y-62128901D01*
X176943461Y-61740517D01*
X176567554Y-61325551D01*
X176061461Y-61086026D01*
X175839420Y-61207311D01*
X175585420Y-61207311D01*
X175363379Y-61086026D01*
X174857286Y-61325551D01*
X174481379Y-61740517D01*
X174449800Y-61816760D01*
X174439798Y-61606966D01*
X174273884Y-61206415D01*
X174027765Y-61132281D01*
X173199625Y-61960420D01*
X174027765Y-62788559D01*
X174273884Y-62714425D01*
X174313237Y-62604942D01*
X174442504Y-62604942D01*
X174320516Y-62826979D01*
X174481379Y-63215363D01*
X174796204Y-63562900D01*
X169019552Y-63562900D01*
X169269176Y-63459757D01*
X169588735Y-63140755D01*
X169660400Y-62968165D01*
X172191881Y-62968165D01*
X172266015Y-63214284D01*
X172803243Y-63407385D01*
X173373474Y-63380198D01*
X173774025Y-63214284D01*
X173848159Y-62968165D01*
X173020020Y-62140025D01*
X172191881Y-62968165D01*
X169660400Y-62968165D01*
X169761893Y-62723746D01*
X169762287Y-62272215D01*
X169589857Y-61854904D01*
X169478790Y-61743643D01*
X171573055Y-61743643D01*
X171600242Y-62313874D01*
X171766156Y-62714425D01*
X172012275Y-62788559D01*
X172840415Y-61960420D01*
X172012275Y-61132281D01*
X171766156Y-61206415D01*
X171573055Y-61743643D01*
X169478790Y-61743643D01*
X169270855Y-61535345D01*
X168853846Y-61362187D01*
X168492090Y-61361871D01*
X168492090Y-61227981D01*
X168492287Y-61002215D01*
X168319857Y-60584904D01*
X168000855Y-60265345D01*
X167583846Y-60092187D01*
X167132315Y-60091793D01*
X166715004Y-60264223D01*
X166395445Y-60583225D01*
X166222287Y-61000234D01*
X166221982Y-61349550D01*
X165587090Y-61349550D01*
X165351773Y-61393828D01*
X165135649Y-61532900D01*
X164990659Y-61745100D01*
X164939650Y-61996990D01*
X164939650Y-62039298D01*
X160182934Y-66796014D01*
X159936897Y-67164234D01*
X159895154Y-67374089D01*
X159894423Y-67373356D01*
X159367191Y-67154430D01*
X158796313Y-67153932D01*
X158268700Y-67371937D01*
X157864676Y-67775257D01*
X157645750Y-68302489D01*
X157645252Y-68873367D01*
X157863257Y-69400980D01*
X158094350Y-69632477D01*
X157782554Y-69694497D01*
X157526017Y-69865910D01*
X157414334Y-69940534D01*
X156817434Y-70537434D01*
X156571397Y-70905654D01*
X156485000Y-71340000D01*
X150710000Y-71340000D01*
X150710000Y-58778221D01*
X157688586Y-58778221D01*
X157928111Y-59284314D01*
X158343077Y-59660221D01*
X158731461Y-59821084D01*
X158953500Y-59699095D01*
X158953500Y-58556180D01*
X159207500Y-58556180D01*
X159207500Y-59699095D01*
X159429539Y-59821084D01*
X159817923Y-59660221D01*
X160232889Y-59284314D01*
X160472414Y-58778221D01*
X160385655Y-58619387D01*
X161175852Y-58619387D01*
X161393857Y-59147000D01*
X161797177Y-59551024D01*
X162324409Y-59769950D01*
X162895287Y-59770448D01*
X162957827Y-59744607D01*
X171584772Y-59744607D01*
X171802777Y-60272220D01*
X172206097Y-60676244D01*
X172272564Y-60703843D01*
X172266015Y-60706556D01*
X172191881Y-60952675D01*
X173020020Y-61780815D01*
X173848159Y-60952675D01*
X173774025Y-60706556D01*
X173767537Y-60704224D01*
X173831820Y-60677663D01*
X174235844Y-60274343D01*
X174454770Y-59747111D01*
X174454903Y-59594988D01*
X174669609Y-59916318D01*
X175135156Y-60227387D01*
X175684307Y-60336620D01*
X175740533Y-60336620D01*
X176289684Y-60227387D01*
X176755231Y-59916318D01*
X177066300Y-59450771D01*
X177119004Y-59185807D01*
X184437172Y-59185807D01*
X184655177Y-59713420D01*
X185058497Y-60117444D01*
X185585729Y-60336370D01*
X186156607Y-60336868D01*
X186684220Y-60118863D01*
X187088244Y-59715543D01*
X187307170Y-59188311D01*
X187307668Y-58617433D01*
X187089663Y-58089820D01*
X186686343Y-57685796D01*
X186159111Y-57466870D01*
X185588233Y-57466372D01*
X185060620Y-57684377D01*
X184656596Y-58087697D01*
X184437670Y-58614929D01*
X184437172Y-59185807D01*
X177119004Y-59185807D01*
X177175533Y-58901620D01*
X177066300Y-58352469D01*
X176755231Y-57886922D01*
X176289684Y-57575853D01*
X175740533Y-57466620D01*
X175684307Y-57466620D01*
X175135156Y-57575853D01*
X174669609Y-57886922D01*
X174358540Y-58352469D01*
X174279364Y-58750513D01*
X174237263Y-58648620D01*
X173833943Y-58244596D01*
X173306711Y-58025670D01*
X172735833Y-58025172D01*
X172208220Y-58243177D01*
X171804196Y-58646497D01*
X171585270Y-59173729D01*
X171584772Y-59744607D01*
X162957827Y-59744607D01*
X163422900Y-59552443D01*
X163826924Y-59149123D01*
X164045850Y-58621891D01*
X164046348Y-58051013D01*
X163828343Y-57523400D01*
X163425023Y-57119376D01*
X162897791Y-56900450D01*
X162326913Y-56899952D01*
X161799300Y-57117957D01*
X161395276Y-57521277D01*
X161176350Y-58048509D01*
X161175852Y-58619387D01*
X160385655Y-58619387D01*
X160351129Y-58556180D01*
X159207500Y-58556180D01*
X158953500Y-58556180D01*
X157809871Y-58556180D01*
X157688586Y-58778221D01*
X150710000Y-58778221D01*
X150710000Y-58080139D01*
X157688586Y-58080139D01*
X157809871Y-58302180D01*
X158953500Y-58302180D01*
X158953500Y-57159265D01*
X159207500Y-57159265D01*
X159207500Y-58302180D01*
X160351129Y-58302180D01*
X160472414Y-58080139D01*
X160232889Y-57574046D01*
X159817923Y-57198139D01*
X159429539Y-57037276D01*
X159207500Y-57159265D01*
X158953500Y-57159265D01*
X158731461Y-57037276D01*
X158343077Y-57198139D01*
X157928111Y-57574046D01*
X157688586Y-58080139D01*
X150710000Y-58080139D01*
X150710000Y-55442619D01*
X152764613Y-55442619D01*
X153104155Y-56264372D01*
X153732321Y-56893636D01*
X154553481Y-57234611D01*
X155442619Y-57235387D01*
X156264372Y-56895845D01*
X156893636Y-56267679D01*
X157234611Y-55446519D01*
X157234614Y-55442619D01*
X202764613Y-55442619D01*
X203104155Y-56264372D01*
X203732321Y-56893636D01*
X204553481Y-57234611D01*
X205442619Y-57235387D01*
X206264372Y-56895845D01*
X206893636Y-56267679D01*
X207234611Y-55446519D01*
X207235387Y-54557381D01*
X206895845Y-53735628D01*
X206267679Y-53106364D01*
X205446519Y-52765389D01*
X204557381Y-52764613D01*
X203735628Y-53104155D01*
X203106364Y-53732321D01*
X202765389Y-54553481D01*
X202764613Y-55442619D01*
X157234614Y-55442619D01*
X157235387Y-54557381D01*
X156895845Y-53735628D01*
X156267679Y-53106364D01*
X155446519Y-52765389D01*
X154557381Y-52764613D01*
X153735628Y-53104155D01*
X153106364Y-53732321D01*
X152765389Y-54553481D01*
X152764613Y-55442619D01*
X150710000Y-55442619D01*
X150710000Y-55069931D01*
X151049408Y-53363610D01*
X151976349Y-51976346D01*
X153363610Y-51049408D01*
X155069931Y-50710000D01*
X204930069Y-50710000D01*
X206636390Y-51049408D01*
M02*
