M48
;DRILL file {KiCad 4.0.6} date 06/07/18 20:03:51
;FORMAT={-:-/ absolute / metric / decimal}
FMAT,2
METRIC,TZ
T1C0.400
T2C0.600
T3C0.800
T4C1.000
T5C3.200
%
G90
G05
M71
T1
X160.846Y-81.386
X167.031Y-101.922
X168.821Y-70.248
X174.752Y-108.322
X176.137Y-88.434
X177.534Y-102.01
X181.852Y-111.37
X183.734Y-72.986
X185.56Y-94.2
X185.56Y-103.09
X192.634Y-125.658
X195.441Y-68.203
X198.095Y-134.497
T2
X159.881Y-72.986
X161.151Y-74.256
X162.421Y-72.986
X166.022Y-84.162
X166.025Y-79.989
X166.079Y-66.84
X166.087Y-62.497
X167.287Y-128.808
X167.287Y-133.11
X167.292Y-85.432
X167.295Y-78.719
X167.349Y-68.11
X167.357Y-61.227
X168.062Y-119.984
X168.062Y-122.524
X168.557Y-127.537
X168.557Y-134.38
X168.562Y-84.162
X168.565Y-79.989
X168.619Y-66.84
X168.627Y-62.497
X169.332Y-121.254
X169.827Y-128.808
X169.827Y-133.11
X172.131Y-72.938
X172.134Y-80.004
X172.146Y-84.157
X172.163Y-66.785
X172.957Y-122.465
X172.969Y-128.818
X173.401Y-74.208
X173.404Y-78.734
X173.416Y-85.427
X173.433Y-68.055
X174.227Y-121.195
X174.239Y-127.548
X174.671Y-72.938
X174.674Y-80.004
X174.686Y-84.157
X174.703Y-66.785
X175.497Y-122.465
X175.509Y-128.818
X177.849Y-82.026
X177.95Y-72.958
X178.57Y-122.442
X179.119Y-80.756
X179.119Y-83.296
X179.22Y-74.228
X179.571Y-112.01
X179.571Y-114.55
X179.84Y-121.172
X180.49Y-72.958
X180.841Y-113.28
X181.11Y-122.442
X183.684Y-66.729
X183.734Y-72.986
X184.168Y-115.076
X184.176Y-128.832
X184.178Y-122.432
X184.201Y-110.922
X184.954Y-67.999
X185.004Y-74.256
X185.438Y-116.346
X185.446Y-127.562
X185.448Y-121.162
X185.471Y-109.652
X186.224Y-66.729
X186.274Y-72.986
X186.708Y-115.076
X186.716Y-128.832
X186.718Y-122.432
X186.741Y-110.922
X189.318Y-62.563
X189.318Y-66.739
X189.601Y-74.045
X189.806Y-128.832
X189.836Y-110.922
X189.836Y-133.022
X189.837Y-115.072
X190.588Y-61.293
X190.588Y-68.009
X190.871Y-72.775
X190.871Y-75.315
X191.076Y-127.562
X191.106Y-109.652
X191.106Y-134.292
X191.107Y-116.342
X191.858Y-62.563
X191.858Y-66.739
X192.346Y-128.832
X192.376Y-110.922
X192.376Y-133.022
X192.377Y-115.072
X195.349Y-122.442
X196.619Y-121.172
X197.889Y-122.442
T3
X158.55Y-91.436
X159.081Y-58.429
X159.081Y-68.589
X159.096Y-78.267
X159.096Y-88.427
X159.401Y-113.179
X159.401Y-123.339
X162.611Y-58.335
X162.611Y-68.495
X162.644Y-78.333
X162.644Y-88.493
X162.763Y-127.22
X162.763Y-137.38
X162.835Y-113.232
X162.835Y-123.392
X165.69Y-111.741
X165.738Y-115.363
X167.531Y-72.117
X167.531Y-74.617
X168.71Y-91.436
X169.22Y-108.025
X169.245Y-99.933
X169.279Y-104.535
X169.355Y-95.264
X171.745Y-99.933
X173.02Y-59.46
X173.02Y-61.96
X173.345Y-136.887
X173.373Y-133.395
X175.712Y-58.902
X175.712Y-62.478
X175.85Y-111.741
X175.898Y-115.363
X178.114Y-68.288
X178.633Y-127.22
X179.38Y-108.025
X179.439Y-104.535
X179.515Y-95.264
X179.515Y-99.785
X179.543Y-87.522
X179.642Y-90.997
X180.614Y-68.288
X181.133Y-127.22
X182.471Y-79.999
X182.471Y-83.855
X183.505Y-136.887
X183.533Y-133.395
X185.872Y-58.902
X185.872Y-62.478
X186.505Y-133.577
X186.505Y-136.077
X187.348Y-95.422
X189.675Y-99.785
X189.703Y-87.522
X189.715Y-103.476
X189.802Y-90.997
X189.848Y-95.422
X191.135Y-120.735
X191.135Y-123.235
X192.631Y-79.999
X192.631Y-83.855
X195.85Y-127.146
X195.85Y-137.306
X195.964Y-106.582
X195.964Y-116.742
X196.027Y-73.761
X196.027Y-83.921
X196.072Y-60.871
X196.072Y-71.031
X199.428Y-106.582
X199.428Y-116.742
X199.604Y-73.761
X199.604Y-83.921
X199.802Y-127.182
X199.802Y-137.342
X199.875Y-103.476
T4
X160.62Y-95.706
X160.62Y-98.246
X160.62Y-100.786
X160.62Y-104.535
X160.62Y-107.075
X160.62Y-109.615
X197.94Y-91.8
X197.94Y-94.34
X197.94Y-96.88
T5
X155.Y-55.
X155.Y-140.
X205.Y-55.
X205.Y-140.
T0
M30
