M48
;DRILL file {KiCad 4.0.6} date 10/15/17 13:00:03
;FORMAT={-:-/ absolute / metric / decimal}
FMAT,2
METRIC,TZ
T1C0.400
T2C0.600
T3C0.800
T4C1.000
T5C3.200
%
G90
G05
M71
T1
X10.846Y63.614
X17.031Y43.078
X18.821Y74.752
X24.752Y36.678
X26.137Y56.566
X27.534Y42.989
X31.852Y33.63
X33.734Y72.014
X35.56Y50.8
X35.56Y41.91
X42.634Y19.342
X45.441Y76.797
X48.095Y10.503
T2
X9.881Y72.014
X11.151Y70.744
X12.421Y72.014
X16.022Y60.838
X16.025Y65.011
X16.079Y78.16
X16.087Y82.503
X17.287Y16.192
X17.287Y11.89
X17.292Y59.568
X17.295Y66.281
X17.349Y76.89
X17.357Y83.773
X18.062Y25.016
X18.062Y22.476
X18.557Y17.462
X18.557Y10.62
X18.562Y60.838
X18.565Y65.011
X18.619Y78.16
X18.627Y82.503
X19.332Y23.746
X19.827Y16.192
X19.827Y11.89
X22.131Y72.062
X22.134Y64.996
X22.146Y60.843
X22.163Y78.215
X22.957Y22.535
X22.969Y16.182
X23.401Y70.792
X23.404Y66.266
X23.416Y59.573
X23.433Y76.945
X24.227Y23.805
X24.239Y17.452
X24.671Y72.062
X24.674Y64.996
X24.686Y60.843
X24.703Y78.215
X25.497Y22.535
X25.509Y16.182
X27.849Y62.974
X27.95Y72.042
X28.57Y22.558
X29.119Y64.244
X29.119Y61.704
X29.22Y70.772
X29.571Y32.99
X29.571Y30.45
X29.84Y23.828
X30.49Y72.042
X30.841Y31.72
X31.11Y22.558
X33.684Y78.271
X33.734Y72.014
X34.168Y29.924
X34.176Y16.168
X34.178Y22.568
X34.201Y34.078
X34.954Y77.001
X35.004Y70.744
X35.438Y28.654
X35.446Y17.438
X35.448Y23.838
X35.471Y35.348
X36.224Y78.271
X36.274Y72.014
X36.708Y29.924
X36.716Y16.168
X36.718Y22.568
X36.741Y34.078
X39.318Y82.437
X39.318Y78.261
X39.601Y70.955
X39.806Y16.168
X39.836Y34.078
X39.836Y11.978
X39.837Y29.928
X40.588Y83.707
X40.588Y76.991
X40.871Y72.225
X40.871Y69.685
X41.076Y17.438
X41.106Y35.348
X41.106Y10.708
X41.107Y28.658
X41.858Y82.437
X41.858Y78.261
X42.346Y16.168
X42.376Y34.078
X42.376Y11.978
X42.377Y29.928
X45.349Y22.558
X46.619Y23.828
X47.889Y22.558
T3
X8.55Y53.564
X9.08Y86.571
X9.08Y76.411
X9.096Y66.733
X9.096Y56.573
X9.401Y31.821
X9.401Y21.661
X12.611Y86.665
X12.611Y76.505
X12.644Y66.667
X12.644Y56.507
X12.763Y17.78
X12.763Y7.62
X12.835Y31.768
X12.835Y21.608
X15.69Y33.259
X15.738Y29.637
X17.531Y72.883
X17.531Y70.383
X18.71Y53.564
X19.22Y36.975
X19.245Y45.067
X19.279Y40.465
X19.355Y49.736
X21.745Y45.067
X23.02Y85.54
X23.02Y83.04
X23.345Y8.113
X23.373Y11.605
X25.712Y86.098
X25.712Y82.522
X25.85Y33.259
X25.898Y29.637
X28.114Y76.712
X28.633Y17.78
X29.38Y36.975
X29.439Y40.465
X29.515Y49.736
X29.515Y45.215
X29.543Y57.478
X29.642Y54.003
X30.614Y76.712
X31.133Y17.78
X32.471Y65.001
X32.471Y61.145
X33.505Y8.113
X33.533Y11.605
X35.872Y86.098
X35.872Y82.522
X36.505Y11.423
X36.505Y8.923
X37.348Y49.578
X39.675Y45.215
X39.703Y57.478
X39.715Y41.524
X39.802Y54.003
X39.848Y49.578
X41.135Y24.265
X41.135Y21.765
X42.631Y65.001
X42.631Y61.145
X45.85Y17.854
X45.85Y7.694
X45.964Y38.417
X45.964Y28.258
X46.027Y71.239
X46.027Y61.079
X46.072Y84.129
X46.072Y73.969
X49.428Y38.417
X49.428Y28.258
X49.604Y71.239
X49.604Y61.079
X49.802Y17.818
X49.802Y7.658
X49.875Y41.524
T4
X10.62Y49.294
X10.62Y46.754
X10.62Y44.214
X10.62Y40.465
X10.62Y37.925
X10.62Y35.385
X47.94Y53.2
X47.94Y50.66
X47.94Y48.12
T5
X5.Y90.
X5.Y5.
X55.Y90.
X55.Y5.
T0
M30
