G04 #@! TF.FileFunction,Soldermask,Top*
%FSLAX46Y46*%
G04 Gerber Fmt 4.6, Leading zero omitted, Abs format (unit mm)*
G04 Created by KiCad (PCBNEW 4.0.6) date 10/15/17 12:58:51*
%MOMM*%
%LPD*%
G01*
G04 APERTURE LIST*
%ADD10C,0.100000*%
%ADD11C,1.400000*%
%ADD12R,1.400000X1.400000*%
%ADD13C,2.000000*%
%ADD14O,3.410000X1.910000*%
%ADD15O,2.000000X2.000000*%
%ADD16C,3.600000*%
G04 APERTURE END LIST*
D10*
D11*
X35438080Y28653740D03*
X34168080Y29923740D03*
D12*
X36708080Y29923740D03*
D13*
X21744940Y45067220D03*
X19244940Y45067220D03*
X37348160Y49578260D03*
X39848160Y49578260D03*
X41135300Y24264620D03*
X41135300Y21764620D03*
X17531080Y70383400D03*
X17531080Y72883400D03*
X28633420Y17780000D03*
X31133420Y17780000D03*
X28113990Y76711810D03*
X30613990Y76711810D03*
X36504880Y8923020D03*
X36504880Y11423020D03*
X23020020Y85539580D03*
X23020020Y83039580D03*
D14*
X10619740Y49293780D03*
X10619740Y46753780D03*
X10619740Y44213780D03*
X10619740Y40464740D03*
X10619740Y37924740D03*
X10619740Y35384740D03*
X47939960Y48120300D03*
X47939960Y50660300D03*
X47939960Y53200300D03*
D11*
X19331940Y23746460D03*
X18061940Y22476460D03*
D12*
X18061940Y25016460D03*
D11*
X39601140Y70954900D03*
X40871140Y72224900D03*
D12*
X40871140Y69684900D03*
D11*
X35471100Y35347640D03*
X36741100Y34077640D03*
D12*
X34201100Y34077640D03*
D11*
X23416260Y59573160D03*
X22146260Y60843160D03*
D12*
X24686260Y60843160D03*
D11*
X41105600Y35347640D03*
X42375600Y34077640D03*
D12*
X39835600Y34077640D03*
D11*
X17292320Y59568080D03*
X16022320Y60838080D03*
D12*
X18562320Y60838080D03*
D11*
X30840680Y31719520D03*
X29570680Y30449520D03*
D12*
X29570680Y32989520D03*
D11*
X27848560Y62974220D03*
X29118560Y64244220D03*
D12*
X29118560Y61704220D03*
D11*
X41107360Y28657640D03*
X39837360Y29927640D03*
D12*
X42377360Y29927640D03*
D11*
X17294860Y66281300D03*
X18564860Y65011300D03*
D12*
X16024860Y65011300D03*
D11*
X23403560Y66266060D03*
X24673560Y64996060D03*
D12*
X22133560Y64996060D03*
D11*
X46619160Y23827740D03*
X47889160Y22557740D03*
D12*
X45349160Y22557740D03*
D11*
X35448240Y23837900D03*
X36718240Y22567900D03*
D12*
X34178240Y22567900D03*
D11*
X29839920Y23827740D03*
X31109920Y22557740D03*
D12*
X28569920Y22557740D03*
D11*
X24226520Y23804880D03*
X25496520Y22534880D03*
D12*
X22956520Y22534880D03*
D11*
X11150600Y70744080D03*
X9880600Y72014080D03*
D12*
X12420600Y72014080D03*
D11*
X23401020Y70792340D03*
X22131020Y72062340D03*
D12*
X24671020Y72062340D03*
D11*
X29220160Y70772020D03*
X27950160Y72042020D03*
D12*
X30490160Y72042020D03*
D11*
X35003740Y70744080D03*
X33733740Y72014080D03*
D12*
X36273740Y72014080D03*
D11*
X35445600Y17437640D03*
X36715600Y16167640D03*
D12*
X34175600Y16167640D03*
D11*
X24239220Y17452340D03*
X25509220Y16182340D03*
D12*
X22969220Y16182340D03*
D11*
X23432770Y76945490D03*
X22162770Y78215490D03*
D12*
X24702770Y78215490D03*
D11*
X34954210Y77001370D03*
X33684210Y78271370D03*
D12*
X36224210Y78271370D03*
D11*
X41075600Y17437640D03*
X42345600Y16167640D03*
D12*
X39805600Y16167640D03*
D11*
X18557240Y17462500D03*
X19827240Y16192500D03*
D12*
X17287240Y16192500D03*
D11*
X17349470Y76889610D03*
X16079470Y78159610D03*
D12*
X18619470Y78159610D03*
D11*
X40587930Y76991210D03*
X39317930Y78261210D03*
D12*
X41857930Y78261210D03*
D11*
X41105600Y10707640D03*
X39835600Y11977640D03*
D12*
X42375600Y11977640D03*
D11*
X18557240Y10619740D03*
X17287240Y11889740D03*
D12*
X19827240Y11889740D03*
D11*
X17357090Y83773010D03*
X18627090Y82503010D03*
D12*
X16087090Y82503010D03*
D11*
X40587930Y83706970D03*
X41857930Y82436970D03*
D12*
X39317930Y82436970D03*
D13*
X19278600Y40464740D03*
D15*
X29438600Y40464740D03*
D13*
X39674800Y45214540D03*
D15*
X29514800Y45214540D03*
D13*
X39801800Y54002940D03*
D15*
X29641800Y54002940D03*
D13*
X19354800Y49735740D03*
D15*
X29514800Y49735740D03*
D13*
X25897840Y29636720D03*
D15*
X15737840Y29636720D03*
D13*
X12834620Y21607780D03*
D15*
X12834620Y31767780D03*
D13*
X32471360Y65001140D03*
D15*
X42631360Y65001140D03*
D13*
X46027340Y71239380D03*
D15*
X46027340Y61079380D03*
D13*
X29380180Y36974780D03*
D15*
X19220180Y36974780D03*
D13*
X29542740Y57477660D03*
D15*
X39702740Y57477660D03*
D13*
X49875440Y41523920D03*
D15*
X39715440Y41523920D03*
D13*
X8549640Y53563520D03*
D15*
X18709640Y53563520D03*
D13*
X25849580Y33258760D03*
D15*
X15689580Y33258760D03*
D13*
X32471360Y61145420D03*
D15*
X42631360Y61145420D03*
D13*
X49428400Y28257500D03*
D15*
X49428400Y38417500D03*
D13*
X9095740Y66733420D03*
D15*
X9095740Y56573420D03*
D13*
X49801780Y17818100D03*
D15*
X49801780Y7658100D03*
D13*
X9080500Y76410820D03*
D15*
X9080500Y86570820D03*
D13*
X45963840Y28257500D03*
D15*
X45963840Y38417500D03*
D13*
X9400540Y21661120D03*
D15*
X9400540Y31821120D03*
D13*
X12644120Y56507380D03*
D15*
X12644120Y66667380D03*
D13*
X49603660Y71239380D03*
D15*
X49603660Y61079380D03*
D13*
X45849540Y7693660D03*
D15*
X45849540Y17853660D03*
D13*
X12763500Y17780000D03*
D15*
X12763500Y7620000D03*
D13*
X12611100Y86664800D03*
D15*
X12611100Y76504800D03*
D13*
X46071790Y73968610D03*
D15*
X46071790Y84128610D03*
D13*
X23373080Y11605260D03*
D15*
X33533080Y11605260D03*
D13*
X35872420Y82522060D03*
D15*
X25712420Y82522060D03*
D13*
X23345140Y8112760D03*
D15*
X33505140Y8112760D03*
D13*
X35872420Y86098380D03*
D15*
X25712420Y86098380D03*
D16*
X55000000Y5000000D03*
X5000000Y5000000D03*
X5000000Y90000000D03*
X55000000Y90000000D03*
M02*
