G04 #@! TF.FileFunction,Legend,Top*
%FSLAX46Y46*%
G04 Gerber Fmt 4.6, Leading zero omitted, Abs format (unit mm)*
G04 Created by KiCad (PCBNEW 4.0.6) date 10/15/17 12:58:51*
%MOMM*%
%LPD*%
G01*
G04 APERTURE LIST*
%ADD10C,0.100000*%
%ADD11C,0.150000*%
%ADD12C,0.120000*%
%ADD13C,1.400000*%
%ADD14R,1.400000X1.400000*%
%ADD15C,2.000000*%
%ADD16O,3.410000X1.910000*%
%ADD17O,2.000000X2.000000*%
%ADD18C,3.600000*%
G04 APERTURE END LIST*
D10*
D11*
X53119048Y47547619D02*
X52642857Y47547619D01*
X52642857Y48547619D01*
X53595238Y47547619D02*
X53500000Y47595238D01*
X53452381Y47642857D01*
X53404762Y47738095D01*
X53404762Y48023810D01*
X53452381Y48119048D01*
X53500000Y48166667D01*
X53595238Y48214286D01*
X53738096Y48214286D01*
X53833334Y48166667D01*
X53880953Y48119048D01*
X53928572Y48023810D01*
X53928572Y47738095D01*
X53880953Y47642857D01*
X53833334Y47595238D01*
X53738096Y47547619D01*
X53595238Y47547619D01*
X54785715Y48214286D02*
X54785715Y47547619D01*
X54357143Y48214286D02*
X54357143Y47690476D01*
X54404762Y47595238D01*
X54500000Y47547619D01*
X54642858Y47547619D01*
X54738096Y47595238D01*
X54785715Y47642857D01*
X55119048Y48214286D02*
X55500000Y48214286D01*
X55261905Y48547619D02*
X55261905Y47690476D01*
X55309524Y47595238D01*
X55404762Y47547619D01*
X55500000Y47547619D01*
X53238096Y51000000D02*
X53142858Y51047619D01*
X53000001Y51047619D01*
X52857143Y51000000D01*
X52761905Y50904762D01*
X52714286Y50809524D01*
X52666667Y50619048D01*
X52666667Y50476190D01*
X52714286Y50285714D01*
X52761905Y50190476D01*
X52857143Y50095238D01*
X53000001Y50047619D01*
X53095239Y50047619D01*
X53238096Y50095238D01*
X53285715Y50142857D01*
X53285715Y50476190D01*
X53095239Y50476190D01*
X53714286Y50047619D02*
X53714286Y51047619D01*
X54285715Y50047619D01*
X54285715Y51047619D01*
X54761905Y50047619D02*
X54761905Y51047619D01*
X55000000Y51047619D01*
X55142858Y51000000D01*
X55238096Y50904762D01*
X55285715Y50809524D01*
X55333334Y50619048D01*
X55333334Y50476190D01*
X55285715Y50285714D01*
X55238096Y50190476D01*
X55142858Y50095238D01*
X55000000Y50047619D01*
X54761905Y50047619D01*
X53119048Y52797619D02*
X52785714Y53273810D01*
X52547619Y52797619D02*
X52547619Y53797619D01*
X52928572Y53797619D01*
X53023810Y53750000D01*
X53071429Y53702381D01*
X53119048Y53607143D01*
X53119048Y53464286D01*
X53071429Y53369048D01*
X53023810Y53321429D01*
X52928572Y53273810D01*
X52547619Y53273810D01*
X53690476Y52797619D02*
X53595238Y52845238D01*
X53547619Y52892857D01*
X53500000Y52988095D01*
X53500000Y53273810D01*
X53547619Y53369048D01*
X53595238Y53416667D01*
X53690476Y53464286D01*
X53833334Y53464286D01*
X53928572Y53416667D01*
X53976191Y53369048D01*
X54023810Y53273810D01*
X54023810Y52988095D01*
X53976191Y52892857D01*
X53928572Y52845238D01*
X53833334Y52797619D01*
X53690476Y52797619D01*
X54880953Y53464286D02*
X54880953Y52797619D01*
X54452381Y53464286D02*
X54452381Y52940476D01*
X54500000Y52845238D01*
X54595238Y52797619D01*
X54738096Y52797619D01*
X54833334Y52845238D01*
X54880953Y52892857D01*
X55214286Y53464286D02*
X55595238Y53464286D01*
X55357143Y53797619D02*
X55357143Y52940476D01*
X55404762Y52845238D01*
X55500000Y52797619D01*
X55595238Y52797619D01*
X4238096Y47250000D02*
X4142858Y47297619D01*
X4000001Y47297619D01*
X3857143Y47250000D01*
X3761905Y47154762D01*
X3714286Y47059524D01*
X3666667Y46869048D01*
X3666667Y46726190D01*
X3714286Y46535714D01*
X3761905Y46440476D01*
X3857143Y46345238D01*
X4000001Y46297619D01*
X4095239Y46297619D01*
X4238096Y46345238D01*
X4285715Y46392857D01*
X4285715Y46726190D01*
X4095239Y46726190D01*
X4714286Y46297619D02*
X4714286Y47297619D01*
X5285715Y46297619D01*
X5285715Y47297619D01*
X5761905Y46297619D02*
X5761905Y47297619D01*
X6000000Y47297619D01*
X6142858Y47250000D01*
X6238096Y47154762D01*
X6285715Y47059524D01*
X6333334Y46869048D01*
X6333334Y46726190D01*
X6285715Y46535714D01*
X6238096Y46440476D01*
X6142858Y46345238D01*
X6000000Y46297619D01*
X5761905Y46297619D01*
X4619048Y43797619D02*
X4285714Y44273810D01*
X4047619Y43797619D02*
X4047619Y44797619D01*
X4428572Y44797619D01*
X4523810Y44750000D01*
X4571429Y44702381D01*
X4619048Y44607143D01*
X4619048Y44464286D01*
X4571429Y44369048D01*
X4523810Y44321429D01*
X4428572Y44273810D01*
X4047619Y44273810D01*
X5047619Y43797619D02*
X5047619Y44464286D01*
X5047619Y44797619D02*
X5000000Y44750000D01*
X5047619Y44702381D01*
X5095238Y44750000D01*
X5047619Y44797619D01*
X5047619Y44702381D01*
X5523809Y44464286D02*
X5523809Y43797619D01*
X5523809Y44369048D02*
X5571428Y44416667D01*
X5666666Y44464286D01*
X5809524Y44464286D01*
X5904762Y44416667D01*
X5952381Y44321429D01*
X5952381Y43797619D01*
X4619048Y49047619D02*
X4142857Y49047619D01*
X4142857Y50047619D01*
X4952381Y49047619D02*
X4952381Y49714286D01*
X4952381Y50047619D02*
X4904762Y50000000D01*
X4952381Y49952381D01*
X5000000Y50000000D01*
X4952381Y50047619D01*
X4952381Y49952381D01*
X5428571Y49714286D02*
X5428571Y49047619D01*
X5428571Y49619048D02*
X5476190Y49666667D01*
X5571428Y49714286D01*
X5714286Y49714286D01*
X5809524Y49666667D01*
X5857143Y49571429D01*
X5857143Y49047619D01*
X4190476Y40428571D02*
X4952381Y40428571D01*
X4571429Y40047619D02*
X4571429Y40809524D01*
X5285714Y41047619D02*
X5619047Y40047619D01*
X5952381Y41047619D01*
X4190476Y35428571D02*
X4952381Y35428571D01*
X5285714Y36047619D02*
X5619047Y35047619D01*
X5952381Y36047619D01*
X4238096Y38500000D02*
X4142858Y38547619D01*
X4000001Y38547619D01*
X3857143Y38500000D01*
X3761905Y38404762D01*
X3714286Y38309524D01*
X3666667Y38119048D01*
X3666667Y37976190D01*
X3714286Y37785714D01*
X3761905Y37690476D01*
X3857143Y37595238D01*
X4000001Y37547619D01*
X4095239Y37547619D01*
X4238096Y37595238D01*
X4285715Y37642857D01*
X4285715Y37976190D01*
X4095239Y37976190D01*
X4714286Y37547619D02*
X4714286Y38547619D01*
X5285715Y37547619D01*
X5285715Y38547619D01*
X5761905Y37547619D02*
X5761905Y38547619D01*
X6000000Y38547619D01*
X6142858Y38500000D01*
X6238096Y38404762D01*
X6285715Y38309524D01*
X6333334Y38119048D01*
X6333334Y37976190D01*
X6285715Y37785714D01*
X6238096Y37690476D01*
X6142858Y37595238D01*
X6000000Y37547619D01*
X5761905Y37547619D01*
X4238096Y38500000D02*
X4142858Y38547619D01*
X4000001Y38547619D01*
X3857143Y38500000D01*
X3761905Y38404762D01*
X3714286Y38309524D01*
X3666667Y38119048D01*
X3666667Y37976190D01*
X3714286Y37785714D01*
X3761905Y37690476D01*
X3857143Y37595238D01*
X4000001Y37547619D01*
X4095239Y37547619D01*
X4238096Y37595238D01*
X4285715Y37642857D01*
X4285715Y37976190D01*
X4095239Y37976190D01*
X4714286Y37547619D02*
X4714286Y38547619D01*
X5285715Y37547619D01*
X5285715Y38547619D01*
X5761905Y37547619D02*
X5761905Y38547619D01*
X6000000Y38547619D01*
X6142858Y38500000D01*
X6238096Y38404762D01*
X6285715Y38309524D01*
X6333334Y38119048D01*
X6333334Y37976190D01*
X6285715Y37785714D01*
X6238096Y37690476D01*
X6142858Y37595238D01*
X6000000Y37547619D01*
X5761905Y37547619D01*
X4190476Y35428571D02*
X4952381Y35428571D01*
X5285714Y36047619D02*
X5619047Y35047619D01*
X5952381Y36047619D01*
X4190476Y40428571D02*
X4952381Y40428571D01*
X4571429Y40047619D02*
X4571429Y40809524D01*
X5285714Y41047619D02*
X5619047Y40047619D01*
X5952381Y41047619D01*
D12*
X37238080Y31773740D02*
X33638080Y31773740D01*
X37276558Y31762218D02*
G75*
G02X35438080Y27323740I-1838478J-1838478D01*
G01*
X33599602Y31762218D02*
G75*
G03X35438080Y27323740I1838478J-1838478D01*
G01*
X21081940Y44206220D02*
X19907940Y44206220D01*
X21081940Y45928220D02*
X19907940Y45928220D01*
X38011160Y50439260D02*
X39185160Y50439260D01*
X38011160Y48717260D02*
X39185160Y48717260D01*
X41996300Y23601620D02*
X41996300Y22427620D01*
X40274300Y23601620D02*
X40274300Y22427620D01*
X16670080Y71046400D02*
X16670080Y72220400D01*
X18392080Y71046400D02*
X18392080Y72220400D01*
X29296420Y18641000D02*
X30470420Y18641000D01*
X29296420Y16919000D02*
X30470420Y16919000D01*
X28776990Y77572810D02*
X29950990Y77572810D01*
X28776990Y75850810D02*
X29950990Y75850810D01*
X35643880Y9586020D02*
X35643880Y10760020D01*
X37365880Y9586020D02*
X37365880Y10760020D01*
X23881020Y84876580D02*
X23881020Y83702580D01*
X22159020Y84876580D02*
X22159020Y83702580D01*
X13789740Y50563780D02*
X7449740Y50563780D01*
X13789740Y42943780D02*
X7449740Y42943780D01*
X11889740Y42943780D02*
X11889740Y50563780D01*
X13789740Y50563780D02*
X13789740Y42943780D01*
X7449740Y42943780D02*
X7449740Y50563780D01*
X13789740Y41734740D02*
X7449740Y41734740D01*
X13789740Y34114740D02*
X7449740Y34114740D01*
X11889740Y34114740D02*
X11889740Y41734740D01*
X13789740Y41734740D02*
X13789740Y34114740D01*
X7449740Y34114740D02*
X7449740Y41734740D01*
X44769960Y46850300D02*
X51109960Y46850300D01*
X44769960Y54470300D02*
X51109960Y54470300D01*
X46669960Y54470300D02*
X46669960Y46850300D01*
X44769960Y46850300D02*
X44769960Y54470300D01*
X51109960Y54470300D02*
X51109960Y46850300D01*
X16211940Y25546460D02*
X16211940Y21946460D01*
X16223462Y25584938D02*
G75*
G02X20661940Y23746460I1838478J-1838478D01*
G01*
X16223462Y21907982D02*
G75*
G03X20661940Y23746460I1838478J1838478D01*
G01*
X42721140Y69154900D02*
X42721140Y72754900D01*
X42709618Y69116422D02*
G75*
G02X38271140Y70954900I-1838478J1838478D01*
G01*
X42709618Y72793378D02*
G75*
G03X38271140Y70954900I-1838478J-1838478D01*
G01*
X33671100Y32227640D02*
X37271100Y32227640D01*
X33632622Y32239162D02*
G75*
G02X35471100Y36677640I1838478J1838478D01*
G01*
X37309578Y32239162D02*
G75*
G03X35471100Y36677640I-1838478J1838478D01*
G01*
X25216260Y62693160D02*
X21616260Y62693160D01*
X25254738Y62681638D02*
G75*
G02X23416260Y58243160I-1838478J-1838478D01*
G01*
X21577782Y62681638D02*
G75*
G03X23416260Y58243160I1838478J-1838478D01*
G01*
X39305600Y32227640D02*
X42905600Y32227640D01*
X39267122Y32239162D02*
G75*
G02X41105600Y36677640I1838478J1838478D01*
G01*
X42944078Y32239162D02*
G75*
G03X41105600Y36677640I-1838478J1838478D01*
G01*
X19092320Y62688080D02*
X15492320Y62688080D01*
X19130798Y62676558D02*
G75*
G02X17292320Y58238080I-1838478J-1838478D01*
G01*
X15453842Y62676558D02*
G75*
G03X17292320Y58238080I1838478J-1838478D01*
G01*
X27720680Y33519520D02*
X27720680Y29919520D01*
X27732202Y33557998D02*
G75*
G02X32170680Y31719520I1838478J-1838478D01*
G01*
X27732202Y29881042D02*
G75*
G03X32170680Y31719520I1838478J1838478D01*
G01*
X30968560Y61174220D02*
X30968560Y64774220D01*
X30957038Y61135742D02*
G75*
G02X26518560Y62974220I-1838478J1838478D01*
G01*
X30957038Y64812698D02*
G75*
G03X26518560Y62974220I-1838478J-1838478D01*
G01*
X42907360Y31777640D02*
X39307360Y31777640D01*
X42945838Y31766118D02*
G75*
G02X41107360Y27327640I-1838478J-1838478D01*
G01*
X39268882Y31766118D02*
G75*
G03X41107360Y27327640I1838478J-1838478D01*
G01*
X15494860Y63161300D02*
X19094860Y63161300D01*
X15456382Y63172822D02*
G75*
G02X17294860Y67611300I1838478J1838478D01*
G01*
X19133338Y63172822D02*
G75*
G03X17294860Y67611300I-1838478J1838478D01*
G01*
X21603560Y63146060D02*
X25203560Y63146060D01*
X21565082Y63157582D02*
G75*
G02X23403560Y67596060I1838478J1838478D01*
G01*
X25242038Y63157582D02*
G75*
G03X23403560Y67596060I-1838478J1838478D01*
G01*
X44819160Y20707740D02*
X48419160Y20707740D01*
X44780682Y20719262D02*
G75*
G02X46619160Y25157740I1838478J1838478D01*
G01*
X48457638Y20719262D02*
G75*
G03X46619160Y25157740I-1838478J1838478D01*
G01*
X33648240Y20717900D02*
X37248240Y20717900D01*
X33609762Y20729422D02*
G75*
G02X35448240Y25167900I1838478J1838478D01*
G01*
X37286718Y20729422D02*
G75*
G03X35448240Y25167900I-1838478J1838478D01*
G01*
X28039920Y20707740D02*
X31639920Y20707740D01*
X28001442Y20719262D02*
G75*
G02X29839920Y25157740I1838478J1838478D01*
G01*
X31678398Y20719262D02*
G75*
G03X29839920Y25157740I-1838478J1838478D01*
G01*
X22426520Y20684880D02*
X26026520Y20684880D01*
X22388042Y20696402D02*
G75*
G02X24226520Y25134880I1838478J1838478D01*
G01*
X26064998Y20696402D02*
G75*
G03X24226520Y25134880I-1838478J1838478D01*
G01*
X12950600Y73864080D02*
X9350600Y73864080D01*
X12989078Y73852558D02*
G75*
G02X11150600Y69414080I-1838478J-1838478D01*
G01*
X9312122Y73852558D02*
G75*
G03X11150600Y69414080I1838478J-1838478D01*
G01*
X25201020Y73912340D02*
X21601020Y73912340D01*
X25239498Y73900818D02*
G75*
G02X23401020Y69462340I-1838478J-1838478D01*
G01*
X21562542Y73900818D02*
G75*
G03X23401020Y69462340I1838478J-1838478D01*
G01*
X31020160Y73892020D02*
X27420160Y73892020D01*
X31058638Y73880498D02*
G75*
G02X29220160Y69442020I-1838478J-1838478D01*
G01*
X27381682Y73880498D02*
G75*
G03X29220160Y69442020I1838478J-1838478D01*
G01*
X36803740Y73864080D02*
X33203740Y73864080D01*
X36842218Y73852558D02*
G75*
G02X35003740Y69414080I-1838478J-1838478D01*
G01*
X33165262Y73852558D02*
G75*
G03X35003740Y69414080I1838478J-1838478D01*
G01*
X33645600Y14317640D02*
X37245600Y14317640D01*
X33607122Y14329162D02*
G75*
G02X35445600Y18767640I1838478J1838478D01*
G01*
X37284078Y14329162D02*
G75*
G03X35445600Y18767640I-1838478J1838478D01*
G01*
X22439220Y14332340D02*
X26039220Y14332340D01*
X22400742Y14343862D02*
G75*
G02X24239220Y18782340I1838478J1838478D01*
G01*
X26077698Y14343862D02*
G75*
G03X24239220Y18782340I-1838478J1838478D01*
G01*
X25232770Y80065490D02*
X21632770Y80065490D01*
X25271248Y80053968D02*
G75*
G02X23432770Y75615490I-1838478J-1838478D01*
G01*
X21594292Y80053968D02*
G75*
G03X23432770Y75615490I1838478J-1838478D01*
G01*
X36754210Y80121370D02*
X33154210Y80121370D01*
X36792688Y80109848D02*
G75*
G02X34954210Y75671370I-1838478J-1838478D01*
G01*
X33115732Y80109848D02*
G75*
G03X34954210Y75671370I1838478J-1838478D01*
G01*
X39275600Y14317640D02*
X42875600Y14317640D01*
X39237122Y14329162D02*
G75*
G02X41075600Y18767640I1838478J1838478D01*
G01*
X42914078Y14329162D02*
G75*
G03X41075600Y18767640I-1838478J1838478D01*
G01*
X16757240Y14342500D02*
X20357240Y14342500D01*
X16718762Y14354022D02*
G75*
G02X18557240Y18792500I1838478J1838478D01*
G01*
X20395718Y14354022D02*
G75*
G03X18557240Y18792500I-1838478J1838478D01*
G01*
X19149470Y80009610D02*
X15549470Y80009610D01*
X19187948Y79998088D02*
G75*
G02X17349470Y75559610I-1838478J-1838478D01*
G01*
X15510992Y79998088D02*
G75*
G03X17349470Y75559610I1838478J-1838478D01*
G01*
X42387930Y80111210D02*
X38787930Y80111210D01*
X42426408Y80099688D02*
G75*
G02X40587930Y75661210I-1838478J-1838478D01*
G01*
X38749452Y80099688D02*
G75*
G03X40587930Y75661210I1838478J-1838478D01*
G01*
X42905600Y13827640D02*
X39305600Y13827640D01*
X42944078Y13816118D02*
G75*
G02X41105600Y9377640I-1838478J-1838478D01*
G01*
X39267122Y13816118D02*
G75*
G03X41105600Y9377640I1838478J-1838478D01*
G01*
X20357240Y13739740D02*
X16757240Y13739740D01*
X20395718Y13728218D02*
G75*
G02X18557240Y9289740I-1838478J-1838478D01*
G01*
X16718762Y13728218D02*
G75*
G03X18557240Y9289740I1838478J-1838478D01*
G01*
X15557090Y80653010D02*
X19157090Y80653010D01*
X15518612Y80664532D02*
G75*
G02X17357090Y85103010I1838478J1838478D01*
G01*
X19195568Y80664532D02*
G75*
G03X17357090Y85103010I-1838478J1838478D01*
G01*
X38787930Y80586970D02*
X42387930Y80586970D01*
X38749452Y80598492D02*
G75*
G02X40587930Y85036970I1838478J1838478D01*
G01*
X42426408Y80598492D02*
G75*
G03X40587930Y85036970I-1838478J1838478D01*
G01*
X21148600Y41774740D02*
X21148600Y39154740D01*
X21148600Y39154740D02*
X27568600Y39154740D01*
X27568600Y39154740D02*
X27568600Y41774740D01*
X27568600Y41774740D02*
X21148600Y41774740D01*
X20258600Y40464740D02*
X21148600Y40464740D01*
X28458600Y40464740D02*
X27568600Y40464740D01*
X37804800Y43904540D02*
X37804800Y46524540D01*
X37804800Y46524540D02*
X31384800Y46524540D01*
X31384800Y46524540D02*
X31384800Y43904540D01*
X31384800Y43904540D02*
X37804800Y43904540D01*
X38694800Y45214540D02*
X37804800Y45214540D01*
X30494800Y45214540D02*
X31384800Y45214540D01*
X37931800Y52692940D02*
X37931800Y55312940D01*
X37931800Y55312940D02*
X31511800Y55312940D01*
X31511800Y55312940D02*
X31511800Y52692940D01*
X31511800Y52692940D02*
X37931800Y52692940D01*
X38821800Y54002940D02*
X37931800Y54002940D01*
X30621800Y54002940D02*
X31511800Y54002940D01*
X21224800Y51045740D02*
X21224800Y48425740D01*
X21224800Y48425740D02*
X27644800Y48425740D01*
X27644800Y48425740D02*
X27644800Y51045740D01*
X27644800Y51045740D02*
X21224800Y51045740D01*
X20334800Y49735740D02*
X21224800Y49735740D01*
X28534800Y49735740D02*
X27644800Y49735740D01*
X24027840Y28326720D02*
X24027840Y30946720D01*
X24027840Y30946720D02*
X17607840Y30946720D01*
X17607840Y30946720D02*
X17607840Y28326720D01*
X17607840Y28326720D02*
X24027840Y28326720D01*
X24917840Y29636720D02*
X24027840Y29636720D01*
X16717840Y29636720D02*
X17607840Y29636720D01*
X11524620Y23477780D02*
X14144620Y23477780D01*
X14144620Y23477780D02*
X14144620Y29897780D01*
X14144620Y29897780D02*
X11524620Y29897780D01*
X11524620Y29897780D02*
X11524620Y23477780D01*
X12834620Y22587780D02*
X12834620Y23477780D01*
X12834620Y30787780D02*
X12834620Y29897780D01*
X34341360Y66311140D02*
X34341360Y63691140D01*
X34341360Y63691140D02*
X40761360Y63691140D01*
X40761360Y63691140D02*
X40761360Y66311140D01*
X40761360Y66311140D02*
X34341360Y66311140D01*
X33451360Y65001140D02*
X34341360Y65001140D01*
X41651360Y65001140D02*
X40761360Y65001140D01*
X47337340Y69369380D02*
X44717340Y69369380D01*
X44717340Y69369380D02*
X44717340Y62949380D01*
X44717340Y62949380D02*
X47337340Y62949380D01*
X47337340Y62949380D02*
X47337340Y69369380D01*
X46027340Y70259380D02*
X46027340Y69369380D01*
X46027340Y62059380D02*
X46027340Y62949380D01*
X27510180Y35664780D02*
X27510180Y38284780D01*
X27510180Y38284780D02*
X21090180Y38284780D01*
X21090180Y38284780D02*
X21090180Y35664780D01*
X21090180Y35664780D02*
X27510180Y35664780D01*
X28400180Y36974780D02*
X27510180Y36974780D01*
X20200180Y36974780D02*
X21090180Y36974780D01*
X31412740Y58787660D02*
X31412740Y56167660D01*
X31412740Y56167660D02*
X37832740Y56167660D01*
X37832740Y56167660D02*
X37832740Y58787660D01*
X37832740Y58787660D02*
X31412740Y58787660D01*
X30522740Y57477660D02*
X31412740Y57477660D01*
X38722740Y57477660D02*
X37832740Y57477660D01*
X48005440Y40213920D02*
X48005440Y42833920D01*
X48005440Y42833920D02*
X41585440Y42833920D01*
X41585440Y42833920D02*
X41585440Y40213920D01*
X41585440Y40213920D02*
X48005440Y40213920D01*
X48895440Y41523920D02*
X48005440Y41523920D01*
X40695440Y41523920D02*
X41585440Y41523920D01*
X10419640Y54873520D02*
X10419640Y52253520D01*
X10419640Y52253520D02*
X16839640Y52253520D01*
X16839640Y52253520D02*
X16839640Y54873520D01*
X16839640Y54873520D02*
X10419640Y54873520D01*
X9529640Y53563520D02*
X10419640Y53563520D01*
X17729640Y53563520D02*
X16839640Y53563520D01*
X23979580Y31948760D02*
X23979580Y34568760D01*
X23979580Y34568760D02*
X17559580Y34568760D01*
X17559580Y34568760D02*
X17559580Y31948760D01*
X17559580Y31948760D02*
X23979580Y31948760D01*
X24869580Y33258760D02*
X23979580Y33258760D01*
X16669580Y33258760D02*
X17559580Y33258760D01*
X34341360Y62455420D02*
X34341360Y59835420D01*
X34341360Y59835420D02*
X40761360Y59835420D01*
X40761360Y59835420D02*
X40761360Y62455420D01*
X40761360Y62455420D02*
X34341360Y62455420D01*
X33451360Y61145420D02*
X34341360Y61145420D01*
X41651360Y61145420D02*
X40761360Y61145420D01*
X48118400Y30127500D02*
X50738400Y30127500D01*
X50738400Y30127500D02*
X50738400Y36547500D01*
X50738400Y36547500D02*
X48118400Y36547500D01*
X48118400Y36547500D02*
X48118400Y30127500D01*
X49428400Y29237500D02*
X49428400Y30127500D01*
X49428400Y37437500D02*
X49428400Y36547500D01*
X10405740Y64863420D02*
X7785740Y64863420D01*
X7785740Y64863420D02*
X7785740Y58443420D01*
X7785740Y58443420D02*
X10405740Y58443420D01*
X10405740Y58443420D02*
X10405740Y64863420D01*
X9095740Y65753420D02*
X9095740Y64863420D01*
X9095740Y57553420D02*
X9095740Y58443420D01*
X51111780Y15948100D02*
X48491780Y15948100D01*
X48491780Y15948100D02*
X48491780Y9528100D01*
X48491780Y9528100D02*
X51111780Y9528100D01*
X51111780Y9528100D02*
X51111780Y15948100D01*
X49801780Y16838100D02*
X49801780Y15948100D01*
X49801780Y8638100D02*
X49801780Y9528100D01*
X7770500Y78280820D02*
X10390500Y78280820D01*
X10390500Y78280820D02*
X10390500Y84700820D01*
X10390500Y84700820D02*
X7770500Y84700820D01*
X7770500Y84700820D02*
X7770500Y78280820D01*
X9080500Y77390820D02*
X9080500Y78280820D01*
X9080500Y85590820D02*
X9080500Y84700820D01*
X44653840Y30127500D02*
X47273840Y30127500D01*
X47273840Y30127500D02*
X47273840Y36547500D01*
X47273840Y36547500D02*
X44653840Y36547500D01*
X44653840Y36547500D02*
X44653840Y30127500D01*
X45963840Y29237500D02*
X45963840Y30127500D01*
X45963840Y37437500D02*
X45963840Y36547500D01*
X8090540Y23531120D02*
X10710540Y23531120D01*
X10710540Y23531120D02*
X10710540Y29951120D01*
X10710540Y29951120D02*
X8090540Y29951120D01*
X8090540Y29951120D02*
X8090540Y23531120D01*
X9400540Y22641120D02*
X9400540Y23531120D01*
X9400540Y30841120D02*
X9400540Y29951120D01*
X11334120Y58377380D02*
X13954120Y58377380D01*
X13954120Y58377380D02*
X13954120Y64797380D01*
X13954120Y64797380D02*
X11334120Y64797380D01*
X11334120Y64797380D02*
X11334120Y58377380D01*
X12644120Y57487380D02*
X12644120Y58377380D01*
X12644120Y65687380D02*
X12644120Y64797380D01*
X50913660Y69369380D02*
X48293660Y69369380D01*
X48293660Y69369380D02*
X48293660Y62949380D01*
X48293660Y62949380D02*
X50913660Y62949380D01*
X50913660Y62949380D02*
X50913660Y69369380D01*
X49603660Y70259380D02*
X49603660Y69369380D01*
X49603660Y62059380D02*
X49603660Y62949380D01*
X44539540Y9563660D02*
X47159540Y9563660D01*
X47159540Y9563660D02*
X47159540Y15983660D01*
X47159540Y15983660D02*
X44539540Y15983660D01*
X44539540Y15983660D02*
X44539540Y9563660D01*
X45849540Y8673660D02*
X45849540Y9563660D01*
X45849540Y16873660D02*
X45849540Y15983660D01*
X14073500Y15910000D02*
X11453500Y15910000D01*
X11453500Y15910000D02*
X11453500Y9490000D01*
X11453500Y9490000D02*
X14073500Y9490000D01*
X14073500Y9490000D02*
X14073500Y15910000D01*
X12763500Y16800000D02*
X12763500Y15910000D01*
X12763500Y8600000D02*
X12763500Y9490000D01*
X13921100Y84794800D02*
X11301100Y84794800D01*
X11301100Y84794800D02*
X11301100Y78374800D01*
X11301100Y78374800D02*
X13921100Y78374800D01*
X13921100Y78374800D02*
X13921100Y84794800D01*
X12611100Y85684800D02*
X12611100Y84794800D01*
X12611100Y77484800D02*
X12611100Y78374800D01*
X44761790Y75838610D02*
X47381790Y75838610D01*
X47381790Y75838610D02*
X47381790Y82258610D01*
X47381790Y82258610D02*
X44761790Y82258610D01*
X44761790Y82258610D02*
X44761790Y75838610D01*
X46071790Y74948610D02*
X46071790Y75838610D01*
X46071790Y83148610D02*
X46071790Y82258610D01*
X25243080Y12915260D02*
X25243080Y10295260D01*
X25243080Y10295260D02*
X31663080Y10295260D01*
X31663080Y10295260D02*
X31663080Y12915260D01*
X31663080Y12915260D02*
X25243080Y12915260D01*
X24353080Y11605260D02*
X25243080Y11605260D01*
X32553080Y11605260D02*
X31663080Y11605260D01*
X34002420Y81212060D02*
X34002420Y83832060D01*
X34002420Y83832060D02*
X27582420Y83832060D01*
X27582420Y83832060D02*
X27582420Y81212060D01*
X27582420Y81212060D02*
X34002420Y81212060D01*
X34892420Y82522060D02*
X34002420Y82522060D01*
X26692420Y82522060D02*
X27582420Y82522060D01*
X25215140Y9422760D02*
X25215140Y6802760D01*
X25215140Y6802760D02*
X31635140Y6802760D01*
X31635140Y6802760D02*
X31635140Y9422760D01*
X31635140Y9422760D02*
X25215140Y9422760D01*
X24325140Y8112760D02*
X25215140Y8112760D01*
X32525140Y8112760D02*
X31635140Y8112760D01*
X34002420Y84788380D02*
X34002420Y87408380D01*
X34002420Y87408380D02*
X27582420Y87408380D01*
X27582420Y87408380D02*
X27582420Y84788380D01*
X27582420Y84788380D02*
X34002420Y84788380D01*
X34892420Y86098380D02*
X34002420Y86098380D01*
X26692420Y86098380D02*
X27582420Y86098380D01*
D11*
X32804172Y26036021D02*
X32708934Y26083640D01*
X32613696Y26178878D01*
X32470839Y26321735D01*
X32375600Y26369354D01*
X32280362Y26369354D01*
X32327981Y26131259D02*
X32232743Y26178878D01*
X32137505Y26274116D01*
X32089886Y26464592D01*
X32089886Y26797926D01*
X32137505Y26988402D01*
X32232743Y27083640D01*
X32327981Y27131259D01*
X32518458Y27131259D01*
X32613696Y27083640D01*
X32708934Y26988402D01*
X32756553Y26797926D01*
X32756553Y26464592D01*
X32708934Y26274116D01*
X32613696Y26178878D01*
X32518458Y26131259D01*
X32327981Y26131259D01*
X33708934Y26131259D02*
X33137505Y26131259D01*
X33423219Y26131259D02*
X33423219Y27131259D01*
X33327981Y26988402D01*
X33232743Y26893164D01*
X33137505Y26845545D01*
X34661315Y26131259D02*
X34089886Y26131259D01*
X34375600Y26131259D02*
X34375600Y27131259D01*
X34280362Y26988402D01*
X34185124Y26893164D01*
X34089886Y26845545D01*
X20328274Y42600077D02*
X20280655Y42552458D01*
X20137798Y42504839D01*
X20042560Y42504839D01*
X19899702Y42552458D01*
X19804464Y42647696D01*
X19756845Y42742934D01*
X19709226Y42933410D01*
X19709226Y43076268D01*
X19756845Y43266744D01*
X19804464Y43361982D01*
X19899702Y43457220D01*
X20042560Y43504839D01*
X20137798Y43504839D01*
X20280655Y43457220D01*
X20328274Y43409601D01*
X21280655Y42504839D02*
X20709226Y42504839D01*
X20994940Y42504839D02*
X20994940Y43504839D01*
X20899702Y43361982D01*
X20804464Y43266744D01*
X20709226Y43219125D01*
X38431494Y51331117D02*
X38383875Y51283498D01*
X38241018Y51235879D01*
X38145780Y51235879D01*
X38002922Y51283498D01*
X37907684Y51378736D01*
X37860065Y51473974D01*
X37812446Y51664450D01*
X37812446Y51807308D01*
X37860065Y51997784D01*
X37907684Y52093022D01*
X38002922Y52188260D01*
X38145780Y52235879D01*
X38241018Y52235879D01*
X38383875Y52188260D01*
X38431494Y52140641D01*
X38812446Y52140641D02*
X38860065Y52188260D01*
X38955303Y52235879D01*
X39193399Y52235879D01*
X39288637Y52188260D01*
X39336256Y52140641D01*
X39383875Y52045403D01*
X39383875Y51950165D01*
X39336256Y51807308D01*
X38764827Y51235879D01*
X39383875Y51235879D01*
X39382443Y22848274D02*
X39430062Y22800655D01*
X39477681Y22657798D01*
X39477681Y22562560D01*
X39430062Y22419702D01*
X39334824Y22324464D01*
X39239586Y22276845D01*
X39049110Y22229226D01*
X38906252Y22229226D01*
X38715776Y22276845D01*
X38620538Y22324464D01*
X38525300Y22419702D01*
X38477681Y22562560D01*
X38477681Y22657798D01*
X38525300Y22800655D01*
X38572919Y22848274D01*
X38477681Y23181607D02*
X38477681Y23800655D01*
X38858633Y23467321D01*
X38858633Y23610179D01*
X38906252Y23705417D01*
X38953871Y23753036D01*
X39049110Y23800655D01*
X39287205Y23800655D01*
X39382443Y23753036D01*
X39430062Y23705417D01*
X39477681Y23610179D01*
X39477681Y23324464D01*
X39430062Y23229226D01*
X39382443Y23181607D01*
X16115303Y71471494D02*
X16162922Y71423875D01*
X16210541Y71281018D01*
X16210541Y71185780D01*
X16162922Y71042922D01*
X16067684Y70947684D01*
X15972446Y70900065D01*
X15781970Y70852446D01*
X15639112Y70852446D01*
X15448636Y70900065D01*
X15353398Y70947684D01*
X15258160Y71042922D01*
X15210541Y71185780D01*
X15210541Y71281018D01*
X15258160Y71423875D01*
X15305779Y71471494D01*
X15543874Y72328637D02*
X16210541Y72328637D01*
X15162922Y72090541D02*
X15877208Y71852446D01*
X15877208Y72471494D01*
X29716754Y19422857D02*
X29669135Y19375238D01*
X29526278Y19327619D01*
X29431040Y19327619D01*
X29288182Y19375238D01*
X29192944Y19470476D01*
X29145325Y19565714D01*
X29097706Y19756190D01*
X29097706Y19899048D01*
X29145325Y20089524D01*
X29192944Y20184762D01*
X29288182Y20280000D01*
X29431040Y20327619D01*
X29526278Y20327619D01*
X29669135Y20280000D01*
X29716754Y20232381D01*
X30621516Y20327619D02*
X30145325Y20327619D01*
X30097706Y19851429D01*
X30145325Y19899048D01*
X30240563Y19946667D01*
X30478659Y19946667D01*
X30573897Y19899048D01*
X30621516Y19851429D01*
X30669135Y19756190D01*
X30669135Y19518095D01*
X30621516Y19422857D01*
X30573897Y19375238D01*
X30478659Y19327619D01*
X30240563Y19327619D01*
X30145325Y19375238D01*
X30097706Y19422857D01*
X29197324Y78464667D02*
X29149705Y78417048D01*
X29006848Y78369429D01*
X28911610Y78369429D01*
X28768752Y78417048D01*
X28673514Y78512286D01*
X28625895Y78607524D01*
X28578276Y78798000D01*
X28578276Y78940858D01*
X28625895Y79131334D01*
X28673514Y79226572D01*
X28768752Y79321810D01*
X28911610Y79369429D01*
X29006848Y79369429D01*
X29149705Y79321810D01*
X29197324Y79274191D01*
X30054467Y79369429D02*
X29863990Y79369429D01*
X29768752Y79321810D01*
X29721133Y79274191D01*
X29625895Y79131334D01*
X29578276Y78940858D01*
X29578276Y78559905D01*
X29625895Y78464667D01*
X29673514Y78417048D01*
X29768752Y78369429D01*
X29959229Y78369429D01*
X30054467Y78417048D01*
X30102086Y78464667D01*
X30149705Y78559905D01*
X30149705Y78798000D01*
X30102086Y78893239D01*
X30054467Y78940858D01*
X29959229Y78988477D01*
X29768752Y78988477D01*
X29673514Y78940858D01*
X29625895Y78893239D01*
X29578276Y78798000D01*
X36358534Y6698977D02*
X36310915Y6651358D01*
X36168058Y6603739D01*
X36072820Y6603739D01*
X35929962Y6651358D01*
X35834724Y6746596D01*
X35787105Y6841834D01*
X35739486Y7032310D01*
X35739486Y7175168D01*
X35787105Y7365644D01*
X35834724Y7460882D01*
X35929962Y7556120D01*
X36072820Y7603739D01*
X36168058Y7603739D01*
X36310915Y7556120D01*
X36358534Y7508501D01*
X36691867Y7603739D02*
X37358534Y7603739D01*
X36929962Y6603739D01*
X21426443Y84123234D02*
X21474062Y84075615D01*
X21521681Y83932758D01*
X21521681Y83837520D01*
X21474062Y83694662D01*
X21378824Y83599424D01*
X21283586Y83551805D01*
X21093110Y83504186D01*
X20950252Y83504186D01*
X20759776Y83551805D01*
X20664538Y83599424D01*
X20569300Y83694662D01*
X20521681Y83837520D01*
X20521681Y83932758D01*
X20569300Y84075615D01*
X20616919Y84123234D01*
X20950252Y84694662D02*
X20902633Y84599424D01*
X20855014Y84551805D01*
X20759776Y84504186D01*
X20712157Y84504186D01*
X20616919Y84551805D01*
X20569300Y84599424D01*
X20521681Y84694662D01*
X20521681Y84885139D01*
X20569300Y84980377D01*
X20616919Y85027996D01*
X20712157Y85075615D01*
X20759776Y85075615D01*
X20855014Y85027996D01*
X20902633Y84980377D01*
X20950252Y84885139D01*
X20950252Y84694662D01*
X20997871Y84599424D01*
X21045490Y84551805D01*
X21140729Y84504186D01*
X21331205Y84504186D01*
X21426443Y84551805D01*
X21474062Y84599424D01*
X21521681Y84694662D01*
X21521681Y84885139D01*
X21474062Y84980377D01*
X21426443Y85027996D01*
X21331205Y85075615D01*
X21140729Y85075615D01*
X21045490Y85027996D01*
X20997871Y84980377D01*
X20950252Y84885139D01*
X13872121Y46370447D02*
X14586407Y46370447D01*
X14729264Y46322827D01*
X14824502Y46227589D01*
X14872121Y46084732D01*
X14872121Y45989494D01*
X14872121Y47370447D02*
X14872121Y46799018D01*
X14872121Y47084732D02*
X13872121Y47084732D01*
X14014978Y46989494D01*
X14110216Y46894256D01*
X14157835Y46799018D01*
X13872121Y37541407D02*
X14586407Y37541407D01*
X14729264Y37493787D01*
X14824502Y37398549D01*
X14872121Y37255692D01*
X14872121Y37160454D01*
X13967359Y37969978D02*
X13919740Y38017597D01*
X13872121Y38112835D01*
X13872121Y38350931D01*
X13919740Y38446169D01*
X13967359Y38493788D01*
X14062597Y38541407D01*
X14157835Y38541407D01*
X14300692Y38493788D01*
X14872121Y37922359D01*
X14872121Y38541407D01*
X43592341Y50376967D02*
X44306627Y50376967D01*
X44449484Y50329347D01*
X44544722Y50234109D01*
X44592341Y50091252D01*
X44592341Y49996014D01*
X43592341Y50757919D02*
X43592341Y51376967D01*
X43973293Y51043633D01*
X43973293Y51186491D01*
X44020912Y51281729D01*
X44068531Y51329348D01*
X44163770Y51376967D01*
X44401865Y51376967D01*
X44497103Y51329348D01*
X44544722Y51281729D01*
X44592341Y51186491D01*
X44592341Y50900776D01*
X44544722Y50805538D01*
X44497103Y50757919D01*
X15802859Y23666462D02*
X15755240Y23571224D01*
X15660002Y23475986D01*
X15517145Y23333129D01*
X15469526Y23237890D01*
X15469526Y23142652D01*
X15707621Y23190271D02*
X15660002Y23095033D01*
X15564764Y22999795D01*
X15374288Y22952176D01*
X15040954Y22952176D01*
X14850478Y22999795D01*
X14755240Y23095033D01*
X14707621Y23190271D01*
X14707621Y23380748D01*
X14755240Y23475986D01*
X14850478Y23571224D01*
X15040954Y23618843D01*
X15374288Y23618843D01*
X15564764Y23571224D01*
X15660002Y23475986D01*
X15707621Y23380748D01*
X15707621Y23190271D01*
X15707621Y24571224D02*
X15707621Y23999795D01*
X15707621Y24285509D02*
X14707621Y24285509D01*
X14850478Y24190271D01*
X14945716Y24095033D01*
X14993335Y23999795D01*
X44182279Y70834262D02*
X44134660Y70739024D01*
X44039422Y70643786D01*
X43896565Y70500929D01*
X43848946Y70405690D01*
X43848946Y70310452D01*
X44087041Y70358071D02*
X44039422Y70262833D01*
X43944184Y70167595D01*
X43753708Y70119976D01*
X43420374Y70119976D01*
X43229898Y70167595D01*
X43134660Y70262833D01*
X43087041Y70358071D01*
X43087041Y70548548D01*
X43134660Y70643786D01*
X43229898Y70739024D01*
X43420374Y70786643D01*
X43753708Y70786643D01*
X43944184Y70739024D01*
X44039422Y70643786D01*
X44087041Y70548548D01*
X44087041Y70358071D01*
X43182279Y71167595D02*
X43134660Y71215214D01*
X43087041Y71310452D01*
X43087041Y71548548D01*
X43134660Y71643786D01*
X43182279Y71691405D01*
X43277517Y71739024D01*
X43372755Y71739024D01*
X43515612Y71691405D01*
X44087041Y71119976D01*
X44087041Y71739024D01*
X35375862Y37090021D02*
X35280624Y37137640D01*
X35185386Y37232878D01*
X35042529Y37375735D01*
X34947290Y37423354D01*
X34852052Y37423354D01*
X34899671Y37185259D02*
X34804433Y37232878D01*
X34709195Y37328116D01*
X34661576Y37518592D01*
X34661576Y37851926D01*
X34709195Y38042402D01*
X34804433Y38137640D01*
X34899671Y38185259D01*
X35090148Y38185259D01*
X35185386Y38137640D01*
X35280624Y38042402D01*
X35328243Y37851926D01*
X35328243Y37518592D01*
X35280624Y37328116D01*
X35185386Y37232878D01*
X35090148Y37185259D01*
X34899671Y37185259D01*
X35661576Y38185259D02*
X36280624Y38185259D01*
X35947290Y37804307D01*
X36090148Y37804307D01*
X36185386Y37756688D01*
X36233005Y37709069D01*
X36280624Y37613830D01*
X36280624Y37375735D01*
X36233005Y37280497D01*
X36185386Y37232878D01*
X36090148Y37185259D01*
X35804433Y37185259D01*
X35709195Y37232878D01*
X35661576Y37280497D01*
X23321022Y56735541D02*
X23225784Y56783160D01*
X23130546Y56878398D01*
X22987689Y57021255D01*
X22892450Y57068874D01*
X22797212Y57068874D01*
X22844831Y56830779D02*
X22749593Y56878398D01*
X22654355Y56973636D01*
X22606736Y57164112D01*
X22606736Y57497446D01*
X22654355Y57687922D01*
X22749593Y57783160D01*
X22844831Y57830779D01*
X23035308Y57830779D01*
X23130546Y57783160D01*
X23225784Y57687922D01*
X23273403Y57497446D01*
X23273403Y57164112D01*
X23225784Y56973636D01*
X23130546Y56878398D01*
X23035308Y56830779D01*
X22844831Y56830779D01*
X24130546Y57497446D02*
X24130546Y56830779D01*
X23892450Y57878398D02*
X23654355Y57164112D01*
X24273403Y57164112D01*
X41010362Y37090021D02*
X40915124Y37137640D01*
X40819886Y37232878D01*
X40677029Y37375735D01*
X40581790Y37423354D01*
X40486552Y37423354D01*
X40534171Y37185259D02*
X40438933Y37232878D01*
X40343695Y37328116D01*
X40296076Y37518592D01*
X40296076Y37851926D01*
X40343695Y38042402D01*
X40438933Y38137640D01*
X40534171Y38185259D01*
X40724648Y38185259D01*
X40819886Y38137640D01*
X40915124Y38042402D01*
X40962743Y37851926D01*
X40962743Y37518592D01*
X40915124Y37328116D01*
X40819886Y37232878D01*
X40724648Y37185259D01*
X40534171Y37185259D01*
X41867505Y38185259D02*
X41391314Y38185259D01*
X41343695Y37709069D01*
X41391314Y37756688D01*
X41486552Y37804307D01*
X41724648Y37804307D01*
X41819886Y37756688D01*
X41867505Y37709069D01*
X41915124Y37613830D01*
X41915124Y37375735D01*
X41867505Y37280497D01*
X41819886Y37232878D01*
X41724648Y37185259D01*
X41486552Y37185259D01*
X41391314Y37232878D01*
X41343695Y37280497D01*
X17197082Y56730461D02*
X17101844Y56778080D01*
X17006606Y56873318D01*
X16863749Y57016175D01*
X16768510Y57063794D01*
X16673272Y57063794D01*
X16720891Y56825699D02*
X16625653Y56873318D01*
X16530415Y56968556D01*
X16482796Y57159032D01*
X16482796Y57492366D01*
X16530415Y57682842D01*
X16625653Y57778080D01*
X16720891Y57825699D01*
X16911368Y57825699D01*
X17006606Y57778080D01*
X17101844Y57682842D01*
X17149463Y57492366D01*
X17149463Y57159032D01*
X17101844Y56968556D01*
X17006606Y56873318D01*
X16911368Y56825699D01*
X16720891Y56825699D01*
X18006606Y57825699D02*
X17816129Y57825699D01*
X17720891Y57778080D01*
X17673272Y57730461D01*
X17578034Y57587604D01*
X17530415Y57397128D01*
X17530415Y57016175D01*
X17578034Y56920937D01*
X17625653Y56873318D01*
X17720891Y56825699D01*
X17911368Y56825699D01*
X18006606Y56873318D01*
X18054225Y56920937D01*
X18101844Y57016175D01*
X18101844Y57254270D01*
X18054225Y57349509D01*
X18006606Y57397128D01*
X17911368Y57444747D01*
X17720891Y57444747D01*
X17625653Y57397128D01*
X17578034Y57349509D01*
X17530415Y57254270D01*
X29698962Y27720041D02*
X29603724Y27767660D01*
X29508486Y27862898D01*
X29365629Y28005755D01*
X29270390Y28053374D01*
X29175152Y28053374D01*
X29222771Y27815279D02*
X29127533Y27862898D01*
X29032295Y27958136D01*
X28984676Y28148612D01*
X28984676Y28481946D01*
X29032295Y28672422D01*
X29127533Y28767660D01*
X29222771Y28815279D01*
X29413248Y28815279D01*
X29508486Y28767660D01*
X29603724Y28672422D01*
X29651343Y28481946D01*
X29651343Y28148612D01*
X29603724Y27958136D01*
X29508486Y27862898D01*
X29413248Y27815279D01*
X29222771Y27815279D01*
X29984676Y28815279D02*
X30651343Y28815279D01*
X30222771Y27815279D01*
X28837902Y65830201D02*
X28742664Y65877820D01*
X28647426Y65973058D01*
X28504569Y66115915D01*
X28409330Y66163534D01*
X28314092Y66163534D01*
X28361711Y65925439D02*
X28266473Y65973058D01*
X28171235Y66068296D01*
X28123616Y66258772D01*
X28123616Y66592106D01*
X28171235Y66782582D01*
X28266473Y66877820D01*
X28361711Y66925439D01*
X28552188Y66925439D01*
X28647426Y66877820D01*
X28742664Y66782582D01*
X28790283Y66592106D01*
X28790283Y66258772D01*
X28742664Y66068296D01*
X28647426Y65973058D01*
X28552188Y65925439D01*
X28361711Y65925439D01*
X29361711Y66496868D02*
X29266473Y66544487D01*
X29218854Y66592106D01*
X29171235Y66687344D01*
X29171235Y66734963D01*
X29218854Y66830201D01*
X29266473Y66877820D01*
X29361711Y66925439D01*
X29552188Y66925439D01*
X29647426Y66877820D01*
X29695045Y66830201D01*
X29742664Y66734963D01*
X29742664Y66687344D01*
X29695045Y66592106D01*
X29647426Y66544487D01*
X29552188Y66496868D01*
X29361711Y66496868D01*
X29266473Y66449249D01*
X29218854Y66401630D01*
X29171235Y66306391D01*
X29171235Y66115915D01*
X29218854Y66020677D01*
X29266473Y65973058D01*
X29361711Y65925439D01*
X29552188Y65925439D01*
X29647426Y65973058D01*
X29695045Y66020677D01*
X29742664Y66115915D01*
X29742664Y66306391D01*
X29695045Y66401630D01*
X29647426Y66449249D01*
X29552188Y66496868D01*
X41012122Y25820021D02*
X40916884Y25867640D01*
X40821646Y25962878D01*
X40678789Y26105735D01*
X40583550Y26153354D01*
X40488312Y26153354D01*
X40535931Y25915259D02*
X40440693Y25962878D01*
X40345455Y26058116D01*
X40297836Y26248592D01*
X40297836Y26581926D01*
X40345455Y26772402D01*
X40440693Y26867640D01*
X40535931Y26915259D01*
X40726408Y26915259D01*
X40821646Y26867640D01*
X40916884Y26772402D01*
X40964503Y26581926D01*
X40964503Y26248592D01*
X40916884Y26058116D01*
X40821646Y25962878D01*
X40726408Y25915259D01*
X40535931Y25915259D01*
X41440693Y25915259D02*
X41631169Y25915259D01*
X41726408Y25962878D01*
X41774027Y26010497D01*
X41869265Y26153354D01*
X41916884Y26343830D01*
X41916884Y26724783D01*
X41869265Y26820021D01*
X41821646Y26867640D01*
X41726408Y26915259D01*
X41535931Y26915259D01*
X41440693Y26867640D01*
X41393074Y26820021D01*
X41345455Y26724783D01*
X41345455Y26486688D01*
X41393074Y26391450D01*
X41440693Y26343830D01*
X41535931Y26296211D01*
X41726408Y26296211D01*
X41821646Y26343830D01*
X41869265Y26391450D01*
X41916884Y26486688D01*
X16781852Y67900301D02*
X16686614Y67947920D01*
X16591376Y68043158D01*
X16448519Y68186015D01*
X16353280Y68233634D01*
X16258042Y68233634D01*
X16305661Y67995539D02*
X16210423Y68043158D01*
X16115185Y68138396D01*
X16067566Y68328872D01*
X16067566Y68662206D01*
X16115185Y68852682D01*
X16210423Y68947920D01*
X16305661Y68995539D01*
X16496138Y68995539D01*
X16591376Y68947920D01*
X16686614Y68852682D01*
X16734233Y68662206D01*
X16734233Y68328872D01*
X16686614Y68138396D01*
X16591376Y68043158D01*
X16496138Y67995539D01*
X16305661Y67995539D01*
X17686614Y67995539D02*
X17115185Y67995539D01*
X17400899Y67995539D02*
X17400899Y68995539D01*
X17305661Y68852682D01*
X17210423Y68757444D01*
X17115185Y68709825D01*
X18305661Y68995539D02*
X18400900Y68995539D01*
X18496138Y68947920D01*
X18543757Y68900301D01*
X18591376Y68805063D01*
X18638995Y68614587D01*
X18638995Y68376491D01*
X18591376Y68186015D01*
X18543757Y68090777D01*
X18496138Y68043158D01*
X18400900Y67995539D01*
X18305661Y67995539D01*
X18210423Y68043158D01*
X18162804Y68090777D01*
X18115185Y68186015D01*
X18067566Y68376491D01*
X18067566Y68614587D01*
X18115185Y68805063D01*
X18162804Y68900301D01*
X18210423Y68947920D01*
X18305661Y68995539D01*
X21407192Y67859661D02*
X21311954Y67907280D01*
X21216716Y68002518D01*
X21073859Y68145375D01*
X20978620Y68192994D01*
X20883382Y68192994D01*
X20931001Y67954899D02*
X20835763Y68002518D01*
X20740525Y68097756D01*
X20692906Y68288232D01*
X20692906Y68621566D01*
X20740525Y68812042D01*
X20835763Y68907280D01*
X20931001Y68954899D01*
X21121478Y68954899D01*
X21216716Y68907280D01*
X21311954Y68812042D01*
X21359573Y68621566D01*
X21359573Y68288232D01*
X21311954Y68097756D01*
X21216716Y68002518D01*
X21121478Y67954899D01*
X20931001Y67954899D01*
X22311954Y67954899D02*
X21740525Y67954899D01*
X22026239Y67954899D02*
X22026239Y68954899D01*
X21931001Y68812042D01*
X21835763Y68716804D01*
X21740525Y68669185D01*
X22692906Y68859661D02*
X22740525Y68907280D01*
X22835763Y68954899D01*
X23073859Y68954899D01*
X23169097Y68907280D01*
X23216716Y68859661D01*
X23264335Y68764423D01*
X23264335Y68669185D01*
X23216716Y68526328D01*
X22645287Y67954899D01*
X23264335Y67954899D01*
X46047732Y25570121D02*
X45952494Y25617740D01*
X45857256Y25712978D01*
X45714399Y25855835D01*
X45619160Y25903454D01*
X45523922Y25903454D01*
X45571541Y25665359D02*
X45476303Y25712978D01*
X45381065Y25808216D01*
X45333446Y25998692D01*
X45333446Y26332026D01*
X45381065Y26522502D01*
X45476303Y26617740D01*
X45571541Y26665359D01*
X45762018Y26665359D01*
X45857256Y26617740D01*
X45952494Y26522502D01*
X46000113Y26332026D01*
X46000113Y25998692D01*
X45952494Y25808216D01*
X45857256Y25712978D01*
X45762018Y25665359D01*
X45571541Y25665359D01*
X46952494Y25665359D02*
X46381065Y25665359D01*
X46666779Y25665359D02*
X46666779Y26665359D01*
X46571541Y26522502D01*
X46476303Y26427264D01*
X46381065Y26379645D01*
X47285827Y26665359D02*
X47904875Y26665359D01*
X47571541Y26284407D01*
X47714399Y26284407D01*
X47809637Y26236788D01*
X47857256Y26189169D01*
X47904875Y26093930D01*
X47904875Y25855835D01*
X47857256Y25760597D01*
X47809637Y25712978D01*
X47714399Y25665359D01*
X47428684Y25665359D01*
X47333446Y25712978D01*
X47285827Y25760597D01*
X36614172Y25528021D02*
X36518934Y25575640D01*
X36423696Y25670878D01*
X36280839Y25813735D01*
X36185600Y25861354D01*
X36090362Y25861354D01*
X36137981Y25623259D02*
X36042743Y25670878D01*
X35947505Y25766116D01*
X35899886Y25956592D01*
X35899886Y26289926D01*
X35947505Y26480402D01*
X36042743Y26575640D01*
X36137981Y26623259D01*
X36328458Y26623259D01*
X36423696Y26575640D01*
X36518934Y26480402D01*
X36566553Y26289926D01*
X36566553Y25956592D01*
X36518934Y25766116D01*
X36423696Y25670878D01*
X36328458Y25623259D01*
X36137981Y25623259D01*
X37518934Y25623259D02*
X36947505Y25623259D01*
X37233219Y25623259D02*
X37233219Y26623259D01*
X37137981Y26480402D01*
X37042743Y26385164D01*
X36947505Y26337545D01*
X38376077Y26289926D02*
X38376077Y25623259D01*
X38137981Y26670878D02*
X37899886Y25956592D01*
X38518934Y25956592D01*
X29268492Y25570121D02*
X29173254Y25617740D01*
X29078016Y25712978D01*
X28935159Y25855835D01*
X28839920Y25903454D01*
X28744682Y25903454D01*
X28792301Y25665359D02*
X28697063Y25712978D01*
X28601825Y25808216D01*
X28554206Y25998692D01*
X28554206Y26332026D01*
X28601825Y26522502D01*
X28697063Y26617740D01*
X28792301Y26665359D01*
X28982778Y26665359D01*
X29078016Y26617740D01*
X29173254Y26522502D01*
X29220873Y26332026D01*
X29220873Y25998692D01*
X29173254Y25808216D01*
X29078016Y25712978D01*
X28982778Y25665359D01*
X28792301Y25665359D01*
X30173254Y25665359D02*
X29601825Y25665359D01*
X29887539Y25665359D02*
X29887539Y26665359D01*
X29792301Y26522502D01*
X29697063Y26427264D01*
X29601825Y26379645D01*
X31078016Y26665359D02*
X30601825Y26665359D01*
X30554206Y26189169D01*
X30601825Y26236788D01*
X30697063Y26284407D01*
X30935159Y26284407D01*
X31030397Y26236788D01*
X31078016Y26189169D01*
X31125635Y26093930D01*
X31125635Y25855835D01*
X31078016Y25760597D01*
X31030397Y25712978D01*
X30935159Y25665359D01*
X30697063Y25665359D01*
X30601825Y25712978D01*
X30554206Y25760597D01*
X23655092Y25547261D02*
X23559854Y25594880D01*
X23464616Y25690118D01*
X23321759Y25832975D01*
X23226520Y25880594D01*
X23131282Y25880594D01*
X23178901Y25642499D02*
X23083663Y25690118D01*
X22988425Y25785356D01*
X22940806Y25975832D01*
X22940806Y26309166D01*
X22988425Y26499642D01*
X23083663Y26594880D01*
X23178901Y26642499D01*
X23369378Y26642499D01*
X23464616Y26594880D01*
X23559854Y26499642D01*
X23607473Y26309166D01*
X23607473Y25975832D01*
X23559854Y25785356D01*
X23464616Y25690118D01*
X23369378Y25642499D01*
X23178901Y25642499D01*
X24559854Y25642499D02*
X23988425Y25642499D01*
X24274139Y25642499D02*
X24274139Y26642499D01*
X24178901Y26499642D01*
X24083663Y26404404D01*
X23988425Y26356785D01*
X25416997Y26642499D02*
X25226520Y26642499D01*
X25131282Y26594880D01*
X25083663Y26547261D01*
X24988425Y26404404D01*
X24940806Y26213928D01*
X24940806Y25832975D01*
X24988425Y25737737D01*
X25036044Y25690118D01*
X25131282Y25642499D01*
X25321759Y25642499D01*
X25416997Y25690118D01*
X25464616Y25737737D01*
X25512235Y25832975D01*
X25512235Y26071070D01*
X25464616Y26166309D01*
X25416997Y26213928D01*
X25321759Y26261547D01*
X25131282Y26261547D01*
X25036044Y26213928D01*
X24988425Y26166309D01*
X24940806Y26071070D01*
X12073962Y68059051D02*
X11978724Y68106670D01*
X11883486Y68201908D01*
X11740629Y68344765D01*
X11645390Y68392384D01*
X11550152Y68392384D01*
X11597771Y68154289D02*
X11502533Y68201908D01*
X11407295Y68297146D01*
X11359676Y68487622D01*
X11359676Y68820956D01*
X11407295Y69011432D01*
X11502533Y69106670D01*
X11597771Y69154289D01*
X11788248Y69154289D01*
X11883486Y69106670D01*
X11978724Y69011432D01*
X12026343Y68820956D01*
X12026343Y68487622D01*
X11978724Y68297146D01*
X11883486Y68201908D01*
X11788248Y68154289D01*
X11597771Y68154289D01*
X12978724Y68154289D02*
X12407295Y68154289D01*
X12693009Y68154289D02*
X12693009Y69154289D01*
X12597771Y69011432D01*
X12502533Y68916194D01*
X12407295Y68868575D01*
X13312057Y69154289D02*
X13978724Y69154289D01*
X13550152Y68154289D01*
X24300252Y68123821D02*
X24205014Y68171440D01*
X24109776Y68266678D01*
X23966919Y68409535D01*
X23871680Y68457154D01*
X23776442Y68457154D01*
X23824061Y68219059D02*
X23728823Y68266678D01*
X23633585Y68361916D01*
X23585966Y68552392D01*
X23585966Y68885726D01*
X23633585Y69076202D01*
X23728823Y69171440D01*
X23824061Y69219059D01*
X24014538Y69219059D01*
X24109776Y69171440D01*
X24205014Y69076202D01*
X24252633Y68885726D01*
X24252633Y68552392D01*
X24205014Y68361916D01*
X24109776Y68266678D01*
X24014538Y68219059D01*
X23824061Y68219059D01*
X25205014Y68219059D02*
X24633585Y68219059D01*
X24919299Y68219059D02*
X24919299Y69219059D01*
X24824061Y69076202D01*
X24728823Y68980964D01*
X24633585Y68933345D01*
X25776442Y68790488D02*
X25681204Y68838107D01*
X25633585Y68885726D01*
X25585966Y68980964D01*
X25585966Y69028583D01*
X25633585Y69123821D01*
X25681204Y69171440D01*
X25776442Y69219059D01*
X25966919Y69219059D01*
X26062157Y69171440D01*
X26109776Y69123821D01*
X26157395Y69028583D01*
X26157395Y68980964D01*
X26109776Y68885726D01*
X26062157Y68838107D01*
X25966919Y68790488D01*
X25776442Y68790488D01*
X25681204Y68742869D01*
X25633585Y68695250D01*
X25585966Y68600011D01*
X25585966Y68409535D01*
X25633585Y68314297D01*
X25681204Y68266678D01*
X25776442Y68219059D01*
X25966919Y68219059D01*
X26062157Y68266678D01*
X26109776Y68314297D01*
X26157395Y68409535D01*
X26157395Y68600011D01*
X26109776Y68695250D01*
X26062157Y68742869D01*
X25966919Y68790488D01*
X28648732Y67934401D02*
X28553494Y67982020D01*
X28458256Y68077258D01*
X28315399Y68220115D01*
X28220160Y68267734D01*
X28124922Y68267734D01*
X28172541Y68029639D02*
X28077303Y68077258D01*
X27982065Y68172496D01*
X27934446Y68362972D01*
X27934446Y68696306D01*
X27982065Y68886782D01*
X28077303Y68982020D01*
X28172541Y69029639D01*
X28363018Y69029639D01*
X28458256Y68982020D01*
X28553494Y68886782D01*
X28601113Y68696306D01*
X28601113Y68362972D01*
X28553494Y68172496D01*
X28458256Y68077258D01*
X28363018Y68029639D01*
X28172541Y68029639D01*
X29553494Y68029639D02*
X28982065Y68029639D01*
X29267779Y68029639D02*
X29267779Y69029639D01*
X29172541Y68886782D01*
X29077303Y68791544D01*
X28982065Y68743925D01*
X30029684Y68029639D02*
X30220160Y68029639D01*
X30315399Y68077258D01*
X30363018Y68124877D01*
X30458256Y68267734D01*
X30505875Y68458210D01*
X30505875Y68839163D01*
X30458256Y68934401D01*
X30410637Y68982020D01*
X30315399Y69029639D01*
X30124922Y69029639D01*
X30029684Y68982020D01*
X29982065Y68934401D01*
X29934446Y68839163D01*
X29934446Y68601068D01*
X29982065Y68505830D01*
X30029684Y68458210D01*
X30124922Y68410591D01*
X30315399Y68410591D01*
X30410637Y68458210D01*
X30458256Y68505830D01*
X30505875Y68601068D01*
X34432312Y67906461D02*
X34337074Y67954080D01*
X34241836Y68049318D01*
X34098979Y68192175D01*
X34003740Y68239794D01*
X33908502Y68239794D01*
X33956121Y68001699D02*
X33860883Y68049318D01*
X33765645Y68144556D01*
X33718026Y68335032D01*
X33718026Y68668366D01*
X33765645Y68858842D01*
X33860883Y68954080D01*
X33956121Y69001699D01*
X34146598Y69001699D01*
X34241836Y68954080D01*
X34337074Y68858842D01*
X34384693Y68668366D01*
X34384693Y68335032D01*
X34337074Y68144556D01*
X34241836Y68049318D01*
X34146598Y68001699D01*
X33956121Y68001699D01*
X34765645Y68906461D02*
X34813264Y68954080D01*
X34908502Y69001699D01*
X35146598Y69001699D01*
X35241836Y68954080D01*
X35289455Y68906461D01*
X35337074Y68811223D01*
X35337074Y68715985D01*
X35289455Y68573128D01*
X34718026Y68001699D01*
X35337074Y68001699D01*
X35956121Y69001699D02*
X36051360Y69001699D01*
X36146598Y68954080D01*
X36194217Y68906461D01*
X36241836Y68811223D01*
X36289455Y68620747D01*
X36289455Y68382651D01*
X36241836Y68192175D01*
X36194217Y68096937D01*
X36146598Y68049318D01*
X36051360Y68001699D01*
X35956121Y68001699D01*
X35860883Y68049318D01*
X35813264Y68096937D01*
X35765645Y68192175D01*
X35718026Y68382651D01*
X35718026Y68620747D01*
X35765645Y68811223D01*
X35813264Y68906461D01*
X35860883Y68954080D01*
X35956121Y69001699D01*
X34874172Y19180021D02*
X34778934Y19227640D01*
X34683696Y19322878D01*
X34540839Y19465735D01*
X34445600Y19513354D01*
X34350362Y19513354D01*
X34397981Y19275259D02*
X34302743Y19322878D01*
X34207505Y19418116D01*
X34159886Y19608592D01*
X34159886Y19941926D01*
X34207505Y20132402D01*
X34302743Y20227640D01*
X34397981Y20275259D01*
X34588458Y20275259D01*
X34683696Y20227640D01*
X34778934Y20132402D01*
X34826553Y19941926D01*
X34826553Y19608592D01*
X34778934Y19418116D01*
X34683696Y19322878D01*
X34588458Y19275259D01*
X34397981Y19275259D01*
X35207505Y20180021D02*
X35255124Y20227640D01*
X35350362Y20275259D01*
X35588458Y20275259D01*
X35683696Y20227640D01*
X35731315Y20180021D01*
X35778934Y20084783D01*
X35778934Y19989545D01*
X35731315Y19846688D01*
X35159886Y19275259D01*
X35778934Y19275259D01*
X36731315Y19275259D02*
X36159886Y19275259D01*
X36445600Y19275259D02*
X36445600Y20275259D01*
X36350362Y20132402D01*
X36255124Y20037164D01*
X36159886Y19989545D01*
X23667792Y19194721D02*
X23572554Y19242340D01*
X23477316Y19337578D01*
X23334459Y19480435D01*
X23239220Y19528054D01*
X23143982Y19528054D01*
X23191601Y19289959D02*
X23096363Y19337578D01*
X23001125Y19432816D01*
X22953506Y19623292D01*
X22953506Y19956626D01*
X23001125Y20147102D01*
X23096363Y20242340D01*
X23191601Y20289959D01*
X23382078Y20289959D01*
X23477316Y20242340D01*
X23572554Y20147102D01*
X23620173Y19956626D01*
X23620173Y19623292D01*
X23572554Y19432816D01*
X23477316Y19337578D01*
X23382078Y19289959D01*
X23191601Y19289959D01*
X24001125Y20194721D02*
X24048744Y20242340D01*
X24143982Y20289959D01*
X24382078Y20289959D01*
X24477316Y20242340D01*
X24524935Y20194721D01*
X24572554Y20099483D01*
X24572554Y20004245D01*
X24524935Y19861388D01*
X23953506Y19289959D01*
X24572554Y19289959D01*
X24953506Y20194721D02*
X25001125Y20242340D01*
X25096363Y20289959D01*
X25334459Y20289959D01*
X25429697Y20242340D01*
X25477316Y20194721D01*
X25524935Y20099483D01*
X25524935Y20004245D01*
X25477316Y19861388D01*
X24905887Y19289959D01*
X25524935Y19289959D01*
X22861342Y74107871D02*
X22766104Y74155490D01*
X22670866Y74250728D01*
X22528009Y74393585D01*
X22432770Y74441204D01*
X22337532Y74441204D01*
X22385151Y74203109D02*
X22289913Y74250728D01*
X22194675Y74345966D01*
X22147056Y74536442D01*
X22147056Y74869776D01*
X22194675Y75060252D01*
X22289913Y75155490D01*
X22385151Y75203109D01*
X22575628Y75203109D01*
X22670866Y75155490D01*
X22766104Y75060252D01*
X22813723Y74869776D01*
X22813723Y74536442D01*
X22766104Y74345966D01*
X22670866Y74250728D01*
X22575628Y74203109D01*
X22385151Y74203109D01*
X23194675Y75107871D02*
X23242294Y75155490D01*
X23337532Y75203109D01*
X23575628Y75203109D01*
X23670866Y75155490D01*
X23718485Y75107871D01*
X23766104Y75012633D01*
X23766104Y74917395D01*
X23718485Y74774538D01*
X23147056Y74203109D01*
X23766104Y74203109D01*
X24099437Y75203109D02*
X24718485Y75203109D01*
X24385151Y74822157D01*
X24528009Y74822157D01*
X24623247Y74774538D01*
X24670866Y74726919D01*
X24718485Y74631680D01*
X24718485Y74393585D01*
X24670866Y74298347D01*
X24623247Y74250728D01*
X24528009Y74203109D01*
X24242294Y74203109D01*
X24147056Y74250728D01*
X24099437Y74298347D01*
X34382782Y74163751D02*
X34287544Y74211370D01*
X34192306Y74306608D01*
X34049449Y74449465D01*
X33954210Y74497084D01*
X33858972Y74497084D01*
X33906591Y74258989D02*
X33811353Y74306608D01*
X33716115Y74401846D01*
X33668496Y74592322D01*
X33668496Y74925656D01*
X33716115Y75116132D01*
X33811353Y75211370D01*
X33906591Y75258989D01*
X34097068Y75258989D01*
X34192306Y75211370D01*
X34287544Y75116132D01*
X34335163Y74925656D01*
X34335163Y74592322D01*
X34287544Y74401846D01*
X34192306Y74306608D01*
X34097068Y74258989D01*
X33906591Y74258989D01*
X34716115Y75163751D02*
X34763734Y75211370D01*
X34858972Y75258989D01*
X35097068Y75258989D01*
X35192306Y75211370D01*
X35239925Y75163751D01*
X35287544Y75068513D01*
X35287544Y74973275D01*
X35239925Y74830418D01*
X34668496Y74258989D01*
X35287544Y74258989D01*
X36144687Y74925656D02*
X36144687Y74258989D01*
X35906591Y75306608D02*
X35668496Y74592322D01*
X36287544Y74592322D01*
X40504172Y19180021D02*
X40408934Y19227640D01*
X40313696Y19322878D01*
X40170839Y19465735D01*
X40075600Y19513354D01*
X39980362Y19513354D01*
X40027981Y19275259D02*
X39932743Y19322878D01*
X39837505Y19418116D01*
X39789886Y19608592D01*
X39789886Y19941926D01*
X39837505Y20132402D01*
X39932743Y20227640D01*
X40027981Y20275259D01*
X40218458Y20275259D01*
X40313696Y20227640D01*
X40408934Y20132402D01*
X40456553Y19941926D01*
X40456553Y19608592D01*
X40408934Y19418116D01*
X40313696Y19322878D01*
X40218458Y19275259D01*
X40027981Y19275259D01*
X40837505Y20180021D02*
X40885124Y20227640D01*
X40980362Y20275259D01*
X41218458Y20275259D01*
X41313696Y20227640D01*
X41361315Y20180021D01*
X41408934Y20084783D01*
X41408934Y19989545D01*
X41361315Y19846688D01*
X40789886Y19275259D01*
X41408934Y19275259D01*
X42313696Y20275259D02*
X41837505Y20275259D01*
X41789886Y19799069D01*
X41837505Y19846688D01*
X41932743Y19894307D01*
X42170839Y19894307D01*
X42266077Y19846688D01*
X42313696Y19799069D01*
X42361315Y19703830D01*
X42361315Y19465735D01*
X42313696Y19370497D01*
X42266077Y19322878D01*
X42170839Y19275259D01*
X41932743Y19275259D01*
X41837505Y19322878D01*
X41789886Y19370497D01*
X17985812Y19204881D02*
X17890574Y19252500D01*
X17795336Y19347738D01*
X17652479Y19490595D01*
X17557240Y19538214D01*
X17462002Y19538214D01*
X17509621Y19300119D02*
X17414383Y19347738D01*
X17319145Y19442976D01*
X17271526Y19633452D01*
X17271526Y19966786D01*
X17319145Y20157262D01*
X17414383Y20252500D01*
X17509621Y20300119D01*
X17700098Y20300119D01*
X17795336Y20252500D01*
X17890574Y20157262D01*
X17938193Y19966786D01*
X17938193Y19633452D01*
X17890574Y19442976D01*
X17795336Y19347738D01*
X17700098Y19300119D01*
X17509621Y19300119D01*
X18319145Y20204881D02*
X18366764Y20252500D01*
X18462002Y20300119D01*
X18700098Y20300119D01*
X18795336Y20252500D01*
X18842955Y20204881D01*
X18890574Y20109643D01*
X18890574Y20014405D01*
X18842955Y19871548D01*
X18271526Y19300119D01*
X18890574Y19300119D01*
X19747717Y20300119D02*
X19557240Y20300119D01*
X19462002Y20252500D01*
X19414383Y20204881D01*
X19319145Y20062024D01*
X19271526Y19871548D01*
X19271526Y19490595D01*
X19319145Y19395357D01*
X19366764Y19347738D01*
X19462002Y19300119D01*
X19652479Y19300119D01*
X19747717Y19347738D01*
X19795336Y19395357D01*
X19842955Y19490595D01*
X19842955Y19728690D01*
X19795336Y19823929D01*
X19747717Y19871548D01*
X19652479Y19919167D01*
X19462002Y19919167D01*
X19366764Y19871548D01*
X19319145Y19823929D01*
X19271526Y19728690D01*
X16778042Y74051991D02*
X16682804Y74099610D01*
X16587566Y74194848D01*
X16444709Y74337705D01*
X16349470Y74385324D01*
X16254232Y74385324D01*
X16301851Y74147229D02*
X16206613Y74194848D01*
X16111375Y74290086D01*
X16063756Y74480562D01*
X16063756Y74813896D01*
X16111375Y75004372D01*
X16206613Y75099610D01*
X16301851Y75147229D01*
X16492328Y75147229D01*
X16587566Y75099610D01*
X16682804Y75004372D01*
X16730423Y74813896D01*
X16730423Y74480562D01*
X16682804Y74290086D01*
X16587566Y74194848D01*
X16492328Y74147229D01*
X16301851Y74147229D01*
X17111375Y75051991D02*
X17158994Y75099610D01*
X17254232Y75147229D01*
X17492328Y75147229D01*
X17587566Y75099610D01*
X17635185Y75051991D01*
X17682804Y74956753D01*
X17682804Y74861515D01*
X17635185Y74718658D01*
X17063756Y74147229D01*
X17682804Y74147229D01*
X18016137Y75147229D02*
X18682804Y75147229D01*
X18254232Y74147229D01*
X40016502Y74153591D02*
X39921264Y74201210D01*
X39826026Y74296448D01*
X39683169Y74439305D01*
X39587930Y74486924D01*
X39492692Y74486924D01*
X39540311Y74248829D02*
X39445073Y74296448D01*
X39349835Y74391686D01*
X39302216Y74582162D01*
X39302216Y74915496D01*
X39349835Y75105972D01*
X39445073Y75201210D01*
X39540311Y75248829D01*
X39730788Y75248829D01*
X39826026Y75201210D01*
X39921264Y75105972D01*
X39968883Y74915496D01*
X39968883Y74582162D01*
X39921264Y74391686D01*
X39826026Y74296448D01*
X39730788Y74248829D01*
X39540311Y74248829D01*
X40349835Y75153591D02*
X40397454Y75201210D01*
X40492692Y75248829D01*
X40730788Y75248829D01*
X40826026Y75201210D01*
X40873645Y75153591D01*
X40921264Y75058353D01*
X40921264Y74963115D01*
X40873645Y74820258D01*
X40302216Y74248829D01*
X40921264Y74248829D01*
X41492692Y74820258D02*
X41397454Y74867877D01*
X41349835Y74915496D01*
X41302216Y75010734D01*
X41302216Y75058353D01*
X41349835Y75153591D01*
X41397454Y75201210D01*
X41492692Y75248829D01*
X41683169Y75248829D01*
X41778407Y75201210D01*
X41826026Y75153591D01*
X41873645Y75058353D01*
X41873645Y75010734D01*
X41826026Y74915496D01*
X41778407Y74867877D01*
X41683169Y74820258D01*
X41492692Y74820258D01*
X41397454Y74772639D01*
X41349835Y74725020D01*
X41302216Y74629781D01*
X41302216Y74439305D01*
X41349835Y74344067D01*
X41397454Y74296448D01*
X41492692Y74248829D01*
X41683169Y74248829D01*
X41778407Y74296448D01*
X41826026Y74344067D01*
X41873645Y74439305D01*
X41873645Y74629781D01*
X41826026Y74725020D01*
X41778407Y74772639D01*
X41683169Y74820258D01*
X40534172Y7870021D02*
X40438934Y7917640D01*
X40343696Y8012878D01*
X40200839Y8155735D01*
X40105600Y8203354D01*
X40010362Y8203354D01*
X40057981Y7965259D02*
X39962743Y8012878D01*
X39867505Y8108116D01*
X39819886Y8298592D01*
X39819886Y8631926D01*
X39867505Y8822402D01*
X39962743Y8917640D01*
X40057981Y8965259D01*
X40248458Y8965259D01*
X40343696Y8917640D01*
X40438934Y8822402D01*
X40486553Y8631926D01*
X40486553Y8298592D01*
X40438934Y8108116D01*
X40343696Y8012878D01*
X40248458Y7965259D01*
X40057981Y7965259D01*
X40867505Y8870021D02*
X40915124Y8917640D01*
X41010362Y8965259D01*
X41248458Y8965259D01*
X41343696Y8917640D01*
X41391315Y8870021D01*
X41438934Y8774783D01*
X41438934Y8679545D01*
X41391315Y8536688D01*
X40819886Y7965259D01*
X41438934Y7965259D01*
X41915124Y7965259D02*
X42105600Y7965259D01*
X42200839Y8012878D01*
X42248458Y8060497D01*
X42343696Y8203354D01*
X42391315Y8393830D01*
X42391315Y8774783D01*
X42343696Y8870021D01*
X42296077Y8917640D01*
X42200839Y8965259D01*
X42010362Y8965259D01*
X41915124Y8917640D01*
X41867505Y8870021D01*
X41819886Y8774783D01*
X41819886Y8536688D01*
X41867505Y8441450D01*
X41915124Y8393830D01*
X42010362Y8346211D01*
X42200839Y8346211D01*
X42296077Y8393830D01*
X42343696Y8441450D01*
X42391315Y8536688D01*
X17985812Y7782121D02*
X17890574Y7829740D01*
X17795336Y7924978D01*
X17652479Y8067835D01*
X17557240Y8115454D01*
X17462002Y8115454D01*
X17509621Y7877359D02*
X17414383Y7924978D01*
X17319145Y8020216D01*
X17271526Y8210692D01*
X17271526Y8544026D01*
X17319145Y8734502D01*
X17414383Y8829740D01*
X17509621Y8877359D01*
X17700098Y8877359D01*
X17795336Y8829740D01*
X17890574Y8734502D01*
X17938193Y8544026D01*
X17938193Y8210692D01*
X17890574Y8020216D01*
X17795336Y7924978D01*
X17700098Y7877359D01*
X17509621Y7877359D01*
X18271526Y8877359D02*
X18890574Y8877359D01*
X18557240Y8496407D01*
X18700098Y8496407D01*
X18795336Y8448788D01*
X18842955Y8401169D01*
X18890574Y8305930D01*
X18890574Y8067835D01*
X18842955Y7972597D01*
X18795336Y7924978D01*
X18700098Y7877359D01*
X18414383Y7877359D01*
X18319145Y7924978D01*
X18271526Y7972597D01*
X19509621Y8877359D02*
X19604860Y8877359D01*
X19700098Y8829740D01*
X19747717Y8782121D01*
X19795336Y8686883D01*
X19842955Y8496407D01*
X19842955Y8258311D01*
X19795336Y8067835D01*
X19747717Y7972597D01*
X19700098Y7924978D01*
X19604860Y7877359D01*
X19509621Y7877359D01*
X19414383Y7924978D01*
X19366764Y7972597D01*
X19319145Y8067835D01*
X19271526Y8258311D01*
X19271526Y8496407D01*
X19319145Y8686883D01*
X19366764Y8782121D01*
X19414383Y8829740D01*
X19509621Y8877359D01*
X16785662Y85515391D02*
X16690424Y85563010D01*
X16595186Y85658248D01*
X16452329Y85801105D01*
X16357090Y85848724D01*
X16261852Y85848724D01*
X16309471Y85610629D02*
X16214233Y85658248D01*
X16118995Y85753486D01*
X16071376Y85943962D01*
X16071376Y86277296D01*
X16118995Y86467772D01*
X16214233Y86563010D01*
X16309471Y86610629D01*
X16499948Y86610629D01*
X16595186Y86563010D01*
X16690424Y86467772D01*
X16738043Y86277296D01*
X16738043Y85943962D01*
X16690424Y85753486D01*
X16595186Y85658248D01*
X16499948Y85610629D01*
X16309471Y85610629D01*
X17071376Y86610629D02*
X17690424Y86610629D01*
X17357090Y86229677D01*
X17499948Y86229677D01*
X17595186Y86182058D01*
X17642805Y86134439D01*
X17690424Y86039200D01*
X17690424Y85801105D01*
X17642805Y85705867D01*
X17595186Y85658248D01*
X17499948Y85610629D01*
X17214233Y85610629D01*
X17118995Y85658248D01*
X17071376Y85705867D01*
X18642805Y85610629D02*
X18071376Y85610629D01*
X18357090Y85610629D02*
X18357090Y86610629D01*
X18261852Y86467772D01*
X18166614Y86372534D01*
X18071376Y86324915D01*
X40016502Y85449351D02*
X39921264Y85496970D01*
X39826026Y85592208D01*
X39683169Y85735065D01*
X39587930Y85782684D01*
X39492692Y85782684D01*
X39540311Y85544589D02*
X39445073Y85592208D01*
X39349835Y85687446D01*
X39302216Y85877922D01*
X39302216Y86211256D01*
X39349835Y86401732D01*
X39445073Y86496970D01*
X39540311Y86544589D01*
X39730788Y86544589D01*
X39826026Y86496970D01*
X39921264Y86401732D01*
X39968883Y86211256D01*
X39968883Y85877922D01*
X39921264Y85687446D01*
X39826026Y85592208D01*
X39730788Y85544589D01*
X39540311Y85544589D01*
X40302216Y86544589D02*
X40921264Y86544589D01*
X40587930Y86163637D01*
X40730788Y86163637D01*
X40826026Y86116018D01*
X40873645Y86068399D01*
X40921264Y85973160D01*
X40921264Y85735065D01*
X40873645Y85639827D01*
X40826026Y85592208D01*
X40730788Y85544589D01*
X40445073Y85544589D01*
X40349835Y85592208D01*
X40302216Y85639827D01*
X41302216Y86449351D02*
X41349835Y86496970D01*
X41445073Y86544589D01*
X41683169Y86544589D01*
X41778407Y86496970D01*
X41826026Y86449351D01*
X41873645Y86354113D01*
X41873645Y86258875D01*
X41826026Y86116018D01*
X41254597Y85544589D01*
X41873645Y85544589D01*
X24191934Y40012359D02*
X23858600Y40488550D01*
X23620505Y40012359D02*
X23620505Y41012359D01*
X24001458Y41012359D01*
X24096696Y40964740D01*
X24144315Y40917121D01*
X24191934Y40821883D01*
X24191934Y40679026D01*
X24144315Y40583788D01*
X24096696Y40536169D01*
X24001458Y40488550D01*
X23620505Y40488550D01*
X25144315Y40012359D02*
X24572886Y40012359D01*
X24858600Y40012359D02*
X24858600Y41012359D01*
X24763362Y40869502D01*
X24668124Y40774264D01*
X24572886Y40726645D01*
X34428134Y44762159D02*
X34094800Y45238350D01*
X33856705Y44762159D02*
X33856705Y45762159D01*
X34237658Y45762159D01*
X34332896Y45714540D01*
X34380515Y45666921D01*
X34428134Y45571683D01*
X34428134Y45428826D01*
X34380515Y45333588D01*
X34332896Y45285969D01*
X34237658Y45238350D01*
X33856705Y45238350D01*
X34809086Y45666921D02*
X34856705Y45714540D01*
X34951943Y45762159D01*
X35190039Y45762159D01*
X35285277Y45714540D01*
X35332896Y45666921D01*
X35380515Y45571683D01*
X35380515Y45476445D01*
X35332896Y45333588D01*
X34761467Y44762159D01*
X35380515Y44762159D01*
X34555134Y53550559D02*
X34221800Y54026750D01*
X33983705Y53550559D02*
X33983705Y54550559D01*
X34364658Y54550559D01*
X34459896Y54502940D01*
X34507515Y54455321D01*
X34555134Y54360083D01*
X34555134Y54217226D01*
X34507515Y54121988D01*
X34459896Y54074369D01*
X34364658Y54026750D01*
X33983705Y54026750D01*
X34888467Y54550559D02*
X35507515Y54550559D01*
X35174181Y54169607D01*
X35317039Y54169607D01*
X35412277Y54121988D01*
X35459896Y54074369D01*
X35507515Y53979130D01*
X35507515Y53741035D01*
X35459896Y53645797D01*
X35412277Y53598178D01*
X35317039Y53550559D01*
X35031324Y53550559D01*
X34936086Y53598178D01*
X34888467Y53645797D01*
X24268134Y49283359D02*
X23934800Y49759550D01*
X23696705Y49283359D02*
X23696705Y50283359D01*
X24077658Y50283359D01*
X24172896Y50235740D01*
X24220515Y50188121D01*
X24268134Y50092883D01*
X24268134Y49950026D01*
X24220515Y49854788D01*
X24172896Y49807169D01*
X24077658Y49759550D01*
X23696705Y49759550D01*
X25125277Y49950026D02*
X25125277Y49283359D01*
X24887181Y50330978D02*
X24649086Y49616692D01*
X25268134Y49616692D01*
X20651174Y29184339D02*
X20317840Y29660530D01*
X20079745Y29184339D02*
X20079745Y30184339D01*
X20460698Y30184339D01*
X20555936Y30136720D01*
X20603555Y30089101D01*
X20651174Y29993863D01*
X20651174Y29851006D01*
X20603555Y29755768D01*
X20555936Y29708149D01*
X20460698Y29660530D01*
X20079745Y29660530D01*
X21555936Y30184339D02*
X21079745Y30184339D01*
X21032126Y29708149D01*
X21079745Y29755768D01*
X21174983Y29803387D01*
X21413079Y29803387D01*
X21508317Y29755768D01*
X21555936Y29708149D01*
X21603555Y29612910D01*
X21603555Y29374815D01*
X21555936Y29279577D01*
X21508317Y29231958D01*
X21413079Y29184339D01*
X21174983Y29184339D01*
X21079745Y29231958D01*
X21032126Y29279577D01*
X13287001Y26521114D02*
X12810810Y26187780D01*
X13287001Y25949685D02*
X12287001Y25949685D01*
X12287001Y26330638D01*
X12334620Y26425876D01*
X12382239Y26473495D01*
X12477477Y26521114D01*
X12620334Y26521114D01*
X12715572Y26473495D01*
X12763191Y26425876D01*
X12810810Y26330638D01*
X12810810Y25949685D01*
X12287001Y27378257D02*
X12287001Y27187780D01*
X12334620Y27092542D01*
X12382239Y27044923D01*
X12525096Y26949685D01*
X12715572Y26902066D01*
X13096525Y26902066D01*
X13191763Y26949685D01*
X13239382Y26997304D01*
X13287001Y27092542D01*
X13287001Y27283019D01*
X13239382Y27378257D01*
X13191763Y27425876D01*
X13096525Y27473495D01*
X12858430Y27473495D01*
X12763191Y27425876D01*
X12715572Y27378257D01*
X12667953Y27283019D01*
X12667953Y27092542D01*
X12715572Y26997304D01*
X12763191Y26949685D01*
X12858430Y26902066D01*
X37384694Y64548759D02*
X37051360Y65024950D01*
X36813265Y64548759D02*
X36813265Y65548759D01*
X37194218Y65548759D01*
X37289456Y65501140D01*
X37337075Y65453521D01*
X37384694Y65358283D01*
X37384694Y65215426D01*
X37337075Y65120188D01*
X37289456Y65072569D01*
X37194218Y65024950D01*
X36813265Y65024950D01*
X37718027Y65548759D02*
X38384694Y65548759D01*
X37956122Y64548759D01*
X46479721Y65992714D02*
X46003530Y65659380D01*
X46479721Y65421285D02*
X45479721Y65421285D01*
X45479721Y65802238D01*
X45527340Y65897476D01*
X45574959Y65945095D01*
X45670197Y65992714D01*
X45813054Y65992714D01*
X45908292Y65945095D01*
X45955911Y65897476D01*
X46003530Y65802238D01*
X46003530Y65421285D01*
X45908292Y66564142D02*
X45860673Y66468904D01*
X45813054Y66421285D01*
X45717816Y66373666D01*
X45670197Y66373666D01*
X45574959Y66421285D01*
X45527340Y66468904D01*
X45479721Y66564142D01*
X45479721Y66754619D01*
X45527340Y66849857D01*
X45574959Y66897476D01*
X45670197Y66945095D01*
X45717816Y66945095D01*
X45813054Y66897476D01*
X45860673Y66849857D01*
X45908292Y66754619D01*
X45908292Y66564142D01*
X45955911Y66468904D01*
X46003530Y66421285D01*
X46098769Y66373666D01*
X46289245Y66373666D01*
X46384483Y66421285D01*
X46432102Y66468904D01*
X46479721Y66564142D01*
X46479721Y66754619D01*
X46432102Y66849857D01*
X46384483Y66897476D01*
X46289245Y66945095D01*
X46098769Y66945095D01*
X46003530Y66897476D01*
X45955911Y66849857D01*
X45908292Y66754619D01*
X24133514Y36522399D02*
X23800180Y36998590D01*
X23562085Y36522399D02*
X23562085Y37522399D01*
X23943038Y37522399D01*
X24038276Y37474780D01*
X24085895Y37427161D01*
X24133514Y37331923D01*
X24133514Y37189066D01*
X24085895Y37093828D01*
X24038276Y37046209D01*
X23943038Y36998590D01*
X23562085Y36998590D01*
X24609704Y36522399D02*
X24800180Y36522399D01*
X24895419Y36570018D01*
X24943038Y36617637D01*
X25038276Y36760494D01*
X25085895Y36950970D01*
X25085895Y37331923D01*
X25038276Y37427161D01*
X24990657Y37474780D01*
X24895419Y37522399D01*
X24704942Y37522399D01*
X24609704Y37474780D01*
X24562085Y37427161D01*
X24514466Y37331923D01*
X24514466Y37093828D01*
X24562085Y36998590D01*
X24609704Y36950970D01*
X24704942Y36903351D01*
X24895419Y36903351D01*
X24990657Y36950970D01*
X25038276Y36998590D01*
X25085895Y37093828D01*
X33979883Y57025279D02*
X33646549Y57501470D01*
X33408454Y57025279D02*
X33408454Y58025279D01*
X33789407Y58025279D01*
X33884645Y57977660D01*
X33932264Y57930041D01*
X33979883Y57834803D01*
X33979883Y57691946D01*
X33932264Y57596708D01*
X33884645Y57549089D01*
X33789407Y57501470D01*
X33408454Y57501470D01*
X34932264Y57025279D02*
X34360835Y57025279D01*
X34646549Y57025279D02*
X34646549Y58025279D01*
X34551311Y57882422D01*
X34456073Y57787184D01*
X34360835Y57739565D01*
X35551311Y58025279D02*
X35646550Y58025279D01*
X35741788Y57977660D01*
X35789407Y57930041D01*
X35837026Y57834803D01*
X35884645Y57644327D01*
X35884645Y57406231D01*
X35837026Y57215755D01*
X35789407Y57120517D01*
X35741788Y57072898D01*
X35646550Y57025279D01*
X35551311Y57025279D01*
X35456073Y57072898D01*
X35408454Y57120517D01*
X35360835Y57215755D01*
X35313216Y57406231D01*
X35313216Y57644327D01*
X35360835Y57834803D01*
X35408454Y57930041D01*
X35456073Y57977660D01*
X35551311Y58025279D01*
X44152583Y41071539D02*
X43819249Y41547730D01*
X43581154Y41071539D02*
X43581154Y42071539D01*
X43962107Y42071539D01*
X44057345Y42023920D01*
X44104964Y41976301D01*
X44152583Y41881063D01*
X44152583Y41738206D01*
X44104964Y41642968D01*
X44057345Y41595349D01*
X43962107Y41547730D01*
X43581154Y41547730D01*
X45104964Y41071539D02*
X44533535Y41071539D01*
X44819249Y41071539D02*
X44819249Y42071539D01*
X44724011Y41928682D01*
X44628773Y41833444D01*
X44533535Y41785825D01*
X46057345Y41071539D02*
X45485916Y41071539D01*
X45771630Y41071539D02*
X45771630Y42071539D01*
X45676392Y41928682D01*
X45581154Y41833444D01*
X45485916Y41785825D01*
X12986783Y53111139D02*
X12653449Y53587330D01*
X12415354Y53111139D02*
X12415354Y54111139D01*
X12796307Y54111139D01*
X12891545Y54063520D01*
X12939164Y54015901D01*
X12986783Y53920663D01*
X12986783Y53777806D01*
X12939164Y53682568D01*
X12891545Y53634949D01*
X12796307Y53587330D01*
X12415354Y53587330D01*
X13939164Y53111139D02*
X13367735Y53111139D01*
X13653449Y53111139D02*
X13653449Y54111139D01*
X13558211Y53968282D01*
X13462973Y53873044D01*
X13367735Y53825425D01*
X14320116Y54015901D02*
X14367735Y54063520D01*
X14462973Y54111139D01*
X14701069Y54111139D01*
X14796307Y54063520D01*
X14843926Y54015901D01*
X14891545Y53920663D01*
X14891545Y53825425D01*
X14843926Y53682568D01*
X14272497Y53111139D01*
X14891545Y53111139D01*
X20126723Y32806379D02*
X19793389Y33282570D01*
X19555294Y32806379D02*
X19555294Y33806379D01*
X19936247Y33806379D01*
X20031485Y33758760D01*
X20079104Y33711141D01*
X20126723Y33615903D01*
X20126723Y33473046D01*
X20079104Y33377808D01*
X20031485Y33330189D01*
X19936247Y33282570D01*
X19555294Y33282570D01*
X21079104Y32806379D02*
X20507675Y32806379D01*
X20793389Y32806379D02*
X20793389Y33806379D01*
X20698151Y33663522D01*
X20602913Y33568284D01*
X20507675Y33520665D01*
X21412437Y33806379D02*
X22031485Y33806379D01*
X21698151Y33425427D01*
X21841009Y33425427D01*
X21936247Y33377808D01*
X21983866Y33330189D01*
X22031485Y33234950D01*
X22031485Y32996855D01*
X21983866Y32901617D01*
X21936247Y32853998D01*
X21841009Y32806379D01*
X21555294Y32806379D01*
X21460056Y32853998D01*
X21412437Y32901617D01*
X36908503Y60693039D02*
X36575169Y61169230D01*
X36337074Y60693039D02*
X36337074Y61693039D01*
X36718027Y61693039D01*
X36813265Y61645420D01*
X36860884Y61597801D01*
X36908503Y61502563D01*
X36908503Y61359706D01*
X36860884Y61264468D01*
X36813265Y61216849D01*
X36718027Y61169230D01*
X36337074Y61169230D01*
X37860884Y60693039D02*
X37289455Y60693039D01*
X37575169Y60693039D02*
X37575169Y61693039D01*
X37479931Y61550182D01*
X37384693Y61454944D01*
X37289455Y61407325D01*
X38718027Y61359706D02*
X38718027Y60693039D01*
X38479931Y61740658D02*
X38241836Y61026372D01*
X38860884Y61026372D01*
X49880781Y32694643D02*
X49404590Y32361309D01*
X49880781Y32123214D02*
X48880781Y32123214D01*
X48880781Y32504167D01*
X48928400Y32599405D01*
X48976019Y32647024D01*
X49071257Y32694643D01*
X49214114Y32694643D01*
X49309352Y32647024D01*
X49356971Y32599405D01*
X49404590Y32504167D01*
X49404590Y32123214D01*
X49880781Y33647024D02*
X49880781Y33075595D01*
X49880781Y33361309D02*
X48880781Y33361309D01*
X49023638Y33266071D01*
X49118876Y33170833D01*
X49166495Y33075595D01*
X48880781Y34551786D02*
X48880781Y34075595D01*
X49356971Y34027976D01*
X49309352Y34075595D01*
X49261733Y34170833D01*
X49261733Y34408929D01*
X49309352Y34504167D01*
X49356971Y34551786D01*
X49452210Y34599405D01*
X49690305Y34599405D01*
X49785543Y34551786D01*
X49833162Y34504167D01*
X49880781Y34408929D01*
X49880781Y34170833D01*
X49833162Y34075595D01*
X49785543Y34027976D01*
X9548121Y61010563D02*
X9071930Y60677229D01*
X9548121Y60439134D02*
X8548121Y60439134D01*
X8548121Y60820087D01*
X8595740Y60915325D01*
X8643359Y60962944D01*
X8738597Y61010563D01*
X8881454Y61010563D01*
X8976692Y60962944D01*
X9024311Y60915325D01*
X9071930Y60820087D01*
X9071930Y60439134D01*
X9548121Y61962944D02*
X9548121Y61391515D01*
X9548121Y61677229D02*
X8548121Y61677229D01*
X8690978Y61581991D01*
X8786216Y61486753D01*
X8833835Y61391515D01*
X8548121Y62820087D02*
X8548121Y62629610D01*
X8595740Y62534372D01*
X8643359Y62486753D01*
X8786216Y62391515D01*
X8976692Y62343896D01*
X9357645Y62343896D01*
X9452883Y62391515D01*
X9500502Y62439134D01*
X9548121Y62534372D01*
X9548121Y62724849D01*
X9500502Y62820087D01*
X9452883Y62867706D01*
X9357645Y62915325D01*
X9119550Y62915325D01*
X9024311Y62867706D01*
X8976692Y62820087D01*
X8929073Y62724849D01*
X8929073Y62534372D01*
X8976692Y62439134D01*
X9024311Y62391515D01*
X9119550Y62343896D01*
X50254161Y12095243D02*
X49777970Y11761909D01*
X50254161Y11523814D02*
X49254161Y11523814D01*
X49254161Y11904767D01*
X49301780Y12000005D01*
X49349399Y12047624D01*
X49444637Y12095243D01*
X49587494Y12095243D01*
X49682732Y12047624D01*
X49730351Y12000005D01*
X49777970Y11904767D01*
X49777970Y11523814D01*
X50254161Y13047624D02*
X50254161Y12476195D01*
X50254161Y12761909D02*
X49254161Y12761909D01*
X49397018Y12666671D01*
X49492256Y12571433D01*
X49539875Y12476195D01*
X49254161Y13380957D02*
X49254161Y14047624D01*
X50254161Y13619052D01*
X9532881Y80847963D02*
X9056690Y80514629D01*
X9532881Y80276534D02*
X8532881Y80276534D01*
X8532881Y80657487D01*
X8580500Y80752725D01*
X8628119Y80800344D01*
X8723357Y80847963D01*
X8866214Y80847963D01*
X8961452Y80800344D01*
X9009071Y80752725D01*
X9056690Y80657487D01*
X9056690Y80276534D01*
X9532881Y81800344D02*
X9532881Y81228915D01*
X9532881Y81514629D02*
X8532881Y81514629D01*
X8675738Y81419391D01*
X8770976Y81324153D01*
X8818595Y81228915D01*
X8961452Y82371772D02*
X8913833Y82276534D01*
X8866214Y82228915D01*
X8770976Y82181296D01*
X8723357Y82181296D01*
X8628119Y82228915D01*
X8580500Y82276534D01*
X8532881Y82371772D01*
X8532881Y82562249D01*
X8580500Y82657487D01*
X8628119Y82705106D01*
X8723357Y82752725D01*
X8770976Y82752725D01*
X8866214Y82705106D01*
X8913833Y82657487D01*
X8961452Y82562249D01*
X8961452Y82371772D01*
X9009071Y82276534D01*
X9056690Y82228915D01*
X9151929Y82181296D01*
X9342405Y82181296D01*
X9437643Y82228915D01*
X9485262Y82276534D01*
X9532881Y82371772D01*
X9532881Y82562249D01*
X9485262Y82657487D01*
X9437643Y82705106D01*
X9342405Y82752725D01*
X9151929Y82752725D01*
X9056690Y82705106D01*
X9009071Y82657487D01*
X8961452Y82562249D01*
X46416221Y32694643D02*
X45940030Y32361309D01*
X46416221Y32123214D02*
X45416221Y32123214D01*
X45416221Y32504167D01*
X45463840Y32599405D01*
X45511459Y32647024D01*
X45606697Y32694643D01*
X45749554Y32694643D01*
X45844792Y32647024D01*
X45892411Y32599405D01*
X45940030Y32504167D01*
X45940030Y32123214D01*
X46416221Y33647024D02*
X46416221Y33075595D01*
X46416221Y33361309D02*
X45416221Y33361309D01*
X45559078Y33266071D01*
X45654316Y33170833D01*
X45701935Y33075595D01*
X46416221Y34123214D02*
X46416221Y34313690D01*
X46368602Y34408929D01*
X46320983Y34456548D01*
X46178126Y34551786D01*
X45987650Y34599405D01*
X45606697Y34599405D01*
X45511459Y34551786D01*
X45463840Y34504167D01*
X45416221Y34408929D01*
X45416221Y34218452D01*
X45463840Y34123214D01*
X45511459Y34075595D01*
X45606697Y34027976D01*
X45844792Y34027976D01*
X45940030Y34075595D01*
X45987650Y34123214D01*
X46035269Y34218452D01*
X46035269Y34408929D01*
X45987650Y34504167D01*
X45940030Y34551786D01*
X45844792Y34599405D01*
X9852921Y26098263D02*
X9376730Y25764929D01*
X9852921Y25526834D02*
X8852921Y25526834D01*
X8852921Y25907787D01*
X8900540Y26003025D01*
X8948159Y26050644D01*
X9043397Y26098263D01*
X9186254Y26098263D01*
X9281492Y26050644D01*
X9329111Y26003025D01*
X9376730Y25907787D01*
X9376730Y25526834D01*
X8948159Y26479215D02*
X8900540Y26526834D01*
X8852921Y26622072D01*
X8852921Y26860168D01*
X8900540Y26955406D01*
X8948159Y27003025D01*
X9043397Y27050644D01*
X9138635Y27050644D01*
X9281492Y27003025D01*
X9852921Y26431596D01*
X9852921Y27050644D01*
X8852921Y27669691D02*
X8852921Y27764930D01*
X8900540Y27860168D01*
X8948159Y27907787D01*
X9043397Y27955406D01*
X9233873Y28003025D01*
X9471969Y28003025D01*
X9662445Y27955406D01*
X9757683Y27907787D01*
X9805302Y27860168D01*
X9852921Y27764930D01*
X9852921Y27669691D01*
X9805302Y27574453D01*
X9757683Y27526834D01*
X9662445Y27479215D01*
X9471969Y27431596D01*
X9233873Y27431596D01*
X9043397Y27479215D01*
X8948159Y27526834D01*
X8900540Y27574453D01*
X8852921Y27669691D01*
X13096501Y60944523D02*
X12620310Y60611189D01*
X13096501Y60373094D02*
X12096501Y60373094D01*
X12096501Y60754047D01*
X12144120Y60849285D01*
X12191739Y60896904D01*
X12286977Y60944523D01*
X12429834Y60944523D01*
X12525072Y60896904D01*
X12572691Y60849285D01*
X12620310Y60754047D01*
X12620310Y60373094D01*
X12191739Y61325475D02*
X12144120Y61373094D01*
X12096501Y61468332D01*
X12096501Y61706428D01*
X12144120Y61801666D01*
X12191739Y61849285D01*
X12286977Y61896904D01*
X12382215Y61896904D01*
X12525072Y61849285D01*
X13096501Y61277856D01*
X13096501Y61896904D01*
X13096501Y62849285D02*
X13096501Y62277856D01*
X13096501Y62563570D02*
X12096501Y62563570D01*
X12239358Y62468332D01*
X12334596Y62373094D01*
X12382215Y62277856D01*
X50056041Y65516523D02*
X49579850Y65183189D01*
X50056041Y64945094D02*
X49056041Y64945094D01*
X49056041Y65326047D01*
X49103660Y65421285D01*
X49151279Y65468904D01*
X49246517Y65516523D01*
X49389374Y65516523D01*
X49484612Y65468904D01*
X49532231Y65421285D01*
X49579850Y65326047D01*
X49579850Y64945094D01*
X49151279Y65897475D02*
X49103660Y65945094D01*
X49056041Y66040332D01*
X49056041Y66278428D01*
X49103660Y66373666D01*
X49151279Y66421285D01*
X49246517Y66468904D01*
X49341755Y66468904D01*
X49484612Y66421285D01*
X50056041Y65849856D01*
X50056041Y66468904D01*
X49151279Y66849856D02*
X49103660Y66897475D01*
X49056041Y66992713D01*
X49056041Y67230809D01*
X49103660Y67326047D01*
X49151279Y67373666D01*
X49246517Y67421285D01*
X49341755Y67421285D01*
X49484612Y67373666D01*
X50056041Y66802237D01*
X50056041Y67421285D01*
X46301921Y12130803D02*
X45825730Y11797469D01*
X46301921Y11559374D02*
X45301921Y11559374D01*
X45301921Y11940327D01*
X45349540Y12035565D01*
X45397159Y12083184D01*
X45492397Y12130803D01*
X45635254Y12130803D01*
X45730492Y12083184D01*
X45778111Y12035565D01*
X45825730Y11940327D01*
X45825730Y11559374D01*
X45397159Y12511755D02*
X45349540Y12559374D01*
X45301921Y12654612D01*
X45301921Y12892708D01*
X45349540Y12987946D01*
X45397159Y13035565D01*
X45492397Y13083184D01*
X45587635Y13083184D01*
X45730492Y13035565D01*
X46301921Y12464136D01*
X46301921Y13083184D01*
X45301921Y13416517D02*
X45301921Y14035565D01*
X45682873Y13702231D01*
X45682873Y13845089D01*
X45730492Y13940327D01*
X45778111Y13987946D01*
X45873350Y14035565D01*
X46111445Y14035565D01*
X46206683Y13987946D01*
X46254302Y13940327D01*
X46301921Y13845089D01*
X46301921Y13559374D01*
X46254302Y13464136D01*
X46206683Y13416517D01*
X13215881Y12057143D02*
X12739690Y11723809D01*
X13215881Y11485714D02*
X12215881Y11485714D01*
X12215881Y11866667D01*
X12263500Y11961905D01*
X12311119Y12009524D01*
X12406357Y12057143D01*
X12549214Y12057143D01*
X12644452Y12009524D01*
X12692071Y11961905D01*
X12739690Y11866667D01*
X12739690Y11485714D01*
X12311119Y12438095D02*
X12263500Y12485714D01*
X12215881Y12580952D01*
X12215881Y12819048D01*
X12263500Y12914286D01*
X12311119Y12961905D01*
X12406357Y13009524D01*
X12501595Y13009524D01*
X12644452Y12961905D01*
X13215881Y12390476D01*
X13215881Y13009524D01*
X12549214Y13866667D02*
X13215881Y13866667D01*
X12168262Y13628571D02*
X12882548Y13390476D01*
X12882548Y14009524D01*
X13063481Y80941943D02*
X12587290Y80608609D01*
X13063481Y80370514D02*
X12063481Y80370514D01*
X12063481Y80751467D01*
X12111100Y80846705D01*
X12158719Y80894324D01*
X12253957Y80941943D01*
X12396814Y80941943D01*
X12492052Y80894324D01*
X12539671Y80846705D01*
X12587290Y80751467D01*
X12587290Y80370514D01*
X12158719Y81322895D02*
X12111100Y81370514D01*
X12063481Y81465752D01*
X12063481Y81703848D01*
X12111100Y81799086D01*
X12158719Y81846705D01*
X12253957Y81894324D01*
X12349195Y81894324D01*
X12492052Y81846705D01*
X13063481Y81275276D01*
X13063481Y81894324D01*
X12063481Y82799086D02*
X12063481Y82322895D01*
X12539671Y82275276D01*
X12492052Y82322895D01*
X12444433Y82418133D01*
X12444433Y82656229D01*
X12492052Y82751467D01*
X12539671Y82799086D01*
X12634910Y82846705D01*
X12873005Y82846705D01*
X12968243Y82799086D01*
X13015862Y82751467D01*
X13063481Y82656229D01*
X13063481Y82418133D01*
X13015862Y82322895D01*
X12968243Y82275276D01*
X46524171Y78405753D02*
X46047980Y78072419D01*
X46524171Y77834324D02*
X45524171Y77834324D01*
X45524171Y78215277D01*
X45571790Y78310515D01*
X45619409Y78358134D01*
X45714647Y78405753D01*
X45857504Y78405753D01*
X45952742Y78358134D01*
X46000361Y78310515D01*
X46047980Y78215277D01*
X46047980Y77834324D01*
X45619409Y78786705D02*
X45571790Y78834324D01*
X45524171Y78929562D01*
X45524171Y79167658D01*
X45571790Y79262896D01*
X45619409Y79310515D01*
X45714647Y79358134D01*
X45809885Y79358134D01*
X45952742Y79310515D01*
X46524171Y78739086D01*
X46524171Y79358134D01*
X45524171Y80215277D02*
X45524171Y80024800D01*
X45571790Y79929562D01*
X45619409Y79881943D01*
X45762266Y79786705D01*
X45952742Y79739086D01*
X46333695Y79739086D01*
X46428933Y79786705D01*
X46476552Y79834324D01*
X46524171Y79929562D01*
X46524171Y80120039D01*
X46476552Y80215277D01*
X46428933Y80262896D01*
X46333695Y80310515D01*
X46095600Y80310515D01*
X46000361Y80262896D01*
X45952742Y80215277D01*
X45905123Y80120039D01*
X45905123Y79929562D01*
X45952742Y79834324D01*
X46000361Y79786705D01*
X46095600Y79739086D01*
X27810223Y11152879D02*
X27476889Y11629070D01*
X27238794Y11152879D02*
X27238794Y12152879D01*
X27619747Y12152879D01*
X27714985Y12105260D01*
X27762604Y12057641D01*
X27810223Y11962403D01*
X27810223Y11819546D01*
X27762604Y11724308D01*
X27714985Y11676689D01*
X27619747Y11629070D01*
X27238794Y11629070D01*
X28191175Y12057641D02*
X28238794Y12105260D01*
X28334032Y12152879D01*
X28572128Y12152879D01*
X28667366Y12105260D01*
X28714985Y12057641D01*
X28762604Y11962403D01*
X28762604Y11867165D01*
X28714985Y11724308D01*
X28143556Y11152879D01*
X28762604Y11152879D01*
X29095937Y12152879D02*
X29762604Y12152879D01*
X29334032Y11152879D01*
X30149563Y82069679D02*
X29816229Y82545870D01*
X29578134Y82069679D02*
X29578134Y83069679D01*
X29959087Y83069679D01*
X30054325Y83022060D01*
X30101944Y82974441D01*
X30149563Y82879203D01*
X30149563Y82736346D01*
X30101944Y82641108D01*
X30054325Y82593489D01*
X29959087Y82545870D01*
X29578134Y82545870D01*
X30530515Y82974441D02*
X30578134Y83022060D01*
X30673372Y83069679D01*
X30911468Y83069679D01*
X31006706Y83022060D01*
X31054325Y82974441D01*
X31101944Y82879203D01*
X31101944Y82783965D01*
X31054325Y82641108D01*
X30482896Y82069679D01*
X31101944Y82069679D01*
X31673372Y82641108D02*
X31578134Y82688727D01*
X31530515Y82736346D01*
X31482896Y82831584D01*
X31482896Y82879203D01*
X31530515Y82974441D01*
X31578134Y83022060D01*
X31673372Y83069679D01*
X31863849Y83069679D01*
X31959087Y83022060D01*
X32006706Y82974441D01*
X32054325Y82879203D01*
X32054325Y82831584D01*
X32006706Y82736346D01*
X31959087Y82688727D01*
X31863849Y82641108D01*
X31673372Y82641108D01*
X31578134Y82593489D01*
X31530515Y82545870D01*
X31482896Y82450631D01*
X31482896Y82260155D01*
X31530515Y82164917D01*
X31578134Y82117298D01*
X31673372Y82069679D01*
X31863849Y82069679D01*
X31959087Y82117298D01*
X32006706Y82164917D01*
X32054325Y82260155D01*
X32054325Y82450631D01*
X32006706Y82545870D01*
X31959087Y82593489D01*
X31863849Y82641108D01*
X27782283Y7660379D02*
X27448949Y8136570D01*
X27210854Y7660379D02*
X27210854Y8660379D01*
X27591807Y8660379D01*
X27687045Y8612760D01*
X27734664Y8565141D01*
X27782283Y8469903D01*
X27782283Y8327046D01*
X27734664Y8231808D01*
X27687045Y8184189D01*
X27591807Y8136570D01*
X27210854Y8136570D01*
X28163235Y8565141D02*
X28210854Y8612760D01*
X28306092Y8660379D01*
X28544188Y8660379D01*
X28639426Y8612760D01*
X28687045Y8565141D01*
X28734664Y8469903D01*
X28734664Y8374665D01*
X28687045Y8231808D01*
X28115616Y7660379D01*
X28734664Y7660379D01*
X29210854Y7660379D02*
X29401330Y7660379D01*
X29496569Y7707998D01*
X29544188Y7755617D01*
X29639426Y7898474D01*
X29687045Y8088950D01*
X29687045Y8469903D01*
X29639426Y8565141D01*
X29591807Y8612760D01*
X29496569Y8660379D01*
X29306092Y8660379D01*
X29210854Y8612760D01*
X29163235Y8565141D01*
X29115616Y8469903D01*
X29115616Y8231808D01*
X29163235Y8136570D01*
X29210854Y8088950D01*
X29306092Y8041331D01*
X29496569Y8041331D01*
X29591807Y8088950D01*
X29639426Y8136570D01*
X29687045Y8231808D01*
X30149563Y85645999D02*
X29816229Y86122190D01*
X29578134Y85645999D02*
X29578134Y86645999D01*
X29959087Y86645999D01*
X30054325Y86598380D01*
X30101944Y86550761D01*
X30149563Y86455523D01*
X30149563Y86312666D01*
X30101944Y86217428D01*
X30054325Y86169809D01*
X29959087Y86122190D01*
X29578134Y86122190D01*
X30482896Y86645999D02*
X31101944Y86645999D01*
X30768610Y86265047D01*
X30911468Y86265047D01*
X31006706Y86217428D01*
X31054325Y86169809D01*
X31101944Y86074570D01*
X31101944Y85836475D01*
X31054325Y85741237D01*
X31006706Y85693618D01*
X30911468Y85645999D01*
X30625753Y85645999D01*
X30530515Y85693618D01*
X30482896Y85741237D01*
X31720991Y86645999D02*
X31816230Y86645999D01*
X31911468Y86598380D01*
X31959087Y86550761D01*
X32006706Y86455523D01*
X32054325Y86265047D01*
X32054325Y86026951D01*
X32006706Y85836475D01*
X31959087Y85741237D01*
X31911468Y85693618D01*
X31816230Y85645999D01*
X31720991Y85645999D01*
X31625753Y85693618D01*
X31578134Y85741237D01*
X31530515Y85836475D01*
X31482896Y86026951D01*
X31482896Y86265047D01*
X31530515Y86455523D01*
X31578134Y86550761D01*
X31625753Y86598380D01*
X31720991Y86645999D01*
%LPC*%
D13*
X35438080Y28653740D03*
X34168080Y29923740D03*
D14*
X36708080Y29923740D03*
D15*
X21744940Y45067220D03*
X19244940Y45067220D03*
X37348160Y49578260D03*
X39848160Y49578260D03*
X41135300Y24264620D03*
X41135300Y21764620D03*
X17531080Y70383400D03*
X17531080Y72883400D03*
X28633420Y17780000D03*
X31133420Y17780000D03*
X28113990Y76711810D03*
X30613990Y76711810D03*
X36504880Y8923020D03*
X36504880Y11423020D03*
X23020020Y85539580D03*
X23020020Y83039580D03*
D16*
X10619740Y49293780D03*
X10619740Y46753780D03*
X10619740Y44213780D03*
X10619740Y40464740D03*
X10619740Y37924740D03*
X10619740Y35384740D03*
X47939960Y48120300D03*
X47939960Y50660300D03*
X47939960Y53200300D03*
D13*
X19331940Y23746460D03*
X18061940Y22476460D03*
D14*
X18061940Y25016460D03*
D13*
X39601140Y70954900D03*
X40871140Y72224900D03*
D14*
X40871140Y69684900D03*
D13*
X35471100Y35347640D03*
X36741100Y34077640D03*
D14*
X34201100Y34077640D03*
D13*
X23416260Y59573160D03*
X22146260Y60843160D03*
D14*
X24686260Y60843160D03*
D13*
X41105600Y35347640D03*
X42375600Y34077640D03*
D14*
X39835600Y34077640D03*
D13*
X17292320Y59568080D03*
X16022320Y60838080D03*
D14*
X18562320Y60838080D03*
D13*
X30840680Y31719520D03*
X29570680Y30449520D03*
D14*
X29570680Y32989520D03*
D13*
X27848560Y62974220D03*
X29118560Y64244220D03*
D14*
X29118560Y61704220D03*
D13*
X41107360Y28657640D03*
X39837360Y29927640D03*
D14*
X42377360Y29927640D03*
D13*
X17294860Y66281300D03*
X18564860Y65011300D03*
D14*
X16024860Y65011300D03*
D13*
X23403560Y66266060D03*
X24673560Y64996060D03*
D14*
X22133560Y64996060D03*
D13*
X46619160Y23827740D03*
X47889160Y22557740D03*
D14*
X45349160Y22557740D03*
D13*
X35448240Y23837900D03*
X36718240Y22567900D03*
D14*
X34178240Y22567900D03*
D13*
X29839920Y23827740D03*
X31109920Y22557740D03*
D14*
X28569920Y22557740D03*
D13*
X24226520Y23804880D03*
X25496520Y22534880D03*
D14*
X22956520Y22534880D03*
D13*
X11150600Y70744080D03*
X9880600Y72014080D03*
D14*
X12420600Y72014080D03*
D13*
X23401020Y70792340D03*
X22131020Y72062340D03*
D14*
X24671020Y72062340D03*
D13*
X29220160Y70772020D03*
X27950160Y72042020D03*
D14*
X30490160Y72042020D03*
D13*
X35003740Y70744080D03*
X33733740Y72014080D03*
D14*
X36273740Y72014080D03*
D13*
X35445600Y17437640D03*
X36715600Y16167640D03*
D14*
X34175600Y16167640D03*
D13*
X24239220Y17452340D03*
X25509220Y16182340D03*
D14*
X22969220Y16182340D03*
D13*
X23432770Y76945490D03*
X22162770Y78215490D03*
D14*
X24702770Y78215490D03*
D13*
X34954210Y77001370D03*
X33684210Y78271370D03*
D14*
X36224210Y78271370D03*
D13*
X41075600Y17437640D03*
X42345600Y16167640D03*
D14*
X39805600Y16167640D03*
D13*
X18557240Y17462500D03*
X19827240Y16192500D03*
D14*
X17287240Y16192500D03*
D13*
X17349470Y76889610D03*
X16079470Y78159610D03*
D14*
X18619470Y78159610D03*
D13*
X40587930Y76991210D03*
X39317930Y78261210D03*
D14*
X41857930Y78261210D03*
D13*
X41105600Y10707640D03*
X39835600Y11977640D03*
D14*
X42375600Y11977640D03*
D13*
X18557240Y10619740D03*
X17287240Y11889740D03*
D14*
X19827240Y11889740D03*
D13*
X17357090Y83773010D03*
X18627090Y82503010D03*
D14*
X16087090Y82503010D03*
D13*
X40587930Y83706970D03*
X41857930Y82436970D03*
D14*
X39317930Y82436970D03*
D15*
X19278600Y40464740D03*
D17*
X29438600Y40464740D03*
D15*
X39674800Y45214540D03*
D17*
X29514800Y45214540D03*
D15*
X39801800Y54002940D03*
D17*
X29641800Y54002940D03*
D15*
X19354800Y49735740D03*
D17*
X29514800Y49735740D03*
D15*
X25897840Y29636720D03*
D17*
X15737840Y29636720D03*
D15*
X12834620Y21607780D03*
D17*
X12834620Y31767780D03*
D15*
X32471360Y65001140D03*
D17*
X42631360Y65001140D03*
D15*
X46027340Y71239380D03*
D17*
X46027340Y61079380D03*
D15*
X29380180Y36974780D03*
D17*
X19220180Y36974780D03*
D15*
X29542740Y57477660D03*
D17*
X39702740Y57477660D03*
D15*
X49875440Y41523920D03*
D17*
X39715440Y41523920D03*
D15*
X8549640Y53563520D03*
D17*
X18709640Y53563520D03*
D15*
X25849580Y33258760D03*
D17*
X15689580Y33258760D03*
D15*
X32471360Y61145420D03*
D17*
X42631360Y61145420D03*
D15*
X49428400Y28257500D03*
D17*
X49428400Y38417500D03*
D15*
X9095740Y66733420D03*
D17*
X9095740Y56573420D03*
D15*
X49801780Y17818100D03*
D17*
X49801780Y7658100D03*
D15*
X9080500Y76410820D03*
D17*
X9080500Y86570820D03*
D15*
X45963840Y28257500D03*
D17*
X45963840Y38417500D03*
D15*
X9400540Y21661120D03*
D17*
X9400540Y31821120D03*
D15*
X12644120Y56507380D03*
D17*
X12644120Y66667380D03*
D15*
X49603660Y71239380D03*
D17*
X49603660Y61079380D03*
D15*
X45849540Y7693660D03*
D17*
X45849540Y17853660D03*
D15*
X12763500Y17780000D03*
D17*
X12763500Y7620000D03*
D15*
X12611100Y86664800D03*
D17*
X12611100Y76504800D03*
D15*
X46071790Y73968610D03*
D17*
X46071790Y84128610D03*
D15*
X23373080Y11605260D03*
D17*
X33533080Y11605260D03*
D15*
X35872420Y82522060D03*
D17*
X25712420Y82522060D03*
D15*
X23345140Y8112760D03*
D17*
X33505140Y8112760D03*
D15*
X35872420Y86098380D03*
D17*
X25712420Y86098380D03*
D18*
X55000000Y5000000D03*
X5000000Y5000000D03*
X5000000Y90000000D03*
X55000000Y90000000D03*
M02*
